<svg width="64" height="44" viewBox="0 0 64 44" fill="none" xmlns="http://www.w3.org/2000/svg">
<rect width="64" height="44" rx="6" fill="#231F20"/>
<path fill-rule="evenodd" clip-rule="evenodd" d="M31.5932 30.854C29.4157 32.6838 26.591 33.7883 23.5044 33.7883C16.6173 33.7883 11.0342 28.2889 11.0342 21.505C11.0342 14.7211 16.6173 9.22168 23.5044 9.22168C26.591 9.22168 29.4157 10.3263 31.5932 12.156C33.7708 10.3263 36.5954 9.22168 39.682 9.22168C46.5691 9.22168 52.1522 14.7211 52.1522 21.505C52.1522 28.2889 46.5691 33.7883 39.682 33.7883C36.5954 33.7883 33.7708 32.6838 31.5932 30.854Z" fill="#EB1D24"/>
<path fill-rule="evenodd" clip-rule="evenodd" d="M31.5928 30.8544C34.2743 28.6014 35.9746 25.2488 35.9746 21.505C35.9746 17.7612 34.2743 14.4086 31.5928 12.1557C33.7703 10.3261 36.5948 9.22168 39.6812 9.22168C46.5683 9.22168 52.1514 14.7211 52.1514 21.505C52.1514 28.2889 46.5683 33.7883 39.6812 33.7883C36.5948 33.7883 33.7703 32.6839 31.5928 30.8544Z" fill="#F79E1E"/>
<path fill-rule="evenodd" clip-rule="evenodd" d="M31.5933 30.8539C34.2745 28.601 35.9747 25.2485 35.9747 21.505C35.9747 17.7614 34.2745 14.409 31.5933 12.156C28.9121 14.409 27.2119 17.7614 27.2119 21.505C27.2119 25.2485 28.9121 28.601 31.5933 30.8539Z" fill="#F16022"/>
</svg>
