<svg width="63" height="44" viewBox="0 0 63 44" fill="none" xmlns="http://www.w3.org/2000/svg">
<rect width="63" height="44" rx="6" fill="#014397"/>
<path fill-rule="evenodd" clip-rule="evenodd" d="M19.4615 29.0734H15.7326L12.9364 17.9527C12.8037 17.4411 12.5219 16.9889 12.1074 16.7757C11.0729 16.2401 9.93301 15.8138 8.68945 15.5988V15.1706H14.6963C15.5254 15.1706 16.1471 15.8138 16.2508 16.5607L17.7016 24.5825L21.4286 15.1706H25.0538L19.4615 29.0734ZM27.1261 29.0736H23.6045L26.5043 15.1708H30.0259L27.1261 29.0736ZM34.5823 19.0221C34.6859 18.2733 35.3077 17.8452 36.0331 17.8452C37.173 17.7377 38.4147 17.9527 39.451 18.4865L40.0728 15.4931C39.0365 15.065 37.8966 14.85 36.8621 14.85C33.4442 14.85 30.9571 16.7757 30.9571 19.4484C30.9571 21.4817 32.7188 22.5493 33.9623 23.1924C35.3077 23.8337 35.8258 24.2619 35.7222 24.9032C35.7222 25.8651 34.6859 26.2932 33.6514 26.2932C32.4079 26.2932 31.1643 25.9726 30.0262 25.4369L29.4044 28.4321C30.648 28.9659 31.9934 29.1809 33.2369 29.1809C37.0694 29.2866 39.451 27.3627 39.451 24.475C39.451 20.8385 34.5823 20.6254 34.5823 19.0221ZM51.7759 29.0736L48.9797 15.1708H45.9763C45.3545 15.1708 44.7328 15.5989 44.5255 16.2402L39.3477 29.0736H42.9729L43.6965 27.0422H48.1507L48.5652 29.0736H51.7759ZM46.4942 18.9146L47.5287 24.1544H44.6289L46.4942 18.9146Z" fill="#E9EAEC"/>
</svg>
