<svg width="24" height="24" viewBox="0 0 24 24" fill="none" xmlns="http://www.w3.org/2000/svg">
<path d="M16 16.5L15.9178 16.9936C15.8499 17.4009 15.8159 17.6046 15.7621 17.7849C15.4771 18.7382 14.738 19.4883 13.789 19.7872C13.6095 19.8437 13.4063 19.8807 13 19.9545V19.9545M16 16.5L16.5 13.5L11.6857 14.3753C11.251 14.4544 10.8735 14.7215 10.6543 15.1051V15.1051C10.0136 16.2263 10.9989 17.578 12.2624 17.3113L14 16.9444L16 16.5ZM16 16.5L12.6296 17.2282C12.2307 17.3144 11.8907 17.5733 11.7016 17.9349L11.6236 18.0842C11.1251 19.0376 11.9416 20.147 13 19.9545V19.9545M13 19.9545L8.34963 20.8001C7.98428 20.8665 7.80161 20.8997 7.63122 20.9641C7.48 21.0213 7.33627 21.0966 7.20317 21.1884C7.05321 21.2918 6.92193 21.4231 6.65935 21.6857L5.34501 23" stroke="white" stroke-width="1.5" stroke-linecap="round" stroke-linejoin="round"/>
<path d="M1.43064 13.235L2.89337 10.6751C3.09261 10.3264 3.19223 10.1521 3.32096 10.0038C3.43519 9.87216 3.56612 9.75606 3.71044 9.6584C3.87308 9.54834 4.0581 9.4703 4.42814 9.31422L8.93305 7.41405C9.17354 7.31261 9.29378 7.2619 9.39466 7.24205C9.87336 7.14788 10.3501 7.41288 10.5229 7.86913C10.5593 7.96529 10.5797 8.09418 10.6205 8.35197V8.35197C10.6728 8.68199 10.6989 8.847 10.7001 8.99667C10.7054 9.69387 10.3473 10.3435 9.7549 10.7112C9.62773 10.7902 9.47425 10.8562 9.1673 10.9882L8.39854 11.3188C8.04847 11.4693 7.87343 11.5446 7.74496 11.6656C7.63141 11.7725 7.54445 11.9046 7.49105 12.0512C7.43063 12.217 7.43063 12.4075 7.43063 12.7886L7.43063 13.3604C7.43063 13.961 7.43063 14.2613 7.35046 14.5358C7.27946 14.779 7.16292 15.0064 7.00704 15.206C6.83102 15.4315 6.58727 15.6069 6.09979 15.9577L5.84571 16.1406" stroke="white" stroke-width="1.5" stroke-linecap="round" stroke-linejoin="round"/>
<path fill-rule="evenodd" clip-rule="evenodd" d="M17.7188 3.02706C18.3157 2.92285 18.9014 3.26181 19.1085 3.8313L21.4796 10.3527C21.7454 11.0837 21.2861 11.8774 20.5198 12.0112L7.63039 14.2612L6.89156 14.3902L7.1495 15.8678L7.88833 15.7389L20.7777 13.4889C22.4636 13.1946 23.4741 11.4485 22.8893 9.84013L20.5182 3.31875C20.0627 2.06586 18.7741 1.32015 17.4608 1.5494L6.22235 3.51123C4.53652 3.80552 3.52602 5.55163 4.11078 7.15995L4.23502 7.50167L4.70494 8.79411C4.84647 9.18339 5.27679 9.38423 5.66607 9.24269C6.05535 9.10115 6.25619 8.67084 6.11465 8.28156L5.64474 6.98912L5.52049 6.64739C5.25469 5.91634 5.71401 5.12265 6.4803 4.98889L17.7188 3.02706ZM15.5764 12.0969C15.6247 12.127 15.6798 12.1349 15.7415 12.1205L16.3387 11.9815C16.3948 11.9685 16.4379 11.9377 16.468 11.8894C16.4981 11.841 16.506 11.7859 16.4916 11.7242L16.3565 11.1439C16.7429 11.0007 17.0643 10.8195 17.3207 10.6003C17.5827 10.3797 17.7662 10.1271 17.8714 9.84253C17.9753 9.55234 17.9894 9.24463 17.9137 8.91938C17.8354 8.58292 17.6979 8.32231 17.5012 8.13754C17.3089 7.94586 17.0421 7.81581 16.7011 7.7474C16.36 7.67899 15.931 7.65173 15.4141 7.66564C15.0693 7.65721 14.7937 7.64154 14.5874 7.61862C14.3797 7.59009 14.2234 7.54075 14.1184 7.47061C14.0121 7.39485 13.9433 7.28968 13.912 7.1551C13.8637 6.94762 13.9091 6.77448 14.0483 6.6357C14.1874 6.49692 14.3944 6.39555 14.6691 6.3316C14.9271 6.27157 15.1532 6.27806 15.3476 6.35106C15.5406 6.41846 15.6681 6.52179 15.73 6.66106C15.7767 6.70931 15.8251 6.73943 15.8752 6.75142C15.9253 6.76341 15.9756 6.76353 16.026 6.75179L16.9765 6.53058C17.027 6.51884 17.0651 6.49223 17.091 6.45075C17.1155 6.40367 17.1225 6.35769 17.1121 6.31283C17.0595 6.11226 16.9383 5.92175 16.7485 5.74128C16.563 5.5539 16.3189 5.40677 16.0162 5.29987C15.7178 5.18607 15.368 5.14335 14.9667 5.17171L14.8277 4.5745C14.8133 4.51281 14.782 4.46691 14.7336 4.43679C14.6852 4.40667 14.633 4.39814 14.5769 4.41119L13.9797 4.55018C13.918 4.56453 13.8721 4.5959 13.842 4.64429C13.8119 4.69268 13.804 4.74772 13.8183 4.8094L13.9534 5.38979C13.4096 5.5932 13.0138 5.8863 12.7659 6.26911C12.5237 6.65061 12.4541 7.06286 12.5572 7.50587C12.6355 7.84233 12.7743 8.10855 12.9736 8.30453C13.1772 8.4936 13.4418 8.6271 13.7673 8.70504C14.0915 8.77737 14.4744 8.80946 14.9158 8.8013C15.2887 8.8032 15.5873 8.81646 15.8118 8.84107C16.0418 8.86438 16.215 8.9098 16.3312 8.97734C16.453 9.04357 16.5309 9.14959 16.5648 9.29538C16.6118 9.49726 16.5564 9.67861 16.3988 9.83944C16.2468 9.99896 15.9885 10.1211 15.624 10.206C15.3997 10.2582 15.2053 10.2738 15.0408 10.253C14.8751 10.2266 14.7369 10.1789 14.6263 10.1101C14.5213 10.0399 14.4381 9.96175 14.3766 9.87555C14.3326 9.83852 14.2876 9.81056 14.2418 9.79165C14.1948 9.76714 14.1348 9.76337 14.0619 9.78033L13.1618 9.98979C13.1114 10.0015 13.0711 10.0316 13.041 10.08C13.0151 10.1215 13.0075 10.1646 13.0179 10.2095C13.0878 10.4592 13.2225 10.6821 13.4218 10.8781C13.6211 11.0741 13.8826 11.2201 14.2065 11.3161C14.529 11.4066 14.9092 11.4275 15.3472 11.3788L15.4822 11.9592C15.4966 12.0208 15.528 12.0667 15.5764 12.0969Z" fill="white"/>
</svg>
