<svg width="24" height="24" viewBox="0 0 24 24" fill="none" xmlns="http://www.w3.org/2000/svg">
<path fill-rule="evenodd" clip-rule="evenodd" d="M15 9.24997C14.8619 9.24997 14.75 9.13805 14.75 8.99997V1.99997C14.75 1.92789 14.7792 1.87093 14.8143 1.83705C14.8457 1.80667 14.8775 1.79669 14.9148 1.80085C15.6841 1.88669 16.4391 2.08056 17.1571 2.37797C18.1581 2.79257 19.0676 3.40026 19.8336 4.16634C20.5997 4.93243 21.2074 5.8419 21.622 6.84283C21.9194 7.56084 22.1133 8.31583 22.1991 9.08519C22.2033 9.12247 22.1933 9.15427 22.1629 9.18572C22.129 9.22079 22.0721 9.24997 22 9.24997L15 9.24997ZM13.25 8.99997C13.25 9.96647 14.0335 10.75 15 10.75L22 10.75C22.941 10.75 23.807 9.96824 23.6899 8.91886C23.5884 8.00962 23.3593 7.11737 23.0078 6.26881C22.5178 5.08589 21.7997 4.01105 20.8943 3.10568C19.9889 2.20031 18.9141 1.48213 17.7312 0.992148C16.8826 0.640663 15.9904 0.411543 15.0811 0.310097C14.0317 0.193016 13.25 1.05898 13.25 1.99997V8.99997ZM10.0852 4.80084C10.1225 4.79668 10.1543 4.80666 10.1858 4.83705C10.2208 4.87093 10.25 4.92789 10.25 4.99997V12C10.25 12.9665 11.0335 13.75 12 13.75H19C19.0721 13.75 19.129 13.7792 19.1629 13.8142C19.1933 13.8457 19.2033 13.8775 19.1991 13.9148C19.0532 15.2228 18.5958 16.4817 17.8596 17.5834C16.9531 18.9401 15.6646 19.9976 14.1571 20.622C12.6497 21.2464 10.9909 21.4098 9.39051 21.0915C7.79017 20.7731 6.32016 19.9874 5.16637 18.8336C4.01259 17.6798 3.22685 16.2098 2.90853 14.6095C2.5902 13.0091 2.75358 11.3503 3.378 9.84284C4.00242 8.33535 5.05984 7.04687 6.41655 6.14035C7.51826 5.40421 8.77715 4.94678 10.0852 4.80084ZM11.75 4.99997C11.75 4.05897 10.9683 3.19301 9.91888 3.31009C8.37301 3.48257 6.88523 4.02315 5.58319 4.89315C3.97982 5.96449 2.73013 7.48723 1.99218 9.26881C1.25422 11.0504 1.06114 13.0108 1.43735 14.9021C1.81355 16.7934 2.74215 18.5307 4.10571 19.8943C5.46927 21.2578 7.20656 22.1864 9.09787 22.5626C10.9892 22.9388 12.9496 22.7458 14.7312 22.0078C16.5127 21.2698 18.0355 20.0202 19.1068 18.4168C19.9768 17.1147 20.5174 15.627 20.6899 14.0811C20.807 13.0317 19.941 12.25 19 12.25H12C11.8619 12.25 11.75 12.138 11.75 12V4.99997Z" fill="white"/>
</svg>
