<svg width="24" height="24" viewBox="0 0 24 24" fill="none" xmlns="http://www.w3.org/2000/svg">
<path fill-rule="evenodd" clip-rule="evenodd" d="M10.344 2.51774C11.6036 1.594 13.3112 1.92255 14.1788 3.09349L14.4909 2.87062C15.9419 1.8342 17.9803 2.43147 18.6426 4.08707L19.663 6.63802C20.8997 7.25094 21.75 8.5262 21.75 10.0001V11.8536C22.9043 12.18 23.75 13.2413 23.75 14.5001C23.75 15.7588 22.9043 16.8201 21.75 17.1465V18.0001C21.75 20.0711 20.0711 21.7501 18 21.7501H6C3.92893 21.7501 2.25 20.0711 2.25 18.0001V10.0001C2.25 8.23587 3.46825 6.75621 5.10938 6.35646L10.344 2.51774ZM9.75965 6.25006H7.79098L11.231 3.72735C11.7954 3.31351 12.5575 3.45263 12.9569 3.96631L9.75965 6.25006ZM17.2499 4.64415C16.9488 3.89161 16.0223 3.62012 15.3627 4.09122L12.3403 6.25006H17.8922L17.2499 4.64415ZM19 17.2501H20.25V18.0001C20.25 19.2427 19.2426 20.2501 18 20.2501H6C4.75736 20.2501 3.75 19.2427 3.75 18.0001V10.0001C3.75 8.75742 4.75736 7.75006 6 7.75006H18C19.2426 7.75006 20.25 8.75742 20.25 10.0001V11.7501H19C17.4812 11.7501 16.25 12.9813 16.25 14.5001C16.25 16.0188 17.4812 17.2501 19 17.2501ZM17.75 14.5001C17.75 13.8097 18.3096 13.2501 19 13.2501H21C21.6904 13.2501 22.25 13.8097 22.25 14.5001C22.25 15.1904 21.6904 15.7501 21 15.7501H19C18.3096 15.7501 17.75 15.1904 17.75 14.5001ZM9.46967 17.5304C9.61032 17.671 9.80109 17.7501 10 17.7501C10.1989 17.7501 10.3897 17.671 10.5303 17.5304L13.5303 14.5304C13.8232 14.2375 13.8232 13.7626 13.5303 13.4697C13.2374 13.1768 12.7626 13.1768 12.4697 13.4697L10.75 15.1894V11.0001C10.75 10.5858 10.4142 10.2501 10 10.2501C9.58579 10.2501 9.25 10.5858 9.25 11.0001V15.1894L7.53033 13.4697C7.23744 13.1768 6.76256 13.1768 6.46967 13.4697C6.17678 13.7626 6.17678 14.2375 6.46967 14.5304L9.46967 17.5304Z" fill="white"/>
</svg>
