<svg width="19" height="11" viewBox="0 0 19 11" fill="none" xmlns="http://www.w3.org/2000/svg">
<path d="M18.575 2.14984L10.175 10.5748C10.075 10.6748 9.96667 10.7458 9.85 10.7878C9.73333 10.8298 9.60833 10.8505 9.475 10.8498C9.34167 10.8498 9.21667 10.8288 9.1 10.7868C8.98333 10.7448 8.875 10.6742 8.775 10.5748L0.35 2.14984C0.116667 1.9165 0 1.62484 0 1.27484C0 0.924837 0.125 0.624838 0.375 0.374838C0.625 0.124838 0.916667 -0.000162125 1.25 -0.000162125C1.58333 -0.000162125 1.875 0.124838 2.125 0.374838L9.475 7.72484L16.825 0.374838C17.0583 0.141505 17.346 0.0248375 17.688 0.0248375C18.03 0.0248375 18.3257 0.149837 18.575 0.399837C18.825 0.649837 18.95 0.941504 18.95 1.27484C18.95 1.60817 18.825 1.89984 18.575 2.14984Z" fill="#040F23" fill-opacity="0.5"/>
</svg>
