<svg width="328" height="311" viewBox="0 0 328 311" fill="none" xmlns="http://www.w3.org/2000/svg">
<g clip-path="url(#clip0_38_542)">
<rect width="328" height="311" rx="20" fill="#000B18"/>
<g opacity="0.8" filter="url(#filter0_f_38_542)">
<ellipse cx="314.5" cy="221" rx="119.5" ry="140" fill="#6482FF" fill-opacity="0.5"/>
</g>
<g opacity="0.8" filter="url(#filter1_f_38_542)">
<ellipse cx="75.5" cy="35" rx="119.5" ry="79" fill="#3130E7" fill-opacity="0.5"/>
</g>
<g opacity="0.2" clip-path="url(#clip1_38_542)">
<path d="M1383.22 -181.159C1338.94 -179.95 1295.89 -166.357 1255.67 -148.563C1236.15 -139.918 1216.91 -130.421 1198.18 -120.172C1180.3 -110.393 1163.34 -99.1953 1145.82 -88.8333C1127.28 -77.8878 1109.39 -65.9332 1091.16 -54.5087C1074.14 -43.8553 1056.83 -33.6995 1039.7 -23.2521C1001.3 0.140449 959.992 20.7151 917.524 35.639C875.802 50.2939 832.737 56.2137 788.607 54.285C743.608 52.331 699.184 43.8045 655.758 32.0427C564.924 7.45496 478.329 -29.7154 389.819 -61.2328C306.967 -90.7483 221.467 -117.119 132.561 -115.744C121.36 -115.563 110.165 -114.94 99.0155 -113.772" stroke="url(#paint0_radial_38_542)" stroke-opacity="0.1" stroke-width="3.27711" stroke-miterlimit="10" stroke-linecap="round"/>
<path d="M1417.73 -102.46C1374.84 -105.692 1332.26 -92.5657 1292.55 -78.0163C1272.35 -70.6265 1252.13 -62.776 1233.26 -52.379C1215.52 -42.6073 1197.33 -33.4655 1179.21 -24.3631C1161.79 -15.616 1143.85 -7.99113 1126.33 0.478435C1106.91 9.87855 1087.55 18.6215 1067.07 25.6195C1025.47 39.8438 983.462 51.8254 939.123 52.3125C934.775 52.3637 930.464 52.0775 926.129 52.022C920.786 51.9663 915.304 52.979 909.954 53.4542C898.741 54.4314 887.492 55.057 876.247 55.3994C854.18 56.0973 832.077 55.7532 810.06 54.6979C785.703 53.5178 761.413 51.2733 737.213 48.3874C714.028 45.6252 690.981 41.7949 667.888 38.0906C655.709 36.1479 643.539 34.0454 631.401 31.8706C625.671 30.845 619.957 29.7832 614.225 28.7223C608.743 27.7014 603.313 27.6684 597.826 26.8776C573.789 23.3996 549.852 17.4236 526.09 12.4283C479.692 2.67905 433.02 -6.93264 386.027 -13.2025C361.88 -16.4271 337.742 -21.1724 313.508 -24.3748C291.108 -27.3374 268.867 -30.6442 246.355 -32.7168C199.659 -37.0218 152.603 -38.4258 105.776 -35.1381C94.7998 -34.3679 83.8561 -33.3339 72.948 -31.9482" stroke="url(#paint1_radial_38_542)" stroke-opacity="0.1" stroke-width="3.27711" stroke-miterlimit="10" stroke-linecap="round"/>
<path d="M1461.4 -28.3638C1443.51 -32.6945 1423.05 -30.6661 1405.02 -28.5531C1381.95 -25.8572 1359.57 -19.9802 1337.1 -14.434C1326.07 -11.7157 1315.01 -8.74807 1304.41 -4.67277C1296.74 -1.7246 1289.53 1.94247 1281.69 4.49338C1272.92 7.3402 1264.56 11.0858 1255.86 14.0885C1246.48 17.3213 1236.72 19.6021 1227.32 22.9063C1219.51 25.6503 1211.53 27.8551 1203.65 30.4079C1195.53 33.0441 1187.72 36.4424 1179.46 38.7853C1157.7 44.9488 1135.1 49.3167 1112.77 52.8396C1090.47 56.3616 1067.86 57.8127 1045.28 56.9104C1036.46 56.5599 1027.09 53.9221 1018.46 55.2766C1006.96 57.1002 995.418 58.6074 983.851 59.9215C882.756 71.29 780.835 67.9367 679.502 62.3072C673.207 61.9655 666.818 61.1866 660.534 61.3924C654.549 61.5826 648.838 61.9181 642.843 61.5607C629.325 60.7315 615.822 59.8485 602.316 58.8949C576.564 57.0983 550.807 55.1959 525.06 53.1515C498.603 51.056 472.15 49.0134 445.67 47.1489C420.45 45.3775 395.288 44.6991 370.053 43.3175C343.24 41.8419 316.408 40.7032 289.566 40.0248C280.695 39.8006 271.877 38.5483 262.982 38.2015C249.641 37.699 236.291 37.3561 222.948 37.1719C172.57 36.4727 122.088 37.8652 71.9028 42.5314C60.3414 43.5977 48.7906 44.8577 37.269 46.3462" stroke="url(#paint2_radial_38_542)" stroke-opacity="0.1" stroke-width="3.27711" stroke-miterlimit="10" stroke-linecap="round"/>
<path d="M1508.95 43.4969C1502.09 40.4265 1493.33 40.5679 1485.99 40.3161C1473.52 39.9093 1460.98 40.0366 1448.52 40.8669C1423.53 42.5314 1398.37 46.5045 1373.83 51.4693C1364.89 53.2822 1356.66 56.437 1347.98 58.8374C1340.12 61.018 1332.13 62.7804 1324.27 64.8552C1314.34 67.4624 1304.44 70.2282 1294.54 72.9755C1286.54 75.1988 1278.33 76.7608 1270.37 79.088C1261.46 81.6953 1252.96 84.8997 1243.78 86.8137C1232.3 89.2015 1220.55 90.579 1209.15 92.4499C1184.61 96.4959 1160.14 98.3622 1135.28 97.9691C1126.77 97.8321 1118.65 96.8433 1110.27 95.8154C1105.52 95.2336 1100.01 96.7778 1095.2 97.4193C1089.26 98.208 1083.33 98.9616 1077.39 99.6445C1051.46 102.684 1025.46 104.915 999.424 106.705C972.854 108.524 946.247 109.955 919.632 110.927C905.655 111.448 891.689 111.844 877.717 112.135C864.523 112.421 850.542 113.879 837.426 112.268C824.397 110.653 810.558 112.104 797.423 112.157C783.51 112.214 769.592 112.202 755.673 112.136C741.947 112.061 728.219 111.932 714.488 111.751C701.801 111.585 689.216 112.688 676.526 112.47C622.492 111.52 568.476 109.898 514.453 108.488C487.113 107.765 459.759 107.113 432.396 106.621C419.422 106.382 406.555 107.5 393.584 107.314C379.923 107.129 366.265 106.978 352.592 106.9C338.742 106.813 324.878 106.798 311.036 106.852C297.67 106.899 283.684 108.269 270.407 106.968C257.183 105.663 243.668 106.566 230.385 106.839C216.396 107.131 202.429 107.51 188.451 108.014C136.315 109.882 84.2034 113.235 32.3285 118.732C20.6872 119.962 9.05268 121.315 -2.57566 122.792" stroke="url(#paint3_radial_38_542)" stroke-opacity="0.1" stroke-width="3.27711" stroke-miterlimit="10" stroke-linecap="round"/>
<path d="M1556.51 115.356C1548.92 113.048 1539.92 113.627 1532.12 113.647C1520.01 113.663 1507.86 113.982 1495.77 114.705C1468.04 116.354 1440.43 119.924 1413 124.104C1403.35 125.565 1393.26 126.837 1383.97 129.941C1375.28 132.837 1366.37 133.942 1357.44 135.949C1340.17 139.843 1323.59 145.698 1306.52 150.29C1298.96 152.331 1291.15 153.448 1283.85 156.342C1274.69 159.97 1265.34 162.441 1255.69 164.485C1243.46 167.089 1231.05 168.713 1218.88 171.279C1204.36 174.357 1189.77 177.05 1175.11 179.251C1154.18 182.401 1133.15 183.734 1112.01 184.631C1100.39 185.135 1088.72 186.843 1077.12 187.805C1063.51 188.926 1049.89 189.906 1036.27 190.779C980.577 194.337 924.779 196.185 868.981 197.008C809.914 197.879 750.84 196.24 691.719 196.07C676.845 196.019 662.054 196.547 647.169 196.267C632.017 195.965 616.864 195.629 601.709 195.275C572.461 194.581 543.227 193.816 513.991 193.016C483.977 192.203 453.946 191.426 423.923 190.773C395.245 190.156 366.622 190.579 337.939 190.21C223.508 188.715 109.14 188.756 -5.1268 196.465C-17.5318 197.293 -29.9144 198.208 -42.3102 199.212" stroke="url(#paint4_radial_38_542)" stroke-opacity="0.1" stroke-width="3.27711" stroke-miterlimit="10" stroke-linecap="round"/>
<path d="M1600.2 189.452C1578.36 188.211 1555.77 190.598 1534.04 192.392C1505.85 194.719 1477.82 198.277 1449.73 201.413C1436 202.946 1422.25 204.534 1408.58 206.542C1399.13 207.922 1390.04 210.397 1380.74 212.105C1360.5 215.801 1340.03 218.413 1319.74 221.971C1277.13 229.44 1235.14 239.565 1192 243.879C1163.56 246.715 1135.31 251.451 1106.8 254.166C1086.39 256.121 1065.89 256.577 1045.45 258.038C927.251 266.573 808.719 267.452 690.273 267.618C628.654 267.703 567.061 267.946 505.424 267.36C475.19 267.071 444.942 266.855 414.714 266.69C383.39 266.53 352.088 267.147 320.771 267.11C200.187 266.981 79.6219 268.213 -40.8013 275.185C-53.2119 275.907 -65.6027 276.663 -78.0078 277.491" stroke="url(#paint5_radial_38_542)" stroke-opacity="0.1" stroke-width="3.27711" stroke-miterlimit="10" stroke-linecap="round"/>
<path d="M1634.69 268.151C1580.76 270.68 1527.02 275.621 1473.28 280.668C1446.43 283.191 1419.5 285.099 1392.7 288.361C1373.97 290.634 1355.27 293.154 1336.46 295.308C1313.33 297.954 1290.17 300.389 1267.03 302.823C1247.97 304.813 1229 307.363 1209.95 309.3C1181.04 312.249 1152.04 314.938 1122.98 315.773C1092.04 316.653 1061.1 316.684 1030.17 317.193C1018.05 317.387 1005.89 317.601 993.779 317.228C990.679 317.126 987.544 316.706 984.447 316.657C978.907 316.558 973.111 317.64 967.568 318.143C938.09 320.821 908.572 323.059 879.044 325.121C818.579 329.336 757.942 334.657 697.352 336.156C631.235 337.803 565.11 339.291 498.98 340.338C434.809 341.335 370.568 341.646 306.438 343.755C244.356 345.792 182.242 346.557 120.169 348.788C57.7083 351.021 -4.70961 353.73 -67.1041 357.233C-79.4098 357.932 -91.7153 358.648 -104.019 359.382" stroke="url(#paint6_radial_38_542)" stroke-opacity="0.1" stroke-width="3.27711" stroke-miterlimit="10" stroke-linecap="round"/>
<path d="M256.848 1044.04C254.008 1000.7 240.132 961.01 219.282 923.202C198.841 886.133 175.038 850.691 150.541 816.187C137.94 798.44 126.785 779.61 116.84 760.257C112.192 751.2 108.147 741.863 103.482 732.825C98.3646 722.908 93.5053 712.854 89.0263 702.639C80.8919 684.092 71.6542 666.081 63.8308 647.395C55.5445 627.636 47.8306 607.67 40.6544 587.5C33.043 566.114 26.0096 543.956 21.7098 521.654C17.6827 500.841 14.1494 479.666 13.1925 458.391C11.25 414.958 24.4367 370.715 38.9479 330.151C53.9837 288.126 73.4418 248.151 93.3293 208.277C102.417 190.047 111.404 171.61 119.495 152.919C127.996 133.288 135.381 113.29 142.674 93.2096C171.958 12.6858 191.186 -71.7835 192.319 -157.709C192.467 -168.715 192.367 -179.727 192.09 -190.728" stroke="url(#paint7_radial_38_542)" stroke-opacity="0.1" stroke-width="3.27711" stroke-miterlimit="10" stroke-linecap="round"/>
<path d="M335.474 1009.53C334.024 989.626 330.736 969.765 324.122 950.891C317.548 932.086 307.173 914.629 296.242 898.051C290.153 888.839 283.603 879.935 276.986 871.105C270.996 863.091 266.282 855.133 260.036 847.309C246.731 830.643 233.27 814.038 220.627 796.859C208.633 780.566 198.451 763.772 190.456 745.183C186.528 736.035 184.245 726.57 181.222 717.145C178.134 707.493 174.479 698.155 172.05 688.256C167.215 668.564 161.088 649.17 156.776 629.326C152.368 609.011 148.098 588.635 144.566 568.149C137.555 527.547 134.199 484.807 138.623 443.746C140.855 422.923 147.591 402.677 154.173 382.863C160.74 363.103 168.267 343.788 176.567 324.698C192.693 287.621 211.988 251.95 231.581 216.583C250.917 181.707 266.048 145.53 275.221 106.696C284.497 67.4492 287.961 26.6333 286.047 -13.5646C285.577 -23.5305 285.694 -33.4382 285.401 -43.3958C285.081 -53.8824 283.638 -64.204 282.613 -74.6359C280.691 -94.0919 277.59 -113.416 275.773 -132.895C274.793 -143.471 274.097 -154.061 273.876 -164.677" stroke="url(#paint8_radial_38_542)" stroke-opacity="0.1" stroke-width="3.27711" stroke-miterlimit="10" stroke-linecap="round"/>
<path d="M409.538 965.863C408.305 947.078 405.615 928.158 398.957 910.454C392.729 893.876 382.354 878.789 371.512 864.911C347.287 833.912 318.799 806.901 293.101 777.146C280.921 763.038 268.859 747.509 262.432 729.828C258.961 720.284 256.4 710.552 255.462 700.433C254.505 690.281 252.059 680.383 251.4 670.18C250.768 660.488 251.219 650.881 250.162 641.193C249.139 631.804 248.746 622.276 248.639 612.839C248.509 602.272 249.159 591.752 248.924 581.19C248.682 570.859 248.953 560.518 249.172 550.197C250.037 509.376 254.486 467.784 265.039 428.276C267.758 418.089 272.74 408.245 276.918 398.565C281.067 388.994 285.325 379.486 289.709 370.026C298.27 351.541 307.506 333.445 317.049 315.474C334.509 282.588 354.819 251.445 373.646 219.336C392.879 186.534 409.308 152.181 413.51 113.961C415.607 94.9485 415.011 75.5115 411.6 56.6641C410.85 52.4773 409.599 48.5118 408.465 44.4335C407.291 40.2513 407.059 35.8428 406.27 31.5873C404.478 22.0267 400.101 13.7691 397.235 4.63621C394.433 -4.28789 391.019 -13.0916 388.041 -21.9888C384.687 -31.998 379.938 -41.2973 375.719 -50.9252C368.647 -67.0873 360.847 -82.9462 356.375 -100.111C353.918 -109.531 352.421 -119.213 352.104 -128.957" stroke="url(#paint9_radial_38_542)" stroke-opacity="0.1" stroke-width="3.27711" stroke-miterlimit="10" stroke-linecap="round"/>
<path d="M481.276 918.369C480.345 900.63 478.335 882.54 471.647 865.951C465.062 849.621 453.144 835.482 441.113 822.869C413.663 794.089 380.978 771.013 353.996 741.714C340.964 727.562 330.87 712.443 327.18 693.345C325.314 683.718 325.647 674.895 326.322 665.187C326.961 656.136 326.922 647.314 328.912 638.386C329.958 633.716 331.383 629.202 332.305 624.521C333.31 619.411 333.711 614.263 334.52 609.11C336.004 599.643 338.163 590.246 340.81 581.036C346.207 562.24 350.045 543.047 355.368 524.183C360.828 504.888 366.657 485.556 372.996 466.516C379.366 447.385 386.183 427.666 396.282 410.178C416.383 375.403 437.29 341.134 458.743 307.173C479.004 275.095 502.627 245.404 522.683 213.125C541.826 182.326 556.368 146.392 553.353 109.488C552.631 100.773 550.427 91.8 547.399 83.6304C544.332 75.3744 540.98 66.7615 536.188 59.3387C533.957 55.9016 531.363 52.9788 529.629 49.2503C527.835 45.3836 525.798 41.6184 523.385 38.1024C521.086 34.7219 518.48 31.5695 515.639 28.6418C512.107 25.0254 509.003 21.4572 505.708 17.6338C500.042 11.0702 494.663 4.27943 488.962 -2.26461C482.357 -9.85754 474.915 -16.5579 467.94 -23.7778C455.807 -36.3147 442.69 -48.0393 435.024 -64.0641C431.25 -71.9647 428.944 -80.5266 428.432 -89.2879" stroke="url(#paint10_radial_38_542)" stroke-opacity="0.1" stroke-width="3.27711" stroke-miterlimit="10" stroke-linecap="round"/>
<path d="M172.998 1060.85C168.298 971.251 120.178 889.571 72.6994 816.062C23.7573 740.279 -31.4889 667.69 -71.0545 586.269C-90.301 546.68 -105.633 504.534 -110.608 460.588C-115.613 416.415 -108.871 372.014 -96.313 329.607C-70.6364 243.013 -23.9389 164.105 17.6682 84.5615C61.0095 1.67345 112.196 -97.8415 106.905 -198.708C206.96 -203.956 305.759 -153.581 389.337 -109.905C469.133 -68.2047 548.246 -21.3229 635.076 4.46508C677.503 17.0749 721.975 23.8131 766.184 18.8061C810.48 13.777 852.933 -1.74759 892.795 -21.2029C974.398 -61.0079 1047.17 -116.476 1123.23 -165.503C1196.28 -212.605 1277.5 -260.117 1366.46 -264.784C1371.74 -164.094 1432.84 -70.6464 1484.85 7.59341C1534.55 82.3645 1589.25 155.954 1623.84 239.368C1640.78 280.21 1652.12 323.68 1651.76 368.135C1651.41 412.359 1640.56 455.879 1625.58 497.264C1594.75 582.378 1547.42 660.348 1506.66 740.837C1467.13 818.91 1427.82 905.194 1432.52 994.774C1343.56 999.441 1257.81 960.67 1180.24 921.489C1099.46 880.689 1021.29 833.139 935.967 802.091C894.272 786.914 850.443 775.916 805.864 775.549C761.357 775.196 717.853 786.567 676.977 803.53C593.321 838.261 519.548 893.146 444.554 942.984C366.963 994.549 273.494 1055.58 172.998 1060.85Z" stroke="url(#paint11_radial_38_542)" stroke-opacity="0.1" stroke-width="3.27711" stroke-miterlimit="10" stroke-linecap="round"/>
</g>
<rect x="52" y="85" width="226" height="175" rx="10" fill="url(#paint12_radial_38_542)"/>
<rect x="52" y="85" width="226" height="175" rx="10" fill="url(#paint13_radial_38_542)"/>
<path opacity="0.6" d="M53 97.5C53 91.0563 57.725 86 63.3568 86H266.643C272.275 86 277 91.0563 277 97.5V247.5C277 253.944 272.275 259 266.643 259H63.3568C57.725 259 53 253.944 53 247.5V97.5Z" stroke="white" stroke-width="2"/>
<path d="M54.2715 110.543H275.729" stroke="white" stroke-opacity="0.6" stroke-width="2"/>
<ellipse cx="71.8745" cy="97.7715" rx="3.97487" ry="3.88693" fill="white"/>
<ellipse cx="84.367" cy="97.7715" rx="3.97487" ry="3.88693" fill="white"/>
<ellipse cx="96.8594" cy="97.7715" rx="3.97487" ry="3.88693" fill="white"/>
<path d="M97 229.803L235 229.803" stroke="url(#paint14_radial_38_542)" stroke-opacity="0.3" stroke-width="2"/>
<path d="M97 175.508C97 171.135 100.545 167.59 104.918 167.59C109.291 167.59 112.836 171.135 112.836 175.508V228.672H97V175.508Z" fill="url(#paint15_linear_38_542)" fill-opacity="0.3"/>
<path d="M117.361 161.934C117.361 157.561 120.906 154.016 125.279 154.016C129.652 154.016 133.197 157.561 133.197 161.934V228.672H117.361V161.934Z" fill="url(#paint16_linear_38_542)" fill-opacity="0.3"/>
<path d="M137.721 175.508C137.721 171.135 141.266 167.59 145.639 167.59C150.012 167.59 153.557 171.135 153.557 175.508V228.672H137.721V175.508Z" fill="url(#paint17_linear_38_542)" fill-opacity="0.3"/>
<path d="M158.082 152.885C158.082 148.512 161.627 144.967 166 144.967C170.373 144.967 173.918 148.512 173.918 152.885V228.672H158.082V152.885Z" fill="url(#paint18_linear_38_542)" fill-opacity="0.3"/>
<path d="M178.443 135.918C178.443 131.545 181.988 128 186.361 128C190.734 128 194.279 131.545 194.279 135.918V228.672H178.443V135.918Z" fill="url(#paint19_linear_38_542)" fill-opacity="0.3"/>
<path d="M198.803 161.934C198.803 157.561 202.348 154.016 206.721 154.016C211.094 154.016 214.639 157.561 214.639 161.934V228.672H198.803V161.934Z" fill="url(#paint20_linear_38_542)" fill-opacity="0.3"/>
<path d="M219.164 142.705C219.164 138.332 222.709 134.787 227.082 134.787C231.455 134.787 235 138.332 235 142.705V228.672H219.164V142.705Z" fill="url(#paint21_linear_38_542)" fill-opacity="0.3"/>
</g>
<defs>
<filter id="filter0_f_38_542" x="-55" y="-169" width="739" height="780" filterUnits="userSpaceOnUse" color-interpolation-filters="sRGB">
<feFlood flood-opacity="0" result="BackgroundImageFix"/>
<feBlend mode="normal" in="SourceGraphic" in2="BackgroundImageFix" result="shape"/>
<feGaussianBlur stdDeviation="125" result="effect1_foregroundBlur_38_542"/>
</filter>
<filter id="filter1_f_38_542" x="-294" y="-294" width="739" height="658" filterUnits="userSpaceOnUse" color-interpolation-filters="sRGB">
<feFlood flood-opacity="0" result="BackgroundImageFix"/>
<feBlend mode="normal" in="SourceGraphic" in2="BackgroundImageFix" result="shape"/>
<feGaussianBlur stdDeviation="125" result="effect1_foregroundBlur_38_542"/>
</filter>
<radialGradient id="paint0_radial_38_542" cx="0" cy="0" r="1" gradientUnits="userSpaceOnUse" gradientTransform="translate(746.494 -45.0178) rotate(86.997) scale(103.062 642.987)">
<stop stop-color="white"/>
<stop offset="1" stop-color="white" stop-opacity="0"/>
</radialGradient>
<radialGradient id="paint1_radial_38_542" cx="0" cy="0" r="1" gradientUnits="userSpaceOnUse" gradientTransform="translate(748.696 -3.22583) rotate(86.997) scale(65.661 673.315)">
<stop stop-color="white"/>
<stop offset="1" stop-color="white" stop-opacity="0"/>
</radialGradient>
<radialGradient id="paint2_radial_38_542" cx="0" cy="0" r="1" gradientUnits="userSpaceOnUse" gradientTransform="translate(750.936 39.4902) rotate(86.997) scale(34.5967 713.046)">
<stop stop-color="white"/>
<stop offset="1" stop-color="white" stop-opacity="0"/>
</radialGradient>
<radialGradient id="paint3_radial_38_542" cx="0" cy="0" r="1" gradientUnits="userSpaceOnUse" gradientTransform="translate(753.999 98.5924) rotate(86.997) scale(21.2953 756.803)">
<stop stop-color="white"/>
<stop offset="1" stop-color="white" stop-opacity="0"/>
</radialGradient>
<radialGradient id="paint4_radial_38_542" cx="0" cy="0" r="1" gradientUnits="userSpaceOnUse" gradientTransform="translate(758.262 179.463) rotate(86.997) scale(26.0469 800.507)">
<stop stop-color="white"/>
<stop offset="1" stop-color="white" stop-opacity="0"/>
</radialGradient>
<radialGradient id="paint5_radial_38_542" cx="0" cy="0" r="1" gradientUnits="userSpaceOnUse" gradientTransform="translate(762.105 252.731) rotate(86.997) scale(20.7032 840.256)">
<stop stop-color="white"/>
<stop offset="1" stop-color="white" stop-opacity="0"/>
</radialGradient>
<radialGradient id="paint6_radial_38_542" cx="0" cy="0" r="1" gradientUnits="userSpaceOnUse" gradientTransform="translate(765.875 324.097) rotate(86.997) scale(10.5983 870.548)">
<stop stop-color="white"/>
<stop offset="1" stop-color="white" stop-opacity="0"/>
</radialGradient>
<radialGradient id="paint7_radial_38_542" cx="0" cy="0" r="1" gradientUnits="userSpaceOnUse" gradientTransform="translate(118.291 432.224) rotate(86.997) scale(618.231 106.333)">
<stop stop-color="white"/>
<stop offset="1" stop-color="white" stop-opacity="0"/>
</radialGradient>
<radialGradient id="paint8_radial_38_542" cx="0" cy="0" r="1" gradientUnits="userSpaceOnUse" gradientTransform="translate(221.623 426.784) rotate(86.997) scale(587.911 88.359)">
<stop stop-color="white"/>
<stop offset="1" stop-color="white" stop-opacity="0"/>
</radialGradient>
<radialGradient id="paint9_radial_38_542" cx="0" cy="0" r="1" gradientUnits="userSpaceOnUse" gradientTransform="translate(335.252 420.844) rotate(86.997) scale(548.163 96.8792)">
<stop stop-color="white"/>
<stop offset="1" stop-color="white" stop-opacity="0"/>
</radialGradient>
<radialGradient id="paint10_radial_38_542" cx="0" cy="0" r="1" gradientUnits="userSpaceOnUse" gradientTransform="translate(440.662 415.285) rotate(86.997) scale(504.521 128.607)">
<stop stop-color="white"/>
<stop offset="1" stop-color="white" stop-opacity="0"/>
</radialGradient>
<radialGradient id="paint11_radial_38_542" cx="0" cy="0" r="1" gradientUnits="userSpaceOnUse" gradientTransform="translate(769.721 398.033) rotate(86.997) scale(630.645 882.867)">
<stop stop-color="white"/>
<stop offset="1" stop-color="white" stop-opacity="0"/>
</radialGradient>
<radialGradient id="paint12_radial_38_542" cx="0" cy="0" r="1" gradientUnits="userSpaceOnUse" gradientTransform="translate(-21.2512 211.801) rotate(-22.8175) scale(147.235 304.085)">
<stop stop-color="#3B5DE9"/>
<stop offset="1" stop-color="#3B5DE9" stop-opacity="0"/>
</radialGradient>
<radialGradient id="paint13_radial_38_542" cx="0" cy="0" r="1" gradientUnits="userSpaceOnUse" gradientTransform="translate(271.5 91.5) rotate(142.335) scale(764.2 738.722)">
<stop stop-color="#A9BAFF"/>
<stop offset="0.161458" stop-color="#3F64FF" stop-opacity="0.72"/>
<stop offset="0.838542" stop-color="#486CFF" stop-opacity="0.17441"/>
<stop offset="1" stop-color="#5879FF" stop-opacity="0"/>
</radialGradient>
<radialGradient id="paint14_radial_38_542" cx="0" cy="0" r="1" gradientUnits="userSpaceOnUse" gradientTransform="translate(166 230.303) rotate(90) scale(0.5 69)">
<stop stop-color="white"/>
<stop offset="1" stop-color="white" stop-opacity="0"/>
</radialGradient>
<linearGradient id="paint15_linear_38_542" x1="104.918" y1="167.59" x2="104.918" y2="228.672" gradientUnits="userSpaceOnUse">
<stop stop-color="white"/>
<stop offset="1" stop-color="white" stop-opacity="0"/>
</linearGradient>
<linearGradient id="paint16_linear_38_542" x1="125.279" y1="154.016" x2="125" y2="205.5" gradientUnits="userSpaceOnUse">
<stop stop-color="white"/>
<stop offset="1" stop-color="white" stop-opacity="0"/>
</linearGradient>
<linearGradient id="paint17_linear_38_542" x1="145.639" y1="167.59" x2="145.639" y2="228.672" gradientUnits="userSpaceOnUse">
<stop stop-color="white"/>
<stop offset="1" stop-color="white" stop-opacity="0"/>
</linearGradient>
<linearGradient id="paint18_linear_38_542" x1="166" y1="144.967" x2="166" y2="228.672" gradientUnits="userSpaceOnUse">
<stop stop-color="white"/>
<stop offset="0.791119" stop-color="white" stop-opacity="0"/>
</linearGradient>
<linearGradient id="paint19_linear_38_542" x1="186.361" y1="128" x2="186.361" y2="228.672" gradientUnits="userSpaceOnUse">
<stop stop-color="white"/>
<stop offset="1" stop-color="white" stop-opacity="0"/>
</linearGradient>
<linearGradient id="paint20_linear_38_542" x1="206.721" y1="154.016" x2="206.721" y2="228.672" gradientUnits="userSpaceOnUse">
<stop stop-color="white"/>
<stop offset="0.593601" stop-color="white" stop-opacity="0"/>
</linearGradient>
<linearGradient id="paint21_linear_38_542" x1="227.082" y1="134.787" x2="227.082" y2="228.672" gradientUnits="userSpaceOnUse">
<stop stop-color="white"/>
<stop offset="1" stop-color="white" stop-opacity="0"/>
</linearGradient>
<clipPath id="clip0_38_542">
<rect width="328" height="311" rx="20" fill="white"/>
</clipPath>
<clipPath id="clip1_38_542">
<rect width="1765.82" height="1261.29" fill="white" transform="translate(-145 -185.493) rotate(-3.00298)"/>
</clipPath>
</defs>
</svg>
