<svg width="35" height="35" viewBox="0 0 35 35" fill="none" xmlns="http://www.w3.org/2000/svg">
<path d="M35 17.5C35 27.165 27.165 35 17.5 35C7.83502 35 0 27.165 0 17.5C0 7.83502 7.83502 0 17.5 0C27.165 0 35 7.83502 35 17.5Z" fill="url(#paint0_linear_113_1034)"/>
<path d="M14.7 22.75V34.65C14.7 34.8433 14.8567 35 15.05 35H19.95C20.1433 35 20.3 34.8433 20.3 34.65V22.75C20.3 22.5567 20.4567 22.4 20.65 22.4H24.15C24.3433 22.4 24.5 22.2433 24.5 22.05V17.85C24.5 17.6567 24.3433 17.5 24.15 17.5H20.65C20.4567 17.5 20.3 17.3435 20.3 17.1502V14C20.3 12.6 22.05 11.9 22.75 11.9H24.85C25.0433 11.9 25.2 11.7433 25.2 11.55V7.35C25.2 7.1567 25.0434 7 24.85 7H20.3C16.94 7 14.7 10.5 14.7 12.6V17.15C14.7 17.3433 14.5433 17.5 14.35 17.5H10.85C10.6567 17.5 10.5 17.6567 10.5 17.85V22.05C10.5 22.2433 10.6567 22.4 10.85 22.4H14.35C14.5433 22.4 14.7 22.5567 14.7 22.75Z" fill="white"/>
<defs>
<linearGradient id="paint0_linear_113_1034" x1="29.9918" y1="45.5" x2="9.72869" y2="44.3156" gradientUnits="userSpaceOnUse">
<stop stop-color="#224DFF"/>
<stop offset="0.177083" stop-color="#1844FB"/>
<stop offset="0.833333" stop-color="#244FFF"/>
<stop offset="1" stop-color="#0132FC"/>
<stop offset="1" stop-color="#0032FF"/>
</linearGradient>
</defs>
</svg>
