<svg width="390" height="472" viewBox="0 0 390 472" fill="none" xmlns="http://www.w3.org/2000/svg">
<rect y="145" width="278" height="327" rx="30" fill="url(#paint0_radial_38_357)"/>
<rect x="112" width="278" height="327" rx="30" fill="url(#paint1_radial_38_357)"/>
<rect x="2" y="147" width="274" height="323" rx="28" stroke="url(#paint2_linear_38_357)" stroke-opacity="0.6" stroke-width="4"/>
<circle cx="32" cy="174" r="6" fill="white"/>
<circle cx="51" cy="174" r="6" fill="white"/>
<circle cx="70" cy="174" r="6" fill="white"/>
<rect x="114" y="2" width="274" height="326" rx="28" stroke="url(#paint3_linear_38_357)" stroke-opacity="0.6" stroke-width="4"/>
<path d="M67.7407 361.353C45.0887 364.823 36.5264 408.219 35.1909 415.856C35.0846 416.464 35.5612 416.993 36.1784 416.985L238.012 414.483C238.56 414.476 239 414.03 239 413.483V291.059C239 290.092 237.751 289.655 237.156 290.417C230.362 299.114 205.907 328.624 182.333 334.794C165.678 339.154 154.175 328.212 138.259 334.794C119.565 342.525 124.206 370.697 104.259 374C89.3748 376.465 82.6537 359.069 67.7407 361.353Z" fill="url(#paint4_radial_38_357)" fill-opacity="0.54"/>
<path d="M35.6834 415.942C36.349 412.136 38.8158 399.421 43.9331 387.235C46.492 381.142 49.7036 375.206 53.6659 370.584C57.6274 365.964 62.3108 362.69 67.8164 361.847C75.0488 360.739 80.2979 364.384 85.7254 368.155L85.7314 368.159C91.1137 371.899 96.6751 375.763 104.341 374.493C114.611 372.792 118.529 364.653 122.188 356.257C122.353 355.877 122.519 355.496 122.684 355.115C126.202 347.005 129.735 338.86 138.45 335.256C146.26 332.026 152.985 333.086 159.922 334.451C160.342 334.534 160.762 334.618 161.184 334.702C167.719 336.004 174.515 337.357 182.46 335.278C194.372 332.16 206.454 323.168 216.378 313.919C226.314 304.658 234.145 295.084 237.55 290.725C237.847 290.344 238.5 290.559 238.5 291.059V413.483C238.5 413.757 238.28 413.979 238.006 413.983L36.1722 416.485C35.8488 416.489 35.6343 416.223 35.6834 415.942Z" stroke="url(#paint5_linear_38_357)" stroke-opacity="0.4" stroke-linecap="round"/>
<rect opacity="0.37" x="35" y="273" width="121" height="10" rx="5" fill="url(#paint6_linear_38_357)"/>
<rect opacity="0.37" x="35" y="297" width="91" height="10" rx="5" fill="url(#paint7_linear_38_357)"/>
<rect opacity="0.37" x="35" y="249" width="145" height="10" rx="5" fill="url(#paint8_linear_38_357)"/>
<rect x="177" y="38" width="151" height="62" rx="10" fill="url(#paint9_radial_38_357)" fill-opacity="0.48"/>
<rect x="177.5" y="38.5" width="150" height="61" rx="9.5" stroke="url(#paint10_linear_38_357)" stroke-opacity="0.4"/>
<defs>
<radialGradient id="paint0_radial_38_357" cx="0" cy="0" r="1" gradientUnits="userSpaceOnUse" gradientTransform="translate(-143 587) rotate(-53.2202) scale(445.101 1166.95)">
<stop stop-color="#3B5DE9"/>
<stop offset="1" stop-color="#3B5DE9" stop-opacity="0"/>
</radialGradient>
<radialGradient id="paint1_radial_38_357" cx="0" cy="0" r="1" gradientUnits="userSpaceOnUse" gradientTransform="translate(461.5 -289) rotate(115.731) scale(445.696 1168.51)">
<stop stop-color="#3B5DE9"/>
<stop offset="1" stop-color="#3B5DE9" stop-opacity="0"/>
</radialGradient>
<linearGradient id="paint2_linear_38_357" x1="139" y1="145" x2="139" y2="472" gradientUnits="userSpaceOnUse">
<stop stop-color="white"/>
<stop offset="1" stop-color="white" stop-opacity="0"/>
</linearGradient>
<linearGradient id="paint3_linear_38_357" x1="379.5" y1="9.58717" x2="172.614" y2="216.092" gradientUnits="userSpaceOnUse">
<stop stop-color="white"/>
<stop offset="1" stop-color="white" stop-opacity="0"/>
</linearGradient>
<radialGradient id="paint4_radial_38_357" cx="0" cy="0" r="1" gradientUnits="userSpaceOnUse" gradientTransform="translate(138.397 353.384) rotate(147.853) scale(533.036 480.29)">
<stop stop-color="#A9BAFF"/>
<stop offset="0.161458" stop-color="#3F64FF" stop-opacity="0.72"/>
<stop offset="0.838542" stop-color="#486CFF" stop-opacity="0.17441"/>
<stop offset="1" stop-color="#5879FF" stop-opacity="0"/>
</radialGradient>
<linearGradient id="paint5_linear_38_357" x1="137" y1="288" x2="137" y2="417" gradientUnits="userSpaceOnUse">
<stop stop-color="#7C96FF"/>
<stop offset="1" stop-color="white" stop-opacity="0"/>
</linearGradient>
<linearGradient id="paint6_linear_38_357" x1="35" y1="278" x2="156" y2="278" gradientUnits="userSpaceOnUse">
<stop stop-color="#7C96FF"/>
<stop offset="1" stop-color="white" stop-opacity="0"/>
</linearGradient>
<linearGradient id="paint7_linear_38_357" x1="35" y1="302" x2="126" y2="302" gradientUnits="userSpaceOnUse">
<stop stop-color="#7C96FF"/>
<stop offset="1" stop-color="white" stop-opacity="0"/>
</linearGradient>
<linearGradient id="paint8_linear_38_357" x1="35" y1="254" x2="180" y2="254" gradientUnits="userSpaceOnUse">
<stop stop-color="#7C96FF"/>
<stop offset="1" stop-color="white" stop-opacity="0"/>
</linearGradient>
<radialGradient id="paint9_radial_38_357" cx="0" cy="0" r="1" gradientUnits="userSpaceOnUse" gradientTransform="translate(253 48.5) rotate(155.364) scale(431.806 302.104)">
<stop stop-color="#A9BAFF"/>
<stop offset="0.161458" stop-color="#3F64FF" stop-opacity="0.72"/>
<stop offset="0.838542" stop-color="#486CFF" stop-opacity="0.17441"/>
<stop offset="1" stop-color="#5879FF" stop-opacity="0"/>
</radialGradient>
<linearGradient id="paint10_linear_38_357" x1="252.5" y1="38" x2="252.5" y2="100" gradientUnits="userSpaceOnUse">
<stop stop-color="#7C96FF"/>
<stop offset="1" stop-opacity="0"/>
<stop offset="1" stop-color="white" stop-opacity="0"/>
</linearGradient>
</defs>
</svg>
