<svg width="35" height="35" viewBox="0 0 35 35" fill="none" xmlns="http://www.w3.org/2000/svg">
<rect x="3" y="4" width="29" height="27" fill="white"/>
<path d="M25.5769 0H9.42308C6.92474 0.00267249 4.5295 0.996317 2.76291 2.76291C0.996317 4.5295 0.00267249 6.92474 0 9.42308V25.5769C0.00267249 28.0753 0.996317 30.4705 2.76291 32.2371C4.5295 34.0037 6.92474 34.9973 9.42308 35H25.5769C28.0753 34.9973 30.4705 34.0037 32.2371 32.2371C34.0037 30.4705 34.9973 28.0753 35 25.5769V9.42308C34.9973 6.92474 34.0037 4.5295 32.2371 2.76291C30.4705 0.996317 28.0753 0.00267249 25.5769 0ZM17.5 25.5769C15.9025 25.5769 14.3409 25.1032 13.0127 24.2157C11.6845 23.3282 10.6492 22.0668 10.0379 20.5909C9.42657 19.115 9.26662 17.491 9.57827 15.9243C9.88992 14.3575 10.6592 12.9183 11.7888 11.7888C12.9183 10.6592 14.3575 9.88992 15.9243 9.57827C17.491 9.26662 19.115 9.42657 20.5909 10.0379C22.0668 10.6492 23.3282 11.6845 24.2157 13.0127C25.1032 14.3409 25.5769 15.9025 25.5769 17.5C25.5747 19.6414 24.723 21.6946 23.2088 23.2088C21.6946 24.723 19.6414 25.5747 17.5 25.5769ZM27.5962 9.42308C27.1968 9.42308 26.8064 9.30465 26.4743 9.08278C26.1423 8.8609 25.8835 8.54554 25.7306 8.17657C25.5778 7.80761 25.5378 7.40161 25.6157 7.00991C25.6936 6.61822 25.8859 6.25843 26.1683 5.97603C26.4507 5.69364 26.8105 5.50133 27.2022 5.42341C27.5939 5.3455 27.9999 5.38549 28.3689 5.53832C28.7378 5.69115 29.0532 5.94996 29.2751 6.28202C29.497 6.61408 29.6154 7.00448 29.6154 7.40385C29.6154 7.93938 29.4026 8.45298 29.024 8.83166C28.6453 9.21034 28.1317 9.42308 27.5962 9.42308ZM22.8846 17.5C22.8846 18.565 22.5688 19.606 21.9771 20.4915C21.3855 21.377 20.5445 22.0672 19.5606 22.4747C18.5767 22.8823 17.494 22.9889 16.4495 22.7812C15.405 22.5734 14.4456 22.0605 13.6925 21.3075C12.9395 20.5544 12.4266 19.595 12.2188 18.5505C12.0111 17.506 12.1177 16.4233 12.5253 15.4394C12.9328 14.4555 13.623 13.6145 14.5085 13.0229C15.394 12.4312 16.435 12.1154 17.5 12.1154C18.9281 12.1154 20.2977 12.6827 21.3075 13.6925C22.3173 14.7023 22.8846 16.0719 22.8846 17.5Z" fill="url(#paint0_linear_113_1035)"/>
<defs>
<linearGradient id="paint0_linear_113_1035" x1="2" y1="35" x2="-4.55209" y2="17.8295" gradientUnits="userSpaceOnUse">
<stop stop-color="#224DFF"/>
<stop offset="0.177083" stop-color="#1844FB"/>
<stop offset="0.833333" stop-color="#244FFF"/>
<stop offset="1" stop-color="#0132FC"/>
<stop offset="1" stop-color="#0032FF"/>
</linearGradient>
</defs>
</svg>
