<svg width="1512" height="877" viewBox="0 0 1512 877" fill="none" xmlns="http://www.w3.org/2000/svg">
<g clip-path="url(#clip0_17_16)">
<rect width="1513" height="877" transform="translate(-1)" fill="#000B18"/>
<g opacity="0.8" filter="url(#filter0_f_17_16)">
<ellipse cx="368.5" cy="550" rx="248.5" ry="199" fill="#3130E7" fill-opacity="0.47"/>
</g>
<g opacity="0.8" filter="url(#filter1_f_17_16)">
<ellipse cx="1435.5" cy="609" rx="248.5" ry="292" fill="#6482FF" fill-opacity="0.5"/>
</g>
<g opacity="0.2" clip-path="url(#clip1_17_16)">
<path d="M1383.22 -290.849C1338.94 -288.907 1295.89 -267.084 1255.67 -238.516C1236.15 -224.636 1216.91 -209.389 1198.18 -192.935C1180.3 -177.235 1163.34 -159.257 1145.82 -142.621C1127.28 -125.048 1109.39 -105.855 1091.16 -87.5128C1074.14 -70.4088 1056.83 -54.1037 1039.7 -37.3305C1001.3 0.225924 959.992 33.2583 917.524 57.2184C875.802 80.7467 832.737 90.2509 788.607 87.1544C743.609 84.0174 699.185 70.328 655.758 51.4447C564.924 11.9693 478.329 -47.7074 389.819 -98.3083C306.967 -145.695 221.468 -188.033 132.562 -185.825C121.36 -185.535 110.165 -184.535 99.0156 -182.659" stroke="url(#paint0_radial_17_16)" stroke-opacity="0.1" stroke-width="3.27711" stroke-miterlimit="10" stroke-linecap="round"/>
<path d="M1417.73 -164.498C1374.84 -169.686 1332.26 -148.613 1292.55 -125.254C1272.35 -113.39 1252.13 -100.786 1233.26 -84.0935C1215.52 -68.4052 1197.33 -53.7282 1179.21 -39.1143C1161.79 -25.071 1143.85 -12.8293 1126.33 0.768548C1106.91 15.8603 1087.55 29.8971 1067.07 41.1323C1025.47 63.9692 983.463 83.2056 939.123 83.9876C934.776 84.0698 930.464 83.6103 926.129 83.5211C920.786 83.4318 915.305 85.0576 909.954 85.8205C898.742 87.3894 887.493 88.3939 876.247 88.9436C854.181 90.064 832.078 89.5116 810.061 87.8173C785.703 85.9227 761.413 82.3192 737.213 77.6859C714.028 73.2511 690.982 67.1017 667.889 61.1545C655.71 58.0355 643.539 54.6599 631.401 51.1684C625.671 49.5218 619.957 47.817 614.225 46.1138C608.743 44.4748 603.314 44.4217 597.826 43.1521C573.79 37.5683 549.852 27.9739 526.09 19.9539C479.693 4.30162 433.02 -11.1299 386.027 -21.1961C361.88 -26.3732 337.742 -33.9917 313.508 -39.133C291.108 -43.8894 268.867 -49.1985 246.355 -52.526C199.659 -59.4377 152.603 -61.6918 105.776 -56.4135C94.7999 -55.1768 83.8562 -53.5167 72.9481 -51.2921" stroke="url(#paint1_radial_17_16)" stroke-opacity="0.1" stroke-width="3.27711" stroke-miterlimit="10" stroke-linecap="round"/>
<path d="M1461.4 -45.5373C1443.51 -52.4903 1423.05 -49.2336 1405.02 -45.8412C1381.95 -41.513 1359.57 -32.0775 1337.1 -23.1732C1326.07 -18.809 1315.01 -14.0445 1304.41 -7.50162C1296.74 -2.76837 1289.53 3.11908 1281.69 7.21454C1272.92 11.7851 1264.56 17.7986 1255.86 22.6194C1246.48 27.8097 1236.72 31.4714 1227.32 36.7763C1219.51 41.1817 1211.53 44.7215 1203.65 48.82C1195.53 53.0525 1187.72 58.5084 1179.46 62.2699C1157.7 72.1653 1135.1 79.1779 1112.77 84.8339C1090.47 90.4885 1067.86 92.8181 1045.28 91.3695C1036.46 90.8069 1027.09 86.5719 1018.46 88.7464C1006.96 91.6742 995.418 94.0941 983.852 96.2038C882.756 114.456 780.835 109.072 679.503 100.034C673.207 99.4854 666.818 98.2348 660.534 98.5654C654.55 98.8707 648.838 99.4094 642.843 98.8355C629.326 97.5042 615.822 96.0866 602.316 94.5556C576.564 91.6712 550.807 88.6169 525.06 85.3347C498.604 81.9704 472.15 78.6909 445.67 75.6976C420.45 72.8536 395.288 71.7645 370.053 69.5463C343.24 67.1772 316.408 65.3491 289.566 64.2599C280.696 63.8999 271.877 61.8894 262.982 61.3326C249.641 60.5258 236.291 59.9752 222.948 59.6795C172.57 58.5571 122.089 60.7926 71.9029 68.2842C60.3415 69.996 48.7907 72.019 37.2691 74.4088" stroke="url(#paint2_radial_17_16)" stroke-opacity="0.1" stroke-width="3.27711" stroke-miterlimit="10" stroke-linecap="round"/>
<path d="M1508.95 69.8345C1502.09 64.905 1493.33 65.1321 1485.99 64.7277C1473.52 64.0746 1460.98 64.279 1448.52 65.6121C1423.53 68.2843 1398.37 74.6631 1373.84 82.634C1364.89 85.5446 1356.66 90.6097 1347.98 94.4636C1340.12 97.9645 1332.13 100.794 1324.27 104.125C1314.34 108.311 1304.44 112.751 1294.54 117.162C1286.54 120.732 1278.33 123.239 1270.37 126.976C1261.46 131.162 1252.96 136.306 1243.78 139.379C1232.3 143.213 1220.55 145.424 1209.15 148.428C1184.61 154.924 1160.14 157.92 1135.28 157.289C1126.77 157.069 1118.65 155.482 1110.27 153.831C1105.52 152.897 1100.01 155.376 1095.2 156.406C1089.27 157.673 1083.33 158.882 1077.39 159.979C1051.46 164.859 1025.47 168.441 999.424 171.315C972.855 174.234 946.247 176.532 919.633 178.092C905.656 178.929 891.689 179.566 877.718 180.033C864.524 180.491 850.543 182.832 837.426 180.246C824.398 177.653 810.558 179.982 797.423 180.067C783.51 180.16 769.593 180.14 755.673 180.035C741.948 179.913 728.22 179.707 714.489 179.415C701.802 179.15 689.216 180.92 676.526 180.569C622.492 179.045 568.476 176.44 514.453 174.177C487.113 173.016 459.759 171.97 432.396 171.18C419.423 170.796 406.555 172.59 393.584 172.292C379.923 171.995 366.265 171.753 352.592 171.627C338.742 171.488 324.878 171.464 311.036 171.551C297.67 171.626 283.685 173.826 270.408 171.736C257.183 169.642 243.669 171.092 230.386 171.529C216.396 171.998 202.429 172.607 188.451 173.416C136.315 176.416 84.2035 181.798 32.3286 190.624C20.6874 192.598 9.0528 194.771 -2.57554 197.141" stroke="url(#paint3_radial_17_16)" stroke-opacity="0.1" stroke-width="3.27711" stroke-miterlimit="10" stroke-linecap="round"/>
<path d="M1556.51 185.203C1548.92 181.498 1539.92 182.427 1532.12 182.459C1520.01 182.485 1507.86 182.998 1495.77 184.158C1468.04 186.806 1440.43 192.537 1413 199.248C1403.35 201.594 1393.26 203.635 1383.97 208.62C1375.28 213.27 1366.37 215.043 1357.44 218.265C1340.17 224.517 1323.59 233.918 1306.52 241.289C1298.96 244.566 1291.15 246.36 1283.85 251.005C1274.69 256.83 1265.34 260.797 1255.69 264.08C1243.47 268.261 1231.05 270.868 1218.88 274.987C1204.36 279.929 1189.77 284.252 1175.11 287.787C1154.18 292.843 1133.15 294.984 1112.01 296.423C1100.39 297.232 1088.72 299.974 1077.12 301.519C1063.51 303.319 1049.89 304.892 1036.27 306.295C980.577 312.007 924.779 314.974 868.981 316.295C809.915 317.693 750.84 315.061 691.719 314.789C676.845 314.707 662.055 315.554 647.169 315.105C632.017 314.621 616.864 314.081 601.709 313.512C572.461 312.398 543.227 311.17 513.991 309.885C483.977 308.581 453.947 307.333 423.923 306.285C395.245 305.293 366.622 305.973 337.939 305.38C223.508 302.981 109.14 303.046 -5.12667 315.424C-17.5317 316.752 -29.9142 318.222 -42.31 319.833" stroke="url(#paint4_radial_17_16)" stroke-opacity="0.1" stroke-width="3.27711" stroke-miterlimit="10" stroke-linecap="round"/>
<path d="M1600.2 304.164C1578.36 302.171 1555.77 306.004 1534.04 308.884C1505.85 312.621 1477.82 318.332 1449.73 323.366C1436 325.829 1422.25 328.378 1408.58 331.602C1399.13 333.818 1390.04 337.79 1380.74 340.532C1360.5 346.467 1340.03 350.661 1319.74 356.373C1277.13 368.365 1235.14 384.62 1192.01 391.546C1163.56 396.099 1135.31 403.703 1106.8 408.062C1086.39 411.201 1065.89 411.933 1045.45 414.279C927.252 427.981 808.719 429.392 690.273 429.659C628.654 429.796 567.061 430.184 505.424 429.244C475.19 428.781 444.942 428.433 414.714 428.169C383.39 427.911 352.089 428.902 320.771 428.842C200.188 428.636 79.622 430.614 -40.8012 441.807C-53.2118 442.966 -65.6026 444.181 -78.0077 445.509" stroke="url(#paint5_radial_17_16)" stroke-opacity="0.1" stroke-width="3.27711" stroke-miterlimit="10" stroke-linecap="round"/>
<path d="M1634.69 430.515C1580.76 434.574 1527.02 442.507 1473.28 450.61C1446.43 454.66 1419.5 457.723 1392.7 462.961C1373.97 466.611 1355.27 470.656 1336.46 474.114C1313.33 478.362 1290.17 482.271 1267.03 486.179C1247.97 489.375 1229 493.469 1209.95 496.578C1181.04 501.313 1152.04 505.629 1122.98 506.97C1092.05 508.383 1061.1 508.433 1030.17 509.25C1018.05 509.561 1005.89 509.905 993.779 509.307C990.679 509.142 987.544 508.469 984.447 508.389C978.908 508.231 973.112 509.968 967.568 510.776C938.09 515.075 908.572 518.668 879.044 521.978C818.579 528.746 757.942 537.288 697.352 539.695C631.235 542.339 565.11 544.729 498.98 546.409C434.809 548.01 370.568 548.51 306.438 551.896C244.356 555.165 182.242 556.394 120.169 559.975C57.7084 563.561 -4.70947 567.91 -67.104 573.534C-79.4097 574.656 -91.7152 575.806 -104.019 576.984" stroke="url(#paint6_radial_17_16)" stroke-opacity="0.1" stroke-width="3.27711" stroke-miterlimit="10" stroke-linecap="round"/>
<path d="M1651.43 564.777C1598.42 569.241 1545.4 573.707 1492.39 578.172C1441.04 582.497 1389.67 586.823 1338.32 591.148C1292.95 594.969 1247.58 598.791 1202.19 602.614C1149.5 607.051 1096.83 611.488 1044.14 615.926C992.328 620.289 940.52 624.653 888.712 629.016C828.122 634.119 767.548 639.221 706.958 644.324C640.849 649.892 574.739 655.46 508.612 661.03C443.525 666.511 378.438 671.993 313.351 677.475C247.471 683.024 181.591 688.573 115.728 694.12C51.4697 699.532 -12.7708 704.942 -77.0289 710.354C-88.6673 711.335 -100.323 712.316 -111.962 713.297" stroke="url(#paint7_radial_17_16)" stroke-opacity="0.1" stroke-width="3.27711" stroke-miterlimit="10" stroke-linecap="round"/>
<path d="M1643.53 701.115C1590.07 704.879 1536.61 706.855 1483.12 707.869C1451.67 708.474 1420.24 709.473 1388.8 709.822C1365.22 710.077 1341.71 708.679 1318.15 708.136C1295.82 707.632 1273.43 707.389 1251.08 707.397C1227.33 707.41 1203.6 706.996 1179.85 706.754C1159.1 706.543 1138.5 704.9 1117.78 704.402C1088.7 703.728 1059.64 704.927 1030.56 704.764C969.954 704.447 909.356 706.087 848.766 709.032C798.999 711.464 749.308 716.244 699.641 721.734C635.772 728.788 572.039 737.279 508.279 746.567C443.568 755.992 379.006 765.091 314.484 777.566C252.21 789.596 189.826 801.464 127.467 811.968C65.1776 822.438 2.93662 832.762 -59.4295 841.961C-71.3603 843.732 -83.308 845.533 -95.2315 847.531" stroke="url(#paint8_radial_17_16)" stroke-opacity="0.1" stroke-width="3.27711" stroke-miterlimit="10" stroke-linecap="round"/>
<path d="M1617.46 832.563C1564.72 834.82 1512.07 834.57 1459.33 832.028C1428.62 830.555 1397.93 828.712 1367.24 827.039C1342.29 825.676 1317.15 824.558 1292.33 819.977C1271.04 816.035 1249.61 814.404 1228.21 812.175C1215.18 810.831 1202.29 809.05 1189.22 809.413C1176.05 809.783 1162.74 806.448 1149.59 805.114C1103.53 800.419 1057.78 792.037 1011.64 789.053C952.027 785.188 892.167 779.612 832.504 780.095C809.116 780.276 785.723 780.827 762.333 781.491C736.612 782.238 710.743 786.603 685.134 790.236C626.346 798.566 568.105 812.243 509.789 825.785C449.315 839.849 388.639 852.624 328.736 872.261C270.041 891.513 211.131 909.079 152.094 925.464C136.849 929.701 121.697 934.667 106.356 938.656C90.8913 942.684 75.4038 946.544 59.9117 950.261C31.4018 957.12 2.81806 962.792 -25.8355 967.959C-37.4555 970.045 -49.0779 972.046 -60.7229 973.907" stroke="url(#paint9_radial_17_16)" stroke-opacity="0.1" stroke-width="3.27711" stroke-miterlimit="10" stroke-linecap="round"/>
<path d="M1581.76 958.211C1529.86 959.686 1478.1 957.403 1426.29 951.972C1398.01 948.989 1369.75 945.322 1341.48 942.138C1313.67 939.002 1285.84 935.299 1258.2 929.337C1247.2 926.971 1236.32 923.657 1225.35 921.147C1214.52 918.681 1203.6 917.329 1192.73 915.377C1181.93 913.448 1171.17 911.003 1160.4 908.731C1146.55 905.809 1132.62 904.428 1118.77 901.563C1097.16 897.11 1075.61 892.536 1053.97 888.596C1032.6 884.718 1011.51 877.893 990.114 873.96C962.469 868.879 934.74 866.076 907.018 862.42C877.431 858.496 847.812 855.201 818.184 852.757C789.124 850.35 760.12 849.101 731.015 849.139C710.097 849.141 689.246 849.052 668.392 852.086C644.879 855.486 621.362 859.822 598.062 865.958C583.616 869.758 569.177 873.785 554.802 878.147C547.378 880.391 539.957 882.719 532.557 885.159C529.617 886.117 526.677 887.045 523.756 888.001C520.152 889.184 517.071 891.232 513.642 892.884C499.314 899.768 484.07 903.495 469.508 909.15C455.835 914.446 441.995 922.198 428.1 925.554C413.855 928.996 399.935 935.931 386.02 941.901C371.79 948.011 357.583 954.233 343.397 960.594C314.852 973.417 286.57 987.807 258.006 1000.58C252.429 1003.06 246.865 1004.32 241.237 1006.33C233.827 1009 226.514 1013.02 219.194 1016.28C205.023 1022.55 190.806 1028.52 176.547 1034.26C164.4 1039.15 152.6 1044.91 140.423 1049.43C125.922 1054.82 111.359 1059.91 96.7687 1064.72C70.2827 1073.45 43.744 1080.57 16.9503 1086.37C5.64303 1088.83 -5.68763 1091.09 -17.0505 1092.93" stroke="url(#paint10_radial_17_16)" stroke-opacity="0.1" stroke-width="3.27711" stroke-miterlimit="10" stroke-linecap="round"/>
<path d="M1541.99 1080.94C1492.59 1082.57 1443.26 1079.12 1394.05 1072.1C1366.31 1068.17 1338.67 1062.83 1310.99 1057.86C1284.63 1053.16 1258.22 1048.29 1231.96 1041.92C1210.27 1036.65 1188.95 1028.63 1167.32 1023.07C1145.56 1017.49 1123.86 1011.91 1102.18 1005.73C1056.93 992.819 1011.36 982.575 966.3 968.259C915.215 952.036 863.062 944.221 811.348 935.234C758.78 926.091 706.232 920.297 653.361 919.726C643.172 919.619 632.826 919.013 622.636 919.957C612.06 920.961 601.391 924.046 590.941 926.743C565.708 933.24 541.051 942.187 516.462 953.257C490.01 965.166 464.575 980.084 438.752 995.033C426.691 1002.01 414.364 1012.25 401.848 1016.65C388.702 1021.28 376.012 1031.23 363.565 1039.38C338.531 1055.77 313.72 1072.99 288.685 1089.35C276.514 1097.3 264.152 1106.97 251.303 1111.49C238.787 1115.89 226.477 1126.1 214.399 1133.11C188.576 1148.06 163.141 1162.97 136.688 1174.88C112.082 1185.95 87.4244 1194.9 62.2093 1201.4C51.6881 1204.1 41.1228 1206.52 30.5145 1208.18" stroke="url(#paint11_radial_17_16)" stroke-opacity="0.1" stroke-width="3.27711" stroke-miterlimit="10" stroke-linecap="round"/>
<path d="M256.848 1676.19C254.009 1606.62 240.133 1542.89 219.282 1482.19C198.841 1422.68 175.038 1365.78 150.541 1310.38C137.94 1281.89 126.785 1251.66 116.84 1220.59C112.192 1206.04 108.147 1191.05 103.482 1176.54C98.3646 1160.62 93.5054 1144.48 89.0263 1128.08C80.8919 1098.3 71.6543 1069.39 63.8308 1039.39C55.5445 1007.66 47.8307 975.609 40.6544 943.225C33.043 908.891 26.0096 873.317 21.7098 837.511C17.6827 804.096 14.1494 770.099 13.1925 735.942C11.25 666.212 24.4367 595.18 38.9479 530.054C53.9837 462.584 73.4418 398.404 93.3293 334.387C102.417 305.119 111.404 275.518 119.495 245.511C127.996 213.993 135.381 181.887 142.674 149.648C171.958 20.3675 191.186 -115.247 192.319 -253.2C192.467 -270.87 192.367 -288.549 192.09 -306.212" stroke="url(#paint12_radial_17_16)" stroke-opacity="0.1" stroke-width="3.27711" stroke-miterlimit="10" stroke-linecap="round"/>
<path d="M335.475 1620.79C334.024 1588.84 330.736 1556.95 324.123 1526.65C317.548 1496.45 307.173 1468.43 296.242 1441.81C290.153 1427.02 283.603 1412.73 276.986 1398.55C270.996 1385.68 266.282 1372.91 260.036 1360.35C246.731 1333.59 233.27 1306.93 220.628 1279.35C208.633 1253.19 198.451 1226.23 190.456 1196.38C186.528 1181.7 184.245 1166.5 181.222 1151.37C178.134 1135.87 174.479 1120.88 172.05 1104.99C167.215 1073.37 161.088 1042.24 156.776 1010.38C152.368 977.76 148.098 945.047 144.566 912.158C137.556 846.971 134.2 778.353 138.623 712.43C140.855 678.998 147.591 646.494 154.173 614.683C160.74 582.959 168.268 551.949 176.567 521.3C192.693 461.772 211.988 404.504 231.581 347.722C250.918 291.729 266.048 233.648 275.221 171.299C284.497 108.289 287.961 42.7599 286.047 -21.7775C285.577 -37.7777 285.694 -53.6844 285.401 -69.6712C285.081 -86.5073 283.638 -103.078 282.613 -119.827C280.691 -151.063 277.59 -182.088 275.773 -213.361C274.793 -230.341 274.097 -247.343 273.876 -264.386" stroke="url(#paint13_radial_17_16)" stroke-opacity="0.1" stroke-width="3.27711" stroke-miterlimit="10" stroke-linecap="round"/>
<path d="M409.539 1550.68C408.305 1520.53 405.615 1490.15 398.957 1461.72C392.729 1435.11 382.354 1410.89 371.512 1388.61C347.287 1338.84 318.799 1295.47 293.102 1247.7C280.921 1225.05 268.859 1200.12 262.433 1171.73C258.961 1156.41 256.4 1140.78 255.462 1124.54C254.505 1108.24 252.059 1092.35 251.4 1075.97C250.768 1060.41 251.219 1044.98 250.162 1029.43C249.139 1014.36 248.746 999.058 248.64 983.907C248.51 966.942 249.159 950.052 248.924 933.095C248.682 916.508 248.953 899.906 249.172 883.337C250.037 817.799 254.486 751.022 265.039 687.592C267.758 671.238 272.74 655.433 276.918 639.893C281.067 624.526 285.325 609.262 289.709 594.074C298.27 564.396 307.506 535.342 317.049 506.49C334.509 453.692 354.819 403.692 373.646 352.142C392.879 299.479 409.308 244.326 413.51 182.964C415.607 152.439 415.011 121.233 411.6 90.9741C410.85 84.2523 409.599 77.8856 408.466 71.338C407.291 64.6236 407.059 57.5456 406.27 50.7135C404.478 35.3641 400.101 22.1066 397.235 7.44382C394.433 -6.88373 391.019 -21.018 388.041 -35.3024C384.687 -51.372 379.938 -66.302 375.719 -81.7594C368.647 -107.707 360.848 -133.169 356.375 -160.727C353.918 -175.85 352.421 -191.395 352.104 -207.039" stroke="url(#paint14_radial_17_16)" stroke-opacity="0.1" stroke-width="3.27711" stroke-miterlimit="10" stroke-linecap="round"/>
<path d="M481.276 1474.43C480.345 1445.95 478.335 1416.91 471.647 1390.28C465.062 1364.06 453.144 1341.36 441.113 1321.11C413.663 1274.9 380.978 1237.85 353.995 1190.82C340.964 1168.09 330.87 1143.82 327.18 1113.16C325.313 1097.7 325.646 1083.54 326.322 1067.95C326.961 1053.42 326.922 1039.26 328.912 1024.92C329.958 1017.42 331.383 1010.18 332.305 1002.66C333.31 994.459 333.711 986.193 334.52 977.92C336.003 962.721 338.163 947.635 340.81 932.848C346.207 902.67 350.045 871.857 355.368 841.571C360.828 810.593 366.657 779.556 372.996 748.987C379.366 718.273 386.183 686.613 396.281 658.537C416.383 602.706 437.29 547.688 458.743 493.163C479.004 441.662 502.627 393.994 522.683 342.17C541.826 292.722 556.368 235.031 553.353 175.782C552.631 161.79 550.427 147.384 547.399 134.268C544.331 121.013 540.98 107.185 536.188 95.2682C533.957 89.7499 531.363 85.0574 529.629 79.0714C527.835 72.8634 525.798 66.8184 523.385 61.1735C521.086 55.7461 518.48 50.685 515.639 45.9846C512.107 40.1784 509.003 34.4497 505.708 28.3113C500.041 17.7737 494.663 6.87107 488.962 -3.63531C482.357 -15.8257 474.915 -26.583 467.94 -38.1745C455.807 -58.3023 442.69 -77.1261 435.024 -102.854C431.25 -115.538 428.944 -129.284 428.432 -143.35" stroke="url(#paint15_radial_17_16)" stroke-opacity="0.1" stroke-width="3.27711" stroke-miterlimit="10" stroke-linecap="round"/>
<path d="M553.018 1398.22C552.134 1368.99 550.392 1338.42 541.856 1312.03C540.163 1306.78 538.147 1301.9 535.889 1297.2C534.294 1293.84 531.747 1290.57 530.498 1286.95C529.911 1285.24 530.394 1284.86 529.868 1283.37C527.531 1276.81 522.456 1270.85 519.018 1265.75C514.985 1259.76 510.803 1254.06 506.553 1248.46C491.826 1229.06 476.111 1210.8 460.413 1193.61C444.164 1175.79 426.509 1156.58 413.454 1132.61C408.638 1123.76 403.832 1113.6 400.321 1103.03C395.848 1089.52 394.475 1075.61 394.017 1060.52C393.561 1044.94 396.717 1030.6 398.88 1015.63C400.961 1001.37 404.409 987.849 408.873 975.096C418.039 948.802 424.545 920.631 434.325 894.712C445.099 866.182 453.666 836.135 464.186 807.427C474.659 778.894 484.411 749.939 494.979 721.625C500.897 705.769 506.851 689.909 512.678 673.946C518.341 658.394 525.006 644.292 531.678 629.848C556.435 576.322 581.677 523.578 606.379 469.971C618.548 443.567 632.895 419.96 645.264 393.708C650.704 382.178 655.761 370.255 660.999 358.487C666.65 345.804 670.999 332.236 676.122 319.086C694.28 272.503 702.712 203.177 684.959 153.401C680.618 141.219 674.72 130.104 668.814 119.814C663.377 110.336 656.581 103.669 650.793 94.8446C637.58 74.6941 621.313 63.8858 606 48.7382C598.545 41.3605 591.087 33.3582 582.903 26.4392C573.574 18.5379 564.131 10.9306 554.801 3.00096C539.778 -9.75796 523.718 -21.777 513.293 -44.2914C508.517 -54.6203 505.399 -66.7074 504.661 -79.5622" stroke="url(#paint16_radial_17_16)" stroke-opacity="0.1" stroke-width="3.27711" stroke-miterlimit="10" stroke-linecap="round"/>
<path d="M627.078 1328.1C626.541 1302.48 625.689 1275.33 618.939 1251.65C611.967 1227.15 597.863 1208.94 584.378 1193.98C576.726 1185.49 568.8 1177.75 560.757 1170.25C553.936 1163.9 546.903 1156.49 539.758 1152.12C535.537 1149.55 531.419 1144.73 527.485 1141.23C522.769 1137.06 518.101 1132.77 513.498 1128.27C505.554 1120.54 497.732 1112.22 490.378 1103.08C477.53 1087.07 464.388 1065.29 462.753 1037.98C461.973 1024.93 463.183 1010.55 466.251 998.396C469.21 986.677 472.314 974.521 476.472 963.78C481.201 951.572 486.972 940.923 492.901 930.26C498.662 919.896 503.466 908.363 509.025 897.731C520.623 875.519 533.911 855.748 545.806 833.937C558.269 811.113 570.599 788.017 583.377 765.081C596.089 742.293 608.612 719.123 620.841 695.637C627.396 683.02 633.82 670.214 640.024 657.143C646.129 644.28 653.302 632.746 660.128 620.844C672.725 598.889 685.249 576.827 697.752 554.709C710.106 532.86 722.292 510.769 734.367 488.517C746.042 467.037 758.081 446.349 770.146 425.432C792.439 386.847 814.722 345.85 827.822 297.053C834.822 270.998 838.274 244.05 836.709 215.623C835.21 188.694 828.872 166.291 816.864 147.288C804.874 128.312 790.509 117.286 775.582 105.825C768.545 100.427 761.753 94.953 754.318 90.9234C746.181 86.4987 737.771 83.9988 729.577 80.0047C725.408 77.9712 721.2 76.3383 716.986 74.564C714.764 73.644 712.604 72.4915 710.395 71.4568C709.911 71.2421 706.748 70.2303 709.015 70.8911C682.211 59.0676 654.694 51.3935 628.066 38.4481C609.631 29.4968 585.586 12.8413 582.99 -22.2559" stroke="url(#paint17_radial_17_16)" stroke-opacity="0.1" stroke-width="3.27711" stroke-miterlimit="10" stroke-linecap="round"/>
<path d="M705.707 1272.7C704.92 1243.22 704.009 1209.91 692.388 1185.45C680.141 1159.68 660.333 1143.89 642.524 1130.29C622.921 1115.33 602.615 1103.25 583.126 1088C565.56 1074.23 545.952 1057.51 535.669 1029.62C523.99 997.959 534.452 965.339 546.879 939.253C552.936 926.536 560.656 915.495 568.26 905.231C576.914 893.544 585.619 881.824 594.481 870.545C612.51 847.593 631.636 826.819 649.89 804.274C668.773 780.937 687.519 756.676 705.736 731.919C776.709 635.437 842.879 529.992 909.072 425.225C937.805 379.739 968.868 329.259 978.154 263.863C982.307 234.585 980.11 198.717 970.069 172.821C959.408 145.273 940.27 127.778 921.805 116.842C882.783 93.6698 841.071 90.9948 800.064 86.6132C776.305 84.1004 752.393 82.3106 728.8 77.2856C710.548 73.4005 689.067 68.0843 674.652 47.9498C669.372 40.5875 665.573 30.9145 664.797 19.6242" stroke="url(#paint18_radial_17_16)" stroke-opacity="0.1" stroke-width="3.27711" stroke-miterlimit="10" stroke-linecap="round"/>
<path d="M789.56 1245.71C788.565 1215.28 787.602 1180.39 774.54 1156.19C758.371 1126.21 731.8 1111.78 709.237 1098.78C685.736 1085.23 661.483 1074.07 639.14 1055.91C620.448 1040.71 597.535 1014.85 600.944 976.318C603.914 942.74 622.276 918.624 638.186 899.541C657.499 876.395 678.464 857.256 699.338 838.067C744.934 796.157 790.24 753.505 833.286 704.997C876.024 656.826 915.595 602.109 955.321 547.776C991.272 498.616 1027.32 449.221 1061.19 396.319C1090.43 350.62 1123.73 293.45 1123.04 223.132C1122.69 187.107 1112.65 152.438 1095.2 129.72C1077.36 106.468 1054.18 95.7592 1031.89 89.6022C986.337 77.0018 939.907 82.5575 894.016 85.6561C868.327 87.3939 842.398 89.3517 816.725 86.1485C797.958 83.8114 775.091 79.9453 759.762 60.5124C754.246 53.5107 750.272 43.8817 749.897 32.3874" stroke="url(#paint19_radial_17_16)" stroke-opacity="0.1" stroke-width="3.27711" stroke-miterlimit="10" stroke-linecap="round"/>
<path d="M874.709 1258.47C873.5 1227.94 872.316 1193.89 859.664 1169.23C845.16 1140.96 822.702 1123.63 802.804 1107.22C784.268 1091.95 765.016 1077.99 747.872 1058.76C731.298 1040.17 713.724 1014.29 717.503 978.425C720.919 946.029 739.062 921.705 754.162 902.208C771.248 880.158 789.784 861.365 808.151 842.245C828.159 821.426 848.468 801.177 868.092 779.425C887.733 757.643 906.079 733.045 925.533 710.967C945.363 688.459 963.111 659.598 980.172 631.93C997.25 604.232 1016 579.117 1033.77 552.553C1049.65 528.788 1065.43 504.975 1079.98 479.079C1087.23 466.176 1094.27 453.008 1101.2 439.649C1104.65 432.999 1108.43 426.918 1112.07 420.564C1116.02 413.702 1119.21 406.167 1123.01 399.175C1148.86 351.945 1176.37 292.934 1175.2 226.829C1174.63 194.117 1165.41 163.21 1150.85 140.647C1136.02 117.68 1115.92 104.44 1096.27 96.102C1053.26 77.8938 1008.72 76.9605 964.563 73.6107C941.82 71.8923 919.303 69.5019 896.751 64.957C878.702 61.3104 856.897 54.7441 842.917 34.4027C837.682 26.7811 834.103 16.8057 833.745 5.30993" stroke="url(#paint20_radial_17_16)" stroke-opacity="0.1" stroke-width="3.27711" stroke-miterlimit="10" stroke-linecap="round"/>
<path d="M956.517 1300.35C955.189 1271.08 954.211 1238.43 944.388 1212.72C933.097 1183.21 914.554 1161.2 897.779 1140.28C882.35 1121.02 866.726 1101.24 853.348 1078.18C839.559 1054.48 828.172 1025.82 834.076 992.226C839.325 962.373 855.296 938.686 869.284 918.686C884.978 896.243 901.95 875.594 918.701 855.191C955.382 810.512 992.301 766.067 1025.66 714.911C1042.43 689.169 1058.51 662.209 1073.56 633.857C1088.24 606.248 1103.62 579.659 1118.3 552.049C1131.47 527.263 1144.23 501.888 1155.45 474.711C1161.32 460.476 1166.9 445.924 1171.99 430.933C1176.63 417.255 1182.95 405.14 1188.47 392.269C1199.46 366.56 1208.16 339.454 1216.31 311.259C1224.35 283.442 1228.46 249.115 1227.36 218.519C1224.95 151.242 1189.94 106.41 1153.23 84.6904C1114.37 61.7032 1073.81 53.2243 1033.34 40.962C1011.52 34.3402 989.832 27.5941 968.296 18.9609C951.542 12.2242 932.378 2.05638 920.59 -19.4065C915.872 -27.98 912.804 -38.5103 912.41 -50.0314" stroke="url(#paint21_radial_17_16)" stroke-opacity="0.1" stroke-width="3.27711" stroke-miterlimit="10" stroke-linecap="round"/>
<path d="M1034.74 1357.64C1033.46 1327.15 1033.01 1293.68 1025.08 1265.34C1017.01 1236.58 1004.35 1211.53 991.951 1187.22C988.645 1180.74 984.415 1174.14 981.826 1166.87C981.378 1165.6 981.137 1163.66 980.466 1162.07C979.316 1159.33 977.974 1156.66 976.721 1154.04C969.894 1139.91 963.963 1125.62 958.382 1110.13C948.54 1082.77 942.136 1052.34 948.416 1021.03C954.271 991.896 968.08 967.511 981.038 945.781C995.119 922.139 1010.56 900.03 1025.59 878.011C1058.75 829.427 1092.22 781.668 1122.61 728.434C1153.39 674.543 1181.31 616.18 1205.69 554.424C1216.09 528.083 1225.49 500.719 1233.64 472.411C1238.16 456.728 1242.26 440.685 1245.66 424.273C1247.01 417.801 1247.85 410.717 1249.63 404.549C1252 396.316 1254.82 388.1 1257.53 380.121C1262.58 365.275 1266.61 349.407 1269.53 333.15C1270.68 326.722 1271.51 320.207 1272.32 313.666C1273.23 306.378 1275.08 299.523 1276.31 292.322C1278.85 277.432 1279.26 261.868 1280.15 246.576C1281.1 230.712 1280.62 214.373 1278.94 198.673C1272.27 136.127 1241.82 91.9334 1207.92 64.8664C1191.62 51.8463 1174.64 39.3377 1157.43 29.8294C1138.81 19.5311 1119.87 10.7645 1101.37 -0.111947C1080.15 -12.6044 1058.8 -24.1492 1038.13 -38.7886C1022.2 -50.0517 1005.53 -62.3608 994.77 -85.3581C990.036 -95.4918 986.958 -107.411 986.454 -120.144" stroke="url(#paint22_radial_17_16)" stroke-opacity="0.1" stroke-width="3.27711" stroke-miterlimit="10" stroke-linecap="round"/>
<path d="M1111.06 1421.39C1110.04 1390.39 1109.99 1358.45 1105.78 1328.04C1104.71 1320.4 1102.4 1313.59 1101.03 1306.15C1099.59 1298.35 1098.07 1290.33 1095.97 1282.36C1092.01 1267.25 1087.64 1252.54 1083.22 1237.78C1081.23 1231.14 1078.49 1224.05 1077.25 1216.94C1076.69 1213.75 1076.91 1211.86 1076.25 1208.62C1075.43 1204.52 1074.13 1200.51 1073.03 1196.6C1068.69 1181.09 1065.59 1165.4 1062.62 1149.13C1057.24 1119.77 1055.1 1089.41 1061.14 1059.83C1067.07 1030.8 1079.24 1005.76 1091.03 982.222C1104.11 956.081 1118.79 931.765 1132.81 906.907C1147.33 881.156 1162.64 856.418 1176.64 829.916C1191.13 802.493 1205.28 774.644 1218.79 745.968C1245.23 689.887 1264.48 627.372 1284.25 564.983C1293.04 537.187 1300.51 508.482 1306.49 478.794C1309.82 462.247 1312.77 445.56 1314.98 428.512C1316.95 413.186 1316.9 395.957 1320.19 381.372C1323.77 365.513 1326.9 349.296 1328.84 332.696C1330.59 317.672 1330.41 303.038 1331.09 287.935C1331.44 280.212 1332.8 272.603 1333.11 264.77C1333.4 256.995 1333.23 249.173 1332.93 241.421C1332.32 226.113 1332.36 210.979 1330.48 195.863C1326.67 165.183 1319.68 135.737 1308.66 109.695C1297.32 82.8862 1281.08 61.1736 1264.7 42.6523C1256.73 33.6428 1248.15 26.2467 1240.01 17.6484C1231.94 9.10229 1223.67 1.11226 1215.1 -6.11532C1196.53 -21.8121 1177.48 -35.7362 1159.17 -52.2494C1140.46 -69.098 1121.66 -85.3711 1103.57 -103.833C1089.03 -118.648 1074.55 -135.228 1065.61 -159.514C1061.47 -170.749 1058.82 -183.273 1058.23 -196.339" stroke="url(#paint23_radial_17_16)" stroke-opacity="0.1" stroke-width="3.27711" stroke-miterlimit="10" stroke-linecap="round"/>
<path d="M1187.37 1485.17C1186.4 1451.72 1186.84 1418.05 1184.97 1384.7C1184.58 1377.5 1183.62 1370.4 1182.74 1363.32C1181.78 1355.73 1181.59 1347.69 1180.68 1339.87C1178.81 1323.9 1176.9 1308 1174.84 1292.1C1173.75 1283.76 1172.75 1275.39 1171.91 1266.97C1171.28 1260.72 1171.86 1255.05 1171.23 1248.71C1169.55 1231.85 1167.75 1215.28 1167.21 1198.18C1166.25 1167.2 1166.06 1137.67 1171.75 1107.66C1177.8 1075.81 1189.46 1048.09 1201.02 1020.8C1213.12 992.24 1226.87 965.588 1239.87 938.12C1266.5 881.768 1293.22 826.118 1316.23 765.699C1327.96 734.903 1338.38 703.62 1346.54 669.972C1350.56 653.452 1354.15 636.685 1357.31 619.698C1358.83 611.507 1360.26 603.268 1361.58 594.98C1363.02 585.973 1365.5 577.531 1367.55 568.841C1381.96 507.67 1390.2 440.575 1389.12 375.059C1389.01 368.34 1389.79 361.887 1390.35 355.197C1390.99 347.364 1391.09 339.634 1391.53 331.791C1392.48 314.904 1392.29 297.914 1391.09 281.096C1389.9 264.617 1390.08 248.078 1388.45 231.665C1386.98 216.97 1385.68 201.949 1383.51 187.483C1378.67 155.186 1370.57 124.924 1359.81 96.5611C1349.21 68.5826 1334.84 44.981 1319.98 22.7827C1312.73 11.9243 1305.02 2.15454 1297.22 -7.6357C1289.63 -17.1592 1282.51 -27.6318 1274.88 -37.0957C1258.66 -57.2202 1241.16 -74.5671 1225 -94.8392C1207.42 -116.892 1189.23 -138.668 1172.86 -163.066C1159.18 -183.461 1145.6 -203.95 1137.26 -231.296C1133.32 -244.25 1130.71 -258.224 1129.95 -272.611" stroke="url(#paint24_radial_17_16)" stroke-opacity="0.1" stroke-width="3.27711" stroke-miterlimit="10" stroke-linecap="round"/>
<path d="M1265.59 1542.46C1264.65 1508.04 1265.29 1473.61 1265.93 1439.18C1266.22 1423.71 1265.94 1408.06 1265.71 1392.69C1265.42 1374.63 1265.36 1356.58 1265.21 1338.51C1265.13 1330.31 1265.17 1322.11 1265.29 1313.89C1265.35 1309.97 1265.16 1305.5 1265.56 1301.61C1265.71 1300.17 1265.83 1298.43 1266.3 1297.26C1266.63 1296.43 1267.72 1295.38 1267.89 1294.88C1269.73 1289.7 1268.88 1278.7 1269.08 1271.98C1269.35 1262.93 1269.82 1253.89 1270.46 1244.9C1272.77 1211.74 1276.04 1179.19 1282.84 1147.59C1296.76 1082.88 1323.49 1027.37 1346.4 970.48C1369.92 912.09 1394.07 854.5 1414.39 792.973C1435.3 729.693 1452.84 663.346 1461.25 592.687C1465.48 557.1 1469.73 522.165 1470.38 485.8C1471 451.17 1470.24 416.003 1467.12 381.716C1465.61 365.236 1464.01 349.162 1463.03 332.58C1462 315.377 1460.7 298.227 1458.33 281.337C1453.78 248.901 1448.26 216.917 1441.86 185.292C1435.11 151.935 1425.46 120.271 1414.33 90.1796C1403.35 60.5575 1389.7 34.4829 1375.47 8.79662C1347.29 -41.974 1315.14 -86.5064 1286.12 -135.929C1270.93 -161.79 1255.67 -188.183 1241.96 -216.099C1229.48 -241.534 1217.54 -267.441 1210.39 -298.038C1207.04 -312.377 1204.81 -327.406 1204.03 -342.67" stroke="url(#paint25_radial_17_16)" stroke-opacity="0.1" stroke-width="3.27711" stroke-miterlimit="10" stroke-linecap="round"/>
<path d="M1347.4 1584.34C1345.44 1513.93 1351.66 1443.05 1358.88 1373.8C1359.76 1365.24 1360.76 1356.72 1361.82 1348.23C1362.7 1341.32 1363.07 1332.91 1365.09 1326.55C1369.67 1312.25 1370.85 1293.87 1373.55 1277.92C1379.34 1243.59 1386.08 1209.66 1394.7 1176.89C1411.99 1111.16 1435.73 1050.37 1458.23 989.08C1469.23 959.141 1479.37 928.194 1489.86 897.73C1500.27 867.442 1509.49 836.317 1518.51 804.925C1523.38 787.992 1528.02 770.881 1532.36 753.568C1534.28 745.883 1536.17 738.201 1537.88 730.392C1539.92 721.022 1540.66 711.164 1542.62 701.886C1549.62 668.706 1554.99 634.415 1558.15 599.77C1564.66 528.391 1556.84 454.5 1544.82 385.618C1541.8 368.272 1537.92 351.394 1534.71 334.178C1531.54 317.213 1529.61 300.427 1525.91 283.648C1518.84 251.568 1510.23 220.27 1501.38 189.361C1482.38 122.942 1458.55 61.4709 1430.86 3.50507C1404.19 -52.3044 1375.61 -106.165 1350.28 -163.564C1325.44 -219.952 1299.97 -280.632 1288.26 -347.837C1285.41 -364.261 1283.45 -381.072 1282.61 -398.063" stroke="url(#paint26_radial_17_16)" stroke-opacity="0.1" stroke-width="3.27711" stroke-miterlimit="10" stroke-linecap="round"/>
<path d="M172.998 1703.18C168.298 1559.33 120.178 1428.2 72.6994 1310.18C23.7573 1188.51 -31.489 1071.97 -71.0545 941.25C-90.3011 877.689 -105.633 810.024 -110.608 739.47C-115.613 668.55 -108.871 597.266 -96.3131 529.182C-70.6364 390.156 -23.9389 263.469 17.6682 135.763C61.0095 2.68711 112.196 -157.083 106.905 -319.023C206.96 -327.45 305.759 -246.572 389.337 -176.45C469.133 -109.501 548.246 -34.2334 635.076 7.16904C677.503 27.414 721.975 38.232 766.184 30.1934C810.48 22.1191 852.934 -2.80535 892.795 -34.0406C974.398 -97.9471 1047.17 -187.001 1123.23 -265.714C1196.28 -341.334 1277.5 -417.614 1366.46 -425.107C1371.74 -263.451 1432.84 -113.422 1484.85 12.1915C1534.55 132.236 1589.25 250.382 1623.84 384.303C1640.79 449.875 1652.12 519.665 1651.76 591.037C1651.41 662.039 1640.56 731.91 1625.58 798.353C1594.75 935.002 1547.42 1060.18 1506.66 1189.41C1467.13 1314.75 1427.82 1453.28 1432.52 1597.1C1343.56 1604.59 1257.81 1542.35 1180.24 1479.44C1099.46 1413.94 1021.29 1337.6 935.967 1287.75C894.272 1263.38 850.443 1245.73 805.864 1245.14C761.357 1244.57 717.853 1262.83 676.977 1290.06C593.322 1345.82 519.548 1433.94 444.554 1513.95C366.963 1596.74 273.494 1694.72 172.998 1703.18Z" stroke="url(#paint27_radial_17_16)" stroke-opacity="0.1" stroke-width="3.27711" stroke-miterlimit="10" stroke-linecap="round"/>
</g>
</g>
<defs>
<filter id="filter0_f_17_16" x="-429.148" y="-198.148" width="1595.3" height="1496.3" filterUnits="userSpaceOnUse" color-interpolation-filters="sRGB">
<feFlood flood-opacity="0" result="BackgroundImageFix"/>
<feBlend mode="normal" in="SourceGraphic" in2="BackgroundImageFix" result="shape"/>
<feGaussianBlur stdDeviation="274.574" result="effect1_foregroundBlur_17_16"/>
</filter>
<filter id="filter1_f_17_16" x="637.852" y="-232.148" width="1595.3" height="1682.3" filterUnits="userSpaceOnUse" color-interpolation-filters="sRGB">
<feFlood flood-opacity="0" result="BackgroundImageFix"/>
<feBlend mode="normal" in="SourceGraphic" in2="BackgroundImageFix" result="shape"/>
<feGaussianBlur stdDeviation="274.574" result="effect1_foregroundBlur_17_16"/>
</filter>
<radialGradient id="paint0_radial_17_16" cx="0" cy="0" r="1" gradientUnits="userSpaceOnUse" gradientTransform="translate(746.494 -72.2752) rotate(88.1285) scale(165.326 643.528)">
<stop stop-color="white"/>
<stop offset="1" stop-color="white" stop-opacity="0"/>
</radialGradient>
<radialGradient id="paint1_radial_17_16" cx="0" cy="0" r="1" gradientUnits="userSpaceOnUse" gradientTransform="translate(748.696 -5.17861) rotate(88.1285) scale(105.329 673.882)">
<stop stop-color="white"/>
<stop offset="1" stop-color="white" stop-opacity="0"/>
</radialGradient>
<radialGradient id="paint2_radial_17_16" cx="0" cy="0" r="1" gradientUnits="userSpaceOnUse" gradientTransform="translate(750.936 63.4015) rotate(88.1285) scale(55.498 713.646)">
<stop stop-color="white"/>
<stop offset="1" stop-color="white" stop-opacity="0"/>
</radialGradient>
<radialGradient id="paint3_radial_17_16" cx="0" cy="0" r="1" gradientUnits="userSpaceOnUse" gradientTransform="translate(753.999 158.29) rotate(88.1285) scale(34.1606 757.44)">
<stop stop-color="white"/>
<stop offset="1" stop-color="white" stop-opacity="0"/>
</radialGradient>
<radialGradient id="paint4_radial_17_16" cx="0" cy="0" r="1" gradientUnits="userSpaceOnUse" gradientTransform="translate(758.262 288.126) rotate(88.1285) scale(41.7828 801.181)">
<stop stop-color="white"/>
<stop offset="1" stop-color="white" stop-opacity="0"/>
</radialGradient>
<radialGradient id="paint5_radial_17_16" cx="0" cy="0" r="1" gradientUnits="userSpaceOnUse" gradientTransform="translate(762.105 405.758) rotate(88.1285) scale(33.2109 840.963)">
<stop stop-color="white"/>
<stop offset="1" stop-color="white" stop-opacity="0"/>
</radialGradient>
<radialGradient id="paint6_radial_17_16" cx="0" cy="0" r="1" gradientUnits="userSpaceOnUse" gradientTransform="translate(765.876 520.335) rotate(88.1285) scale(17.0012 871.281)">
<stop stop-color="white"/>
<stop offset="1" stop-color="white" stop-opacity="0"/>
</radialGradient>
<radialGradient id="paint7_radial_17_16" cx="0" cy="0" r="1" gradientUnits="userSpaceOnUse" gradientTransform="translate(769.752 639.536) rotate(88.1285) scale(0.5 883.652)">
<stop stop-color="white"/>
<stop offset="1" stop-color="white" stop-opacity="0"/>
</radialGradient>
<radialGradient id="paint8_radial_17_16" cx="0" cy="0" r="1" gradientUnits="userSpaceOnUse" gradientTransform="translate(773.17 744.362) rotate(88.1285) scale(29.9916 871.307)">
<stop stop-color="white"/>
<stop offset="1" stop-color="white" stop-opacity="0"/>
</radialGradient>
<radialGradient id="paint9_radial_17_16" cx="0" cy="0" r="1" gradientUnits="userSpaceOnUse" gradientTransform="translate(776.357 841.627) rotate(88.1285) scale(61.6404 840.954)">
<stop stop-color="white"/>
<stop offset="1" stop-color="white" stop-opacity="0"/>
</radialGradient>
<radialGradient id="paint10_radial_17_16" cx="0" cy="0" r="1" gradientUnits="userSpaceOnUse" gradientTransform="translate(779.367 934.081) rotate(88.1285) scale(91.5641 801.181)">
<stop stop-color="white"/>
<stop offset="1" stop-color="white" stop-opacity="0"/>
</radialGradient>
<radialGradient id="paint11_radial_17_16" cx="0" cy="0" r="1" gradientUnits="userSpaceOnUse" gradientTransform="translate(782.369 1025.71) rotate(88.1285) scale(118.943 757.413)">
<stop stop-color="white"/>
<stop offset="1" stop-color="white" stop-opacity="0"/>
</radialGradient>
<radialGradient id="paint12_radial_17_16" cx="0" cy="0" r="1" gradientUnits="userSpaceOnUse" gradientTransform="translate(118.291 693.932) rotate(88.1285) scale(991.729 106.422)">
<stop stop-color="white"/>
<stop offset="1" stop-color="white" stop-opacity="0"/>
</radialGradient>
<radialGradient id="paint13_radial_17_16" cx="0" cy="0" r="1" gradientUnits="userSpaceOnUse" gradientTransform="translate(221.623 685.198) rotate(88.1285) scale(943.093 88.4333)">
<stop stop-color="white"/>
<stop offset="1" stop-color="white" stop-opacity="0"/>
</radialGradient>
<radialGradient id="paint14_radial_17_16" cx="0" cy="0" r="1" gradientUnits="userSpaceOnUse" gradientTransform="translate(335.252 675.661) rotate(88.1285) scale(879.33 96.9607)">
<stop stop-color="white"/>
<stop offset="1" stop-color="white" stop-opacity="0"/>
</radialGradient>
<radialGradient id="paint15_radial_17_16" cx="0" cy="0" r="1" gradientUnits="userSpaceOnUse" gradientTransform="translate(440.662 666.737) rotate(88.1285) scale(809.323 128.715)">
<stop stop-color="white"/>
<stop offset="1" stop-color="white" stop-opacity="0"/>
</radialGradient>
<radialGradient id="paint16_radial_17_16" cx="0" cy="0" r="1" gradientUnits="userSpaceOnUse" gradientTransform="translate(545.078 657.96) rotate(88.1285) scale(739.287 164.128)">
<stop stop-color="white"/>
<stop offset="1" stop-color="white" stop-opacity="0"/>
</radialGradient>
<radialGradient id="paint17_radial_17_16" cx="0" cy="0" r="1" gradientUnits="userSpaceOnUse" gradientTransform="translate(650.467 649.097) rotate(88.1285) scale(675.538 200.36)">
<stop stop-color="white"/>
<stop offset="1" stop-color="white" stop-opacity="0"/>
</radialGradient>
<radialGradient id="paint18_radial_17_16" cx="0" cy="0" r="1" gradientUnits="userSpaceOnUse" gradientTransform="translate(756.139 640.194) rotate(88.1285) scale(626.873 237.244)">
<stop stop-color="white"/>
<stop offset="1" stop-color="white" stop-opacity="0"/>
</radialGradient>
<radialGradient id="paint19_radial_17_16" cx="0" cy="0" r="1" gradientUnits="userSpaceOnUse" gradientTransform="translate(862.732 631.218) rotate(88.1285) scale(606.988 273.551)">
<stop stop-color="white"/>
<stop offset="1" stop-color="white" stop-opacity="0"/>
</radialGradient>
<radialGradient id="paint20_radial_17_16" cx="0" cy="0" r="1" gradientUnits="userSpaceOnUse" gradientTransform="translate(946.621 624.109) rotate(88.1285) scale(626.916 241.451)">
<stop stop-color="white"/>
<stop offset="1" stop-color="white" stop-opacity="0"/>
</radialGradient>
<radialGradient id="paint21_radial_17_16" cx="0" cy="0" r="1" gradientUnits="userSpaceOnUse" gradientTransform="translate(1029.98 617.117) rotate(88.1285) scale(675.553 210.292)">
<stop stop-color="white"/>
<stop offset="1" stop-color="white" stop-opacity="0"/>
</radialGradient>
<radialGradient id="paint22_radial_17_16" cx="0" cy="0" r="1" gradientUnits="userSpaceOnUse" gradientTransform="translate(1112.39 610.175) rotate(88.1285) scale(739.287 180.714)">
<stop stop-color="white"/>
<stop offset="1" stop-color="white" stop-opacity="0"/>
</radialGradient>
<radialGradient id="paint23_radial_17_16" cx="0" cy="0" r="1" gradientUnits="userSpaceOnUse" gradientTransform="translate(1193 603.399) rotate(88.1285) scale(809.294 151.694)">
<stop stop-color="white"/>
<stop offset="1" stop-color="white" stop-opacity="0"/>
</radialGradient>
<radialGradient id="paint24_radial_17_16" cx="0" cy="0" r="1" gradientUnits="userSpaceOnUse" gradientTransform="translate(1274.63 596.512) rotate(88.1285) scale(879.359 127.012)">
<stop stop-color="white"/>
<stop offset="1" stop-color="white" stop-opacity="0"/>
</radialGradient>
<radialGradient id="paint25_radial_17_16" cx="0" cy="0" r="1" gradientUnits="userSpaceOnUse" gradientTransform="translate(1354.86 589.781) rotate(88.1285) scale(943.064 120.335)">
<stop stop-color="white"/>
<stop offset="1" stop-color="white" stop-opacity="0"/>
</radialGradient>
<radialGradient id="paint26_radial_17_16" cx="0" cy="0" r="1" gradientUnits="userSpaceOnUse" gradientTransform="translate(1438.36 582.747) rotate(88.1285) scale(991.729 123.639)">
<stop stop-color="white"/>
<stop offset="1" stop-color="white" stop-opacity="0"/>
</radialGradient>
<radialGradient id="paint27_radial_17_16" cx="0" cy="0" r="1" gradientUnits="userSpaceOnUse" gradientTransform="translate(769.722 639.038) rotate(88.1285) scale(1011.64 883.61)">
<stop stop-color="white"/>
<stop offset="1" stop-color="white" stop-opacity="0"/>
</radialGradient>
<clipPath id="clip0_17_16">
<rect width="1513" height="877" fill="white" transform="translate(-1)"/>
</clipPath>
<clipPath id="clip1_17_16">
<rect width="1769.64" height="2023.29" fill="white" transform="matrix(0.996472 -0.0839267 0.0326579 0.999467 -145 -297.806)"/>
</clipPath>
</defs>
</svg>
