<svg width="20" height="20" viewBox="0 0 20 20" fill="none" xmlns="http://www.w3.org/2000/svg">
<path fill-rule="evenodd" clip-rule="evenodd" d="M7.95 0.25H7.92723C6.68637 0.249998 5.72445 0.249996 4.95369 0.312969C4.17239 0.376805 3.54358 0.507832 2.98005 0.794967C2.03924 1.27433 1.27433 2.03924 0.794967 2.98005C0.507832 3.54358 0.376805 4.17239 0.312969 4.95369C0.249996 5.72445 0.249998 6.68637 0.25 7.92723V7.95V11.55V11.5728C0.249998 12.8136 0.249996 13.7755 0.312969 14.5463C0.376805 15.3276 0.507832 15.9564 0.794967 16.52C1.27433 17.4608 2.03924 18.2257 2.98005 18.705C3.54358 18.9922 4.17239 19.1232 4.95369 19.187C5.72444 19.25 6.68635 19.25 7.92719 19.25H7.92722H7.95H11.55H11.5728H11.5728C12.8136 19.25 13.7756 19.25 14.5463 19.187C15.3276 19.1232 15.9564 18.9922 16.52 18.705C17.4608 18.2257 18.2257 17.4608 18.705 16.52C18.9922 15.9564 19.1232 15.3276 19.187 14.5463C19.25 13.7756 19.25 12.8136 19.25 11.5728V11.5728V11.55V7.95V7.92722V7.92719C19.25 6.68635 19.25 5.72444 19.187 4.95369C19.1232 4.17239 18.9922 3.54358 18.705 2.98005C18.2257 2.03924 17.4608 1.27433 16.52 0.794967C15.9564 0.507832 15.3276 0.376805 14.5463 0.312969C13.7755 0.249996 12.8136 0.249998 11.5728 0.25H11.55H7.95ZM3.43404 1.68597C3.83311 1.48264 4.31566 1.36843 5.03512 1.30965C5.76043 1.25039 6.68163 1.25 7.95 1.25H11.55C12.8184 1.25 13.7396 1.25039 14.4649 1.30965C15.1843 1.36843 15.6669 1.48264 16.066 1.68597C16.8186 2.06947 17.4305 2.68139 17.814 3.43404C18.0174 3.83311 18.1316 4.31566 18.1904 5.03512C18.2496 5.76043 18.25 6.68163 18.25 7.95V11.55C18.25 12.8184 18.2496 13.7396 18.1904 14.4649C18.1316 15.1843 18.0174 15.6669 17.814 16.066C17.4305 16.8186 16.8186 17.4305 16.066 17.814C15.6669 18.0174 15.1843 18.1316 14.4649 18.1904C13.7396 18.2496 12.8184 18.25 11.55 18.25H7.95C6.68163 18.25 5.76043 18.2496 5.03512 18.1904C4.31566 18.1316 3.83311 18.0174 3.43404 17.814C2.68139 17.4305 2.06947 16.8186 1.68597 16.066C1.48264 15.6669 1.36843 15.1843 1.30965 14.4649C1.25039 13.7396 1.25 12.8184 1.25 11.55V7.95C1.25 6.68163 1.25039 5.76043 1.30965 5.03512C1.36843 4.31566 1.48264 3.83311 1.68597 3.43404C2.06947 2.68139 2.68139 2.06947 3.43404 1.68597ZM14.4571 9.75L14.1038 9.39671L14.1033 9.39618L10.1036 5.39645C9.90829 5.20119 9.59171 5.20119 9.39645 5.39645C9.20118 5.59171 9.20118 5.90829 9.39645 6.10355L12.5429 9.25H5.75C5.47386 9.25 5.25 9.47386 5.25 9.75C5.25 10.0261 5.47386 10.25 5.75 10.25H12.5429L9.39645 13.3964C9.20119 13.5917 9.20119 13.9083 9.39645 14.1036C9.59171 14.2988 9.90829 14.2988 10.1036 14.1036L14.1031 10.104L14.1041 10.103L14.4571 9.75Z" fill="white" fill-opacity="0.8"/>
</svg>
