<svg width="24" height="26" viewBox="0 0 24 26" fill="none" xmlns="http://www.w3.org/2000/svg">
<path fill-rule="evenodd" clip-rule="evenodd" d="M12.2321 1.83862H12.2H11.8H11.7679H11.7679C10.9551 1.83862 10.2994 1.83861 9.76853 1.88199C9.22189 1.92665 8.74175 2.02101 8.29754 2.24735C7.59193 2.60687 7.01825 3.18055 6.65873 3.88616C6.43238 4.33038 6.33803 4.81052 6.29336 5.35716C6.24999 5.88806 6.24999 6.54367 6.25 7.3565V7.38862V8.24615C5.73161 8.3171 5.27175 8.43917 4.84355 8.65735C3.94978 9.11275 3.22312 9.83941 2.76772 10.7332C2.48688 11.2844 2.36527 11.888 2.30699 12.6014C2.24999 13.299 2.24999 14.1645 2.25 15.2566V15.2566V15.2896V17.192V17.225V17.225C2.24999 18.3171 2.24999 19.1826 2.30699 19.8802C2.36527 20.5936 2.48688 21.1973 2.76772 21.7484C3.22312 22.6422 3.94978 23.3689 4.84355 23.8243C5.39472 24.1051 5.99835 24.2267 6.71173 24.285C7.40935 24.342 8.27484 24.342 9.36696 24.342H9.36703H9.4H14.6H14.633H14.633C15.7252 24.342 16.5907 24.342 17.2883 24.285C18.0017 24.2267 18.6053 24.1051 19.1565 23.8243C20.0502 23.3689 20.7769 22.6422 21.2323 21.7484C21.5131 21.1973 21.6347 20.5936 21.693 19.8802C21.75 19.1826 21.75 18.3171 21.75 17.225V17.192V13.3896L21.75 13.342V13.3419V13.3418C21.75 12.9231 21.7501 12.6568 21.7271 12.4241C21.5144 10.2645 19.8694 8.53687 17.75 8.19913V7.38862V7.35652C17.75 6.54368 17.75 5.88806 17.7066 5.35716C17.662 4.81052 17.5676 4.33038 17.3413 3.88616C16.9817 3.18055 16.4081 2.60687 15.7025 2.24735C15.2582 2.02101 14.7781 1.92665 14.2315 1.88199C13.7006 1.83861 13.0449 1.83862 12.2321 1.83862H12.2321ZM9.36699 8.13963C8.76171 8.13963 8.22605 8.13963 7.75 8.14933V7.38862C7.75 6.53617 7.75058 5.94193 7.78838 5.4793C7.82547 5.02543 7.8946 4.76466 7.99524 4.56715C8.21095 4.14378 8.55516 3.79957 8.97852 3.58386C9.17604 3.48322 9.4368 3.41409 9.89068 3.37701C10.3533 3.33921 10.9475 3.33862 11.8 3.33862H12.2C13.0525 3.33862 13.6467 3.33921 14.1093 3.37701C14.5632 3.41409 14.824 3.48322 15.0215 3.58386C15.4448 3.79957 15.789 4.14378 16.0048 4.56715C16.1054 4.76466 16.1745 5.02543 16.2116 5.4793C16.2494 5.94193 16.25 6.53617 16.25 7.38862V8.13963H12H9.4H9.367H9.36699ZM17.3186 9.65528C17.1689 9.64054 16.9822 9.63963 16.5 9.63963H12H9.4C8.26752 9.63963 7.46327 9.64021 6.83388 9.69164C6.21325 9.74234 5.829 9.83872 5.52453 9.99386C4.913 10.3054 4.41582 10.8026 4.10423 11.4142C3.94909 11.7186 3.85271 12.1029 3.80201 12.7235C3.75058 13.3529 3.75 14.1572 3.75 15.2896V17.192C3.75 18.3245 3.75058 19.1287 3.80201 19.7581C3.85271 20.3787 3.94909 20.763 4.10423 21.0674C4.41582 21.679 4.913 22.1762 5.52453 22.4877C5.829 22.6429 6.21325 22.7393 6.83388 22.79C7.46327 22.8414 8.26752 22.842 9.4 22.842H14.6C15.7325 22.842 16.5367 22.8414 17.1661 22.79C17.7867 22.7393 18.171 22.6429 18.4755 22.4877C19.087 22.1762 19.5842 21.679 19.8958 21.0674C20.0509 20.763 20.1473 20.3787 20.198 19.7581C20.2494 19.1287 20.25 18.3244 20.25 17.192V13.3896C20.25 12.9074 20.2491 12.7207 20.2344 12.5711C20.0824 11.0281 18.8616 9.80726 17.3186 9.65528ZM12.75 14.1405C12.75 13.7263 12.4142 13.3905 12 13.3905C11.5858 13.3905 11.25 13.7263 11.25 14.1405V17.291C11.25 17.7052 11.5858 18.041 12 18.041C12.4142 18.041 12.75 17.7052 12.75 17.291V14.1405Z" fill="url(#paint0_linear_74_2667)"/>
<defs>
<linearGradient id="paint0_linear_74_2667" x1="21.75" y1="1.83863" x2="-6.04323" y2="1.67937" gradientUnits="userSpaceOnUse">
<stop stop-color="#AC3F3F"/>
<stop offset="1" stop-color="#DA4444"/>
</linearGradient>
</defs>
</svg>
