<svg width="170" height="79" viewBox="0 0 170 79" fill="none" xmlns="http://www.w3.org/2000/svg">
<path d="M170 49.5C170 65.7924 156.792 79 140.5 79C124.208 79 111 65.7924 111 49.5C111 33.2076 124.208 20 140.5 20C156.792 20 170 33.2076 170 49.5Z" fill="#7C96FF"/>
<path d="M59 49.5C59 65.7924 45.7924 79 29.5 79C13.2076 79 0 65.7924 0 49.5C0 33.2076 13.2076 20 29.5 20C45.7924 20 59 33.2076 59 49.5Z" fill="#7C96FF"/>
<path d="M124 39.5C124 61.3152 106.315 79 84.5 79C62.6848 79 45 61.3152 45 39.5C45 17.6848 62.6848 0 84.5 0C106.315 0 124 17.6848 124 39.5Z" fill="url(#paint0_linear_38_12052)"/>
<path d="M80.1487 46.9C80.1487 45.46 80.4887 44.1 81.1687 42.82C81.8887 41.5 82.7287 40.36 83.6887 39.4C84.6887 38.44 85.6687 37.52 86.6287 36.64C87.6287 35.76 88.4687 34.8 89.1487 33.76C89.8687 32.72 90.2287 31.66 90.2287 30.58C90.2287 29.18 89.7487 28.1 88.7887 27.34C87.8287 26.58 86.4887 26.2 84.7687 26.2C82.8887 26.2 81.3887 26.68 80.2687 27.64C79.1487 28.56 78.5887 29.92 78.5887 31.72H70.3687C70.3687 27.36 71.7687 24.02 74.5687 21.7C77.4087 19.34 80.9087 18.16 85.0687 18.16C88.6687 18.16 91.7887 19.22 94.4287 21.34C97.1087 23.42 98.4487 26.3 98.4487 29.98C98.4487 31.66 98.0887 33.22 97.3687 34.66C96.6887 36.1 95.8487 37.34 94.8487 38.38C93.8887 39.38 92.9087 40.34 91.9087 41.26C90.9487 42.14 90.1087 43.06 89.3887 44.02C88.7087 44.98 88.3687 45.94 88.3687 46.9H80.1487ZM79.9687 61V52.42H88.5487V61H79.9687Z" fill="white"/>
<path d="M137.525 53.1907C137.679 52.365 138.02 51.6216 138.547 50.9605C139.102 50.2808 139.705 49.7172 140.359 49.2697C141.035 48.8264 141.696 48.4039 142.34 48.0023C143.008 47.6049 143.593 47.1445 144.094 46.621C144.618 46.1019 144.939 45.5327 145.054 44.9134C145.204 44.1106 145.045 43.4399 144.576 42.9012C144.107 42.3625 143.379 42.001 142.393 41.8166C141.315 41.615 140.404 41.7295 139.658 42.1599C138.918 42.5673 138.451 43.2871 138.258 44.3192L133.544 43.438C134.012 40.938 135.173 39.173 137.027 38.1428C138.908 37.0941 141.042 36.7927 143.427 37.2386C145.491 37.6245 147.167 38.5668 148.453 40.0654C149.767 41.5454 150.226 43.3404 149.832 45.4505C149.652 46.4139 149.278 47.2698 148.711 48.0183C148.167 48.7711 147.552 49.392 146.867 49.8812C146.21 50.3517 145.545 50.7971 144.873 51.2174C144.228 51.6191 143.648 52.0565 143.132 52.5298C142.639 53.0074 142.341 53.5214 142.238 54.0719L137.525 53.1907ZM135.91 61.2563L136.83 56.3365L141.75 57.2563L140.83 62.1761L135.91 61.2563Z" fill="white"/>
<path d="M26.9177 54.6063C26.7574 53.7817 26.8007 52.9651 27.0476 52.1565C27.313 51.3205 27.6671 50.5742 28.11 49.9177C28.5757 49.2566 29.0345 48.6208 29.4862 48.01C29.9609 47.3948 30.3351 46.7516 30.6087 46.0804C30.9052 45.4047 30.9934 44.7577 30.8732 44.1392C30.7173 43.3376 30.3223 42.7726 29.688 42.4443C29.0537 42.1159 28.2441 42.0475 27.2592 42.2389C26.1826 42.4482 25.3771 42.89 24.8427 43.5644C24.3037 44.2158 24.1344 45.0569 24.3348 46.0876L19.6279 47.0026C19.1426 44.5059 19.5725 42.4376 20.9176 40.7975C22.2811 39.13 24.154 38.0647 26.536 37.6017C28.5975 37.201 30.502 37.4607 32.2497 38.3808C34.0158 39.2735 35.1037 40.7735 35.5133 42.8807C35.7003 43.8427 35.6678 44.7761 35.4158 45.6808C35.1867 46.5811 34.8437 47.3846 34.3868 48.0914C33.9484 48.7709 33.4941 49.4297 33.0239 50.0678C32.5721 50.6785 32.1935 51.2989 31.8881 51.9287C31.6056 52.5541 31.5177 53.1417 31.6246 53.6914L26.9177 54.6063ZM28.384 62.7002L27.429 57.7872L32.3421 56.8322L33.2971 61.7452L28.384 62.7002Z" fill="white"/>
<defs>
<linearGradient id="paint0_linear_38_12052" x1="170" y1="137" x2="-11.3584" y2="106.726" gradientUnits="userSpaceOnUse">
<stop stop-color="#224DFF"/>
<stop offset="0.177083" stop-color="#1844FB"/>
<stop offset="0.833333" stop-color="#244FFF"/>
<stop offset="1" stop-color="#0132FC"/>
<stop offset="1" stop-color="#0032FF"/>
</linearGradient>
</defs>
</svg>
