<svg width="23" height="23" viewBox="0 0 23 23" fill="none" xmlns="http://www.w3.org/2000/svg">
<g clip-path="url(#clip0_324_3467)">
<path d="M11.5 23C17.8513 23 23 17.8513 23 11.5C23 5.14873 17.8513 0 11.5 0C5.14873 0 0 5.14873 0 11.5C0 17.8513 5.14873 23 11.5 23Z" fill="#F0F0F0"/>
<path d="M22.2847 15.5C22.747 14.2542 23 12.9067 23 11.5C23 10.0933 22.747 8.74585 22.2847 7.50003H0.715291C0.253045 8.74585 0 10.0933 0 11.5C0 12.9067 0.253045 14.2542 0.715291 15.5L11.5 16.5L22.2847 15.5Z" fill="#0052B4"/>
<path d="M11.5 23C16.4446 23 20.6599 19.8792 22.2847 15.5H0.715332C2.3402 19.8792 6.55545 23 11.5 23Z" fill="#D80027"/>
</g>
<defs>
<clipPath id="clip0_324_3467">
<rect width="23" height="23" fill="white"/>
</clipPath>
</defs>
</svg>
