<svg width="34" height="34" viewBox="0 0 34 34" fill="none" xmlns="http://www.w3.org/2000/svg">
<path d="M33.8776 13.3248V20.6774C33.8776 28.8751 30.5242 33.9978 20.8274 33.9978H13.0502C4.11647 33.9957 0.569643 29.6487 0.0644879 22.5562C0.0300943 22.0989 0.0128976 21.6265 0.00429919 21.1476V21.1086C0 21.0003 0 20.8876 0 20.7792V13.3248C0 5.12492 3.35337 0 13.0502 0H20.8274C28.1511 0 31.8548 2.9211 33.2263 7.87916C33.2779 8.06985 33.3295 8.26055 33.3725 8.45341C33.3768 8.45774 33.3768 8.46641 33.3768 8.47508C33.4842 8.92798 33.5745 9.40038 33.6433 9.88795C33.8024 10.9606 33.8798 12.1091 33.8798 13.3248H33.8776Z" fill="url(#paint0_linear_10_491)"/>
<path d="M33.8779 13.3227V20.671C33.8779 28.8752 30.5289 33.9979 20.8256 33.9979H13.0548C9.28228 33.9979 6.47061 33.2243 4.44354 31.7919C3.59445 31.1938 2.88509 30.4852 2.29825 29.6726C0.96335 27.8133 0.264732 25.3993 0.0648193 22.5519C0.176598 22.4522 0.301275 22.3504 0.425951 22.2442C0.438849 22.2442 0.456046 22.2247 0.462494 22.2182C0.574273 22.1293 0.692501 22.0427 0.80643 21.9603C0.85587 21.917 0.918208 21.878 0.967649 21.8411C1.31588 21.5963 1.67272 21.3882 2.0274 21.2495C2.07039 21.2235 2.12628 21.2127 2.17142 21.1932C2.45732 21.0935 2.71312 21.048 2.93883 21.0675C3.16239 21.087 3.35585 21.1434 3.52567 21.2365C4.79823 21.9278 4.64776 24.5109 5.72685 25.2476C5.90097 25.3668 6.10088 25.4427 6.35668 25.4492C6.38678 25.4492 6.41902 25.4492 6.45127 25.4427C6.47706 25.4427 6.5136 25.4427 6.5394 25.4362C6.56519 25.4362 6.58884 25.4297 6.61463 25.4297C6.64473 25.4297 6.67052 25.4232 6.69632 25.4167C6.72211 25.4167 6.73931 25.4036 6.75866 25.4036C6.82745 25.3906 6.88333 25.3776 6.94567 25.3603C7.02091 25.3278 7.10259 25.2975 7.18213 25.2671C7.22512 25.2476 7.27026 25.2238 7.3197 25.1978C7.38849 25.1609 7.46373 25.1154 7.53251 25.0721C7.59485 25.0461 7.64429 25.0093 7.70018 24.9724C7.71308 24.9594 7.72598 24.9594 7.73672 24.9464C7.80551 24.9031 7.86785 24.8532 7.93664 24.8077C7.99253 24.7644 8.04841 24.7189 8.09786 24.6755C8.15374 24.6322 8.20963 24.5867 8.25908 24.5434C8.3644 24.4545 8.46544 24.3613 8.57077 24.266C8.57722 24.2595 8.59011 24.253 8.59656 24.2465C8.70834 24.1403 8.82012 24.0276 8.93405 23.9128C9.02218 23.8239 9.10172 23.7307 9.18985 23.6419C9.27798 23.5487 9.35752 23.4534 9.44565 23.3645C9.45855 23.3515 9.465 23.345 9.47145 23.332C9.58323 23.2128 9.69071 23.0936 9.79604 22.9615C9.89492 22.8423 9.99595 22.7231 10.0948 22.5974C10.3076 22.359 10.5119 22.1077 10.7182 21.8368C10.8171 21.7046 10.9246 21.5789 11.0235 21.4402C11.1481 21.2885 11.2664 21.139 11.3846 20.9873C11.5415 20.7793 11.6963 20.5778 11.8532 20.3784C12.0725 20.1075 12.2831 19.8258 12.5024 19.5615C12.6593 19.3469 12.827 19.1411 12.9882 18.946C13.1064 18.7943 13.2311 18.6513 13.3493 18.5061C13.4611 18.3739 13.5729 18.2353 13.6868 18.1096C13.8437 17.9275 13.9985 17.752 14.1554 17.5808C14.2607 17.4746 14.3618 17.3728 14.4542 17.2666C14.523 17.1973 14.5853 17.1409 14.6477 17.0781C14.7423 17.2363 14.854 17.3793 14.9916 17.505C15.4151 17.9254 15.9955 18.1768 16.6317 18.1768C17.311 18.1768 17.9215 17.8885 18.3536 17.4226C18.5105 17.2601 18.6352 17.0824 18.7405 16.8809C18.7598 16.9307 18.777 16.9762 18.7899 17.0131C18.8093 17.0629 18.8265 17.1128 18.8458 17.1583C18.8824 17.2471 18.9146 17.3338 18.9404 17.4226C18.9598 17.466 18.9705 17.5115 18.9834 17.5548C19.0027 17.5982 19.0092 17.6372 19.0264 17.687V17.6935C19.0629 17.8127 19.1016 17.9384 19.1317 18.0641C19.1747 18.1898 19.207 18.3154 19.2371 18.4411C19.25 18.4736 19.25 18.504 19.2628 18.5365C19.2886 18.6297 19.3123 18.7315 19.3381 18.8312C19.4004 19.05 19.4563 19.2776 19.5122 19.4964C19.5251 19.5333 19.5315 19.5658 19.5487 19.6026C19.5681 19.6958 19.5917 19.7912 19.624 19.8865C19.6433 19.9428 19.6562 19.9992 19.6799 20.0685C19.7057 20.1574 19.7358 20.2506 19.768 20.3394C19.811 20.4651 19.8561 20.5778 19.8991 20.6861C19.9421 20.7988 19.9873 20.9115 20.0367 21.0068C20.0561 21.0632 20.0861 21.113 20.1184 21.165C20.1248 21.1845 20.1313 21.1975 20.1442 21.2214C20.17 21.2647 20.2065 21.3145 20.2323 21.3666C20.3011 21.4792 20.3828 21.5919 20.4688 21.6873C20.7611 22.034 21.1351 22.2399 21.6296 22.2464H21.6983C21.7177 22.2529 21.7413 22.2464 21.7671 22.2398C21.8101 22.2464 21.8553 22.2398 21.8983 22.2398C21.967 22.2333 22.0294 22.2203 22.0917 22.2138H22.1046C22.1734 22.2008 22.2422 22.1878 22.3174 22.1705C23.1708 21.9885 23.9705 21.4294 24.7314 20.6428C24.8368 20.5301 24.9507 20.4174 25.056 20.2961C25.1248 20.2202 25.1936 20.1444 25.2559 20.0642C25.4558 19.8323 25.6493 19.5875 25.8492 19.3361C25.9244 19.2299 26.0061 19.1281 26.0728 19.0284C26.7155 18.1486 27.3389 17.1604 27.9687 16.168C28.5921 15.1863 29.2155 14.1938 29.8647 13.288C30.0216 13.0735 30.1763 12.8611 30.3333 12.6596C31.2683 11.4331 32.2593 10.4536 33.3384 9.99421C33.3943 9.97471 33.4373 9.95738 33.4953 9.93787C33.5512 9.91837 33.6007 9.90103 33.6565 9.88153C33.8135 10.9564 33.8865 12.107 33.8865 13.3205L33.8779 13.3227Z" fill="url(#paint1_linear_10_491)"/>
<path d="M14.6452 17.0823C14.7376 17.2384 14.8537 17.3857 14.9891 17.5136C14.9397 17.5569 14.8924 17.6067 14.8472 17.6566L14.5463 17.9708C14.4195 18.1073 14.2841 18.2655 14.1443 18.4259L14.0949 18.48C14.0218 18.5624 13.9487 18.6469 13.8821 18.7292L13.7617 18.8766C13.6456 19.0088 13.5295 19.1561 13.4113 19.297C12.9255 19.8951 12.4397 20.5257 11.9539 21.1519L11.453 21.7977C11.0554 22.3026 10.6319 22.8357 10.2041 23.3298C10.0923 23.4619 9.98057 23.5833 9.87309 23.7068L9.83439 23.7501C9.66028 23.9408 9.49046 24.1315 9.31419 24.3092L8.97456 24.6429C8.84343 24.7643 8.72735 24.8683 8.61128 24.9658C8.53389 25.0395 8.44576 25.1088 8.35977 25.176C8.24369 25.2692 8.12117 25.358 8.00509 25.4361L7.80518 25.5574C7.56657 25.7004 7.33442 25.8109 7.10656 25.8846C7.01843 25.9085 6.94534 25.928 6.883 25.9431C6.86795 25.9475 6.81421 25.9583 6.77122 25.967L6.68309 25.9821C6.65299 25.9865 6.62075 25.9865 6.59066 25.993C6.50897 26.0038 6.42944 26.0038 6.35205 26.0038V24.903C6.38644 24.903 6.42514 24.903 6.46383 24.8986L6.63365 24.8748C6.68309 24.8596 6.73468 24.8445 6.78412 24.8315C6.91954 24.7925 7.07646 24.7145 7.24628 24.6104L7.37741 24.5324C7.48919 24.4588 7.58592 24.3851 7.68265 24.3114C7.75574 24.2529 7.82452 24.1987 7.89546 24.1359C8.01154 24.0384 8.11472 23.9452 8.22005 23.8477L8.55109 23.5248C8.70156 23.3688 8.86278 23.1911 9.02185 23.0112L9.05624 22.9765C9.16372 22.8595 9.26905 22.736 9.37653 22.6103C9.78925 22.1357 10.202 21.6113 10.5911 21.1173L11.0855 20.4802C11.5756 19.8431 12.0721 19.2081 12.5622 18.6057C12.6826 18.454 12.8051 18.3067 12.9212 18.1593L13.048 18.0163C13.1211 17.9231 13.1985 17.8343 13.2759 17.7519L13.3189 17.6978C13.4651 17.5309 13.6048 17.3705 13.7467 17.2189L14.0519 16.896C14.1207 16.8266 14.1873 16.7595 14.2561 16.6944L14.3528 16.5969C14.3528 16.5969 14.3765 16.5774 14.3872 16.5666C14.4453 16.753 14.527 16.9241 14.6387 17.0845L14.6452 17.0823Z" fill="white"/>
<path d="M30.3716 13.7149C29.9245 14.2739 29.5763 14.8157 29.1378 15.507C28.5552 16.4279 27.8308 17.5678 26.5002 19.3642C26.4121 19.4769 26.339 19.5787 26.2616 19.6784C26.0617 19.9384 25.8639 20.192 25.6554 20.4325C25.6318 20.4672 25.5931 20.5105 25.5544 20.5495L25.4663 20.6514C24.4087 21.8172 23.4177 22.4825 22.431 22.7122C22.2698 22.7512 22.1064 22.775 21.9366 22.7902C21.8979 22.7945 21.8485 22.8054 21.7819 22.801C21.7195 22.8119 21.6658 22.8119 21.6163 22.8119C20.7672 22.8075 20.0966 22.3416 19.6258 21.4315C19.5957 21.373 19.557 21.3036 19.5291 21.23C19.4904 21.152 19.4366 21.0284 19.3872 20.9027C19.3378 20.7814 19.2905 20.6535 19.2475 20.5257C19.2045 20.413 19.155 20.2722 19.1207 20.1248C19.0863 20.0273 19.0519 19.8951 19.0132 19.7586C18.9938 19.7044 18.9745 19.6221 18.9508 19.5375C18.8971 19.3425 18.8434 19.1323 18.7896 18.9156C18.7595 18.8073 18.7316 18.6946 18.7015 18.5776L18.5467 18.0098C18.5317 17.9708 18.508 17.9015 18.493 17.8386L18.3468 17.4334C18.5016 17.2709 18.6284 17.091 18.7294 16.896C18.8455 16.6706 18.9293 16.4301 18.9616 16.1722C18.9852 16.2026 19.0003 16.2351 19.0196 16.2654C19.0691 16.3477 19.1164 16.4409 19.1615 16.5298L19.2045 16.6273C19.2346 16.6858 19.2625 16.7486 19.2926 16.8223L19.4538 17.2622C19.4646 17.2926 19.4839 17.3402 19.4968 17.3901L19.5979 17.7281L19.7591 18.3067C19.7892 18.4281 19.8128 18.5321 19.8408 18.6339C19.8988 18.8484 19.9483 19.0543 20.0063 19.2558C20.0256 19.3295 20.0407 19.388 20.0557 19.4422C20.0987 19.5896 20.1331 19.7066 20.1675 19.8236C20.2062 19.9601 20.2363 20.0576 20.275 20.1573C20.318 20.2895 20.3567 20.3978 20.4018 20.4954C20.4362 20.5885 20.4749 20.6817 20.5179 20.7641C20.5523 20.8421 20.5716 20.8767 20.5867 20.9114C20.9564 21.6157 21.3347 21.7089 21.6206 21.7089L21.7023 21.6937L21.8141 21.7045C21.956 21.6894 22.072 21.6699 22.1838 21.646C22.9512 21.464 23.7573 20.9071 24.6451 19.9319C24.6602 19.9124 24.6989 19.8691 24.7332 19.8236L24.8257 19.7217C25.0256 19.492 25.2148 19.2515 25.3996 19.0066C25.477 18.9091 25.5458 18.8159 25.6124 18.7228C26.9323 16.9458 27.6459 15.8255 28.2156 14.9197C28.6778 14.2003 29.0367 13.6325 29.5225 13.0258L29.8579 13.301L30.3716 13.7214V13.7149Z" fill="white"/>
<path d="M18.1103 15.7952C18.1103 15.8494 18.106 15.9035 18.0996 15.9577C18.0759 16.1722 18.0072 16.3738 17.9061 16.5558C17.6482 16.9957 17.1731 17.2904 16.6293 17.2904C16.2509 17.2904 15.9049 17.1474 15.649 16.9133C15.5136 16.7963 15.3975 16.649 15.3137 16.4821C15.2213 16.3066 15.1675 16.1094 15.1525 15.9035C15.1482 15.8689 15.1482 15.8298 15.1482 15.7952C15.1482 14.9739 15.8081 14.3021 16.6293 14.3021C17.2505 14.3021 17.7857 14.6943 18.0029 15.2426C18.0716 15.4138 18.1103 15.6001 18.1103 15.7952Z" fill="white"/>
<path d="M17.0141 28.7039C23.4902 28.7039 28.7401 23.4115 28.7401 16.883C28.7401 10.3545 23.4902 5.06207 17.0141 5.06207C10.538 5.06207 5.28802 10.3545 5.28802 16.883C5.28802 23.4115 10.538 28.7039 17.0141 28.7039Z" fill="url(#paint2_linear_10_491)"/>
<path d="M30.3224 12.6638C28.5017 6.96246 23.1879 2.82568 16.939 2.82568C9.18761 2.82568 2.885 9.18145 2.885 16.9956C2.885 18.467 3.10855 19.8929 3.52773 21.2386C4.06297 22.9613 4.92496 24.5454 6.0277 25.9149L2.29816 29.6746C2.885 30.4851 3.59436 31.1959 4.44345 31.7939L8.1601 28.0472C10.5676 29.9953 13.6158 31.1655 16.9412 31.1655C24.6862 31.1655 30.9974 24.8097 30.9974 16.9956C30.9974 15.4874 30.7609 14.029 30.3246 12.6638H30.3224ZM16.939 28.1404C13.5964 28.1404 10.5977 26.6387 8.57067 24.268C6.90044 22.3134 5.88368 19.7737 5.88368 16.9956C5.88368 10.8544 10.8406 5.84863 16.939 5.84863C23.0374 5.84863 27.5408 10.4123 27.9579 16.17C27.9772 16.4409 27.988 16.7161 27.988 16.9934C27.988 23.1412 23.031 28.1382 16.9369 28.1382L16.939 28.1404Z" fill="#000B18"/>
<defs>
<linearGradient id="paint0_linear_10_491" x1="4.11003" y1="32.0172" x2="29.6365" y2="2.61093" gradientUnits="userSpaceOnUse">
<stop stop-color="#0032FF"/>
<stop offset="1" stop-color="#00E3FF"/>
</linearGradient>
<linearGradient id="paint1_linear_10_491" x1="16.9714" y1="12.3237" x2="16.9714" y2="32.5092" gradientUnits="userSpaceOnUse">
<stop stop-color="#00FFFF"/>
<stop offset="1" stop-color="#00FFFF" stop-opacity="0"/>
</linearGradient>
<linearGradient id="paint2_linear_10_491" x1="1.85297" y1="-0.806124" x2="14.6766" y2="13.9182" gradientUnits="userSpaceOnUse">
<stop offset="0.47" stop-color="#00FFFF"/>
<stop offset="1" stop-color="#00FFFF" stop-opacity="0"/>
</linearGradient>
</defs>
</svg>
