<svg width="519" height="366" viewBox="0 0 519 366" fill="none" xmlns="http://www.w3.org/2000/svg">
<g clip-path="url(#clip0_38_3730)">
<rect width="519" height="366" rx="25" fill="#000B18"/>
<g opacity="0.8" filter="url(#filter0_f_38_3730)">
<ellipse cx="290" cy="334.5" rx="170" ry="199.5" fill="#6482FF" fill-opacity="0.5"/>
</g>
<g opacity="0.8" filter="url(#filter1_f_38_3730)">
<ellipse cx="155.5" cy="15.5" rx="248.5" ry="83.5" fill="#3130E7" fill-opacity="0.47"/>
</g>
<g opacity="0.2" clip-path="url(#clip1_38_3730)">
<path d="M1383.22 -227.655C1338.94 -226.135 1295.89 -209.054 1255.67 -186.693C1236.15 -175.828 1216.91 -163.894 1198.18 -151.015C1180.3 -138.726 1163.34 -124.654 1145.82 -111.633C1127.28 -97.8779 1109.39 -82.8551 1091.16 -68.4984C1074.14 -55.1107 1056.83 -42.3483 1039.7 -29.2195C1001.3 0.176952 959.992 26.0322 917.524 44.7865C875.802 63.2027 832.737 70.6418 788.607 68.2181C743.608 65.7627 699.184 55.0477 655.758 40.2672C564.924 9.3688 478.329 -37.3417 389.819 -76.9483C306.967 -114.039 221.467 -147.178 132.561 -145.45C121.36 -145.223 110.165 -144.44 99.0155 -142.972" stroke="url(#paint0_radial_38_3730)" stroke-opacity="0.1" stroke-width="3.27711" stroke-miterlimit="10" stroke-linecap="round"/>
<path d="M1417.73 -128.757C1374.84 -132.818 1332.26 -116.323 1292.55 -98.0394C1272.35 -88.753 1252.13 -78.8876 1233.26 -65.8221C1215.52 -53.5425 1197.33 -42.0544 1179.21 -30.6157C1161.79 -19.6236 1143.85 -10.0417 1126.33 0.601615C1106.91 12.4144 1087.55 23.4013 1067.07 32.1954C1025.47 50.0704 983.462 65.1272 939.122 65.7393C934.775 65.8037 930.464 65.444 926.129 65.3742C920.785 65.3043 915.304 66.5769 909.954 67.174C898.741 68.402 887.492 69.1883 876.247 69.6186C854.18 70.4955 832.077 70.0631 810.06 68.7369C785.703 67.254 761.412 64.4334 737.213 60.8069C714.028 57.3356 690.981 52.5223 667.888 47.8673C655.709 45.4259 643.539 42.7838 631.401 40.0509C625.671 38.7621 619.957 37.4277 614.225 36.0945C608.743 34.8116 603.313 34.7701 597.825 33.7764C573.789 29.4057 549.852 21.8959 526.09 15.6185C479.692 3.36704 433.02 -8.71158 386.027 -16.5907C361.88 -20.6429 337.742 -26.6061 313.508 -30.6304C291.108 -34.3533 268.867 -38.5089 246.355 -41.1134C199.659 -46.5234 152.603 -48.2877 105.775 -44.1563C94.7996 -43.1883 83.856 -41.8889 72.9479 -40.1476" stroke="url(#paint1_radial_38_3730)" stroke-opacity="0.1" stroke-width="3.27711" stroke-miterlimit="10" stroke-linecap="round"/>
<path d="M1461.4 -35.6431C1443.51 -41.0854 1423.05 -38.5363 1405.02 -35.8811C1381.95 -32.4933 1359.57 -25.1079 1337.1 -18.1382C1326.07 -14.7222 1315.01 -10.9929 1304.41 -5.87165C1296.74 -2.16681 1289.53 2.44145 1281.69 5.64708C1272.92 9.22456 1264.56 13.9315 1255.86 17.7049C1246.48 21.7674 1236.72 24.6335 1227.32 28.7859C1219.51 32.2341 1211.53 35.0048 1203.65 38.2127C1195.53 41.5256 1187.72 45.7961 1179.46 48.7404C1157.7 56.4857 1135.1 61.9747 1112.77 66.4018C1090.47 70.8278 1067.86 72.6512 1045.28 71.5174C1036.46 71.077 1027.09 67.7621 1018.46 69.4642C1006.96 71.7559 995.418 73.65 983.852 75.3013C882.756 89.5877 780.835 85.3737 679.502 78.2993C673.207 77.8699 666.818 76.891 660.534 77.1498C654.55 77.3887 648.838 77.8104 642.843 77.3612C629.325 76.3192 615.822 75.2096 602.316 74.0112C576.564 71.7535 550.807 69.3628 525.06 66.7938C498.604 64.1604 472.15 61.5935 445.67 59.2506C420.45 57.0245 395.288 56.172 370.053 54.4358C343.24 52.5814 316.408 51.1505 289.566 50.298C280.696 50.0162 271.877 48.4425 262.982 48.0067C249.641 47.3752 236.291 46.9443 222.948 46.7128C172.57 45.8342 122.089 47.5841 71.9029 53.4479C60.3415 54.7878 48.7907 56.3712 37.2691 58.2418" stroke="url(#paint2_radial_38_3730)" stroke-opacity="0.1" stroke-width="3.27711" stroke-miterlimit="10" stroke-linecap="round"/>
<path d="M1508.95 54.6613C1502.09 50.8028 1493.33 50.9806 1485.99 50.6641C1473.52 50.1529 1460.98 50.3128 1448.52 51.3563C1423.53 53.4479 1398.37 58.4408 1373.83 64.6798C1364.89 66.958 1356.66 70.9226 1347.98 73.9391C1340.12 76.6794 1332.13 78.8941 1324.27 81.5014C1314.34 84.7778 1304.44 88.2534 1294.54 91.7058C1286.54 94.4997 1278.33 96.4626 1270.37 99.3871C1261.46 102.664 1252.96 106.69 1243.78 109.096C1232.3 112.096 1220.55 113.827 1209.15 116.178C1184.61 121.263 1160.14 123.608 1135.28 123.114C1126.77 122.942 1118.65 121.7 1110.27 120.408C1105.52 119.677 1100.01 121.617 1095.2 122.423C1089.26 123.415 1083.33 124.361 1077.39 125.22C1051.46 129.04 1025.46 131.843 999.424 134.093C972.854 136.378 946.247 138.176 919.632 139.398C905.655 140.052 891.689 140.551 877.717 140.916C864.523 141.275 850.542 143.107 837.426 141.083C824.398 139.054 810.558 140.877 797.423 140.943C783.51 141.016 769.592 141 755.673 140.918C741.947 140.823 728.219 140.661 714.488 140.433C701.801 140.225 689.216 141.611 676.526 141.336C622.492 140.143 568.476 138.105 514.453 136.333C487.113 135.424 459.759 134.605 432.396 133.987C419.422 133.687 406.555 135.091 393.584 134.857C379.923 134.625 366.265 134.436 352.592 134.337C338.742 134.228 324.878 134.209 311.036 134.277C297.67 134.336 283.684 136.058 270.407 134.422C257.183 132.783 243.668 133.918 230.385 134.26C216.396 134.627 202.429 135.104 188.451 135.737C136.315 138.085 84.2034 142.298 32.3285 149.206C20.6872 150.751 9.05268 152.452 -2.57566 154.308" stroke="url(#paint3_radial_38_3730)" stroke-opacity="0.1" stroke-width="3.27711" stroke-miterlimit="10" stroke-linecap="round"/>
<path d="M1556.51 144.963C1548.92 142.063 1539.92 142.79 1532.12 142.815C1520.01 142.836 1507.86 143.237 1495.77 144.145C1468.04 146.218 1440.43 150.704 1413 155.957C1403.35 157.793 1393.26 159.391 1383.97 163.292C1375.28 166.932 1366.37 168.32 1357.44 170.842C1340.17 175.735 1323.59 183.094 1306.52 188.863C1298.96 191.428 1291.15 192.832 1283.85 196.468C1274.69 201.028 1265.34 204.133 1255.69 206.702C1243.46 209.975 1231.05 212.015 1218.88 215.24C1204.36 219.108 1189.77 222.491 1175.11 225.258C1154.18 229.216 1133.15 230.891 1112.01 232.018C1100.39 232.651 1088.72 234.798 1077.12 236.007C1063.51 237.415 1049.89 238.647 1036.27 239.745C980.577 244.216 924.779 246.538 868.981 247.572C809.914 248.666 750.84 246.607 691.719 246.393C676.845 246.33 662.055 246.993 647.169 246.641C632.017 246.262 616.864 245.839 601.709 245.394C572.461 244.522 543.227 243.561 513.991 242.555C483.977 241.534 453.946 240.558 423.923 239.737C395.245 238.961 366.622 239.493 337.939 239.029C223.508 237.151 109.14 237.202 -5.12679 246.89C-17.5318 247.93 -29.9144 249.08 -42.3102 250.342" stroke="url(#paint4_radial_38_3730)" stroke-opacity="0.1" stroke-width="3.27711" stroke-miterlimit="10" stroke-linecap="round"/>
<path d="M1600.2 238.077C1578.36 236.517 1555.77 239.517 1534.04 241.771C1505.85 244.696 1477.82 249.167 1449.73 253.107C1436 255.035 1422.25 257.03 1408.58 259.553C1399.13 261.288 1390.04 264.397 1380.74 266.543C1360.5 271.189 1340.03 274.471 1319.74 278.942C1277.13 288.329 1235.14 301.052 1192 306.473C1163.56 310.037 1135.31 315.989 1106.8 319.401C1086.39 321.857 1065.89 322.431 1045.45 324.267C927.252 334.992 808.719 336.096 690.273 336.305C628.654 336.412 567.061 336.717 505.424 335.98C475.19 335.618 444.942 335.346 414.714 335.139C383.39 334.937 352.088 335.712 320.771 335.666C200.187 335.505 79.6219 337.053 -40.8013 345.814C-53.2119 346.721 -65.6027 347.672 -78.0078 348.712" stroke="url(#paint5_radial_38_3730)" stroke-opacity="0.1" stroke-width="3.27711" stroke-miterlimit="10" stroke-linecap="round"/>
<path d="M1634.69 336.975C1580.76 340.152 1527.02 346.362 1473.28 352.704C1446.43 355.874 1419.5 358.272 1392.7 362.372C1373.97 365.229 1355.27 368.395 1336.46 371.102C1313.33 374.426 1290.17 377.486 1267.03 380.545C1247.97 383.046 1229 386.251 1209.95 388.685C1181.04 392.391 1152.04 395.769 1122.98 396.819C1092.04 397.925 1061.1 397.964 1030.17 398.604C1018.05 398.847 1005.89 399.116 993.778 398.648C990.679 398.519 987.544 397.992 984.447 397.93C978.907 397.806 973.111 399.166 967.568 399.798C938.09 403.163 908.572 405.975 879.044 408.566C818.579 413.863 757.942 420.55 697.352 422.433C631.235 424.503 565.11 426.374 498.979 427.689C434.809 428.942 370.568 429.333 306.438 431.983C244.355 434.543 182.241 435.504 120.169 438.307C57.708 441.114 -4.70985 444.518 -67.1043 448.92C-79.41 449.798 -91.7156 450.699 -104.019 451.621" stroke="url(#paint6_radial_38_3730)" stroke-opacity="0.1" stroke-width="3.27711" stroke-miterlimit="10" stroke-linecap="round"/>
<path d="M256.848 1312C254.008 1257.54 240.132 1207.66 219.282 1160.15C198.841 1113.57 175.038 1069.03 150.541 1025.67C137.94 1003.37 126.785 979.704 116.84 955.384C112.192 944.002 108.147 932.269 103.482 920.911C98.3646 908.449 93.5053 895.814 89.0263 882.977C80.8919 859.671 71.6542 837.037 63.8308 813.554C55.5445 788.724 47.8306 763.634 40.6544 738.287C33.043 711.413 26.0096 683.567 21.7098 655.542C17.6827 629.387 14.1494 602.776 13.1925 576.041C11.25 521.461 24.4367 465.863 38.9479 414.887C53.9837 362.077 73.4418 311.841 93.3293 261.733C102.417 238.825 111.404 215.655 119.495 192.168C127.996 167.498 135.381 142.368 142.674 117.133C171.958 15.942 191.186 -90.2072 192.319 -198.186C192.467 -212.017 192.367 -225.855 192.09 -239.68" stroke="url(#paint7_radial_38_3730)" stroke-opacity="0.1" stroke-width="3.27711" stroke-miterlimit="10" stroke-linecap="round"/>
<path d="M335.474 1268.64C334.024 1243.62 330.736 1218.66 324.122 1194.95C317.548 1171.31 307.173 1149.38 296.242 1128.54C290.153 1116.97 283.603 1105.78 276.986 1094.68C270.996 1084.61 266.282 1074.61 260.036 1064.78C246.731 1043.84 233.27 1022.97 220.627 1001.38C208.633 980.906 198.451 959.802 190.456 936.441C186.528 924.945 184.245 913.051 181.222 901.207C178.134 889.078 174.479 877.342 172.05 864.903C167.215 840.157 161.088 815.785 156.776 790.849C152.368 765.319 148.098 739.713 144.566 713.97C137.555 662.946 134.199 609.237 138.623 557.637C140.855 531.47 147.591 506.028 154.173 481.129C160.74 456.297 168.267 432.025 176.567 408.035C192.693 361.441 211.988 316.616 231.581 272.171C250.917 228.344 266.048 182.882 275.221 134.081C284.497 84.761 287.961 33.4694 286.047 -17.0457C285.577 -29.5695 285.694 -42.0201 285.401 -54.5333C285.081 -67.7114 283.638 -80.6821 282.613 -93.7915C280.691 -118.241 277.59 -142.525 275.773 -167.003C274.793 -180.294 274.097 -193.602 273.876 -206.942" stroke="url(#paint8_radial_38_3730)" stroke-opacity="0.1" stroke-width="3.27711" stroke-miterlimit="10" stroke-linecap="round"/>
<path d="M409.538 1213.76C408.305 1190.15 405.615 1166.38 398.957 1144.13C392.729 1123.3 382.354 1104.34 371.512 1086.9C347.287 1047.94 318.799 1014 293.102 976.607C280.921 958.878 268.859 939.364 262.433 917.144C258.961 905.152 256.4 892.921 255.462 880.206C254.505 867.448 252.059 855.01 251.4 842.187C250.768 830.008 251.219 817.935 250.162 805.761C249.139 793.962 248.746 781.989 248.64 770.13C248.51 756.851 249.159 743.631 248.924 730.358C248.682 717.375 248.953 704.38 249.172 691.411C250.037 640.112 254.486 587.845 265.039 538.197C267.758 525.396 272.74 513.024 276.918 500.861C281.067 488.833 285.325 476.885 289.709 464.997C298.27 441.767 307.506 419.027 317.049 396.443C334.509 355.117 354.819 315.981 373.646 275.631C392.879 234.41 409.308 191.24 413.51 143.211C415.607 119.318 415.011 94.8925 411.6 71.2078C410.85 65.9465 409.599 60.9631 408.466 55.8381C407.291 50.5825 407.059 45.0425 406.27 39.6948C404.478 27.6804 400.101 17.3034 397.235 5.82647C394.433 -5.38807 391.019 -16.4513 388.041 -27.6321C384.687 -40.2102 379.938 -51.8963 375.719 -63.9952C368.647 -84.3054 360.848 -104.235 356.375 -125.805C353.918 -137.642 352.421 -149.809 352.104 -162.055" stroke="url(#paint9_radial_38_3730)" stroke-opacity="0.1" stroke-width="3.27711" stroke-miterlimit="10" stroke-linecap="round"/>
<path d="M481.276 1154.08C480.345 1131.78 478.335 1109.05 471.647 1088.2C465.062 1067.68 453.144 1049.92 441.113 1034.07C413.663 997.9 380.978 968.901 353.995 932.082C340.964 914.298 330.87 895.298 327.18 871.298C325.313 859.2 325.646 848.113 326.322 835.913C326.961 824.539 326.922 813.453 328.912 802.234C329.958 796.365 331.383 790.693 332.305 784.81C333.31 778.389 333.711 771.919 334.52 765.444C336.003 753.547 338.163 741.738 340.81 730.165C346.207 706.544 350.045 682.425 355.368 658.72C360.828 634.473 366.657 610.179 372.996 586.252C379.366 562.211 386.183 537.43 396.281 515.454C416.383 471.754 437.29 428.69 458.743 386.011C479.004 345.7 502.627 308.39 522.683 267.826C541.826 229.121 556.368 183.965 553.353 137.589C552.631 126.637 550.427 115.362 547.399 105.095C544.331 94.7203 540.98 83.8967 536.188 74.5688C533.957 70.2496 531.363 66.5766 529.629 61.8912C527.834 57.032 525.798 52.3005 523.385 47.882C521.086 43.6339 518.48 39.6724 515.639 35.9933C512.107 31.4487 509.003 26.9646 505.708 22.16C500.041 13.9119 494.663 5.37811 488.962 -2.8455C482.357 -12.3872 474.915 -20.8073 467.94 -29.8802C455.807 -45.6348 442.69 -60.3686 435.024 -80.5064C431.25 -90.4347 428.944 -101.194 428.432 -112.204" stroke="url(#paint10_radial_38_3730)" stroke-opacity="0.1" stroke-width="3.27711" stroke-miterlimit="10" stroke-linecap="round"/>
<path d="M553.018 1094.42C552.134 1071.55 550.392 1047.62 541.855 1026.96C540.163 1022.85 538.147 1019.03 535.889 1015.35C534.294 1012.73 531.747 1010.16 530.497 1007.33C529.911 1005.99 530.394 1005.7 529.868 1004.53C527.531 999.395 522.456 994.73 519.018 990.734C514.985 986.045 510.803 981.588 506.553 977.201C491.826 962.018 476.111 947.722 460.413 934.268C444.164 920.318 426.508 905.284 413.454 886.523C408.638 879.597 403.832 871.647 400.321 863.368C395.848 852.797 394.474 841.91 394.017 830.097C393.561 817.905 396.717 806.676 398.88 794.956C400.961 783.797 404.409 773.215 408.872 763.233C418.039 742.652 424.545 720.602 434.325 700.314C445.099 677.983 453.666 654.464 464.186 631.994C474.659 609.661 484.411 586.997 494.979 564.835C500.897 552.423 506.851 540.009 512.677 527.515C518.34 515.342 525.006 504.304 531.678 492.998C556.435 451.102 581.677 409.818 606.379 367.859C618.548 347.191 632.895 328.713 645.264 308.166C650.704 299.141 655.761 289.808 660.999 280.597C666.65 270.669 670.999 260.05 676.121 249.757C694.28 213.295 702.712 159.032 684.959 120.071C680.618 110.536 674.72 101.836 668.814 93.7815C663.376 86.3627 656.581 81.1442 650.793 74.2373C637.58 58.465 621.313 50.0051 606 38.1487C598.545 32.3739 591.086 26.1104 582.903 20.6947C573.574 14.5101 564.131 8.55564 554.8 2.34894C539.778 -7.6378 523.718 -17.0454 513.293 -34.6681C508.517 -42.7527 505.399 -52.2136 504.66 -62.2754" stroke="url(#paint11_radial_38_3730)" stroke-opacity="0.1" stroke-width="3.27711" stroke-miterlimit="10" stroke-linecap="round"/>
<path d="M627.078 1039.54C626.541 1019.49 625.69 998.234 618.939 979.702C611.967 960.519 597.863 946.272 584.378 934.562C576.726 927.911 568.8 921.856 560.757 915.987C553.936 911.015 546.903 905.212 539.759 901.795C535.537 899.784 531.419 896.011 527.485 893.271C522.769 890.004 518.101 886.645 513.499 883.127C505.554 877.073 497.732 870.567 490.378 863.408C477.53 850.878 464.388 833.834 462.753 812.455C461.973 802.24 463.183 790.983 466.251 781.471C469.21 772.298 472.314 762.783 476.472 754.376C481.201 744.82 486.972 736.485 492.901 728.139C498.662 720.027 503.466 711 509.025 702.678C520.624 685.292 533.911 669.816 545.806 652.744C558.269 634.879 570.6 616.802 583.377 598.849C596.089 581.012 608.612 562.876 620.841 544.494C627.396 534.618 633.82 524.594 640.024 514.364C646.129 504.295 653.302 495.267 660.128 485.951C672.725 468.766 685.249 451.498 697.752 434.186C710.106 417.084 722.292 399.792 734.367 382.375C746.043 365.562 758.081 349.369 770.147 332.997C792.439 302.796 814.723 270.706 827.822 232.511C834.822 212.118 838.274 191.025 836.709 168.774C835.21 147.696 828.873 130.16 816.864 115.286C804.874 100.433 790.509 91.803 775.582 82.8321C768.545 78.6074 761.753 74.3224 754.318 71.1683C746.181 67.705 737.771 65.7483 729.577 62.622C725.409 61.0303 721.2 59.7522 716.986 58.3634C714.764 57.6434 712.604 56.7412 710.396 55.9314C709.911 55.7633 706.748 54.9714 709.016 55.4885C682.212 46.234 654.694 40.2273 628.066 30.0946C609.631 23.0882 585.587 10.0515 582.99 -17.42" stroke="url(#paint12_radial_38_3730)" stroke-opacity="0.1" stroke-width="3.27711" stroke-miterlimit="10" stroke-linecap="round"/>
<path d="M705.707 996.179C704.92 973.099 704.009 947.028 692.388 927.884C680.141 907.715 660.333 895.354 642.524 884.707C622.921 873 602.615 863.539 583.126 851.602C565.56 840.828 545.952 827.744 535.669 805.913C523.99 781.129 534.452 755.596 546.879 735.178C552.936 725.224 560.656 716.582 568.26 708.548C576.914 699.4 585.619 690.227 594.481 681.398C612.51 663.433 631.636 647.173 649.89 629.526C668.773 611.26 687.519 592.27 705.736 572.892C776.709 497.373 842.879 414.838 909.072 332.835C937.805 297.232 968.868 257.719 978.154 206.533C982.307 183.616 980.11 155.541 970.069 135.271C959.408 113.709 940.27 100.015 921.805 91.455C882.783 73.3177 841.071 71.2239 800.064 67.7943C776.305 65.8275 752.393 64.4265 728.8 60.4933C710.548 57.4524 689.067 53.2912 674.652 37.5314C669.372 31.7688 665.573 24.1975 664.797 15.3603" stroke="url(#paint13_radial_38_3730)" stroke-opacity="0.1" stroke-width="3.27711" stroke-miterlimit="10" stroke-linecap="round"/>
<path d="M172.998 1333.13C168.298 1220.53 120.178 1117.89 72.6994 1025.51C23.7573 930.278 -31.4889 839.059 -71.0545 736.741C-90.301 686.991 -105.633 634.027 -110.608 578.803C-115.613 523.292 -108.871 467.496 -96.313 414.204C-70.6364 305.385 -23.9389 206.224 17.6682 106.265C61.0095 2.10331 112.196 -122.953 106.905 -249.707C206.96 -256.303 305.759 -192.999 389.337 -138.112C469.133 -85.7096 548.246 -26.7953 635.076 5.61143C677.503 21.4577 721.975 29.9252 766.184 23.6332C810.48 17.3133 852.933 -2.19579 892.795 -26.6445C974.398 -76.6657 1047.17 -146.37 1123.23 -207.981C1196.28 -267.171 1277.5 -326.878 1366.46 -332.743C1371.74 -206.21 1432.84 -88.778 1484.85 9.54266C1534.55 103.504 1589.25 195.981 1623.84 300.804C1640.79 352.129 1652.12 406.755 1651.76 462.62C1651.41 518.195 1640.56 572.885 1625.58 624.892C1594.75 731.851 1547.42 829.832 1506.66 930.98C1467.13 1029.09 1427.82 1137.52 1432.52 1250.09C1343.56 1255.96 1257.81 1207.23 1180.24 1158C1099.46 1106.73 1021.29 1046.97 935.967 1007.95C894.272 988.883 850.443 975.062 805.864 974.601C761.357 974.158 717.853 988.447 676.977 1009.76C593.322 1053.41 519.548 1122.38 444.554 1185.01C366.963 1249.81 273.494 1326.5 172.998 1333.13Z" stroke="url(#paint14_radial_38_3730)" stroke-opacity="0.1" stroke-width="3.27711" stroke-miterlimit="10" stroke-linecap="round"/>
</g>
</g>
<defs>
<filter id="filter0_f_38_3730" x="-180" y="-165" width="940" height="999" filterUnits="userSpaceOnUse" color-interpolation-filters="sRGB">
<feFlood flood-opacity="0" result="BackgroundImageFix"/>
<feBlend mode="normal" in="SourceGraphic" in2="BackgroundImageFix" result="shape"/>
<feGaussianBlur stdDeviation="150" result="effect1_foregroundBlur_38_3730"/>
</filter>
<filter id="filter1_f_38_3730" x="-393" y="-368" width="1097" height="767" filterUnits="userSpaceOnUse" color-interpolation-filters="sRGB">
<feFlood flood-opacity="0" result="BackgroundImageFix"/>
<feBlend mode="normal" in="SourceGraphic" in2="BackgroundImageFix" result="shape"/>
<feGaussianBlur stdDeviation="150" result="effect1_foregroundBlur_38_3730"/>
</filter>
<radialGradient id="paint0_radial_38_3730" cx="0" cy="0" r="1" gradientUnits="userSpaceOnUse" gradientTransform="translate(746.494 -56.5716) rotate(87.6095) scale(129.449 643.311)">
<stop stop-color="white"/>
<stop offset="1" stop-color="white" stop-opacity="0"/>
</radialGradient>
<radialGradient id="paint1_radial_38_3730" cx="0" cy="0" r="1" gradientUnits="userSpaceOnUse" gradientTransform="translate(748.696 -4.05337) rotate(87.6095) scale(82.4719 673.654)">
<stop stop-color="white"/>
<stop offset="1" stop-color="white" stop-opacity="0"/>
</radialGradient>
<radialGradient id="paint2_radial_38_3730" cx="0" cy="0" r="1" gradientUnits="userSpaceOnUse" gradientTransform="translate(750.936 49.6261) rotate(87.6095) scale(43.4544 713.405)">
<stop stop-color="white"/>
<stop offset="1" stop-color="white" stop-opacity="0"/>
</radialGradient>
<radialGradient id="paint3_radial_38_3730" cx="0" cy="0" r="1" gradientUnits="userSpaceOnUse" gradientTransform="translate(753.999 123.898) rotate(87.6095) scale(26.7474 757.184)">
<stop stop-color="white"/>
<stop offset="1" stop-color="white" stop-opacity="0"/>
</radialGradient>
<radialGradient id="paint4_radial_38_3730" cx="0" cy="0" r="1" gradientUnits="userSpaceOnUse" gradientTransform="translate(758.262 225.524) rotate(87.6095) scale(32.7155 800.911)">
<stop stop-color="white"/>
<stop offset="1" stop-color="white" stop-opacity="0"/>
</radialGradient>
<radialGradient id="paint5_radial_38_3730" cx="0" cy="0" r="1" gradientUnits="userSpaceOnUse" gradientTransform="translate(762.105 317.597) rotate(87.6095) scale(26.0038 840.679)">
<stop stop-color="white"/>
<stop offset="1" stop-color="white" stop-opacity="0"/>
</radialGradient>
<radialGradient id="paint6_radial_38_3730" cx="0" cy="0" r="1" gradientUnits="userSpaceOnUse" gradientTransform="translate(765.875 407.28) rotate(87.6095) scale(13.3117 870.987)">
<stop stop-color="white"/>
<stop offset="1" stop-color="white" stop-opacity="0"/>
</radialGradient>
<radialGradient id="paint7_radial_38_3730" cx="0" cy="0" r="1" gradientUnits="userSpaceOnUse" gradientTransform="translate(118.291 543.159) rotate(87.6095) scale(776.514 106.386)">
<stop stop-color="white"/>
<stop offset="1" stop-color="white" stop-opacity="0"/>
</radialGradient>
<radialGradient id="paint8_radial_38_3730" cx="0" cy="0" r="1" gradientUnits="userSpaceOnUse" gradientTransform="translate(221.623 536.323) rotate(87.6095) scale(738.432 88.4035)">
<stop stop-color="white"/>
<stop offset="1" stop-color="white" stop-opacity="0"/>
</radialGradient>
<radialGradient id="paint9_radial_38_3730" cx="0" cy="0" r="1" gradientUnits="userSpaceOnUse" gradientTransform="translate(335.252 528.857) rotate(87.6095) scale(688.507 96.928)">
<stop stop-color="white"/>
<stop offset="1" stop-color="white" stop-opacity="0"/>
</radialGradient>
<radialGradient id="paint10_radial_38_3730" cx="0" cy="0" r="1" gradientUnits="userSpaceOnUse" gradientTransform="translate(440.662 521.872) rotate(87.6095) scale(633.691 128.672)">
<stop stop-color="white"/>
<stop offset="1" stop-color="white" stop-opacity="0"/>
</radialGradient>
<radialGradient id="paint11_radial_38_3730" cx="0" cy="0" r="1" gradientUnits="userSpaceOnUse" gradientTransform="translate(545.078 515.002) rotate(87.6095) scale(578.854 164.073)">
<stop stop-color="white"/>
<stop offset="1" stop-color="white" stop-opacity="0"/>
</radialGradient>
<radialGradient id="paint12_radial_38_3730" cx="0" cy="0" r="1" gradientUnits="userSpaceOnUse" gradientTransform="translate(650.467 508.065) rotate(87.6095) scale(528.939 200.293)">
<stop stop-color="white"/>
<stop offset="1" stop-color="white" stop-opacity="0"/>
</radialGradient>
<radialGradient id="paint13_radial_38_3730" cx="0" cy="0" r="1" gradientUnits="userSpaceOnUse" gradientTransform="translate(756.139 501.096) rotate(87.6095) scale(490.835 237.164)">
<stop stop-color="white"/>
<stop offset="1" stop-color="white" stop-opacity="0"/>
</radialGradient>
<radialGradient id="paint14_radial_38_3730" cx="0" cy="0" r="1" gradientUnits="userSpaceOnUse" gradientTransform="translate(769.722 500.192) rotate(87.6095) scale(792.106 883.312)">
<stop stop-color="white"/>
<stop offset="1" stop-color="white" stop-opacity="0"/>
</radialGradient>
<clipPath id="clip0_38_3730">
<rect width="519" height="366" rx="25" fill="white"/>
</clipPath>
<clipPath id="clip1_38_3730">
<rect width="1767.22" height="1584.21" fill="white" transform="matrix(0.997834 -0.0657814 0.0417092 0.99913 -145 -233.101)"/>
</clipPath>
</defs>
</svg>
