<svg width="21" height="19" viewBox="0 0 21 19" fill="none" xmlns="http://www.w3.org/2000/svg">
<path id="Path 3" d="M12.3144 3.7275C10.609 4.44828 7.20663 5.93751 2.11113 8.19336C1.68228 8.36711 1.32387 8.55095 1.05843 8.75126C0.803431 8.94369 0.55301 9.21293 0.508365 9.5748C0.472481 9.86566 0.553505 10.1269 0.723643 10.3394C0.878463 10.5328 1.09004 10.665 1.2898 10.7633C1.58902 10.9106 1.98822 11.038 2.38922 11.1659C2.50628 11.2033 2.62349 11.2407 2.73841 11.2787C3.19197 11.4285 3.7274 11.5922 4.23229 11.7209C4.72538 11.8465 5.22984 11.9495 5.60384 11.9577C6.31724 11.9734 7.05327 11.6752 7.79655 11.1569C10.1781 9.52338 11.9822 8.29467 13.2098 7.47018C13.4348 7.3191 13.6401 7.18177 13.8258 7.05815C13.4683 7.41328 13.058 7.81138 12.643 8.20963C12.0599 8.76915 11.4594 9.33664 10.9927 9.77778C10.5447 10.2011 10.2199 10.5081 10.1517 10.58C10.0356 10.7026 9.91618 10.8206 9.79497 10.9394C9.78122 10.9529 9.76741 10.9664 9.75355 10.98C9.64749 11.0839 9.53904 11.1901 9.43818 11.2944C9.21751 11.5225 8.98254 11.7909 8.8503 12.0973C8.70375 12.4368 8.68713 12.8147 8.88485 13.1995C9.06468 13.5495 9.40121 13.8637 9.85965 14.1707C10.5709 14.647 11.1398 15.0407 11.7104 15.4355L11.7886 15.4896C12.3858 15.9028 12.9912 16.321 13.7651 16.8364C13.9609 16.9669 14.1472 17.1018 14.3375 17.2397C14.3764 17.2678 14.4155 17.2962 14.4549 17.3246C14.6819 17.4885 14.9178 17.6555 15.1597 17.7999C15.6462 18.0903 16.2024 18.3174 16.8603 18.2558C17.6898 18.1783 18.2481 17.4004 18.5011 16.0259C19.0804 12.8791 20.2237 6.03683 20.4894 3.20067C20.5177 2.89843 20.4834 2.5376 20.4554 2.37115C20.427 2.20308 20.3529 1.85204 20.0314 1.58697C19.8471 1.43505 19.6342 1.35809 19.4679 1.31773C19.2987 1.27664 19.1388 1.26412 19.0264 1.26614C18.6061 1.27366 18.1204 1.39349 17.1745 1.74228C16.2197 2.09433 14.7419 2.70152 12.3144 3.7275ZM15.0883 6.24737C15.0882 6.24755 15.0851 6.24911 15.0797 6.25152C15.0858 6.24841 15.0885 6.2472 15.0883 6.24737Z" stroke="white" stroke-opacity="0.8"/>
</svg>
