<svg width="30" height="34" viewBox="0 0 30 34" fill="none" xmlns="http://www.w3.org/2000/svg">
<path d="M23.801 5.32667C22.4932 3.85262 21.7724 1.95959 21.773 0H15.861V23.4222C15.8154 24.6897 15.2733 25.8903 14.349 26.7711C13.4247 27.6519 12.1903 28.1443 10.9056 28.1444C8.18878 28.1444 5.93112 25.9533 5.93112 23.2333C5.93112 19.9844 9.10714 17.5478 12.3788 18.5489V12.58C5.77806 11.7111 0 16.7733 0 23.2333C0 29.5233 5.28061 34 10.8865 34C16.8941 34 21.773 29.1833 21.773 23.2333V11.3522C24.1703 13.0519 27.0485 13.9639 30 13.9589V8.12222C30 8.12222 26.4031 8.29222 23.801 5.32667Z" fill="url(#paint0_linear_335_3407)"/>
<defs>
<linearGradient id="paint0_linear_335_3407" x1="25.7072" y1="44.2" x2="8.32577" y2="43.3035" gradientUnits="userSpaceOnUse">
<stop stop-color="#224DFF"/>
<stop offset="0.177083" stop-color="#1844FB"/>
<stop offset="0.833333" stop-color="#244FFF"/>
<stop offset="1" stop-color="#0132FC"/>
<stop offset="1" stop-color="#0032FF"/>
</linearGradient>
</defs>
</svg>
