<svg width="28" height="28" viewBox="0 0 28 28" fill="none" xmlns="http://www.w3.org/2000/svg">
<g clip-path="url(#clip0_113_834)">
<path d="M0.661063 9.73922C0.232203 11.0828 -5.46778e-05 12.5141 9.65534e-09 13.9999C-5.46778e-05 15.4858 0.232258 16.9172 0.661117 18.2608L14 18.8696L27.3389 18.2609C27.7677 16.9173 28.0001 15.4858 28.0001 14C28 12.5142 27.7677 11.0828 27.3389 9.73917L14 9.13049L0.661063 9.73922Z" fill="#F0F0F0"/>
<path d="M27.3391 9.73917L14.0002 9.13049L0.661242 9.73917C0.534148 10.1375 0.424719 10.5437 0.333008 10.9566H27.6671C27.5755 10.5436 27.4662 10.1374 27.3391 9.73917Z" fill="#D80027"/>
<path d="M0.333008 17.0433C0.424609 17.4562 0.534039 17.8623 0.661133 18.2607L0.662445 18.2607L14 18.8694L27.3388 18.2607C27.4659 17.8624 27.5754 17.4562 27.667 17.0433H0.333008Z" fill="#D80027"/>
<path d="M14 28C20.2461 28 25.5361 23.9092 27.3388 18.2609H0.661133C2.46391 23.9092 7.75394 28 14 28Z" fill="#6DA544"/>
<path d="M14 5.48301e-10C7.75394 5.46881e-05 2.46402 4.09084 0.661133 9.73913L27.3388 9.73919C25.5362 4.09079 20.2462 -5.4687e-05 14 5.48301e-10Z" fill="#338AF3"/>
<path d="M6.39755 5.78266C6.39755 4.47142 7.31909 3.37602 8.54973 3.10729C8.36062 3.06595 8.16434 3.04358 7.96277 3.04358C6.45 3.04358 5.22363 4.26989 5.22363 5.78271C5.22363 7.29553 6.44989 8.52185 7.96277 8.52185C8.16434 8.52185 8.36056 8.49942 8.54973 8.45813C7.31915 8.18929 6.39755 7.0939 6.39755 5.78266Z" fill="#F0F0F0"/>
<path d="M10.1688 7.02771L10.3542 7.59837H10.9543L10.4688 7.95111L10.6542 8.52177L10.1688 8.16909L9.68332 8.52177L9.86876 7.95111L9.3833 7.59837H9.98333L10.1688 7.02771Z" fill="#F0F0F0"/>
<path d="M12.0838 7.02771L12.2692 7.59837H12.8692L12.3838 7.95111L12.5692 8.52177L12.0838 8.16909L11.5983 8.52177L11.7837 7.95111L11.2983 7.59837H11.8983L12.0838 7.02771Z" fill="#F0F0F0"/>
<path d="M13.9989 7.02771L14.1843 7.59837H14.7844L14.2989 7.95111L14.4843 8.52177L13.9989 8.16909L13.5134 8.52177L13.6989 7.95111L13.2134 7.59837H13.8135L13.9989 7.02771Z" fill="#F0F0F0"/>
<path d="M15.9144 7.02771L16.0999 7.59837H16.6999L16.2145 7.95111L16.3999 8.52177L15.9144 8.16909L15.4289 8.52177L15.6144 7.95111L15.1289 7.59837H15.7289L15.9144 7.02771Z" fill="#F0F0F0"/>
<path d="M17.8294 7.02771L18.0148 7.59837H18.6148L18.1294 7.95111L18.3149 8.52177L17.8294 8.16909L17.3439 8.52177L17.5294 7.95111L17.0439 7.59837H17.6439L17.8294 7.02771Z" fill="#F0F0F0"/>
<path d="M12.0838 5.03564L12.2692 5.60625H12.8692L12.3838 5.95904L12.5692 6.52965L12.0838 6.17697L11.5983 6.52965L11.7837 5.95904L11.2983 5.60625H11.8983L12.0838 5.03564Z" fill="#F0F0F0"/>
<path d="M13.9989 5.03564L14.1843 5.60625H14.7844L14.2989 5.95904L14.4843 6.52965L13.9989 6.17697L13.5134 6.52965L13.6989 5.95904L13.2134 5.60625H13.8135L13.9989 5.03564Z" fill="#F0F0F0"/>
<path d="M15.9144 5.03564L16.0999 5.60625H16.6999L16.2145 5.95904L16.3999 6.52965L15.9144 6.17697L15.4289 6.52965L15.6144 5.95904L15.1289 5.60625H15.7289L15.9144 5.03564Z" fill="#F0F0F0"/>
<path d="M17.8294 5.03564L18.0148 5.60625H18.6148L18.1294 5.95904L18.3149 6.52965L17.8294 6.17697L17.3439 6.52965L17.5294 5.95904L17.0439 5.60625H17.6439L17.8294 5.03564Z" fill="#F0F0F0"/>
<path d="M13.9989 3.04346L14.1843 3.61418H14.7844L14.2989 3.96686L14.4843 4.53757L13.9989 4.18489L13.5134 4.53757L13.6989 3.96686L13.2134 3.61418H13.8135L13.9989 3.04346Z" fill="#F0F0F0"/>
<path d="M15.9144 3.04346L16.0999 3.61418H16.6999L16.2145 3.96686L16.3999 4.53757L15.9144 4.18489L15.4289 4.53757L15.6144 3.96686L15.1289 3.61418H15.7289L15.9144 3.04346Z" fill="#F0F0F0"/>
<path d="M17.8294 3.04346L18.0148 3.61418H18.6148L18.1294 3.96686L18.3149 4.53757L17.8294 4.18489L17.3439 4.53757L17.5294 3.96686L17.0439 3.61418H17.6439L17.8294 3.04346Z" fill="#F0F0F0"/>
</g>
<defs>
<clipPath id="clip0_113_834">
<rect width="28" height="28" fill="white"/>
</clipPath>
</defs>
</svg>
