<svg width="128" height="128" viewBox="0 0 128 128" fill="none" xmlns="http://www.w3.org/2000/svg">
<path id="Union" fill-rule="evenodd" clip-rule="evenodd" d="M64.1022 4.75C31.3229 4.75 4.75 31.3229 4.75 64.1022C4.75 78.2971 9.73109 91.3254 18.0437 101.539C25.7531 88.4375 38.6051 79.1243 52.5993 75.7571C43.7016 71.4715 37.5613 62.3687 37.5613 51.8317C37.5613 37.1736 49.444 25.2909 64.1022 25.2909C78.7603 25.2909 90.643 37.1736 90.643 51.8317C90.643 62.3686 84.5028 71.4714 75.6052 75.7571C89.5993 79.1241 102.451 88.4372 110.161 101.539C118.473 91.3251 123.454 78.2969 123.454 64.1022C123.454 31.3229 96.8815 4.75 64.1022 4.75ZM107.374 104.725C98.4422 88.5841 81.2196 78.3726 64.1024 78.3726C46.9851 78.3726 29.7624 88.5842 20.8304 104.725C21.0253 104.933 21.2218 105.139 21.4197 105.344C32.2142 116.513 47.3459 123.454 64.1022 123.454C80.8585 123.454 95.9901 116.513 106.785 105.344C106.983 105.139 107.179 104.933 107.374 104.725ZM0.75 64.1022C0.75 29.1137 29.1137 0.75 64.1022 0.75C99.0906 0.75 127.454 29.1137 127.454 64.1022C127.454 81.2046 120.675 96.7277 109.661 108.124C98.1439 120.041 81.9871 127.454 64.1022 127.454C46.2173 127.454 30.0605 120.041 18.5434 108.124C7.52952 96.7277 0.75 81.2046 0.75 64.1022ZM64.1022 29.2909C51.6532 29.2909 41.5613 39.3828 41.5613 51.8317C41.5613 64.2807 51.6532 74.3726 64.1022 74.3726C76.5511 74.3726 86.643 64.2807 86.643 51.8317C86.643 39.3828 76.5511 29.2909 64.1022 29.2909Z" fill="white"/>
</svg>
