<svg width="199" height="140" viewBox="0 0 199 140" fill="none" xmlns="http://www.w3.org/2000/svg">
<rect width="199" height="140" rx="10" fill="url(#paint0_radial_38_127)"/>
<rect width="199" height="140" rx="10" fill="url(#paint1_radial_38_127)"/>
<path opacity="0.6" d="M10 1H189C193.971 1 198 5.02944 198 10V130C198 134.971 193.971 139 189 139H10C5.02944 139 1 134.971 1 130V10C1 5.02944 5.02944 1 10 1Z" stroke="url(#paint2_linear_38_127)" stroke-width="2"/>
<path d="M2 23H197" stroke="white" stroke-opacity="0.6" stroke-width="2"/>
<circle cx="17.5" cy="11.5" r="3.5" fill="white"/>
<circle cx="28.5" cy="11.5" r="3.5" fill="white"/>
<circle cx="39.5" cy="11.5" r="3.5" fill="white"/>
<path d="M103.22 52.134V52.634H103.72H119.744C123.401 52.634 126.366 55.5989 126.366 59.2561V72.6099V73.1099H126.866H133.543C137.937 73.1099 141.5 76.6724 141.5 81.0671C141.5 85.4619 137.937 89.0244 133.543 89.0244H126.866H126.366V89.5244V102.878C126.366 106.535 123.401 109.5 119.744 109.5H104.219V103.323C104.219 98.376 100.209 94.3657 95.2622 94.3657C90.3152 94.3657 86.3049 98.376 86.3049 103.323V109.5H76.1219C72.4648 109.5 69.5 106.535 69.5 102.878V90.9146H75.6769C80.6238 90.9146 84.6342 86.9041 84.6342 81.9573C84.6342 77.01 80.6238 73 75.6769 73H69.5V59.2561C69.5 55.5989 72.4648 52.634 76.1219 52.634H86.8049H87.3049V52.134V45.4573C87.3049 41.0625 90.8676 37.5 95.2622 37.5C99.657 37.5 103.22 41.0625 103.22 45.4573V52.134Z" fill="url(#paint3_radial_38_127)" stroke="url(#paint4_linear_38_127)"/>
<g filter="url(#filter0_f_38_127)">
<path d="M103.22 52.134V52.634H103.72H119.744C123.401 52.634 126.366 55.5989 126.366 59.2561V72.6099V73.1099H126.866H133.543C137.937 73.1099 141.5 76.6724 141.5 81.0671C141.5 85.4619 137.937 89.0244 133.543 89.0244H126.866H126.366V89.5244V102.878C126.366 106.535 123.401 109.5 119.744 109.5H104.219V103.323C104.219 98.376 100.209 94.3657 95.2622 94.3657C90.3152 94.3657 86.3049 98.376 86.3049 103.323V109.5H76.1219C72.4648 109.5 69.5 106.535 69.5 102.878V90.9146H75.6769C80.6238 90.9146 84.6342 86.9041 84.6342 81.9573C84.6342 77.01 80.6238 73 75.6769 73H69.5V59.2561C69.5 55.5989 72.4648 52.634 76.1219 52.634H86.8049H87.3049V52.134V45.4573C87.3049 41.0625 90.8676 37.5 95.2622 37.5C99.657 37.5 103.22 41.0625 103.22 45.4573V52.134Z" stroke="url(#paint5_linear_38_127)"/>
</g>
<defs>
<filter id="filter0_f_38_127" x="67" y="35" width="77" height="77" filterUnits="userSpaceOnUse" color-interpolation-filters="sRGB">
<feFlood flood-opacity="0" result="BackgroundImageFix"/>
<feBlend mode="normal" in="SourceGraphic" in2="BackgroundImageFix" result="shape"/>
<feGaussianBlur stdDeviation="1" result="effect1_foregroundBlur_38_127"/>
</filter>
<radialGradient id="paint0_radial_38_127" cx="0" cy="0" r="1" gradientUnits="userSpaceOnUse" gradientTransform="translate(-64.5 101.441) rotate(-20.919) scale(127.933 246.525)">
<stop stop-color="#3B5DE9"/>
<stop offset="1" stop-color="#3B5DE9" stop-opacity="0"/>
</radialGradient>
<radialGradient id="paint1_radial_38_127" cx="0" cy="0" r="1" gradientUnits="userSpaceOnUse" gradientTransform="translate(266 -7.52082e-06) rotate(138.158) scale(142.285 248.004)">
<stop stop-color="#3B5DE9"/>
<stop offset="1" stop-color="#3B5DE9" stop-opacity="0"/>
</radialGradient>
<linearGradient id="paint2_linear_38_127" x1="99.5" y1="-9.64579e-08" x2="104.5" y2="165.5" gradientUnits="userSpaceOnUse">
<stop stop-color="white"/>
<stop offset="1" stop-color="white" stop-opacity="0"/>
</linearGradient>
<radialGradient id="paint3_radial_38_127" cx="0" cy="0" r="1" gradientUnits="userSpaceOnUse" gradientTransform="translate(106 74) rotate(135.178) scale(227.689)">
<stop stop-color="#A9BAFF"/>
<stop offset="0.161458" stop-color="#3F64FF" stop-opacity="0.72"/>
<stop offset="0.838542" stop-color="#486CFF" stop-opacity="0.17441"/>
<stop offset="1" stop-color="#5879FF" stop-opacity="0"/>
</radialGradient>
<linearGradient id="paint4_linear_38_127" x1="44" y1="77.5" x2="157" y2="43" gradientUnits="userSpaceOnUse">
<stop stop-color="#7C96FF" stop-opacity="0"/>
<stop offset="1" stop-color="#F9F9F9"/>
</linearGradient>
<linearGradient id="paint5_linear_38_127" x1="99.5" y1="65" x2="157" y2="43" gradientUnits="userSpaceOnUse">
<stop stop-color="#7C96FF" stop-opacity="0"/>
<stop offset="1" stop-color="#F9F9F9"/>
</linearGradient>
</defs>
</svg>
