<svg width="199" height="140" viewBox="0 0 199 140" fill="none" xmlns="http://www.w3.org/2000/svg">
<circle cx="17.5" cy="11.5" r="3.5" fill="white"/>
<circle cx="28.5" cy="11.5" r="3.5" fill="white"/>
<rect width="199" height="140" rx="10" fill="url(#paint0_radial_38_318)"/>
<rect width="199" height="140" rx="10" fill="url(#paint1_radial_38_318)"/>
<path opacity="0.6" d="M1 10C1 5.02944 5.02944 1 10 1H189C193.971 1 198 5.02944 198 10V130C198 134.971 193.971 139 189 139H10C5.02944 139 1 134.971 1 130V10Z" stroke="url(#paint2_linear_38_318)" stroke-width="2"/>
<circle cx="40.5" cy="11.5" r="3.5" fill="white"/>
<path d="M2 23H197" stroke="white" stroke-opacity="0.6" stroke-width="2"/>
<path d="M59.8904 111.102L59.8905 111.102C59.7564 110.966 59.6526 110.802 59.5858 110.623C59.5193 110.444 59.4909 110.253 59.5025 110.063C59.5026 110.062 59.5026 110.061 59.5027 110.06L59.8904 111.102ZM59.8904 111.102L59.8975 111.109M59.8904 111.102L59.8975 111.109M59.8975 111.109C60.0343 111.244 60.1977 111.347 60.3773 111.414L59.8975 111.109ZM138.498 42.7074L138.536 42.2262L138.057 42.1713C132.973 41.5885 127.362 41.015 120.81 42.1596C114.253 43.3051 106.783 46.1651 97.9443 52.4035L97.9258 52.4166L97.9085 52.4313C95.4577 54.518 93.1873 56.8423 91.1329 59.2845C90.9632 59.3026 90.7928 59.3285 90.6219 59.3627C87.7514 59.9366 84.9563 60.6494 82.2992 61.4877C77.9916 62.8468 74.1245 64.5111 70.9214 66.3898C67.7215 68.2667 65.2271 70.3324 63.6068 72.4814C63.3573 72.8123 63.1289 73.1447 62.9221 73.478L63.347 73.7416L62.9221 73.478C62.4705 74.2059 62.3065 74.9468 62.4006 75.6466C62.4943 76.3429 62.8378 76.9565 63.3299 77.4451C64.3063 78.4147 65.8936 78.9259 67.5249 78.7062L80.6762 76.9353C80.037 78.7069 79.5653 80.3947 79.279 81.9476C79.1489 82.653 79.0215 83.239 78.911 83.7466C78.9039 83.7794 78.8968 83.8119 78.8898 83.8441C78.6064 85.1455 78.4139 86.0291 78.7648 87.0177C78.9406 87.5129 79.2424 88.0114 79.6803 88.5981C80.1184 89.1851 80.713 89.8863 81.4935 90.7844C82.968 92.481 83.8651 93.4373 84.8883 93.8911C85.901 94.3404 86.9941 94.2764 88.6892 94.1772L88.8085 94.1702C89.3535 94.1384 89.9698 94.1024 90.6812 94.0732C92.1929 94.0111 93.8844 93.8758 95.6912 93.6382L94.0098 106.045C93.7887 107.676 94.2967 109.268 95.2653 110.255C95.7532 110.752 96.3665 111.103 97.0639 111.207C97.765 111.311 98.5106 111.16 99.2469 110.722C99.5748 110.527 99.9016 110.312 100.227 110.077C102.375 108.526 104.437 106.131 106.306 103.053C108.176 99.9725 109.828 96.25 111.173 92.101C111.545 90.9517 111.892 89.7755 112.212 88.5779C115.846 86.6361 119.261 84.0497 122.027 80.6267C132.663 67.4651 137.631 53.6911 138.498 42.7074Z" fill="url(#paint3_radial_38_318)" stroke="url(#paint4_linear_38_318)"/>
<defs>
<radialGradient id="paint0_radial_38_318" cx="0" cy="0" r="1" gradientUnits="userSpaceOnUse" gradientTransform="translate(266 -7.52082e-06) rotate(138.158) scale(142.285 248.004)">
<stop stop-color="#3B5DE9"/>
<stop offset="1" stop-color="#3B5DE9" stop-opacity="0"/>
</radialGradient>
<radialGradient id="paint1_radial_38_318" cx="0" cy="0" r="1" gradientUnits="userSpaceOnUse" gradientTransform="translate(-64.5 101.441) rotate(-20.919) scale(127.933 246.525)">
<stop stop-color="#3B5DE9"/>
<stop offset="1" stop-color="#3B5DE9" stop-opacity="0"/>
</radialGradient>
<linearGradient id="paint2_linear_38_318" x1="99.5" y1="-9.64579e-08" x2="104.5" y2="165.5" gradientUnits="userSpaceOnUse">
<stop stop-color="white"/>
<stop offset="1" stop-color="white" stop-opacity="0"/>
</linearGradient>
<radialGradient id="paint3_radial_38_318" cx="0" cy="0" r="1" gradientUnits="userSpaceOnUse" gradientTransform="translate(99.391 71.599) rotate(137.665) scale(233.242 231.323)">
<stop stop-color="#A9BAFF"/>
<stop offset="0.161458" stop-color="#3F64FF" stop-opacity="0.72"/>
<stop offset="0.838542" stop-color="#486CFF" stop-opacity="0.17441"/>
<stop offset="1" stop-color="#5879FF" stop-opacity="0"/>
</radialGradient>
<linearGradient id="paint4_linear_38_318" x1="141.517" y1="42.0505" x2="98.989" y2="110.993" gradientUnits="userSpaceOnUse">
<stop stop-color="#7C96FF"/>
<stop offset="1" stop-color="#F9F9F9" stop-opacity="0"/>
</linearGradient>
</defs>
</svg>
