<svg width="1505" height="1146" viewBox="0 0 1505 1146" fill="none" xmlns="http://www.w3.org/2000/svg">
<g clip-path="url(#clip0_38_89)">
<rect width="1512" height="1146" fill="#000B18"/>
<g opacity="0.8" filter="url(#filter0_f_38_89)">
<ellipse cx="368.5" cy="550" rx="248.5" ry="199" fill="#3130E7" fill-opacity="0.47"/>
</g>
<g opacity="0.8" filter="url(#filter1_f_38_89)">
<ellipse cx="1435.5" cy="609" rx="248.5" ry="292" fill="#6482FF" fill-opacity="0.5"/>
</g>
<g opacity="0.2" clip-path="url(#clip1_38_89)">
<path d="M1383.22 -181.159C1338.94 -179.95 1295.89 -166.357 1255.67 -148.563C1236.15 -139.918 1216.91 -130.421 1198.18 -120.172C1180.3 -110.393 1163.34 -99.1951 1145.82 -88.8332C1127.28 -77.8876 1109.39 -65.9331 1091.16 -54.5086C1074.14 -43.8552 1056.83 -33.6993 1039.7 -23.2519C1001.3 0.140571 959.992 20.7152 917.524 35.6391C875.802 50.294 832.737 56.2138 788.607 54.2851C743.608 52.3312 699.184 43.8046 655.758 32.0428C564.924 7.45508 478.329 -29.7153 389.819 -61.2327C306.967 -90.7482 221.467 -117.119 132.561 -115.744C121.36 -115.563 110.165 -114.94 99.0155 -113.771" stroke="url(#paint0_radial_38_89)" stroke-opacity="0.1" stroke-width="3.27711" stroke-miterlimit="10" stroke-linecap="round"/>
<path d="M1417.73 -102.46C1374.84 -105.691 1332.26 -92.5655 1292.55 -78.016C1272.35 -70.6263 1252.13 -62.7758 1233.26 -52.3788C1215.52 -42.6071 1197.33 -33.4653 1179.21 -24.3629C1161.79 -15.6158 1143.85 -7.99092 1126.33 0.478649C1106.91 9.87877 1087.55 18.6217 1067.07 25.6197C1025.47 39.844 983.462 51.8256 939.122 52.3127C934.775 52.3639 930.464 52.0777 926.129 52.0222C920.785 51.9665 915.304 52.9792 909.954 53.4544C898.741 54.4316 887.492 55.0572 876.247 55.3996C854.18 56.0975 832.077 55.7534 810.06 54.6981C785.703 53.518 761.412 51.2735 737.213 48.3876C714.028 45.6254 690.981 41.7951 667.888 38.0908C655.709 36.1481 643.539 34.0456 631.401 31.8708C625.671 30.8452 619.957 29.7834 614.225 28.7225C608.743 27.7016 603.313 27.6686 597.825 26.8778C573.789 23.3998 549.852 17.4238 526.09 12.4285C479.692 2.67926 433.02 -6.93243 386.027 -13.2023C361.88 -16.4269 337.742 -21.1722 313.508 -24.3746C291.108 -27.3372 268.867 -30.644 246.355 -32.7166C199.659 -37.0216 152.603 -38.4256 105.775 -35.1379C94.7996 -34.3676 83.856 -33.3337 72.9479 -31.948" stroke="url(#paint1_radial_38_89)" stroke-opacity="0.1" stroke-width="3.27711" stroke-miterlimit="10" stroke-linecap="round"/>
<path d="M1461.4 -28.3636C1443.51 -32.6944 1423.05 -30.6659 1405.02 -28.5529C1381.95 -25.8571 1359.57 -19.98 1337.1 -14.4339C1326.07 -11.7155 1315.01 -8.74792 1304.4 -4.67262C1296.74 -1.72445 1289.53 1.94262 1281.69 4.49354C1272.92 7.34036 1264.56 11.0859 1255.86 14.0887C1246.48 17.3215 1236.72 19.6022 1227.32 22.9065C1219.51 25.6504 1211.53 27.8553 1203.65 30.408C1195.53 33.0443 1187.72 36.4426 1179.46 38.7855C1157.7 44.949 1135.1 49.3168 1112.77 52.8398C1090.47 56.3618 1067.86 57.8128 1045.28 56.9106C1036.46 56.5601 1027.09 53.9223 1018.46 55.2767C1006.96 57.1003 995.417 58.6076 983.851 59.9217C882.756 71.2902 780.835 67.9369 679.502 62.3073C673.207 61.9657 666.818 61.1867 660.534 61.3926C654.549 61.5828 648.838 61.9183 642.843 61.5609C629.325 60.7316 615.822 59.8486 602.316 58.895C576.564 57.0985 550.807 55.1961 525.06 53.1517C498.603 51.0562 472.15 49.0135 445.67 47.1491C420.45 45.3777 395.288 44.6993 370.053 43.3177C343.24 41.8421 316.408 40.7034 289.566 40.025C280.695 39.8007 271.877 38.5485 262.982 38.2017C249.641 37.6992 236.29 37.3562 222.948 37.172C172.57 36.4729 122.088 37.8653 71.9027 42.5316C60.3412 43.5978 48.7905 44.8578 37.2689 46.3464" stroke="url(#paint2_radial_38_89)" stroke-opacity="0.1" stroke-width="3.27711" stroke-miterlimit="10" stroke-linecap="round"/>
<path d="M1508.95 43.4972C1502.09 40.4268 1493.33 40.5682 1485.99 40.3164C1473.52 39.9096 1460.98 40.0368 1448.52 40.8672C1423.53 42.5316 1398.37 46.5047 1373.83 51.4695C1364.89 53.2824 1356.66 56.4373 1347.98 58.8377C1340.12 61.0183 1332.13 62.7807 1324.27 64.8555C1314.34 67.4627 1304.44 70.2285 1294.54 72.9758C1286.54 75.199 1278.33 76.761 1270.37 79.0883C1261.46 81.6956 1252.96 84.8999 1243.78 86.8139C1232.3 89.2018 1220.55 90.5792 1209.15 92.4502C1184.61 96.4962 1160.14 98.3625 1135.28 97.9693C1126.77 97.8324 1118.65 96.8436 1110.27 95.8157C1105.52 95.2339 1100.01 96.7781 1095.2 97.4195C1089.26 98.2083 1083.33 98.9618 1077.39 99.6448C1051.46 102.685 1025.46 104.915 999.424 106.706C972.854 108.524 946.247 109.955 919.632 110.927C905.655 111.448 891.689 111.845 877.717 112.136C864.523 112.421 850.542 113.879 837.426 112.269C824.397 110.653 810.558 112.104 797.423 112.157C783.51 112.215 769.592 112.202 755.673 112.137C741.947 112.061 728.219 111.933 714.488 111.751C701.801 111.586 689.216 112.688 676.526 112.47C622.492 111.52 568.476 109.898 514.453 108.488C487.113 107.765 459.759 107.113 432.396 106.621C419.422 106.383 406.555 107.5 393.584 107.314C379.923 107.129 366.265 106.979 352.592 106.9C338.742 106.813 324.878 106.798 311.036 106.853C297.67 106.9 283.684 108.27 270.407 106.968C257.183 105.664 243.668 106.567 230.385 106.839C216.396 107.131 202.429 107.511 188.451 108.014C136.315 109.883 84.2034 113.235 32.3285 118.732C20.6872 119.962 9.05268 121.315 -2.57566 122.792" stroke="url(#paint3_radial_38_89)" stroke-opacity="0.1" stroke-width="3.27711" stroke-miterlimit="10" stroke-linecap="round"/>
<path d="M1556.51 115.356C1548.92 113.048 1539.92 113.627 1532.12 113.647C1520.01 113.663 1507.86 113.982 1495.77 114.705C1468.04 116.354 1440.43 119.924 1413 124.104C1403.35 125.565 1393.26 126.837 1383.97 129.942C1375.28 132.838 1366.37 133.942 1357.44 135.949C1340.17 139.843 1323.59 145.699 1306.52 150.29C1298.96 152.331 1291.15 153.448 1283.85 156.342C1274.69 159.97 1265.34 162.441 1255.69 164.486C1243.46 167.09 1231.05 168.713 1218.88 171.279C1204.36 174.357 1189.77 177.05 1175.11 179.252C1154.18 182.401 1133.15 183.734 1112.01 184.631C1100.39 185.135 1088.72 186.843 1077.12 187.805C1063.51 188.926 1049.89 189.906 1036.27 190.78C980.577 194.338 924.779 196.185 868.981 197.008C809.914 197.879 750.84 196.24 691.719 196.07C676.845 196.019 662.054 196.547 647.169 196.267C632.017 195.965 616.864 195.629 601.709 195.275C572.461 194.581 543.227 193.816 513.991 193.016C483.977 192.203 453.946 191.426 423.923 190.773C395.245 190.156 366.622 190.579 337.939 190.21C223.508 188.715 109.14 188.756 -5.1268 196.466C-17.5318 197.293 -29.9144 198.208 -42.3102 199.212" stroke="url(#paint4_radial_38_89)" stroke-opacity="0.1" stroke-width="3.27711" stroke-miterlimit="10" stroke-linecap="round"/>
<path d="M1600.2 189.453C1578.36 188.211 1555.77 190.598 1534.04 192.392C1505.85 194.72 1477.82 198.277 1449.73 201.413C1436 202.947 1422.25 204.534 1408.58 206.542C1399.13 207.923 1390.04 210.397 1380.74 212.105C1360.5 215.802 1340.03 218.414 1319.74 221.971C1277.13 229.441 1235.14 239.566 1192 243.879C1163.56 246.715 1135.31 251.451 1106.8 254.167C1086.39 256.122 1065.89 256.578 1045.45 258.039C927.251 266.574 808.719 267.452 690.273 267.619C628.654 267.704 567.061 267.946 505.424 267.36C475.19 267.072 444.942 266.855 414.714 266.69C383.39 266.53 352.088 267.147 320.771 267.11C200.187 266.982 79.6219 268.214 -40.8013 275.185C-53.2119 275.907 -65.6027 276.664 -78.0078 277.491" stroke="url(#paint5_radial_38_89)" stroke-opacity="0.1" stroke-width="3.27711" stroke-miterlimit="10" stroke-linecap="round"/>
<path d="M1634.69 268.152C1580.76 270.68 1527.02 275.621 1473.28 280.668C1446.43 283.191 1419.5 285.099 1392.7 288.361C1373.97 290.635 1355.27 293.154 1336.46 295.308C1313.33 297.954 1290.17 300.389 1267.03 302.823C1247.97 304.813 1229 307.364 1209.95 309.3C1181.04 312.249 1152.04 314.938 1122.98 315.773C1092.04 316.653 1061.1 316.684 1030.17 317.193C1018.05 317.387 1005.89 317.601 993.779 317.229C990.679 317.126 987.544 316.707 984.447 316.657C978.907 316.559 973.111 317.64 967.568 318.143C938.09 320.821 908.572 323.059 879.044 325.121C818.579 329.336 757.942 334.657 697.352 336.156C631.235 337.803 565.11 339.291 498.98 340.338C434.809 341.335 370.568 341.646 306.438 343.755C244.356 345.792 182.242 346.557 120.169 348.788C57.7083 351.021 -4.70961 353.73 -67.1041 357.233C-79.4098 357.932 -91.7153 358.648 -104.019 359.382" stroke="url(#paint6_radial_38_89)" stroke-opacity="0.1" stroke-width="3.27711" stroke-miterlimit="10" stroke-linecap="round"/>
<path d="M1651.43 351.778C1598.42 354.559 1545.4 357.341 1492.39 360.122C1441.04 362.815 1389.67 365.51 1338.32 368.204C1292.95 370.584 1247.58 372.964 1202.19 375.346C1149.5 378.11 1096.83 380.873 1044.14 383.637C992.328 386.355 940.52 389.073 888.712 391.791C828.121 394.969 767.548 398.147 706.958 401.325C640.848 404.794 574.739 408.262 508.612 411.731C443.525 415.145 378.438 418.56 313.351 421.974C247.471 425.43 181.59 428.886 115.728 432.341C51.4696 435.712 -12.7709 439.082 -77.029 442.453C-88.6674 443.064 -100.324 443.675 -111.962 444.286" stroke="url(#paint7_radial_38_89)" stroke-opacity="0.1" stroke-width="3.27711" stroke-miterlimit="10" stroke-linecap="round"/>
<path d="M1643.53 436.699C1590.07 439.043 1536.61 440.274 1483.12 440.905C1451.67 441.282 1420.24 441.905 1388.8 442.122C1365.22 442.28 1341.71 441.409 1318.15 441.071C1295.82 440.758 1273.43 440.606 1251.08 440.612C1227.33 440.62 1203.6 440.361 1179.85 440.211C1159.1 440.079 1138.5 439.056 1117.78 438.746C1088.7 438.326 1059.64 439.073 1030.56 438.971C969.953 438.774 909.355 439.795 848.766 441.63C798.998 443.144 749.308 446.122 699.64 449.541C635.772 453.935 572.038 459.224 508.278 465.009C443.568 470.879 379.006 476.547 314.484 484.317C252.21 491.81 189.825 499.202 127.466 505.745C65.1773 512.266 2.93635 518.697 -59.4297 524.426C-71.3606 525.529 -83.3083 526.651 -95.2317 527.896" stroke="url(#paint8_radial_38_89)" stroke-opacity="0.1" stroke-width="3.27711" stroke-miterlimit="10" stroke-linecap="round"/>
<path d="M1617.46 518.573C1564.72 519.978 1512.07 519.823 1459.33 518.24C1428.62 517.322 1397.93 516.174 1367.24 515.132C1342.29 514.283 1317.15 513.586 1292.33 510.733C1271.04 508.278 1249.61 507.262 1228.21 505.874C1215.18 505.036 1202.29 503.927 1189.22 504.153C1176.05 504.384 1162.74 502.306 1149.59 501.475C1103.53 498.551 1057.78 493.331 1011.64 491.472C952.027 489.065 892.167 485.591 832.504 485.892C809.116 486.005 785.723 486.348 762.333 486.762C736.612 487.227 710.743 489.946 685.134 492.209C626.346 497.397 568.105 505.916 509.789 514.351C449.315 523.111 388.639 531.068 328.736 543.299C270.041 555.29 211.131 566.232 152.094 576.437C136.849 579.076 121.697 582.17 106.356 584.654C90.8913 587.163 75.4038 589.567 59.9117 591.883C31.4018 596.154 2.81805 599.687 -25.8355 602.906C-37.4555 604.205 -49.0779 605.451 -60.7229 606.61" stroke="url(#paint9_radial_38_89)" stroke-opacity="0.1" stroke-width="3.27711" stroke-miterlimit="10" stroke-linecap="round"/>
<path d="M1581.76 596.834C1529.86 597.753 1478.1 596.331 1426.29 592.948C1398.01 591.09 1369.75 588.806 1341.48 586.823C1313.67 584.869 1285.84 582.563 1258.2 578.849C1247.2 577.376 1236.32 575.312 1225.35 573.748C1214.52 572.212 1203.6 571.37 1192.73 570.154C1181.93 568.952 1171.17 567.43 1160.4 566.015C1146.55 564.195 1132.62 563.335 1118.77 561.55C1097.16 558.776 1075.61 555.927 1053.97 553.474C1032.6 551.058 1011.51 546.807 990.114 544.357C962.469 541.193 934.739 539.446 907.018 537.17C877.43 534.725 847.811 532.673 818.184 531.15C789.124 529.651 760.119 528.873 731.015 528.897C710.097 528.898 689.246 528.843 668.391 530.733C644.879 532.85 621.362 535.551 598.062 539.373C583.616 541.74 569.176 544.248 554.802 546.965C547.378 548.363 539.956 549.813 532.556 551.333C529.617 551.929 526.677 552.507 523.755 553.103C520.151 553.84 517.071 555.115 513.641 556.144C499.314 560.432 484.07 562.753 469.507 566.276C455.835 569.575 441.995 574.403 428.1 576.493C413.854 578.637 399.935 582.957 386.019 586.675C371.79 590.48 357.583 594.356 343.397 598.319C314.852 606.305 286.57 615.268 258.006 623.221C252.429 624.769 246.865 625.557 241.237 626.807C233.827 628.469 226.514 630.973 219.194 633.002C205.023 636.91 190.806 640.627 176.547 644.205C164.4 647.247 152.6 650.836 140.422 653.65C125.922 657.01 111.359 660.179 96.7685 663.172C70.2825 668.611 43.7438 673.045 16.9501 676.661C5.64284 678.191 -5.68782 679.599 -17.0507 680.743" stroke="url(#paint10_radial_38_89)" stroke-opacity="0.1" stroke-width="3.27711" stroke-miterlimit="10" stroke-linecap="round"/>
<path d="M1541.99 673.275C1492.59 674.293 1443.26 672.142 1394.05 667.774C1366.3 665.322 1338.67 661.997 1310.99 658.905C1284.63 655.973 1258.22 652.938 1231.96 648.976C1210.27 645.693 1188.95 640.693 1167.32 637.23C1145.56 633.757 1123.86 630.28 1102.18 626.431C1056.93 618.39 1011.36 612.01 966.299 603.092C915.215 592.988 863.062 588.12 811.347 582.522C758.779 576.828 706.232 573.219 653.361 572.863C643.172 572.796 632.826 572.419 622.636 573.007C612.059 573.633 601.391 575.554 590.941 577.234C565.708 581.281 541.05 586.853 516.462 593.748C490.009 601.166 464.575 610.458 438.752 619.769C426.69 624.115 414.364 630.491 401.847 633.234C388.701 636.117 376.012 642.317 363.564 647.391C338.531 657.598 313.719 668.324 288.685 678.514C276.514 683.467 264.152 689.491 251.303 692.305C238.786 695.048 226.477 701.405 214.399 705.77C188.576 715.082 163.14 724.373 136.688 731.791C112.082 738.687 87.4243 744.259 62.2092 748.305C51.688 749.989 41.1226 751.498 30.5144 752.531" stroke="url(#paint11_radial_38_89)" stroke-opacity="0.1" stroke-width="3.27711" stroke-miterlimit="10" stroke-linecap="round"/>
<path d="M1502.22 749.717C1456.39 750.707 1410.63 747.785 1365.15 742.39C1338.78 739.265 1312.53 735.372 1286.36 730.875C1262.98 726.867 1239.42 723.948 1216.04 719.834C1193.07 715.787 1170.39 710.576 1147.68 705.331C1126.22 700.374 1104.45 696.688 1082.95 691.946C1038.33 682.086 993.068 675.46 948.352 666.064C900.399 655.99 851.585 650.081 802.855 645.069C752.435 639.881 701.802 637.02 651.113 638.513C608.829 639.758 567.496 644.968 527.028 657.577C502.061 665.341 478.509 675.47 454.495 685.554C448.543 688.059 442.613 690.615 436.722 693.259C430.398 696.084 424.135 699.736 417.628 702.093C414.696 703.166 411.646 703.662 408.739 704.876C405.71 706.131 402.767 707.665 399.798 709.058C393.639 711.981 387.5 714.955 381.381 717.982C357.63 729.713 334.167 741.872 310.178 753.121C299.651 758.059 289.206 762.532 278.345 766.515C266.478 770.851 255.035 776.862 243.317 781.685C221.197 790.802 199.456 799.741 176.493 806.604C154.957 813.038 133.279 818.101 111.025 821.284C100.091 822.848 89.1022 824.044 78.0532 824.429" stroke="url(#paint12_radial_38_89)" stroke-opacity="0.1" stroke-width="3.27711" stroke-miterlimit="10" stroke-linecap="round"/>
<path d="M1466.54 827.978C1421.59 830.23 1376.51 826.035 1332.17 818.795C1308.84 814.979 1285.62 810.274 1262.64 804.902C1238.77 799.328 1214.87 794.234 1191.29 787.425C1150.21 775.541 1109.33 762.726 1068.31 750.449C1047.46 744.204 1026.71 737.724 1005.81 731.642C985.591 725.753 965.724 718.82 945.383 713.31C898.53 700.614 850.489 690.209 802.461 683.091C779.864 679.732 757.211 677.331 734.367 676.354C712.604 675.427 690.635 674.953 668.976 677.681C648.582 680.254 628.295 684.554 608.667 690.605C585.524 697.743 562.191 705.987 540.728 717.174C530.264 722.639 519.161 727.058 508.562 732.317C497.791 737.674 487.364 744.163 476.413 749.123C465.238 754.183 454.59 759.869 443.875 765.948C433.04 772.086 422.284 778.38 411.603 784.775C390.191 797.604 368.165 809.547 346.089 821.191C336.316 826.336 326.247 830.913 316.377 835.905C305.337 841.506 294.178 846.883 282.918 852C241.295 870.912 199.23 887.459 153.842 894.933C143.201 896.676 132.483 897.98 121.727 898.562" stroke="url(#paint13_radial_38_89)" stroke-opacity="0.1" stroke-width="3.27711" stroke-miterlimit="10" stroke-linecap="round"/>
<path d="M1440.46 909.855C1396.07 912.396 1351.63 905.568 1308.67 894.772C1265.11 883.813 1222.67 868.533 1181.38 850.93C1161.46 842.427 1141.47 834.016 1121.64 825.277C1099.78 815.62 1078.35 804.967 1056.53 795.22C1037.5 786.723 1018.7 777.754 999.622 769.401C978.847 760.323 957.655 752.417 936.336 744.783C894.923 729.945 852.79 716.541 809.011 710.863C787.166 708.031 765.143 705.861 743.263 709.096C721.418 712.328 699.812 717.759 678.975 725.023C589.302 756.286 511.128 813.258 430.89 862.575C391.542 886.743 351.06 908.529 310.601 930.739C291.024 941.474 269.459 949.713 248.435 957.129C229.337 963.86 209.814 969.216 189.884 972.896C178.763 974.947 167.525 976.456 156.232 977.243" stroke="url(#paint14_radial_38_89)" stroke-opacity="0.1" stroke-width="3.27711" stroke-miterlimit="10" stroke-linecap="round"/>
<path d="M256.848 1044.04C254.008 1000.7 240.132 961.01 219.282 923.202C198.841 886.134 175.038 850.691 150.541 816.187C137.94 798.441 126.785 779.611 116.84 760.257C112.192 751.2 108.147 741.863 103.482 732.825C98.3646 722.908 93.5053 712.854 89.0263 702.639C80.8919 684.092 71.6542 666.082 63.8308 647.395C55.5445 627.636 47.8306 607.671 40.6544 587.5C33.043 566.115 26.0096 543.956 21.7098 521.655C17.6827 500.841 14.1494 479.666 13.1925 458.391C11.25 414.959 24.4367 370.715 38.9479 330.151C53.9837 288.127 73.4418 248.151 93.3293 208.277C102.417 190.047 111.404 171.61 119.495 152.92C127.996 133.288 135.381 113.291 142.674 93.2098C171.958 12.686 191.186 -71.7834 192.319 -157.709C192.467 -168.715 192.367 -179.726 192.09 -190.728" stroke="url(#paint15_radial_38_89)" stroke-opacity="0.1" stroke-width="3.27711" stroke-miterlimit="10" stroke-linecap="round"/>
<path d="M335.474 1009.53C334.024 989.627 330.736 969.765 324.122 950.891C317.548 932.086 307.173 914.629 296.242 898.051C290.153 888.839 283.603 879.935 276.986 871.105C270.996 863.091 266.282 855.133 260.036 847.309C246.731 830.643 233.27 814.038 220.627 796.86C208.633 780.567 198.451 763.773 190.456 745.183C186.528 736.035 184.245 726.571 181.222 717.145C178.134 707.494 174.479 698.155 172.05 688.256C167.215 668.564 161.088 649.17 156.776 629.326C152.368 609.011 148.098 588.635 144.566 568.149C137.555 527.547 134.199 484.807 138.623 443.746C140.855 422.923 147.591 402.677 154.173 382.863C160.74 363.104 168.267 343.789 176.567 324.698C192.693 287.621 211.988 251.951 231.581 216.583C250.917 181.707 266.048 145.53 275.221 106.696C284.497 67.4494 287.961 26.6335 286.047 -13.5644C285.577 -23.5304 285.694 -33.438 285.401 -43.3956C285.081 -53.8822 283.638 -64.2038 282.613 -74.6357C280.691 -94.0917 277.59 -113.416 275.773 -132.895C274.793 -143.471 274.097 -154.061 273.876 -164.677" stroke="url(#paint16_radial_38_89)" stroke-opacity="0.1" stroke-width="3.27711" stroke-miterlimit="10" stroke-linecap="round"/>
<path d="M409.538 965.863C408.305 947.079 405.615 928.158 398.957 910.454C392.729 893.876 382.354 878.789 371.512 864.912C347.287 833.912 318.799 806.901 293.101 777.146C280.921 763.038 268.859 747.509 262.432 729.828C258.961 720.284 256.4 710.552 255.462 700.434C254.505 690.281 252.059 680.383 251.4 670.18C250.767 660.488 251.219 650.881 250.162 641.193C249.139 631.804 248.745 622.276 248.639 612.839C248.509 602.272 249.159 591.752 248.923 581.19C248.682 570.859 248.953 560.518 249.172 550.198C250.037 509.376 254.486 467.784 265.039 428.276C267.758 418.089 272.74 408.245 276.918 398.565C281.067 388.994 285.325 379.487 289.709 370.026C298.27 351.541 307.506 333.445 317.049 315.474C334.509 282.588 354.819 251.445 373.646 219.336C392.879 186.534 409.308 152.181 413.51 113.961C415.607 94.9487 415.011 75.5117 411.6 56.6643C410.849 52.4775 409.599 48.512 408.465 44.4337C407.291 40.2515 407.059 35.8429 406.27 31.5875C404.478 22.0269 400.101 13.7693 397.235 4.63639C394.433 -4.28771 391.018 -13.0914 388.041 -21.9886C384.687 -31.9978 379.937 -41.2971 375.719 -50.925C368.647 -67.0871 360.847 -82.946 356.375 -100.111C353.918 -109.531 352.421 -119.213 352.104 -128.957" stroke="url(#paint17_radial_38_89)" stroke-opacity="0.1" stroke-width="3.27711" stroke-miterlimit="10" stroke-linecap="round"/>
<path d="M481.276 918.37C480.346 900.63 478.335 882.54 471.648 865.951C465.062 849.622 453.144 835.482 441.113 822.869C413.663 794.09 380.978 771.014 353.996 741.715C340.964 727.563 330.87 712.443 327.18 693.345C325.314 683.718 325.647 674.895 326.322 665.187C326.961 656.136 326.922 647.314 328.912 638.386C329.958 633.716 331.383 629.203 332.305 624.522C333.31 619.412 333.712 614.263 334.52 609.11C336.004 599.643 338.163 590.246 340.81 581.037C346.207 562.24 350.045 543.047 355.368 524.184C360.828 504.889 366.657 485.557 372.997 466.516C379.367 447.385 386.183 427.666 396.282 410.178C416.384 375.403 437.29 341.135 458.743 307.173C479.004 275.095 502.627 245.404 522.683 213.125C541.826 182.326 556.368 146.392 553.354 109.488C552.631 100.773 550.427 91.8002 547.399 83.6306C544.332 75.3747 540.981 66.7617 536.188 59.3389C533.957 55.9018 531.363 52.979 529.629 49.2505C527.835 45.3838 525.798 41.6186 523.385 38.1026C521.086 34.7221 518.48 31.5697 515.639 28.642C512.107 25.0256 509.003 21.4574 505.708 17.634C500.042 11.0705 494.663 4.27964 488.962 -2.26439C482.357 -9.85733 474.915 -16.5577 467.941 -23.7776C455.807 -36.3145 442.69 -48.0391 435.024 -64.0639C431.25 -71.9645 428.944 -80.5264 428.432 -89.2877" stroke="url(#paint18_radial_38_89)" stroke-opacity="0.1" stroke-width="3.27711" stroke-miterlimit="10" stroke-linecap="round"/>
<path d="M553.018 870.897C552.134 852.695 550.392 833.653 541.855 817.214C540.163 813.944 538.147 810.902 535.889 807.979C534.294 805.888 531.747 803.846 530.497 801.596C529.911 800.53 530.394 800.293 529.868 799.366C527.531 795.28 522.456 791.567 519.018 788.388C514.985 784.656 510.803 781.109 506.553 777.619C491.826 765.536 476.111 754.16 460.413 743.454C444.164 732.353 426.508 720.389 413.454 705.461C408.638 699.949 403.832 693.623 400.321 687.035C395.848 678.623 394.474 669.959 394.017 660.558C393.561 650.857 396.717 641.921 398.88 632.595C400.961 623.715 404.409 615.295 408.872 607.351C418.039 590.973 424.545 573.427 434.325 557.283C445.099 539.512 453.666 520.797 464.186 502.916C474.659 485.144 484.411 467.109 494.979 449.474C500.897 439.597 506.851 429.718 512.677 419.776C518.34 410.089 525.006 401.306 531.678 392.309C556.435 358.969 581.677 326.117 606.379 292.728C618.548 276.281 632.895 261.577 645.264 245.226C650.704 238.045 655.761 230.618 660.999 223.288C666.65 215.388 670.999 206.937 676.121 198.747C694.28 169.732 702.712 126.551 684.959 95.5479C680.618 87.96 674.72 81.0372 668.814 74.6277C663.376 68.724 656.581 64.5714 650.793 59.0751C637.58 46.5241 621.313 39.792 606 30.3572C598.544 25.7619 591.086 20.7776 582.903 16.468C573.574 11.5465 564.131 6.80821 554.8 1.86916C539.778 -6.0779 523.718 -13.5641 513.293 -27.5875C508.517 -34.021 505.399 -41.5496 504.66 -49.5564" stroke="url(#paint19_radial_38_89)" stroke-opacity="0.1" stroke-width="3.27711" stroke-miterlimit="10" stroke-linecap="round"/>
<path d="M627.078 827.226C626.541 811.269 625.69 794.356 618.939 779.609C611.967 764.343 597.863 753.006 584.378 743.688C576.727 738.395 568.8 733.577 560.757 728.907C553.936 724.95 546.904 720.333 539.759 717.613C535.537 716.013 531.419 713.011 527.485 710.83C522.769 708.231 518.102 705.558 513.499 702.758C505.554 697.941 497.732 692.763 490.378 687.066C477.53 677.095 464.388 663.533 462.753 646.52C461.973 638.391 463.183 629.434 466.252 621.864C469.211 614.565 472.314 606.993 476.472 600.303C481.201 592.699 486.972 586.066 492.901 579.425C498.663 572.969 503.466 565.786 509.025 559.164C520.624 545.329 533.911 533.014 545.806 519.428C558.269 505.212 570.6 490.827 583.377 476.541C596.089 462.347 608.612 447.915 620.841 433.287C627.396 425.428 633.82 417.452 640.024 409.31C646.129 401.298 653.302 394.114 660.128 386.701C672.726 373.026 685.249 359.284 697.753 345.508C710.106 331.899 722.292 318.139 734.367 304.279C746.043 290.9 758.081 278.014 770.147 264.986C792.439 240.953 814.723 215.417 827.822 185.023C834.822 168.795 838.274 152.01 836.709 134.304C835.21 117.531 828.873 103.576 816.864 91.7403C804.874 79.9208 790.509 73.0531 775.582 65.9145C768.545 62.5526 761.753 59.1428 754.318 56.6329C746.181 53.8769 737.771 52.3198 729.577 49.8321C725.409 48.5654 721.2 47.5484 716.987 46.4432C714.764 45.8702 712.604 45.1524 710.396 44.5079C709.911 44.3742 706.748 43.744 709.016 44.1555C682.212 36.7911 654.694 32.0112 628.066 23.948C609.631 18.3726 585.587 7.99848 582.99 -13.8623" stroke="url(#paint20_radial_38_89)" stroke-opacity="0.1" stroke-width="3.27711" stroke-miterlimit="10" stroke-linecap="round"/>
<path d="M705.707 792.72C704.92 774.354 704.009 753.608 692.388 738.374C680.141 722.324 660.333 712.488 642.524 704.015C622.921 694.699 602.615 687.171 583.126 677.672C565.56 669.098 545.952 658.687 535.669 641.314C523.99 621.592 534.452 601.274 546.88 585.026C552.936 577.105 560.656 570.228 568.26 563.834C576.914 556.555 585.62 549.255 594.481 542.23C612.51 527.934 631.636 514.995 649.89 500.952C668.773 486.417 687.519 471.305 705.736 455.885C776.709 395.79 842.879 330.112 909.072 264.857C937.805 236.525 968.868 205.083 978.154 164.351C982.307 146.114 980.11 123.774 970.069 107.643C959.408 90.4849 940.27 79.5879 921.806 72.7762C882.784 58.3433 841.072 56.6771 800.064 53.948C776.305 52.3829 752.393 51.268 728.8 48.1382C710.548 45.7183 689.067 42.407 674.652 29.866C669.372 25.2803 665.573 19.2553 664.797 12.223" stroke="url(#paint21_radial_38_89)" stroke-opacity="0.1" stroke-width="3.27711" stroke-miterlimit="10" stroke-linecap="round"/>
<path d="M789.56 775.909C788.565 756.953 787.602 735.218 774.54 720.149C758.371 701.475 731.8 692.489 709.237 684.39C685.736 675.95 661.482 669.001 639.14 657.689C620.448 648.219 597.535 632.11 600.944 608.112C603.914 587.197 622.276 572.177 638.186 560.291C657.499 545.874 678.463 533.953 699.338 522.001C744.933 495.897 790.24 469.33 833.286 439.116C876.024 409.113 915.595 375.031 955.32 341.189C991.272 310.569 1027.32 279.803 1061.19 246.852C1090.43 218.388 1123.73 182.779 1123.04 138.98C1122.69 116.542 1112.65 94.948 1095.2 80.7981C1077.36 66.3149 1054.18 59.6448 1031.89 55.8099C986.337 47.9615 939.906 51.422 894.016 53.352C868.327 54.4344 842.398 55.6538 816.724 53.6587C797.958 52.203 775.091 49.795 759.762 37.6909C754.246 33.3298 750.272 27.3322 749.897 20.1729" stroke="url(#paint22_radial_38_89)" stroke-opacity="0.1" stroke-width="3.27711" stroke-miterlimit="10" stroke-linecap="round"/>
<path d="M874.709 783.855C873.5 764.839 872.316 743.63 859.664 728.273C845.16 710.662 822.702 699.869 802.804 689.649C784.268 680.135 765.016 671.438 747.872 659.465C731.298 647.886 713.724 631.761 717.503 609.425C720.919 589.247 739.062 574.096 754.162 561.952C771.248 548.218 789.784 536.513 808.151 524.604C828.159 511.636 848.468 499.024 868.092 485.475C887.733 471.908 906.079 456.587 925.533 442.835C945.363 428.816 963.11 410.839 980.172 393.606C997.25 376.354 1016 360.711 1033.77 344.165C1049.65 329.363 1065.43 314.53 1079.98 298.401C1087.23 290.364 1094.27 282.162 1101.2 273.841C1104.65 269.699 1108.43 265.912 1112.07 261.954C1116.02 257.68 1119.21 252.986 1123.01 248.631C1148.86 219.213 1176.37 182.458 1175.2 141.284C1174.62 120.908 1165.41 101.658 1150.85 87.604C1136.02 73.2986 1115.92 65.0518 1096.27 59.8585C1053.26 48.5173 1008.72 47.936 964.563 45.8495C941.82 44.7792 919.303 43.2903 896.751 40.4594C878.702 38.1881 856.897 34.0982 842.917 21.4283C837.682 16.6811 834.103 10.4678 833.745 3.30747" stroke="url(#paint23_radial_38_89)" stroke-opacity="0.1" stroke-width="3.27711" stroke-miterlimit="10" stroke-linecap="round"/>
<path d="M956.517 809.942C955.189 791.711 954.211 771.373 944.388 755.356C933.097 736.975 914.554 723.271 897.779 710.235C882.35 698.242 866.726 685.924 853.348 671.56C839.559 656.794 828.172 638.948 834.076 618.021C839.325 599.426 855.296 584.673 869.284 572.215C884.978 558.236 901.95 545.375 918.701 532.667C955.382 504.838 992.301 477.155 1025.66 445.292C1042.43 429.258 1058.51 412.465 1073.56 394.806C1088.24 377.609 1103.62 361.048 1118.3 343.851C1131.47 328.412 1144.23 312.607 1155.45 295.68C1161.32 286.814 1166.9 277.749 1171.99 268.412C1176.63 259.893 1182.95 252.347 1188.47 244.33C1199.46 228.317 1208.16 211.433 1216.31 193.872C1224.35 176.545 1228.46 155.164 1227.36 136.107C1224.95 94.2025 1189.94 66.2789 1153.23 52.7503C1114.37 38.4324 1073.81 33.1512 1033.34 25.5135C1011.52 21.389 989.832 17.1872 968.296 11.8098C951.542 7.61381 932.378 1.28062 920.59 -12.0878C915.872 -17.4279 912.804 -23.9868 912.41 -31.1629" stroke="url(#paint24_radial_38_89)" stroke-opacity="0.1" stroke-width="3.27711" stroke-miterlimit="10" stroke-linecap="round"/>
<path d="M1034.74 845.624C1033.46 826.629 1033.01 805.787 1025.08 788.132C1017.01 770.218 1004.35 754.615 991.951 739.475C988.645 735.44 984.415 731.33 981.826 726.797C981.378 726.008 981.137 724.8 980.466 723.81C979.316 722.102 977.974 720.439 976.721 718.807C969.894 710.005 963.963 701.104 958.382 691.46C948.54 674.417 942.136 655.461 948.416 635.964C954.271 617.815 968.08 602.627 981.038 589.092C995.119 574.366 1010.56 560.595 1025.59 546.881C1058.75 516.619 1092.22 486.872 1122.61 453.715C1153.39 420.148 1181.31 383.796 1205.69 345.33C1216.09 328.923 1225.49 311.879 1233.64 294.247C1238.16 284.479 1242.26 274.486 1245.66 264.264C1247.01 260.233 1247.85 255.82 1249.63 251.978C1252 246.85 1254.82 241.733 1257.53 236.764C1262.58 227.516 1266.61 217.633 1269.53 207.507C1270.68 203.503 1271.51 199.445 1272.32 195.371C1273.23 190.832 1275.08 186.562 1276.31 182.077C1278.85 172.802 1279.26 163.108 1280.15 153.583C1281.1 143.702 1280.62 133.525 1278.94 123.746C1272.27 84.7883 1241.82 57.2619 1207.92 40.4028C1191.62 32.2932 1174.64 24.502 1157.43 18.5796C1138.81 12.1652 1119.87 6.70482 1101.37 -0.0697208C1080.15 -7.85078 1058.8 -15.0416 1038.13 -24.16C1022.2 -31.1754 1005.53 -38.8422 994.77 -53.1664C990.036 -59.4783 986.958 -66.9026 986.454 -74.8332" stroke="url(#paint25_radial_38_89)" stroke-opacity="0.1" stroke-width="3.27711" stroke-miterlimit="10" stroke-linecap="round"/>
<path d="M1111.06 885.33C1110.04 866.021 1109.99 846.131 1105.78 827.184C1104.71 822.43 1102.4 818.184 1101.03 813.552C1099.59 808.694 1098.07 803.7 1095.97 798.735C1092.01 789.323 1087.64 780.163 1083.22 770.97C1081.23 766.831 1078.49 762.413 1077.25 757.986C1076.69 756 1076.91 754.821 1076.25 752.805C1075.43 750.249 1074.13 747.752 1073.03 745.317C1068.69 735.66 1065.59 725.886 1062.62 715.75C1057.24 697.466 1055.1 678.552 1061.14 660.128C1067.07 642.046 1079.24 626.448 1091.03 611.79C1104.11 595.508 1118.79 580.362 1132.81 564.879C1147.33 548.839 1162.63 533.431 1176.64 516.924C1191.13 499.843 1205.28 482.497 1218.79 464.636C1245.23 429.705 1264.48 390.767 1284.25 351.907C1293.04 334.594 1300.51 316.714 1306.48 298.223C1309.82 287.916 1312.77 277.523 1314.97 266.904C1316.95 257.358 1316.9 246.627 1320.19 237.543C1323.77 227.665 1326.9 217.563 1328.84 207.224C1330.59 197.866 1330.41 188.751 1331.09 179.344C1331.44 174.534 1332.8 169.794 1333.11 164.915C1333.4 160.072 1333.23 155.201 1332.93 150.372C1332.32 140.838 1332.36 131.411 1330.48 121.996C1326.67 102.887 1319.68 84.5453 1308.66 68.325C1297.32 51.6267 1281.08 38.1027 1264.7 26.5664C1256.73 20.9547 1248.15 16.348 1240.01 10.9924C1231.94 5.66937 1223.67 0.692682 1215.1 -3.80911C1196.53 -13.586 1177.48 -22.2589 1159.17 -32.5444C1140.46 -43.0387 1121.66 -53.1746 1103.57 -64.674C1089.03 -73.9017 1074.55 -84.2288 1065.61 -99.3555C1061.47 -106.353 1058.82 -114.154 1058.23 -122.292" stroke="url(#paint26_radial_38_89)" stroke-opacity="0.1" stroke-width="3.27711" stroke-miterlimit="10" stroke-linecap="round"/>
<path d="M1187.37 925.057C1186.4 904.225 1186.84 883.248 1184.97 862.481C1184.58 857.993 1183.62 853.569 1182.74 849.16C1181.78 844.435 1181.59 839.424 1180.68 834.556C1178.81 824.61 1176.9 814.702 1174.84 804.802C1173.75 799.607 1172.75 794.391 1171.91 789.148C1171.28 785.255 1171.86 781.723 1171.23 777.778C1169.55 767.274 1167.75 756.954 1167.21 746.302C1166.25 727.008 1166.06 708.61 1171.75 689.922C1177.8 670.083 1189.46 652.814 1201.02 635.816C1213.12 618.03 1226.87 601.429 1239.87 584.32C1266.5 549.22 1293.22 514.558 1316.23 476.925C1327.96 457.744 1338.38 438.259 1346.54 417.301C1350.56 407.011 1354.15 396.567 1357.31 385.987C1358.83 380.885 1360.26 375.753 1361.58 370.591C1363.02 364.981 1365.5 359.722 1367.55 354.31C1381.96 316.209 1390.2 274.418 1389.12 233.61C1389.01 229.426 1389.79 225.406 1390.35 221.239C1390.99 216.36 1391.09 211.545 1391.53 206.66C1392.48 196.142 1392.29 185.56 1391.09 175.084C1389.9 164.82 1390.08 154.519 1388.45 144.296C1386.98 135.142 1385.68 125.786 1383.51 116.776C1378.67 96.6596 1370.57 77.8105 1359.81 60.1443C1349.21 42.7175 1334.84 28.017 1319.98 14.1905C1312.73 7.42713 1305.02 1.34192 1297.22 -4.75606C1289.63 -10.6879 1282.51 -17.2109 1274.88 -23.1056C1258.66 -35.6404 1241.16 -46.4452 1225 -59.0719C1207.42 -72.8079 1189.23 -86.3715 1172.86 -101.568C1159.18 -114.271 1145.6 -127.033 1137.26 -144.066C1133.32 -152.134 1130.71 -160.839 1129.95 -169.799" stroke="url(#paint27_radial_38_89)" stroke-opacity="0.1" stroke-width="3.27711" stroke-miterlimit="10" stroke-linecap="round"/>
<path d="M1265.6 960.738C1264.65 939.304 1265.29 917.856 1265.93 896.409C1266.22 886.775 1265.94 877.029 1265.71 867.458C1265.42 856.209 1265.36 844.966 1265.21 833.71C1265.13 828.604 1265.17 823.492 1265.29 818.375C1265.35 815.932 1265.16 813.148 1265.56 810.722C1265.71 809.831 1265.83 808.745 1266.3 808.013C1266.63 807.501 1267.72 806.842 1267.89 806.533C1269.73 803.306 1268.88 796.455 1269.08 792.272C1269.35 786.634 1269.82 781.005 1270.46 775.401C1272.77 754.75 1276.04 734.474 1282.84 714.79C1296.76 674.486 1323.49 639.912 1346.4 604.476C1369.92 568.107 1394.07 532.237 1414.39 493.913C1435.3 454.499 1452.84 413.174 1461.25 369.163C1465.48 346.997 1469.73 325.237 1470.38 302.587C1471 281.018 1470.24 259.113 1467.12 237.757C1465.61 227.492 1464.01 217.48 1463.03 207.152C1462 196.437 1460.7 185.755 1458.33 175.234C1453.78 155.032 1448.27 135.109 1441.86 115.411C1435.11 94.6349 1425.46 74.9125 1414.33 56.1696C1403.35 37.7191 1389.7 21.4782 1375.47 5.47918C1347.29 -26.1439 1315.14 -53.8815 1286.12 -84.6649C1270.93 -100.773 1255.67 -117.212 1241.96 -134.6C1229.48 -150.443 1217.54 -166.579 1210.39 -185.637C1207.04 -194.568 1204.82 -203.929 1204.03 -213.437" stroke="url(#paint28_radial_38_89)" stroke-opacity="0.1" stroke-width="3.27711" stroke-miterlimit="10" stroke-linecap="round"/>
<path d="M1347.4 986.824C1345.44 942.969 1351.66 898.824 1358.88 855.69C1359.76 850.356 1360.76 845.052 1361.82 839.762C1362.69 835.455 1363.07 830.219 1365.09 826.258C1369.67 817.354 1370.85 805.905 1373.55 795.967C1379.34 774.586 1386.08 753.455 1394.7 733.039C1411.99 692.099 1435.73 654.234 1458.23 616.061C1469.23 597.413 1479.37 578.138 1489.85 559.163C1500.27 540.297 1509.49 520.911 1518.51 501.358C1523.38 490.811 1528.02 480.153 1532.36 469.37C1534.28 464.583 1536.17 459.798 1537.88 454.934C1539.92 449.098 1540.66 442.958 1542.62 437.179C1549.62 416.512 1554.99 395.154 1558.15 373.574C1564.66 329.115 1556.83 283.091 1544.82 240.187C1541.8 229.383 1537.92 218.87 1534.71 208.147C1531.54 197.58 1529.61 187.124 1525.91 176.673C1518.84 156.692 1510.23 137.198 1501.38 117.946C1482.38 76.5759 1458.55 38.2878 1430.86 2.18305C1404.19 -32.5786 1375.61 -66.1262 1350.28 -101.878C1325.44 -137 1299.97 -174.796 1288.26 -216.655C1285.41 -226.885 1283.45 -237.355 1282.61 -247.939" stroke="url(#paint29_radial_38_89)" stroke-opacity="0.1" stroke-width="3.27711" stroke-miterlimit="10" stroke-linecap="round"/>
<path d="M172.998 1060.85C168.298 971.251 120.178 889.571 72.6994 816.063C23.7573 740.279 -31.4889 667.691 -71.0545 586.27C-90.301 546.68 -105.633 504.534 -110.608 460.589C-115.613 416.415 -108.871 372.015 -96.313 329.608C-70.6364 243.013 -23.9389 164.105 17.6682 84.5617C61.0095 1.67364 112.196 -97.8413 106.905 -198.707C206.96 -203.956 305.759 -153.581 389.337 -109.904C469.133 -68.2045 548.246 -21.3228 635.076 4.46527C677.503 17.0751 721.975 23.8132 766.184 18.8063C810.48 13.7771 852.933 -1.74741 892.795 -21.2027C974.398 -61.0077 1047.17 -116.476 1123.23 -165.503C1196.28 -212.604 1277.5 -260.117 1366.46 -264.784C1371.74 -164.094 1432.84 -70.6462 1484.85 7.59359C1534.55 82.3647 1589.25 155.954 1623.84 239.368C1640.78 280.21 1652.12 323.68 1651.76 368.135C1651.41 412.359 1640.56 455.879 1625.58 497.264C1594.75 582.378 1547.42 660.348 1506.66 740.837C1467.13 818.91 1427.82 905.194 1432.52 994.775C1343.56 999.442 1257.81 960.67 1180.24 921.489C1099.46 880.689 1021.29 833.139 935.967 802.091C894.272 786.914 850.443 775.916 805.864 775.549C761.357 775.197 717.853 786.568 676.977 803.53C593.321 838.261 519.548 893.146 444.554 942.984C366.963 994.549 273.494 1055.58 172.998 1060.85Z" stroke="url(#paint30_radial_38_89)" stroke-opacity="0.1" stroke-width="3.27711" stroke-miterlimit="10" stroke-linecap="round"/>
</g>
</g>
<defs>
<filter id="filter0_f_38_89" x="-429.148" y="-198.148" width="1595.3" height="1496.3" filterUnits="userSpaceOnUse" color-interpolation-filters="sRGB">
<feFlood flood-opacity="0" result="BackgroundImageFix"/>
<feBlend mode="normal" in="SourceGraphic" in2="BackgroundImageFix" result="shape"/>
<feGaussianBlur stdDeviation="274.574" result="effect1_foregroundBlur_38_89"/>
</filter>
<filter id="filter1_f_38_89" x="637.852" y="-232.148" width="1595.3" height="1682.3" filterUnits="userSpaceOnUse" color-interpolation-filters="sRGB">
<feFlood flood-opacity="0" result="BackgroundImageFix"/>
<feBlend mode="normal" in="SourceGraphic" in2="BackgroundImageFix" result="shape"/>
<feGaussianBlur stdDeviation="274.574" result="effect1_foregroundBlur_38_89"/>
</filter>
<radialGradient id="paint0_radial_38_89" cx="0" cy="0" r="1" gradientUnits="userSpaceOnUse" gradientTransform="translate(746.494 -45.0177) rotate(86.997) scale(103.062 642.987)">
<stop stop-color="white"/>
<stop offset="1" stop-color="white" stop-opacity="0"/>
</radialGradient>
<radialGradient id="paint1_radial_38_89" cx="0" cy="0" r="1" gradientUnits="userSpaceOnUse" gradientTransform="translate(748.696 -3.22561) rotate(86.997) scale(65.661 673.315)">
<stop stop-color="white"/>
<stop offset="1" stop-color="white" stop-opacity="0"/>
</radialGradient>
<radialGradient id="paint2_radial_38_89" cx="0" cy="0" r="1" gradientUnits="userSpaceOnUse" gradientTransform="translate(750.936 39.4903) rotate(86.997) scale(34.5967 713.046)">
<stop stop-color="white"/>
<stop offset="1" stop-color="white" stop-opacity="0"/>
</radialGradient>
<radialGradient id="paint3_radial_38_89" cx="0" cy="0" r="1" gradientUnits="userSpaceOnUse" gradientTransform="translate(753.999 98.5927) rotate(86.997) scale(21.2953 756.803)">
<stop stop-color="white"/>
<stop offset="1" stop-color="white" stop-opacity="0"/>
</radialGradient>
<radialGradient id="paint4_radial_38_89" cx="0" cy="0" r="1" gradientUnits="userSpaceOnUse" gradientTransform="translate(758.262 179.463) rotate(86.997) scale(26.0469 800.507)">
<stop stop-color="white"/>
<stop offset="1" stop-color="white" stop-opacity="0"/>
</radialGradient>
<radialGradient id="paint5_radial_38_89" cx="0" cy="0" r="1" gradientUnits="userSpaceOnUse" gradientTransform="translate(762.105 252.731) rotate(86.997) scale(20.7032 840.256)">
<stop stop-color="white"/>
<stop offset="1" stop-color="white" stop-opacity="0"/>
</radialGradient>
<radialGradient id="paint6_radial_38_89" cx="0" cy="0" r="1" gradientUnits="userSpaceOnUse" gradientTransform="translate(765.875 324.097) rotate(86.997) scale(10.5983 870.548)">
<stop stop-color="white"/>
<stop offset="1" stop-color="white" stop-opacity="0"/>
</radialGradient>
<radialGradient id="paint7_radial_38_89" cx="0" cy="0" r="1" gradientUnits="userSpaceOnUse" gradientTransform="translate(769.761 398.531) rotate(86.997) scale(0.5 882.909)">
<stop stop-color="white"/>
<stop offset="1" stop-color="white" stop-opacity="0"/>
</radialGradient>
<radialGradient id="paint8_radial_38_89" cx="0" cy="0" r="1" gradientUnits="userSpaceOnUse" gradientTransform="translate(773.169 463.635) rotate(86.997) scale(18.6964 870.575)">
<stop stop-color="white"/>
<stop offset="1" stop-color="white" stop-opacity="0"/>
</radialGradient>
<radialGradient id="paint9_radial_38_89" cx="0" cy="0" r="1" gradientUnits="userSpaceOnUse" gradientTransform="translate(776.357 524.218) rotate(86.997) scale(38.4258 840.247)">
<stop stop-color="white"/>
<stop offset="1" stop-color="white" stop-opacity="0"/>
</radialGradient>
<radialGradient id="paint10_radial_38_89" cx="0" cy="0" r="1" gradientUnits="userSpaceOnUse" gradientTransform="translate(779.367 581.805) rotate(86.997) scale(57.0798 800.507)">
<stop stop-color="white"/>
<stop offset="1" stop-color="white" stop-opacity="0"/>
</radialGradient>
<radialGradient id="paint11_radial_38_89" cx="0" cy="0" r="1" gradientUnits="userSpaceOnUse" gradientTransform="translate(782.369 638.875) rotate(86.997) scale(74.1478 756.776)">
<stop stop-color="white"/>
<stop offset="1" stop-color="white" stop-opacity="0"/>
</radialGradient>
<radialGradient id="paint12_radial_38_89" cx="0" cy="0" r="1" gradientUnits="userSpaceOnUse" gradientTransform="translate(786.058 709.292) rotate(86.997) scale(77.9229 713.064)">
<stop stop-color="white"/>
<stop offset="1" stop-color="white" stop-opacity="0"/>
</radialGradient>
<radialGradient id="paint13_radial_38_89" cx="0" cy="0" r="1" gradientUnits="userSpaceOnUse" gradientTransform="translate(789.092 767.145) rotate(86.997) scale(96.2743 673.333)">
<stop stop-color="white"/>
<stop offset="1" stop-color="white" stop-opacity="0"/>
</radialGradient>
<radialGradient id="paint14_radial_38_89" cx="0" cy="0" r="1" gradientUnits="userSpaceOnUse" gradientTransform="translate(792.12 824.887) rotate(86.997) scale(118.834 642.996)">
<stop stop-color="white"/>
<stop offset="1" stop-color="white" stop-opacity="0"/>
</radialGradient>
<radialGradient id="paint15_radial_38_89" cx="0" cy="0" r="1" gradientUnits="userSpaceOnUse" gradientTransform="translate(118.291 432.224) rotate(86.997) scale(618.231 106.333)">
<stop stop-color="white"/>
<stop offset="1" stop-color="white" stop-opacity="0"/>
</radialGradient>
<radialGradient id="paint16_radial_38_89" cx="0" cy="0" r="1" gradientUnits="userSpaceOnUse" gradientTransform="translate(221.623 426.785) rotate(86.997) scale(587.911 88.359)">
<stop stop-color="white"/>
<stop offset="1" stop-color="white" stop-opacity="0"/>
</radialGradient>
<radialGradient id="paint17_radial_38_89" cx="0" cy="0" r="1" gradientUnits="userSpaceOnUse" gradientTransform="translate(335.252 420.844) rotate(86.997) scale(548.163 96.8792)">
<stop stop-color="white"/>
<stop offset="1" stop-color="white" stop-opacity="0"/>
</radialGradient>
<radialGradient id="paint18_radial_38_89" cx="0" cy="0" r="1" gradientUnits="userSpaceOnUse" gradientTransform="translate(440.662 415.285) rotate(86.997) scale(504.521 128.607)">
<stop stop-color="white"/>
<stop offset="1" stop-color="white" stop-opacity="0"/>
</radialGradient>
<radialGradient id="paint19_radial_38_89" cx="0" cy="0" r="1" gradientUnits="userSpaceOnUse" gradientTransform="translate(545.078 409.819) rotate(86.997) scale(460.861 163.99)">
<stop stop-color="white"/>
<stop offset="1" stop-color="white" stop-opacity="0"/>
</radialGradient>
<radialGradient id="paint20_radial_38_89" cx="0" cy="0" r="1" gradientUnits="userSpaceOnUse" gradientTransform="translate(650.467 404.298) rotate(86.997) scale(421.121 200.192)">
<stop stop-color="white"/>
<stop offset="1" stop-color="white" stop-opacity="0"/>
</radialGradient>
<radialGradient id="paint21_radial_38_89" cx="0" cy="0" r="1" gradientUnits="userSpaceOnUse" gradientTransform="translate(756.139 398.753) rotate(86.997) scale(390.784 237.045)">
<stop stop-color="white"/>
<stop offset="1" stop-color="white" stop-opacity="0"/>
</radialGradient>
<radialGradient id="paint22_radial_38_89" cx="0" cy="0" r="1" gradientUnits="userSpaceOnUse" gradientTransform="translate(862.731 393.162) rotate(86.997) scale(378.388 273.321)">
<stop stop-color="white"/>
<stop offset="1" stop-color="white" stop-opacity="0"/>
</radialGradient>
<radialGradient id="paint23_radial_38_89" cx="0" cy="0" r="1" gradientUnits="userSpaceOnUse" gradientTransform="translate(946.621 388.734) rotate(86.997) scale(390.811 241.248)">
<stop stop-color="white"/>
<stop offset="1" stop-color="white" stop-opacity="0"/>
</radialGradient>
<radialGradient id="paint24_radial_38_89" cx="0" cy="0" r="1" gradientUnits="userSpaceOnUse" gradientTransform="translate(1029.98 384.379) rotate(86.997) scale(421.131 210.116)">
<stop stop-color="white"/>
<stop offset="1" stop-color="white" stop-opacity="0"/>
</radialGradient>
<radialGradient id="paint25_radial_38_89" cx="0" cy="0" r="1" gradientUnits="userSpaceOnUse" gradientTransform="translate(1112.39 380.055) rotate(86.997) scale(460.861 180.562)">
<stop stop-color="white"/>
<stop offset="1" stop-color="white" stop-opacity="0"/>
</radialGradient>
<radialGradient id="paint26_radial_38_89" cx="0" cy="0" r="1" gradientUnits="userSpaceOnUse" gradientTransform="translate(1193 375.835) rotate(86.997) scale(504.503 151.566)">
<stop stop-color="white"/>
<stop offset="1" stop-color="white" stop-opacity="0"/>
</radialGradient>
<radialGradient id="paint27_radial_38_89" cx="0" cy="0" r="1" gradientUnits="userSpaceOnUse" gradientTransform="translate(1274.63 371.545) rotate(86.997) scale(548.181 126.905)">
<stop stop-color="white"/>
<stop offset="1" stop-color="white" stop-opacity="0"/>
</radialGradient>
<radialGradient id="paint28_radial_38_89" cx="0" cy="0" r="1" gradientUnits="userSpaceOnUse" gradientTransform="translate(1354.87 367.353) rotate(86.997) scale(587.894 120.234)">
<stop stop-color="white"/>
<stop offset="1" stop-color="white" stop-opacity="0"/>
</radialGradient>
<radialGradient id="paint29_radial_38_89" cx="0" cy="0" r="1" gradientUnits="userSpaceOnUse" gradientTransform="translate(1438.36 362.971) rotate(86.997) scale(618.231 123.535)">
<stop stop-color="white"/>
<stop offset="1" stop-color="white" stop-opacity="0"/>
</radialGradient>
<radialGradient id="paint30_radial_38_89" cx="0" cy="0" r="1" gradientUnits="userSpaceOnUse" gradientTransform="translate(769.721 398.033) rotate(86.997) scale(630.645 882.867)">
<stop stop-color="white"/>
<stop offset="1" stop-color="white" stop-opacity="0"/>
</radialGradient>
<clipPath id="clip0_38_89">
<rect width="1512" height="1146" fill="white"/>
</clipPath>
<clipPath id="clip1_38_89">
<rect width="1765.82" height="1261.29" fill="white" transform="translate(-145 -185.492) rotate(-3.00298)"/>
</clipPath>
</defs>
</svg>
