<svg width="13" height="15" viewBox="0 0 13 15" fill="none" xmlns="http://www.w3.org/2000/svg">
<path d="M6.5 15C6.25767 15 6.05441 14.9075 5.8902 14.7226C5.72599 14.5377 5.64417 14.3091 5.64474 14.0369V3.27448L1.47533 7.9695C1.30428 8.16212 1.10101 8.25842 0.865526 8.25842C0.630044 8.25842 0.427061 8.16212 0.256579 7.9695C0.0855261 7.77688 0 7.55217 0 7.29534C0 7.03852 0.0855261 6.8138 0.256579 6.62119L5.90132 0.264847C5.98684 0.168539 6.0795 0.100481 6.17928 0.0606739C6.27906 0.0208665 6.38596 0.000642054 6.5 0C6.61403 0 6.72465 0.0202245 6.83184 0.0606739C6.93903 0.101123 7.02798 0.169181 7.09868 0.264847L12.7434 6.62119C12.9145 6.8138 13 7.03852 13 7.29534C13 7.55217 12.9145 7.77688 12.7434 7.9695C12.5724 8.16212 12.3691 8.25842 12.1336 8.25842C11.8981 8.25842 11.6952 8.16212 11.5247 7.9695L7.35526 3.27448V14.0369C7.35526 14.3098 7.27316 14.5387 7.10895 14.7236C6.94474 14.9085 6.74175 15.0006 6.5 15Z" fill="white"/>
</svg>
