<svg width="1512" height="532" viewBox="0 0 1512 532" fill="none" xmlns="http://www.w3.org/2000/svg">
<g clip-path="url(#clip0_1_9)">
<rect width="1515" height="532" transform="translate(-1)" fill="#000B18"/>
<g opacity="0.8" filter="url(#filter0_f_1_9)">
<ellipse cx="368.5" cy="550" rx="248.5" ry="199" fill="#3130E7" fill-opacity="0.47"/>
</g>
<g opacity="0.8" filter="url(#filter1_f_1_9)">
<ellipse cx="1435.5" cy="609" rx="248.5" ry="292" fill="#6482FF" fill-opacity="0.5"/>
</g>
<g opacity="0.2" clip-path="url(#clip1_1_9)">
<path d="M1385.05 -214.647C1340.71 -213.214 1297.6 -197.109 1257.34 -176.026C1237.78 -165.782 1218.52 -154.53 1199.76 -142.387C1181.86 -130.8 1164.88 -117.532 1147.33 -105.254C1128.77 -92.2854 1110.86 -78.121 1092.6 -64.5847C1075.56 -51.9618 1058.23 -39.9287 1041.07 -27.55C1002.62 0.166736 961.263 24.5447 918.738 42.2274C876.961 59.5913 833.839 66.6054 789.651 64.3201C744.593 62.005 700.11 51.9023 656.626 37.9663C565.672 8.83336 478.962 -35.2082 390.336 -72.5518C307.374 -107.523 221.762 -138.769 132.738 -137.139C121.522 -136.925 110.312 -136.187 99.1478 -134.803" stroke="url(#paint0_radial_1_9)" stroke-opacity="0.1" stroke-width="3.27711" stroke-miterlimit="10" stroke-linecap="round"/>
<path d="M1419.61 -121.4C1376.66 -125.229 1334.02 -109.677 1294.26 -92.4377C1274.04 -83.6819 1253.79 -74.3801 1234.89 -62.0612C1217.13 -50.4832 1198.92 -39.6515 1180.77 -28.8665C1163.33 -18.5024 1145.37 -9.46803 1127.82 0.567185C1108.38 11.705 1088.99 22.0641 1068.48 30.3558C1026.82 47.2094 984.764 61.4059 940.365 61.983C936.013 62.0437 931.695 61.7046 927.354 61.6388C922.004 61.5728 916.516 62.7727 911.158 63.3358C899.931 64.4936 888.667 65.2349 877.406 65.6406C855.311 66.4675 833.179 66.0598 811.133 64.8094C786.743 63.4112 762.421 60.7517 738.189 57.3324C714.973 54.0595 691.896 49.5212 668.773 45.1322C656.577 42.8303 644.391 40.3392 632.237 37.7624C626.5 36.5472 620.778 35.2891 615.038 34.0321C609.549 32.8225 604.112 32.7833 598.617 31.8464C574.549 27.7255 550.58 20.6448 526.787 14.726C480.328 3.17459 433.594 -8.21387 386.539 -15.6428C362.36 -19.4635 338.19 -25.0859 313.924 -28.8803C291.494 -32.3905 269.224 -36.3086 246.682 -38.7643C199.925 -43.8652 152.806 -45.5287 105.917 -41.6333C94.9265 -40.7206 83.9683 -39.4955 73.0458 -37.8537" stroke="url(#paint1_radial_1_9)" stroke-opacity="0.1" stroke-width="3.27711" stroke-miterlimit="10" stroke-linecap="round"/>
<path d="M1463.34 -33.6065C1445.42 -38.7378 1424.94 -36.3344 1406.88 -33.8308C1383.77 -30.6366 1361.37 -23.6732 1338.87 -17.1018C1327.82 -13.8809 1316.75 -10.3647 1306.13 -5.53611C1298.46 -2.04295 1291.23 2.302 1283.38 5.32446C1274.61 8.69753 1266.24 13.1355 1257.52 16.6933C1248.13 20.5237 1238.35 23.2261 1228.95 27.1411C1221.12 30.3923 1213.13 33.0047 1205.24 36.0294C1197.11 39.153 1189.29 43.1794 1181.02 45.9555C1159.23 53.2583 1136.6 58.4336 1114.25 62.6078C1091.91 66.7808 1069.27 68.5001 1046.66 67.4311C1037.83 67.0158 1028.45 63.8904 1019.81 65.4952C1008.29 67.6559 996.735 69.4418 985.153 70.9988C883.924 84.4688 781.869 80.4956 680.402 73.8255C674.098 73.4206 667.701 72.4977 661.408 72.7416C655.416 72.9669 649.697 73.3645 643.694 72.941C630.159 71.9584 616.637 70.9123 603.113 69.7824C577.328 67.6537 551.537 65.3996 525.756 62.9773C499.264 60.4944 472.775 58.0742 446.26 55.8651C421.007 53.7662 395.812 52.9625 370.544 51.3254C343.695 49.5771 316.828 48.2279 289.95 47.4241C281.068 47.1584 272.238 45.6746 263.331 45.2637C249.972 44.6683 236.604 44.262 223.244 44.0437C172.799 43.2154 122.251 44.8652 71.9992 50.394C60.4225 51.6574 48.8565 53.1503 37.3196 54.914" stroke="url(#paint2_radial_1_9)" stroke-opacity="0.1" stroke-width="3.27711" stroke-miterlimit="10" stroke-linecap="round"/>
<path d="M1510.95 51.538C1504.08 47.9 1495.3 48.0676 1487.96 47.7692C1475.47 47.2872 1462.91 47.438 1450.43 48.4219C1425.41 50.394 1400.21 55.1015 1375.65 60.9841C1366.7 63.1321 1358.46 66.8702 1349.76 69.7143C1341.89 72.298 1333.89 74.3862 1326.02 76.8446C1316.08 79.9337 1306.17 83.2107 1296.26 86.4659C1288.25 89.1002 1280.02 90.9509 1272.05 93.7083C1263.13 96.7976 1254.62 100.594 1245.42 102.862C1233.93 105.691 1222.16 107.323 1210.75 109.54C1186.17 114.334 1161.68 116.545 1136.78 116.08C1128.26 115.917 1120.13 114.746 1111.74 113.528C1106.98 112.839 1101.47 114.668 1096.65 115.428C1090.71 116.363 1084.76 117.256 1078.81 118.065C1052.86 121.666 1026.82 124.31 1000.75 126.431C974.142 128.585 947.499 130.281 920.849 131.433C906.854 132.05 892.869 132.52 878.879 132.865C865.668 133.203 851.668 134.931 838.534 133.022C825.489 131.108 811.631 132.828 798.478 132.89C784.547 132.958 770.611 132.944 756.673 132.866C742.929 132.776 729.183 132.624 715.434 132.409C702.73 132.213 690.128 133.52 677.422 133.261C623.316 132.136 569.229 130.213 515.134 128.543C487.758 127.686 460.368 126.914 432.969 126.331C419.978 126.048 407.094 127.372 394.105 127.152C380.427 126.932 366.75 126.754 353.059 126.661C339.191 126.559 325.309 126.541 311.448 126.605C298.065 126.661 284.061 128.284 270.766 126.742C257.525 125.196 243.992 126.266 230.691 126.589C216.684 126.935 202.698 127.385 188.702 127.981C136.497 130.195 84.3161 134.167 32.3727 140.681C20.716 142.138 9.06607 143.741 -2.57763 145.491" stroke="url(#paint3_radial_1_9)" stroke-opacity="0.1" stroke-width="3.27711" stroke-miterlimit="10" stroke-linecap="round"/>
<path d="M1558.57 136.68C1550.97 133.946 1541.96 134.632 1534.15 134.655C1522.02 134.675 1509.86 135.053 1497.75 135.909C1469.98 137.863 1442.34 142.093 1414.86 147.046C1405.2 148.777 1395.11 150.284 1385.8 153.962C1377.1 157.394 1368.18 158.702 1359.24 161.08C1341.95 165.694 1325.34 172.632 1308.25 178.072C1300.67 180.491 1292.85 181.814 1285.55 185.243C1276.38 189.541 1267.02 192.469 1257.35 194.892C1245.11 197.977 1232.68 199.901 1220.49 202.942C1205.95 206.588 1191.35 209.779 1176.66 212.387C1155.7 216.119 1134.65 217.699 1113.49 218.761C1101.84 219.358 1090.16 221.382 1078.54 222.522C1064.91 223.85 1051.28 225.011 1037.64 226.046C981.874 230.262 926.003 232.452 870.131 233.427C810.986 234.458 751.834 232.516 692.634 232.315C677.741 232.255 662.931 232.88 648.026 232.548C632.854 232.191 617.68 231.793 602.506 231.373C573.219 230.551 543.946 229.645 514.672 228.696C484.618 227.733 454.548 226.813 424.484 226.039C395.769 225.307 367.108 225.809 338.387 225.371C223.805 223.601 109.285 223.649 -5.13219 232.784C-17.5536 233.764 -29.9525 234.848 -42.3647 236.038" stroke="url(#paint4_radial_1_9)" stroke-opacity="0.1" stroke-width="3.27711" stroke-miterlimit="10" stroke-linecap="round"/>
<path d="M1602.31 224.474C1580.45 223.003 1557.83 225.832 1536.07 227.957C1507.85 230.715 1479.77 234.93 1451.65 238.645C1437.9 240.463 1424.14 242.344 1410.45 244.723C1400.98 246.358 1391.88 249.29 1382.57 251.314C1362.3 255.694 1341.81 258.789 1321.49 263.004C1278.82 271.854 1236.77 283.851 1193.58 288.962C1165.1 292.322 1136.81 297.934 1108.27 301.151C1087.83 303.467 1067.3 304.008 1046.84 305.739C928.479 315.851 809.79 316.893 691.187 317.09C629.487 317.19 567.812 317.477 506.094 316.783C475.819 316.442 445.531 316.185 415.263 315.99C383.898 315.8 352.555 316.531 321.196 316.487C200.453 316.335 79.7286 317.795 -40.8538 326.055C-53.2808 326.91 -65.6881 327.807 -78.1095 328.787" stroke="url(#paint5_radial_1_9)" stroke-opacity="0.1" stroke-width="3.27711" stroke-miterlimit="10" stroke-linecap="round"/>
<path d="M1636.85 317.721C1582.85 320.717 1529.04 326.571 1475.23 332.551C1448.35 335.54 1421.37 337.801 1394.54 341.666C1375.79 344.36 1357.06 347.346 1338.23 349.897C1315.07 353.032 1291.88 355.917 1268.71 358.801C1249.62 361.16 1230.63 364.182 1211.56 366.476C1182.6 369.97 1153.56 373.156 1124.46 374.145C1093.49 375.188 1062.51 375.225 1031.53 375.828C1019.39 376.058 1007.22 376.311 995.094 375.87C991.99 375.748 988.851 375.252 985.75 375.193C980.203 375.076 974.399 376.358 968.848 376.954C939.332 380.127 909.774 382.779 880.208 385.221C819.663 390.216 758.945 396.52 698.275 398.296C632.071 400.248 565.859 402.011 499.641 403.252C435.385 404.433 371.059 404.802 306.845 407.3C244.68 409.714 182.484 410.62 120.33 413.263C57.786 415.909 -4.71442 419.119 -67.1914 423.27C-79.5134 424.097 -91.8352 424.946 -104.155 425.816" stroke="url(#paint6_radial_1_9)" stroke-opacity="0.1" stroke-width="3.27711" stroke-miterlimit="10" stroke-linecap="round"/>
<path d="M1653.62 416.807C1600.54 420.102 1547.44 423.398 1494.37 426.692C1442.95 429.884 1391.51 433.077 1340.09 436.269C1294.66 439.089 1249.23 441.909 1203.78 444.731C1151.02 448.006 1098.28 451.28 1045.52 454.555C993.641 457.775 941.765 460.995 889.888 464.216C829.217 467.982 768.564 471.747 707.894 475.513C641.697 479.622 575.5 483.731 509.285 487.842C444.112 491.887 378.939 495.933 313.767 499.978C247.799 504.073 181.832 508.168 115.882 512.262C51.5391 516.256 -12.7864 520.249 -77.1294 524.243C-88.7832 524.967 -100.455 525.691 -112.109 526.415" stroke="url(#paint7_radial_1_9)" stroke-opacity="0.1" stroke-width="3.27711" stroke-miterlimit="10" stroke-linecap="round"/>
<path d="M1645.7 517.425C1592.18 520.203 1538.65 521.661 1485.08 522.409C1453.59 522.856 1422.12 523.593 1390.63 523.851C1367.02 524.038 1343.48 523.007 1319.9 522.606C1297.54 522.234 1275.11 522.055 1252.73 522.061C1228.95 522.071 1205.2 521.765 1181.41 521.586C1160.63 521.43 1140.01 520.218 1119.26 519.851C1090.14 519.353 1061.04 520.238 1031.93 520.118C971.237 519.884 910.559 521.094 849.889 523.268C800.056 525.062 750.3 528.59 700.567 532.641C636.614 537.847 572.796 544.114 508.952 550.968C444.156 557.924 379.509 564.639 314.901 573.846C252.545 582.724 190.078 591.483 127.636 599.235C65.265 606.962 2.94176 614.581 -59.5068 621.369C-71.4534 622.677 -83.4169 624.006 -95.3561 625.48" stroke="url(#paint8_radial_1_9)" stroke-opacity="0.1" stroke-width="3.27711" stroke-miterlimit="10" stroke-linecap="round"/>
<path d="M1619.6 614.434C1566.79 616.099 1514.07 615.915 1461.26 614.039C1430.51 612.952 1399.78 611.591 1369.04 610.357C1344.07 609.351 1318.89 608.526 1294.04 605.145C1272.72 602.236 1251.26 601.032 1229.83 599.387C1216.79 598.395 1203.88 597.081 1190.79 597.349C1177.61 597.622 1164.27 595.161 1151.11 594.176C1104.99 590.712 1059.18 584.526 1012.98 582.323C953.287 579.471 893.348 575.355 833.606 575.712C810.187 575.846 786.763 576.252 763.342 576.743C737.587 577.294 711.684 580.515 686.041 583.196C627.176 589.344 568.858 599.437 510.464 609.431C449.91 619.811 389.154 629.239 329.172 643.731C270.399 657.939 211.411 670.903 152.296 682.995C137.031 686.121 121.86 689.787 106.498 692.731C91.0128 695.703 75.5048 698.552 59.9922 701.295C31.4446 706.357 2.82308 710.543 -25.8684 714.356C-37.5037 715.895 -49.1415 717.372 -60.8019 718.746" stroke="url(#paint9_radial_1_9)" stroke-opacity="0.1" stroke-width="3.27711" stroke-miterlimit="10" stroke-linecap="round"/>
<path d="M257.188 1237.03C254.346 1185.69 240.451 1138.66 219.573 1093.86C199.106 1049.94 175.271 1007.95 150.741 967.064C138.123 946.037 126.954 923.726 116.996 900.795C112.341 890.064 108.291 879.001 103.62 868.292C98.4959 856.542 93.6303 844.629 89.1452 832.526C81.0001 810.551 71.7503 789.211 63.9165 767.07C55.6192 743.658 47.8952 720.002 40.7094 696.103C33.088 670.764 26.0453 644.51 21.7398 618.085C17.7074 593.425 14.1694 568.335 13.2112 543.127C11.2662 491.666 24.4703 439.244 39.0007 391.181C54.0564 341.388 73.5401 294.023 93.4539 246.779C102.553 225.179 111.553 203.333 119.654 181.188C128.167 157.927 135.562 134.233 142.864 110.44C172.187 15.0312 191.44 -85.0528 192.575 -186.862C192.722 -199.903 192.622 -212.95 192.345 -225.985" stroke="url(#paint10_radial_1_9)" stroke-opacity="0.1" stroke-width="3.27711" stroke-miterlimit="10" stroke-linecap="round"/>
<path d="M335.919 1196.15C334.466 1172.56 331.174 1149.03 324.552 1126.67C317.969 1104.39 307.58 1083.7 296.635 1064.06C290.538 1053.15 283.979 1042.6 277.354 1032.13C271.355 1022.64 266.635 1013.21 260.381 1003.94C247.058 984.192 233.58 964.517 220.92 944.164C208.91 924.859 198.715 904.96 190.709 882.935C186.776 872.096 184.49 860.881 181.463 849.714C178.371 838.278 174.711 827.213 172.279 815.484C167.438 792.152 161.303 769.173 156.985 745.661C152.571 721.59 148.295 697.447 144.758 673.175C137.739 625.067 134.378 574.426 138.808 525.775C141.043 501.103 147.788 477.114 154.378 453.638C160.954 430.226 168.491 407.34 176.802 384.721C192.949 340.789 212.269 298.525 231.889 256.62C251.251 215.297 266.401 172.433 275.586 126.42C284.874 79.9181 288.343 31.5571 286.426 -16.0716C285.956 -27.8798 286.073 -39.619 285.78 -51.4173C285.459 -63.8424 284.014 -76.072 282.988 -88.4323C281.063 -111.485 277.958 -134.381 276.138 -157.461C275.158 -169.992 274.46 -182.54 274.239 -195.118" stroke="url(#paint11_radial_1_9)" stroke-opacity="0.1" stroke-width="3.27711" stroke-miterlimit="10" stroke-linecap="round"/>
<path d="M410.081 1144.41C408.846 1122.15 406.152 1099.73 399.486 1078.76C393.25 1059.11 382.861 1041.24 372.004 1024.8C347.748 988.065 319.222 956.062 293.49 920.806C281.293 904.09 269.216 885.69 262.781 864.74C259.305 853.433 256.74 841.901 255.801 829.913C254.843 817.883 252.393 806.156 251.733 794.066C251.1 782.583 251.552 771.2 250.494 759.721C249.47 748.597 249.076 737.308 248.97 726.126C248.839 713.606 249.49 701.141 249.254 688.627C249.012 676.385 249.284 664.133 249.503 651.905C250.369 603.538 254.824 554.256 265.391 507.445C268.113 495.376 273.102 483.711 277.286 472.243C281.44 460.902 285.703 449.637 290.093 438.428C298.665 416.526 307.914 395.084 317.469 373.791C334.953 334.826 355.289 297.926 374.141 259.882C393.4 221.016 409.851 180.313 414.058 135.028C416.158 112.501 415.561 89.4706 412.145 67.1392C411.394 62.1785 410.142 57.4798 409.007 52.6477C407.831 47.6924 407.599 42.4689 406.809 37.4268C405.014 26.0989 400.632 16.3148 397.762 5.49364C394.956 -5.08013 391.537 -15.5113 388.555 -26.0532C385.197 -37.9126 380.441 -48.9309 376.217 -60.3385C369.136 -79.4883 361.326 -98.2788 356.848 -118.617C354.387 -129.778 352.888 -141.25 352.571 -152.795" stroke="url(#paint12_radial_1_9)" stroke-opacity="0.1" stroke-width="3.27711" stroke-miterlimit="10" stroke-linecap="round"/>
<path d="M481.914 1088.14C480.982 1067.12 478.969 1045.68 472.272 1026.03C465.678 1006.68 453.745 989.926 441.697 974.981C414.211 940.882 381.483 913.54 354.465 878.825C341.416 862.057 331.308 844.143 327.614 821.514C325.745 810.107 326.078 799.653 326.755 788.151C327.395 777.426 327.356 766.974 329.348 756.396C330.395 750.862 331.823 745.514 332.745 739.968C333.752 733.913 334.154 727.813 334.963 721.708C336.449 710.49 338.612 699.357 341.262 688.444C346.666 666.173 350.509 643.433 355.839 621.082C361.306 598.22 367.143 575.315 373.491 552.754C379.869 530.087 386.695 506.722 396.807 486.002C416.935 444.799 437.869 404.195 459.351 363.956C479.639 325.948 503.292 290.769 523.375 252.523C542.544 216.03 557.105 173.454 554.086 129.728C553.363 119.402 551.156 108.77 548.124 99.0903C545.052 89.3083 541.697 79.1032 536.898 70.3083C534.664 66.2358 532.067 62.7726 530.33 58.355C528.534 53.7734 526.494 49.3123 524.079 45.1463C521.776 41.1409 519.167 37.4058 516.322 33.9369C512.786 29.6519 509.678 25.4241 506.378 20.8939C500.704 13.1171 495.318 5.07096 489.609 -2.68277C482.996 -11.6793 475.544 -19.6182 468.56 -28.1728C456.411 -43.0272 443.277 -56.9191 435.601 -75.9063C431.822 -85.2673 429.513 -95.4119 428.999 -105.793" stroke="url(#paint13_radial_1_9)" stroke-opacity="0.1" stroke-width="3.27711" stroke-miterlimit="10" stroke-linecap="round"/>
<path d="M553.751 1031.89C552.865 1010.32 551.121 987.759 542.573 968.281C540.879 964.406 538.86 960.802 536.599 957.339C535.002 954.861 532.451 952.442 531.2 949.775C530.613 948.513 531.096 948.232 530.569 947.133C528.23 942.292 523.148 937.893 519.705 934.126C515.667 929.704 511.479 925.502 507.224 921.366C492.478 907.05 476.741 893.571 461.023 880.886C444.752 867.733 427.074 853.557 414.002 835.869C409.179 829.338 404.367 821.843 400.851 814.037C396.373 804.07 394.997 793.805 394.539 782.667C394.082 771.172 397.243 760.584 399.409 749.534C401.492 739.013 404.945 729.035 409.414 719.623C418.593 700.218 425.108 679.428 434.901 660.299C445.689 639.244 454.267 617.07 464.801 595.883C475.288 574.826 485.052 553.457 495.635 532.561C501.561 520.859 507.522 509.154 513.357 497.374C519.027 485.897 525.701 475.489 532.382 464.829C557.172 425.327 582.448 386.402 607.182 346.84C619.367 327.353 633.733 309.931 646.118 290.558C651.566 282.049 656.629 273.249 661.874 264.564C667.532 255.204 671.887 245.191 677.017 235.486C695.199 201.108 703.642 149.945 685.866 113.211C681.519 104.22 675.614 96.0174 669.7 88.4231C664.255 81.4282 657.45 76.5079 651.655 69.9956C638.424 55.1245 622.136 47.148 606.802 35.969C599.337 30.5242 591.869 24.6186 583.675 19.5123C574.334 13.6811 564.878 8.06687 555.535 2.21481C540.493 -7.2013 524.412 -16.0714 513.972 -32.6871C509.19 -40.3098 506.068 -49.2301 505.329 -58.717" stroke="url(#paint14_radial_1_9)" stroke-opacity="0.1" stroke-width="3.27711" stroke-miterlimit="10" stroke-linecap="round"/>
<path d="M627.908 980.143C627.371 961.237 626.518 941.196 619.759 923.724C612.778 905.636 598.655 892.204 585.152 881.163C577.49 874.892 569.553 869.183 561.499 863.649C554.669 858.961 547.628 853.49 540.473 850.268C536.246 848.372 532.123 844.815 528.184 842.231C523.461 839.151 518.788 835.984 514.179 832.667C506.224 826.959 498.392 820.824 491.028 814.074C478.163 802.26 465.003 786.19 463.366 766.032C462.585 756.401 463.796 745.788 466.869 736.819C469.832 728.171 472.94 719.199 477.104 711.272C481.839 702.263 487.617 694.404 493.554 686.535C499.323 678.886 504.133 670.374 509.699 662.528C521.313 646.136 534.618 631.544 546.529 615.448C559.009 598.603 571.355 581.559 584.15 564.632C596.878 547.814 609.418 530.715 621.663 513.382C628.226 504.071 634.66 494.62 640.872 484.974C646.984 475.481 654.167 466.969 661.002 458.185C673.616 441.982 686.156 425.7 698.676 409.377C711.046 393.252 723.248 376.949 735.339 360.527C747.03 344.674 759.084 329.407 771.166 313.97C793.488 285.494 815.801 255.238 828.918 219.226C835.927 199.998 839.384 180.11 837.816 159.13C836.315 139.257 829.97 122.723 817.945 108.699C805.94 94.6947 791.556 86.5575 776.609 78.0992C769.562 74.1159 762.761 70.0757 755.317 67.1019C747.169 63.8364 738.748 61.9915 730.543 59.0439C726.369 57.5431 722.155 56.3381 717.936 55.0286C715.71 54.3497 713.548 53.4991 711.336 52.7355C710.851 52.5771 707.684 51.8304 709.954 52.318C683.115 43.5923 655.561 37.9287 628.897 28.375C610.438 21.7689 586.362 9.47713 583.762 -16.4247" stroke="url(#paint15_radial_1_9)" stroke-opacity="0.1" stroke-width="3.27711" stroke-miterlimit="10" stroke-linecap="round"/>
<path d="M706.641 939.259C705.853 917.498 704.941 892.916 693.305 874.866C681.041 855.85 661.207 844.196 643.375 834.156C623.746 823.118 603.413 814.198 583.898 802.943C566.309 792.785 546.675 780.449 536.379 759.864C524.684 736.496 535.16 712.423 547.604 693.171C553.668 683.786 561.399 675.638 569.013 668.062C577.678 659.437 586.395 650.788 595.268 642.465C613.321 625.526 632.472 610.195 650.75 593.556C669.658 576.334 688.429 558.428 706.671 540.158C777.737 468.954 843.995 391.135 910.275 313.817C939.046 280.248 970.15 242.994 979.448 194.732C983.607 173.124 981.407 146.654 971.353 127.542C960.678 107.212 941.514 94.3003 923.025 86.2295C883.952 69.1285 842.185 67.1544 801.123 63.9207C777.333 62.0663 753.389 60.7454 729.765 57.0369C711.489 54.1697 689.979 50.2463 675.546 35.387C670.258 29.9537 666.454 22.8149 665.678 14.4827" stroke="url(#paint16_radial_1_9)" stroke-opacity="0.1" stroke-width="3.27711" stroke-miterlimit="10" stroke-linecap="round"/>
<path d="M790.605 919.34C789.609 896.88 788.645 871.128 775.565 853.272C759.375 831.147 732.769 820.5 710.176 810.903C686.644 800.904 662.358 792.669 639.986 779.267C621.269 768.046 598.326 748.959 601.74 720.525C604.714 695.744 623.1 677.947 639.031 663.863C658.369 646.782 679.362 632.657 700.264 618.496C745.92 587.566 791.286 556.089 834.388 520.289C877.183 484.74 916.807 444.358 956.585 404.26C992.583 367.98 1028.68 331.526 1062.59 292.484C1091.87 258.758 1125.22 216.567 1124.53 164.672C1124.18 138.085 1114.12 112.5 1096.65 95.7342C1078.78 78.5737 1055.57 70.6707 1033.26 66.1268C987.642 56.8276 941.15 60.9278 895.199 63.2146C869.476 64.497 843.513 65.9419 817.805 63.5779C799.014 61.8531 776.117 59 760.768 44.6584C755.245 39.4911 751.265 32.3849 750.889 23.9021" stroke="url(#paint17_radial_1_9)" stroke-opacity="0.1" stroke-width="3.27711" stroke-miterlimit="10" stroke-linecap="round"/>
<path d="M875.867 928.755C874.656 906.224 873.471 881.094 860.801 862.899C846.278 842.032 823.791 829.243 803.866 817.134C785.307 805.862 766.029 795.557 748.862 781.37C732.266 767.651 714.669 748.546 718.453 722.08C721.873 698.172 740.04 680.221 755.161 665.832C772.269 649.559 790.83 635.69 809.22 621.58C829.255 606.215 849.591 591.271 869.241 575.218C888.908 559.143 907.278 540.99 926.758 524.696C946.614 508.085 964.385 486.785 981.469 466.366C998.57 445.925 1017.35 427.39 1035.14 407.786C1051.04 390.247 1066.84 372.673 1081.41 353.562C1088.67 344.039 1095.71 334.321 1102.66 324.462C1106.11 319.555 1109.89 315.067 1113.54 310.378C1117.5 305.314 1120.69 299.752 1124.49 294.592C1150.38 259.736 1177.93 216.186 1176.75 167.401C1176.18 143.259 1166.95 120.45 1152.37 103.798C1137.52 86.8484 1117.4 77.0771 1097.72 70.9238C1054.65 57.4861 1010.05 56.7973 965.839 54.3251C943.066 53.057 920.52 51.2929 897.938 47.9387C879.865 45.2475 858.031 40.4016 844.033 25.3895C838.791 19.7648 835.207 12.4029 834.848 3.91901" stroke="url(#paint18_radial_1_9)" stroke-opacity="0.1" stroke-width="3.27711" stroke-miterlimit="10" stroke-linecap="round"/>
<path d="M957.783 959.665C956.453 938.063 955.473 913.966 945.637 894.987C934.332 873.209 915.764 856.972 898.967 841.526C883.517 827.316 867.873 812.721 854.477 795.702C840.67 778.206 829.268 757.061 835.18 732.265C840.436 710.234 856.428 692.753 870.435 677.993C886.149 661.43 903.144 646.191 919.917 631.133C956.646 598.16 993.614 565.36 1027.02 527.606C1043.81 508.609 1059.91 488.712 1074.98 467.788C1089.68 447.413 1105.08 427.79 1119.78 407.414C1132.97 389.121 1145.74 370.394 1156.98 350.338C1162.85 339.833 1168.45 329.093 1173.54 318.03C1178.19 307.936 1184.52 298.995 1190.05 289.496C1201.05 270.522 1209.76 250.518 1217.92 229.71C1225.97 209.181 1230.09 183.847 1228.98 161.268C1226.57 111.617 1191.51 78.5312 1154.75 62.5017C1115.84 45.5371 1075.23 39.2797 1034.71 30.2301C1012.86 25.3432 991.142 20.3646 969.577 13.9932C952.802 9.02154 933.612 1.51762 921.808 -14.322C917.084 -20.6493 914.012 -28.4207 913.618 -36.9233" stroke="url(#paint19_radial_1_9)" stroke-opacity="0.1" stroke-width="3.27711" stroke-miterlimit="10" stroke-linecap="round"/>
<path d="M1036.11 1001.94C1034.83 979.436 1034.37 954.742 1026.43 933.822C1018.36 912.597 1005.67 894.11 993.264 876.171C989.953 871.39 985.718 866.52 983.125 861.15C982.676 860.214 982.435 858.783 981.764 857.61C980.612 855.586 979.268 853.616 978.013 851.682C971.177 841.254 965.238 830.708 959.65 819.28C949.796 799.087 943.382 776.627 949.671 753.526C955.534 732.022 969.361 714.025 982.336 697.989C996.436 680.541 1011.9 664.224 1026.95 647.975C1060.15 612.119 1093.67 576.873 1124.1 537.586C1154.91 497.815 1182.87 454.742 1207.29 409.166C1217.7 389.727 1227.11 369.532 1235.27 348.64C1239.8 337.066 1243.9 325.227 1247.31 313.115C1248.66 308.338 1249.5 303.11 1251.29 298.558C1253.65 292.482 1256.48 286.419 1259.2 280.531C1264.25 269.574 1268.28 257.863 1271.21 245.865C1272.36 241.122 1273.19 236.314 1274 231.486C1274.92 226.108 1276.76 221.049 1278 215.735C1280.54 204.745 1280.95 193.259 1281.85 181.974C1282.8 170.266 1282.32 158.208 1280.63 146.621C1273.95 100.462 1243.47 67.8471 1209.52 47.8716C1193.2 38.2628 1176.2 29.0313 1158.96 22.0142C1140.31 14.414 1121.35 7.94427 1102.83 -0.0825846C1081.58 -9.30202 1060.2 -17.8221 1039.5 -28.626C1023.55 -36.9383 1006.86 -46.0224 996.086 -62.9945C991.346 -70.4731 988.264 -79.2699 987.759 -88.6666" stroke="url(#paint20_radial_1_9)" stroke-opacity="0.1" stroke-width="3.27711" stroke-miterlimit="10" stroke-linecap="round"/>
<path d="M1112.53 1048.99C1111.51 1026.11 1111.46 1002.54 1107.24 980.094C1106.18 974.461 1103.86 969.429 1102.49 963.942C1101.05 958.186 1099.53 952.268 1097.42 946.385C1093.46 935.234 1089.08 924.38 1084.65 913.489C1082.66 908.584 1079.92 903.349 1078.68 898.104C1078.11 895.751 1078.33 894.354 1077.68 891.965C1076.85 888.936 1075.55 885.979 1074.45 883.093C1070.1 871.651 1067 860.069 1064.03 848.061C1058.64 826.396 1056.5 803.986 1062.54 782.157C1068.48 760.732 1080.67 742.25 1092.47 724.882C1105.57 705.591 1120.27 687.645 1134.31 669.3C1148.85 650.295 1164.17 632.039 1178.2 612.48C1192.7 592.242 1206.88 571.689 1220.41 550.527C1246.88 509.139 1266.15 463.002 1285.94 416.959C1294.76 396.446 1302.23 375.261 1308.21 353.351C1311.55 341.139 1314.51 328.825 1316.71 316.243C1318.69 304.932 1318.64 292.218 1321.94 281.454C1325.52 269.75 1328.66 257.781 1330.59 245.53C1332.35 234.443 1332.17 223.643 1332.85 212.497C1333.2 206.797 1334.56 201.182 1334.87 195.401C1335.16 189.663 1335 183.891 1334.69 178.169C1334.08 166.872 1334.12 155.703 1332.24 144.547C1328.42 121.906 1321.42 100.174 1310.39 80.9554C1299.03 61.1703 1282.78 45.1463 1266.38 31.4775C1258.4 24.8285 1249.8 19.3701 1241.65 13.0246C1233.57 6.71751 1225.28 0.82085 1216.71 -4.51312C1198.12 -16.0974 1179.04 -26.3734 1160.7 -38.5602C1141.97 -50.9945 1123.14 -63.0041 1105.03 -76.6292C1090.47 -87.5627 1075.97 -99.7988 1067.02 -117.722C1062.88 -126.013 1060.22 -135.256 1059.63 -144.899" stroke="url(#paint21_radial_1_9)" stroke-opacity="0.1" stroke-width="3.27711" stroke-miterlimit="10" stroke-linecap="round"/>
<path d="M1188.94 1096.06C1187.97 1071.38 1188.41 1046.52 1186.54 1021.92C1186.14 1016.6 1185.19 1011.36 1184.3 1006.13C1183.34 1000.53 1183.15 994.596 1182.24 988.828C1180.37 977.044 1178.45 965.305 1176.39 953.574C1175.31 947.419 1174.31 941.238 1173.46 935.026C1172.83 930.414 1173.41 926.229 1172.78 921.555C1171.09 909.109 1169.29 896.881 1168.75 884.26C1167.79 861.399 1167.6 839.601 1173.3 817.458C1179.36 793.952 1191.04 773.491 1202.61 753.351C1214.72 732.276 1228.49 712.607 1241.51 692.335C1268.18 650.747 1294.93 609.677 1317.97 565.088C1329.71 542.36 1340.15 519.273 1348.32 494.441C1352.35 482.249 1355.95 469.875 1359.11 457.339C1360.63 451.294 1362.06 445.213 1363.38 439.097C1364.82 432.45 1367.31 426.219 1369.36 419.806C1383.79 374.662 1392.04 325.146 1390.96 276.795C1390.85 271.836 1391.63 267.074 1392.19 262.137C1392.83 256.356 1392.93 250.651 1393.37 244.862C1394.32 232.4 1394.14 219.862 1392.93 207.45C1391.74 195.288 1391.92 183.083 1390.29 170.97C1388.81 160.124 1387.51 149.039 1385.34 138.363C1380.49 114.528 1372.38 92.1944 1361.61 71.2625C1350.99 50.6142 1336.6 33.1963 1321.73 16.8139C1314.47 8.80029 1306.75 1.59019 1298.94 -5.63503C1291.33 -12.6634 1284.21 -20.3922 1276.57 -27.3766C1260.33 -42.2285 1242.8 -55.0306 1226.63 -69.9914C1209.01 -86.2666 1190.81 -102.338 1174.41 -120.343C1160.71 -135.395 1147.12 -150.515 1138.77 -170.697C1134.82 -180.257 1132.2 -190.57 1131.45 -201.188" stroke="url(#paint22_radial_1_9)" stroke-opacity="0.1" stroke-width="3.27711" stroke-miterlimit="10" stroke-linecap="round"/>
<path d="M1267.27 1138.34C1266.32 1112.94 1266.96 1087.53 1267.61 1062.12C1267.9 1050.7 1267.62 1039.15 1267.38 1027.81C1267.09 1014.48 1267.03 1001.16 1266.88 987.826C1266.81 981.776 1266.84 975.719 1266.96 969.656C1267.03 966.761 1266.83 963.463 1267.23 960.589C1267.38 959.532 1267.5 958.246 1267.98 957.379C1268.3 956.772 1269.4 955.991 1269.56 955.625C1271.41 951.802 1270.56 943.685 1270.76 938.727C1271.03 932.048 1271.5 925.378 1272.14 918.738C1274.46 894.27 1277.73 870.245 1284.54 846.923C1298.48 799.169 1325.24 758.203 1348.19 716.217C1371.74 673.125 1395.92 630.624 1416.26 585.216C1437.19 538.516 1454.77 489.551 1463.18 437.405C1467.42 411.142 1471.68 385.359 1472.33 358.522C1472.95 332.965 1472.19 307.012 1469.06 281.708C1467.55 269.545 1465.95 257.683 1464.96 245.445C1463.94 232.75 1462.63 220.092 1460.26 207.627C1455.71 183.69 1450.18 160.085 1443.76 136.746C1437.01 112.129 1427.35 88.7607 1416.2 66.5531C1405.21 44.6919 1391.54 25.4488 1377.29 6.49225C1349.07 -30.9766 1316.88 -63.8416 1287.82 -100.315C1272.61 -119.401 1257.34 -138.88 1243.6 -159.481C1231.1 -178.253 1219.15 -197.372 1211.99 -219.953C1208.64 -230.534 1206.41 -241.626 1205.63 -252.891" stroke="url(#paint23_radial_1_9)" stroke-opacity="0.1" stroke-width="3.27711" stroke-miterlimit="10" stroke-linecap="round"/>
<path d="M1349.18 1169.24C1347.22 1117.28 1353.45 1064.98 1360.67 1013.87C1361.56 1007.55 1362.56 1001.27 1363.63 994.997C1364.5 989.894 1364.88 983.69 1366.9 978.997C1371.48 968.447 1372.67 954.881 1375.37 943.106C1381.17 917.772 1387.92 892.736 1396.55 868.546C1413.86 820.038 1437.63 775.172 1460.16 729.944C1471.17 707.848 1481.33 685.01 1491.83 662.527C1502.25 640.175 1511.49 617.204 1520.52 594.037C1525.4 581.541 1530.04 568.913 1534.38 556.135C1536.31 550.464 1538.2 544.794 1539.91 539.031C1541.96 532.116 1542.7 524.841 1544.66 517.994C1551.67 493.507 1557.04 468.2 1560.21 442.632C1566.73 389.954 1558.89 335.422 1546.87 284.587C1543.84 271.785 1539.96 259.33 1536.74 246.624C1533.56 234.104 1531.63 221.716 1527.93 209.333C1520.84 185.658 1512.22 162.56 1503.37 139.749C1484.34 90.7316 1460.48 45.3658 1432.75 2.58683C1406.05 -38.6007 1377.43 -78.3497 1352.07 -120.71C1327.19 -162.325 1301.69 -207.107 1289.97 -256.704C1287.11 -268.825 1285.14 -281.232 1284.3 -293.771" stroke="url(#paint24_radial_1_9)" stroke-opacity="0.1" stroke-width="3.27711" stroke-miterlimit="10" stroke-linecap="round"/>
<path d="M173.228 1256.95C168.522 1150.79 120.338 1054.01 72.7968 966.916C23.79 877.124 -31.5293 791.117 -71.1471 694.645C-90.4191 647.737 -105.771 597.8 -110.753 545.731C-115.765 493.392 -109.014 440.784 -96.4391 390.537C-70.7285 287.936 -23.9692 194.441 17.6928 100.194C61.0914 1.98316 112.346 -115.928 107.047 -235.439C207.235 -241.659 306.165 -181.971 389.853 -130.221C469.754 -80.8123 548.972 -25.2642 635.917 5.29084C678.4 20.2317 722.931 28.2154 767.198 22.2829C811.552 16.3241 854.062 -2.07028 893.976 -25.122C975.687 -72.2851 1048.55 -138.007 1124.72 -196.097C1197.86 -251.905 1279.19 -308.2 1368.27 -313.73C1373.56 -194.427 1434.74 -83.7053 1486.81 8.99747C1536.58 97.5904 1591.35 184.783 1625.99 283.617C1642.96 332.009 1654.3 383.514 1653.95 436.187C1653.6 488.586 1642.73 540.151 1627.73 589.186C1596.86 690.034 1549.46 782.417 1508.65 877.785C1469.07 970.29 1429.71 1072.52 1434.42 1178.66C1345.33 1184.19 1259.48 1138.26 1181.8 1091.83C1100.92 1043.49 1022.64 987.15 937.206 950.362C895.455 932.38 851.569 919.349 806.931 918.914C762.364 918.496 718.803 931.969 677.873 952.067C594.107 993.219 520.236 1058.25 445.143 1117.3C367.45 1178.4 273.857 1250.71 173.228 1256.95Z" stroke="url(#paint25_radial_1_9)" stroke-opacity="0.1" stroke-width="3.27711" stroke-miterlimit="10" stroke-linecap="round"/>
</g>
</g>
<defs>
<filter id="filter0_f_1_9" x="-429.148" y="-198.148" width="1595.3" height="1496.3" filterUnits="userSpaceOnUse" color-interpolation-filters="sRGB">
<feFlood flood-opacity="0" result="BackgroundImageFix"/>
<feBlend mode="normal" in="SourceGraphic" in2="BackgroundImageFix" result="shape"/>
<feGaussianBlur stdDeviation="274.574" result="effect1_foregroundBlur_1_9"/>
</filter>
<filter id="filter1_f_1_9" x="637.852" y="-232.148" width="1595.3" height="1682.3" filterUnits="userSpaceOnUse" color-interpolation-filters="sRGB">
<feFlood flood-opacity="0" result="BackgroundImageFix"/>
<feBlend mode="normal" in="SourceGraphic" in2="BackgroundImageFix" result="shape"/>
<feGaussianBlur stdDeviation="274.574" result="effect1_foregroundBlur_1_9"/>
</filter>
<radialGradient id="paint0_radial_1_9" cx="0" cy="0" r="1" gradientUnits="userSpaceOnUse" gradientTransform="translate(747.482 -53.3393) rotate(87.4615) scale(122.066 644.09)">
<stop stop-color="white"/>
<stop offset="1" stop-color="white" stop-opacity="0"/>
</radialGradient>
<radialGradient id="paint1_radial_1_9" cx="0" cy="0" r="1" gradientUnits="userSpaceOnUse" gradientTransform="translate(749.687 -3.82183) rotate(87.4615) scale(77.7683 674.47)">
<stop stop-color="white"/>
<stop offset="1" stop-color="white" stop-opacity="0"/>
</radialGradient>
<radialGradient id="paint2_radial_1_9" cx="0" cy="0" r="1" gradientUnits="userSpaceOnUse" gradientTransform="translate(751.93 46.7906) rotate(87.4615) scale(40.9761 714.269)">
<stop stop-color="white"/>
<stop offset="1" stop-color="white" stop-opacity="0"/>
</radialGradient>
<radialGradient id="paint3_radial_1_9" cx="0" cy="0" r="1" gradientUnits="userSpaceOnUse" gradientTransform="translate(754.997 116.818) rotate(87.4615) scale(25.2219 758.101)">
<stop stop-color="white"/>
<stop offset="1" stop-color="white" stop-opacity="0"/>
</radialGradient>
<radialGradient id="paint4_radial_1_9" cx="0" cy="0" r="1" gradientUnits="userSpaceOnUse" gradientTransform="translate(759.266 212.638) rotate(87.4615) scale(30.8497 801.88)">
<stop stop-color="white"/>
<stop offset="1" stop-color="white" stop-opacity="0"/>
</radialGradient>
<radialGradient id="paint5_radial_1_9" cx="0" cy="0" r="1" gradientUnits="userSpaceOnUse" gradientTransform="translate(763.113 299.45) rotate(87.4615) scale(24.5207 841.697)">
<stop stop-color="white"/>
<stop offset="1" stop-color="white" stop-opacity="0"/>
</radialGradient>
<radialGradient id="paint6_radial_1_9" cx="0" cy="0" r="1" gradientUnits="userSpaceOnUse" gradientTransform="translate(766.889 384.008) rotate(87.4615) scale(12.5525 872.041)">
<stop stop-color="white"/>
<stop offset="1" stop-color="white" stop-opacity="0"/>
</radialGradient>
<radialGradient id="paint7_radial_1_9" cx="0" cy="0" r="1" gradientUnits="userSpaceOnUse" gradientTransform="translate(770.776 472.11) rotate(87.4615) scale(0.5 884.423)">
<stop stop-color="white"/>
<stop offset="1" stop-color="white" stop-opacity="0"/>
</radialGradient>
<radialGradient id="paint8_radial_1_9" cx="0" cy="0" r="1" gradientUnits="userSpaceOnUse" gradientTransform="translate(774.193 549.341) rotate(87.4615) scale(22.1438 872.068)">
<stop stop-color="white"/>
<stop offset="1" stop-color="white" stop-opacity="0"/>
</radialGradient>
<radialGradient id="paint9_radial_1_9" cx="0" cy="0" r="1" gradientUnits="userSpaceOnUse" gradientTransform="translate(777.385 621.123) rotate(87.4615) scale(45.5112 841.688)">
<stop stop-color="white"/>
<stop offset="1" stop-color="white" stop-opacity="0"/>
</radialGradient>
<radialGradient id="paint10_radial_1_9" cx="0" cy="0" r="1" gradientUnits="userSpaceOnUse" gradientTransform="translate(118.449 512.124) rotate(87.4615) scale(732.227 106.515)">
<stop stop-color="white"/>
<stop offset="1" stop-color="white" stop-opacity="0"/>
</radialGradient>
<radialGradient id="paint11_radial_1_9" cx="0" cy="0" r="1" gradientUnits="userSpaceOnUse" gradientTransform="translate(221.917 505.678) rotate(87.4615) scale(696.317 88.5106)">
<stop stop-color="white"/>
<stop offset="1" stop-color="white" stop-opacity="0"/>
</radialGradient>
<radialGradient id="paint12_radial_1_9" cx="0" cy="0" r="1" gradientUnits="userSpaceOnUse" gradientTransform="translate(335.697 498.639) rotate(87.4615) scale(649.239 97.0454)">
<stop stop-color="white"/>
<stop offset="1" stop-color="white" stop-opacity="0"/>
</radialGradient>
<radialGradient id="paint13_radial_1_9" cx="0" cy="0" r="1" gradientUnits="userSpaceOnUse" gradientTransform="translate(441.246 492.053) rotate(87.4615) scale(597.55 128.827)">
<stop stop-color="white"/>
<stop offset="1" stop-color="white" stop-opacity="0"/>
</radialGradient>
<radialGradient id="paint14_radial_1_9" cx="0" cy="0" r="1" gradientUnits="userSpaceOnUse" gradientTransform="translate(545.8 485.576) rotate(87.4615) scale(545.84 164.271)">
<stop stop-color="white"/>
<stop offset="1" stop-color="white" stop-opacity="0"/>
</radialGradient>
<radialGradient id="paint15_radial_1_9" cx="0" cy="0" r="1" gradientUnits="userSpaceOnUse" gradientTransform="translate(651.328 479.035) rotate(87.4615) scale(498.772 200.535)">
<stop stop-color="white"/>
<stop offset="1" stop-color="white" stop-opacity="0"/>
</radialGradient>
<radialGradient id="paint16_radial_1_9" cx="0" cy="0" r="1" gradientUnits="userSpaceOnUse" gradientTransform="translate(757.14 472.465) rotate(87.4615) scale(462.841 237.451)">
<stop stop-color="white"/>
<stop offset="1" stop-color="white" stop-opacity="0"/>
</radialGradient>
<radialGradient id="paint17_radial_1_9" cx="0" cy="0" r="1" gradientUnits="userSpaceOnUse" gradientTransform="translate(863.873 465.84) rotate(87.4615) scale(448.159 273.79)">
<stop stop-color="white"/>
<stop offset="1" stop-color="white" stop-opacity="0"/>
</radialGradient>
<radialGradient id="paint18_radial_1_9" cx="0" cy="0" r="1" gradientUnits="userSpaceOnUse" gradientTransform="translate(947.874 460.594) rotate(87.4615) scale(462.873 241.662)">
<stop stop-color="white"/>
<stop offset="1" stop-color="white" stop-opacity="0"/>
</radialGradient>
<radialGradient id="paint19_radial_1_9" cx="0" cy="0" r="1" gradientUnits="userSpaceOnUse" gradientTransform="translate(1031.34 455.434) rotate(87.4615) scale(498.783 210.476)">
<stop stop-color="white"/>
<stop offset="1" stop-color="white" stop-opacity="0"/>
</radialGradient>
<radialGradient id="paint20_radial_1_9" cx="0" cy="0" r="1" gradientUnits="userSpaceOnUse" gradientTransform="translate(1113.87 450.31) rotate(87.4615) scale(545.84 180.872)">
<stop stop-color="white"/>
<stop offset="1" stop-color="white" stop-opacity="0"/>
</radialGradient>
<radialGradient id="paint21_radial_1_9" cx="0" cy="0" r="1" gradientUnits="userSpaceOnUse" gradientTransform="translate(1194.57 445.31) rotate(87.4615) scale(597.529 151.826)">
<stop stop-color="white"/>
<stop offset="1" stop-color="white" stop-opacity="0"/>
</radialGradient>
<radialGradient id="paint22_radial_1_9" cx="0" cy="0" r="1" gradientUnits="userSpaceOnUse" gradientTransform="translate(1276.31 440.228) rotate(87.4615) scale(649.26 127.122)">
<stop stop-color="white"/>
<stop offset="1" stop-color="white" stop-opacity="0"/>
</radialGradient>
<radialGradient id="paint23_radial_1_9" cx="0" cy="0" r="1" gradientUnits="userSpaceOnUse" gradientTransform="translate(1356.66 435.26) rotate(87.4615) scale(696.296 120.44)">
<stop stop-color="white"/>
<stop offset="1" stop-color="white" stop-opacity="0"/>
</radialGradient>
<radialGradient id="paint24_radial_1_9" cx="0" cy="0" r="1" gradientUnits="userSpaceOnUse" gradientTransform="translate(1440.26 430.069) rotate(87.4615) scale(732.227 123.747)">
<stop stop-color="white"/>
<stop offset="1" stop-color="white" stop-opacity="0"/>
</radialGradient>
<radialGradient id="paint25_radial_1_9" cx="0" cy="0" r="1" gradientUnits="userSpaceOnUse" gradientTransform="translate(770.74 471.612) rotate(87.4615) scale(746.93 884.381)">
<stop stop-color="white"/>
<stop offset="1" stop-color="white" stop-opacity="0"/>
</radialGradient>
<clipPath id="clip0_1_9">
<rect width="1515" height="532" fill="white" transform="translate(-1)"/>
</clipPath>
<clipPath id="clip1_1_9">
<rect width="1769.12" height="1493.86" fill="white" transform="matrix(0.998079 -0.0619561 0.0442904 0.999019 -145.19 -219.782)"/>
</clipPath>
</defs>
</svg>
