<svg width="45" height="42" viewBox="0 0 45 42" fill="none" xmlns="http://www.w3.org/2000/svg">
<g id="Frame 2478">
<rect id="Rectangle 1" width="45" height="42" rx="10" fill="url(#paint0_linear_2540_5092)"/>
<rect id="Rectangle 2" width="45" height="42" rx="10" fill="url(#paint1_radial_2540_5092)" fill-opacity="0.6"/>
<g id="Group 2475">
<path id="Vector" d="M21.7796 22.2204C22.1345 22.558 22.1345 23.1119 21.7796 23.4495C21.442 23.7871 20.8881 23.7871 20.5505 23.4495C19.7398 22.6376 19.2845 21.5371 19.2845 20.3898C19.2845 19.2424 19.7398 18.142 20.5505 17.3301L23.6145 14.266C24.4264 13.4553 25.5269 13 26.6743 13C27.8216 13 28.9221 13.4553 29.734 14.266C30.5447 15.0779 31 16.1784 31 17.3257C31 18.4731 30.5447 19.5736 29.734 20.3855L28.4443 21.6751C28.453 20.9654 28.3404 20.2556 28.0981 19.5805L28.5049 19.165C28.7475 18.925 28.9402 18.6392 29.0716 18.3243C29.2031 18.0093 29.2708 17.6714 29.2708 17.3301C29.2708 16.9888 29.2031 16.6508 29.0716 16.3359C28.9402 16.0209 28.7475 15.7351 28.5049 15.4951C28.2649 15.2525 27.9791 15.0598 27.6641 14.9284C27.3492 14.7969 27.0112 14.7292 26.6699 14.7292C26.3286 14.7292 25.9907 14.7969 25.6757 14.9284C25.3608 15.0598 25.075 15.2525 24.835 15.4951L21.7796 18.5505C21.5369 18.7905 21.3443 19.0763 21.2128 19.3913C21.0814 19.7062 21.0137 20.0442 21.0137 20.3855C21.0137 20.7268 21.0814 21.0647 21.2128 21.3797C21.3443 21.6946 21.5369 21.9804 21.7796 22.2204ZM24.2204 18.5505C24.558 18.2129 25.1119 18.2129 25.4495 18.5505C26.2602 19.3624 26.7155 20.4629 26.7155 21.6102C26.7155 22.7576 26.2602 23.858 25.4495 24.6699L22.3855 27.734C21.5736 28.5447 20.4731 29 19.3257 29C18.1784 29 17.0779 28.5447 16.266 27.734C15.4553 26.9221 15 25.8216 15 24.6743C15 23.5269 15.4553 22.4264 16.266 21.6145L17.5557 20.3249C17.547 21.0346 17.6596 21.7444 17.9019 22.4282L17.4951 22.835C17.2525 23.075 17.0598 23.3608 16.9284 23.6757C16.7969 23.9907 16.7292 24.3286 16.7292 24.6699C16.7292 25.0112 16.7969 25.3492 16.9284 25.6641C17.0598 25.9791 17.2525 26.2649 17.4951 26.5049C17.7351 26.7475 18.0209 26.9402 18.3359 27.0716C18.6508 27.2031 18.9888 27.2708 19.3301 27.2708C19.6714 27.2708 20.0093 27.2031 20.3243 27.0716C20.6392 26.9402 20.925 26.7475 21.165 26.5049L24.2204 23.4495C24.4631 23.2095 24.6557 22.9237 24.7872 22.6087C24.9186 22.2938 24.9863 21.9558 24.9863 21.6145C24.9863 21.2732 24.9186 20.9353 24.7872 20.6203C24.6557 20.3054 24.4631 20.0196 24.2204 19.7796C24.1364 19.7008 24.0694 19.6056 24.0235 19.4999C23.9777 19.3942 23.9541 19.2802 23.9541 19.165C23.9541 19.0498 23.9777 18.9359 24.0235 18.8302C24.0694 18.7244 24.1364 18.6293 24.2204 18.5505Z" fill="white"/>
</g>
</g>
<defs>
<linearGradient id="paint0_linear_2540_5092" x1="38.5609" y1="54.6" x2="12.5214" y2="52.9692" gradientUnits="userSpaceOnUse">
<stop stop-color="#224DFF"/>
<stop offset="0.177083" stop-color="#1844FB"/>
<stop offset="0.833333" stop-color="#244FFF"/>
<stop offset="1" stop-color="#0132FC"/>
<stop offset="1" stop-color="#0032FF"/>
</linearGradient>
<radialGradient id="paint1_radial_2540_5092" cx="0" cy="0" r="1" gradientUnits="userSpaceOnUse" gradientTransform="translate(83 23.4999) rotate(177.054) scale(68.09 836.217)">
<stop stop-color="#0132FC" stop-opacity="0"/>
<stop offset="1" stop-color="white" stop-opacity="0.29"/>
</radialGradient>
</defs>
</svg>
