<svg width="22" height="21" viewBox="0 0 22 21" fill="none" xmlns="http://www.w3.org/2000/svg">
<path id="Union" d="M13.2144 4.60288L13.0596 5.0783L13.535 5.23313L17.6304 6.56687C18.3731 6.80874 18.7791 7.60692 18.5373 8.34963L17.4258 11.7625L17.271 12.238L17.7464 12.3928L19.4529 12.9485C20.384 13.2518 20.8931 14.2525 20.5898 15.1837C20.2866 16.1149 19.2859 16.6239 18.3547 16.3207L16.6482 15.7649L16.1728 15.6101L16.018 16.0855L14.9065 19.4984C14.6646 20.2411 13.8665 20.6471 13.1238 20.4052L9.50373 19.2263L9.90464 17.9953C10.3789 16.5389 9.58279 14.9739 8.12648 14.4996C6.67013 14.0253 5.1051 14.8214 4.63082 16.2778L4.22991 17.5088L1.975 16.7745C1.23231 16.5326 0.826304 15.7344 1.06818 14.9917L1.95071 12.2818L3.18174 12.6827C4.63806 13.157 6.20314 12.3608 6.6774 10.9045C7.1517 9.44811 6.35553 7.88314 4.89923 7.40887L3.6682 7.00797L4.69892 3.84298C4.9408 3.10026 5.73897 2.69424 6.48167 2.93611L9.21199 3.82528L9.68742 3.98011L9.84225 3.50469L10.398 1.79826C10.7012 0.86706 11.7019 0.358037 12.6331 0.661288C13.5643 0.964551 14.0734 1.96525 13.7701 2.89645L13.2144 4.60288Z" stroke="white"/>
</svg>
