<svg width="20" height="20" viewBox="0 0 20 20" fill="none" xmlns="http://www.w3.org/2000/svg">
<path d="M20 10C20 15.5228 15.5228 20 10 20C4.47715 20 0 15.5228 0 10C0 4.47715 4.47715 0 10 0C15.5228 0 20 4.47715 20 10Z" fill="url(#paint0_linear_1_60)"/>
<path d="M8.4 13V19.8C8.4 19.9105 8.48954 20 8.6 20H11.4C11.5105 20 11.6 19.9105 11.6 19.8V13C11.6 12.8895 11.6895 12.8 11.8 12.8H13.8C13.9105 12.8 14 12.7105 14 12.6V10.2C14 10.0895 13.9105 10 13.8 10H11.8C11.6895 10 11.6 9.91059 11.6 9.80013V8C11.6 7.2 12.6 6.8 13 6.8H14.2C14.3105 6.8 14.4 6.71046 14.4 6.6V4.2C14.4 4.08954 14.3105 4 14.2 4H11.6C9.68 4 8.4 6 8.4 7.2V9.8C8.4 9.91046 8.31046 10 8.2 10H6.2C6.08954 10 6 10.0895 6 10.2V12.6C6 12.7105 6.08954 12.8 6.2 12.8H8.2C8.31046 12.8 8.4 12.8895 8.4 13Z" fill="white"/>
<defs>
<linearGradient id="paint0_linear_1_60" x1="10" y1="0" x2="10" y2="20" gradientUnits="userSpaceOnUse">
<stop stop-color="#18ACFE"/>
<stop offset="1" stop-color="#0165E1"/>
</linearGradient>
</defs>
</svg>
