<svg width="11" height="11" viewBox="0 0 11 11" fill="none" xmlns="http://www.w3.org/2000/svg">
<path d="M4.81413 11C4.61985 11 4.45688 10.934 4.32523 10.802C4.19358 10.67 4.12798 10.5068 4.12843 10.3125V6.1875L0.151376 1.1C-0.0200489 0.870833 -0.0458769 0.630208 0.073892 0.378125C0.193661 0.126042 0.402342 0 0.699936 0H10.2997C10.5969 0 10.8055 0.126042 10.9258 0.378125C11.046 0.630208 11.0202 0.870833 10.8483 1.1L6.87123 6.1875V10.3125C6.87123 10.5073 6.80541 10.6707 6.67375 10.8027C6.5421 10.9347 6.37936 11.0005 6.18553 11H4.81413Z" fill="#000B18" fill-opacity="0.4"/>
</svg>
