<svg width="20" height="20" viewBox="0 0 20 20" fill="none" xmlns="http://www.w3.org/2000/svg">
<path d="M20 10.0778C20 9.3827 19.9449 8.68383 19.8272 8H10.3914V11.9377H15.7949C15.5706 13.2077 14.6492 14.4861 13.5943 15.2L13.7952 17.6L16.7971 17.6C18.6902 15.819 20 13.1889 20 10.0778Z" fill="#4285F4"/>
<path d="M10.1475 20C12.853 20 15.1347 19.1236 16.7971 17.6109L13.5942 15.2C12.6948 15.8036 11.504 16.0836 10.1512 16.0836C7.53412 16.0836 5.18216 14.3418 4.38598 12H1.18312V14.5491C2.88606 17.8909 6.3546 20 10.1475 20Z" fill="#34A853"/>
<path d="M4.38623 11.9999C3.92733 10.7829 4.12751 9.21692 4.58641 7.9999L4.78659 5.5999L1.18336 5.3999C-0.37044 8.1688 -0.406154 11.631 1.14764 14.3999L4.38623 11.9999Z" fill="#FBBC04"/>
<path d="M10.3406 3.91492C11.8016 3.89311 13.2136 4.42373 14.2717 5.39775L17.1974 2.57382C15.3448 0.894729 12.886 -0.0284087 10.3406 0.000666544C6.466 0.000666544 2.92274 2.05634 1.18312 5.39999L4.58706 7.99998C5.39662 5.65579 7.66716 3.91492 10.3406 3.91492Z" fill="#EA4335"/>
</svg>
