<svg width="1112" height="206" viewBox="0 0 1112 206" fill="none" xmlns="http://www.w3.org/2000/svg">
<path d="M21.964 95.659C21.964 102.402 24.854 107.701 30.634 111.554C36.6067 115.407 43.7353 118.394 52.02 120.513C60.3047 122.44 68.5893 124.655 76.874 127.16C85.1587 129.665 92.191 134 97.971 140.165C103.944 146.33 106.93 154.422 106.93 164.441C106.93 176.386 101.921 186.309 91.902 194.208C82.076 201.915 69.2637 205.768 53.465 205.768C37.281 205.768 24.276 201.722 14.45 193.63C4.81667 185.345 0 174.267 0 160.395H19.074C19.074 169.836 22.253 176.675 28.611 180.914C34.969 185.153 43.2537 187.272 53.465 187.272C63.291 187.272 71.4793 185.442 78.03 181.781C84.5807 177.928 87.856 172.148 87.856 164.441C87.856 157.698 84.8697 152.399 78.897 148.546C73.117 144.693 66.0847 141.803 57.8 139.876C49.5153 137.757 41.2307 135.445 32.946 132.94C24.6613 130.435 17.5327 126.1 11.56 119.935C5.78 113.77 2.89 105.678 2.89 95.659C2.89 83.7137 7.61033 73.8877 17.051 66.181C26.6843 58.2817 38.8223 54.332 53.465 54.332C68.3003 54.332 80.4383 58.4743 89.879 66.759C99.3197 75.0437 104.04 86.0257 104.04 99.705H84.966C84.966 90.457 81.8833 83.7137 75.718 79.475C69.7453 75.0437 62.3277 72.828 53.465 72.828C44.9877 72.828 37.57 74.7547 31.212 78.608C25.0467 82.4613 21.964 88.145 21.964 95.659Z" fill="white"/>
<path d="M202.356 57.8V76.296H172.3V202.3H153.226V76.296H122.881V57.8H153.226V11.56H172.3V57.8H202.356Z" fill="white"/>
<path d="M277.688 54.332C294.065 54.332 307.263 59.245 317.281 69.071C327.493 78.7043 332.598 91.8057 332.598 108.375V202.3H313.524V186.116C304.276 199.217 289.345 205.768 268.729 205.768C254.472 205.768 242.238 201.722 232.026 193.63C222.008 185.538 216.998 174.074 216.998 159.239C216.998 144.404 222.008 132.94 232.026 124.848C242.238 116.756 254.472 112.71 268.729 112.71C288.767 112.71 303.698 118.972 313.524 131.495V108.375C313.524 96.237 310.056 87.278 303.12 81.498C296.377 75.718 287.9 72.828 277.688 72.828C267.67 72.828 259.192 75.429 252.256 80.631C245.32 85.6403 241.852 92.9617 241.852 102.595H222.778C222.778 88.723 227.884 77.2593 238.095 68.204C248.307 58.956 261.504 54.332 277.688 54.332ZM273.353 187.85C284.913 187.85 294.45 185.153 301.964 179.758C309.671 174.363 313.524 167.524 313.524 159.239C313.524 150.569 309.767 143.633 302.253 138.431C294.739 133.229 285.106 130.628 273.353 130.628C261.023 130.628 251.678 133.229 245.32 138.431C239.155 143.633 236.072 150.569 236.072 159.239C236.072 167.909 239.155 174.845 245.32 180.047C251.678 185.249 261.023 187.85 273.353 187.85Z" fill="white"/>
<path d="M434.629 57.8V76.296H404.573V202.3H385.499V76.296H355.154V57.8H385.499V11.56H404.573V57.8H434.629Z" fill="white"/>
<path d="M538.215 54.332C558.83 54.332 576.363 61.6533 590.813 76.296C605.456 90.9387 612.777 108.857 612.777 130.05C612.777 151.243 605.456 169.161 590.813 183.804C576.363 198.447 558.83 205.768 538.215 205.768C512.59 205.768 493.131 195.171 479.837 173.978V202.3H460.763V0H479.837V86.122C493.131 64.9287 512.59 54.332 538.215 54.332ZM496.31 170.799C507.292 181.781 520.779 187.272 536.77 187.272C552.761 187.272 566.248 181.781 577.23 170.799C588.212 159.624 593.703 146.041 593.703 130.05C593.703 114.059 588.212 100.572 577.23 89.59C566.248 78.4153 552.761 72.828 536.77 72.828C520.779 72.828 507.292 78.4153 496.31 89.59C485.328 100.572 479.837 114.059 479.837 130.05C479.837 146.041 485.328 159.624 496.31 170.799Z" fill="white"/>
<path d="M765.584 184.093C750.941 198.543 733.023 205.768 711.83 205.768C690.636 205.768 672.622 198.543 657.787 184.093C643.144 169.45 635.823 151.436 635.823 130.05C635.823 108.664 643.144 90.746 657.787 76.296C672.622 61.6533 690.636 54.332 711.83 54.332C733.023 54.332 750.941 61.6533 765.584 76.296C780.419 90.746 787.837 108.664 787.837 130.05C787.837 151.436 780.419 169.45 765.584 184.093ZM671.37 170.799C682.352 181.781 695.838 187.272 711.83 187.272C727.821 187.272 741.308 181.781 752.29 170.799C763.272 159.624 768.763 146.041 768.763 130.05C768.763 114.059 763.272 100.572 752.29 89.59C741.308 78.4153 727.821 72.828 711.83 72.828C695.838 72.828 682.352 78.4153 671.37 89.59C660.388 100.572 654.897 114.059 654.897 130.05C654.897 146.041 660.388 159.624 671.37 170.799Z" fill="white"/>
<path d="M940.846 184.093C926.204 198.543 908.286 205.768 887.092 205.768C865.899 205.768 847.885 198.543 833.049 184.093C818.407 169.45 811.085 151.436 811.085 130.05C811.085 108.664 818.407 90.746 833.049 76.296C847.885 61.6533 865.899 54.332 887.092 54.332C908.286 54.332 926.204 61.6533 940.846 76.296C955.682 90.746 963.099 108.664 963.099 130.05C963.099 151.436 955.682 169.45 940.846 184.093ZM846.632 170.799C857.614 181.781 871.101 187.272 887.092 187.272C903.084 187.272 916.57 181.781 927.552 170.799C938.534 159.624 944.025 146.041 944.025 130.05C944.025 114.059 938.534 100.572 927.552 89.59C916.57 78.4153 903.084 72.828 887.092 72.828C871.101 72.828 857.614 78.4153 846.632 89.59C835.65 100.572 830.159 114.059 830.159 130.05C830.159 146.041 835.65 159.624 846.632 170.799Z" fill="white"/>
<path d="M1111.77 202.3H1086.34L1014.09 132.651V202.3H995.018V0H1014.09V121.958L1083.45 57.8H1108.88L1033.74 127.16L1111.77 202.3Z" fill="white"/>
</svg>
