<svg width="16" height="15" viewBox="0 0 16 15" fill="none" xmlns="http://www.w3.org/2000/svg">
<path d="M5.94118 4.25V2.625C5.94118 2.19402 6.11471 1.7807 6.42359 1.47595C6.73247 1.1712 7.15141 1 7.58824 1H13.3529C13.7898 1 14.2087 1.1712 14.5176 1.47595C14.8265 1.7807 15 2.19402 15 2.625V12.375C15 12.806 14.8265 13.2193 14.5176 13.524C14.2087 13.8288 13.7898 14 13.3529 14H7.58824C7.15141 14 6.73247 13.8288 6.42359 13.524C6.11471 13.2193 5.94118 12.806 5.94118 12.375V10.75M1 7.5H11.7059M11.7059 7.5L9.23529 5.0625M11.7059 7.5L9.23529 9.9375" stroke="white" stroke-linecap="round" stroke-linejoin="round"/>
</svg>
