<svg width="152" height="34" viewBox="0 0 152 34" fill="none" xmlns="http://www.w3.org/2000/svg">
<g clip-path="url(#clip0_10_462)">
<path d="M51.0547 16.5405C50.3862 16.3282 49.5027 16.1245 48.4301 15.9381C47.6347 15.7886 47.0092 15.6521 46.5728 15.5372C46.1601 15.4267 45.8097 15.2534 45.5303 15.0193C45.2745 14.8026 45.1498 14.5122 45.1498 14.133C45.1498 13.6433 45.3819 13.2597 45.8613 12.9585C46.3643 12.6421 47.1145 12.4818 48.0947 12.4818C49.5221 12.4818 50.7796 12.8285 51.8329 13.5133L52.0113 13.6281L53.228 11.3549L53.0753 11.2553C52.4906 10.8739 51.7361 10.5683 50.8312 10.343C49.9326 10.1198 49.0212 10.0071 48.1205 10.0071C46.3944 10.0071 44.995 10.3906 43.961 11.1469C42.9077 11.9162 42.3725 12.9542 42.3725 14.2327C42.3725 15.2252 42.6347 16.014 43.1528 16.5709C43.658 17.117 44.2749 17.5092 44.9821 17.7389C45.6635 17.9599 46.5578 18.1571 47.6347 18.3283C48.4129 18.4605 49.0212 18.584 49.4404 18.6924C49.8359 18.7942 50.1691 18.9567 50.4313 19.1734C50.6699 19.3728 50.786 19.6372 50.786 19.9839C50.786 21.0782 49.8144 21.6091 47.8174 21.6091C46.9877 21.6091 46.1536 21.4856 45.3368 21.2386C44.5221 20.9915 43.8235 20.6621 43.2581 20.2526L43.0754 20.1226L41.891 22.3936L42.0178 22.4954C42.6047 22.9657 43.4215 23.3579 44.4469 23.6569C45.4679 23.956 46.5427 24.1077 47.6412 24.1077C49.449 24.1077 50.9021 23.7328 51.9597 22.996C53.0409 22.244 53.5891 21.2126 53.5891 19.934C53.5891 18.9741 53.3354 18.2135 52.8324 17.6717C52.3423 17.143 51.7447 16.7637 51.0526 16.5427L51.0547 16.5405Z" fill="white"/>
<path d="M62.0394 21.0717C61.5514 21.4661 60.9754 21.6589 60.2767 21.6589C59.6577 21.6589 59.1998 21.4899 58.8752 21.1389C58.5528 20.79 58.3872 20.2742 58.3872 19.6025V12.5338H62.2049V10.1392H58.3872V7.20081H55.5842V19.7065C55.5842 21.1064 55.9754 22.2028 56.7493 22.9635C57.521 23.7241 58.6151 24.1076 60.0016 24.1076C60.5691 24.1076 61.1301 24.0231 61.6675 23.8584C62.2092 23.6916 62.6735 23.4424 63.0433 23.1216L63.1529 23.0263L62.2393 20.9092L62.0394 21.0717Z" fill="white"/>
<path d="M74.829 11.8208C74.3389 11.292 73.7586 10.8716 73.0943 10.5726C72.2667 10.1999 71.3532 10.0114 70.3772 10.0114C69.0617 10.0114 67.8622 10.3082 66.8154 10.8976C65.7664 11.4871 64.9345 12.3214 64.3412 13.3788C63.7479 14.4342 63.4491 15.6672 63.4491 17.0454C63.4491 18.4236 63.75 19.6631 64.3412 20.7249C64.9345 21.7911 65.7685 22.6319 66.8154 23.2191C67.8622 23.8064 69.0595 24.1054 70.3772 24.1054C71.3897 24.1054 72.3312 23.9039 73.1739 23.503C73.8488 23.1845 74.4378 22.7424 74.9301 22.1876V23.9537H77.6321V10.137H74.829V11.8208ZM72.7676 21.0153C72.1141 21.3924 71.3768 21.5852 70.5793 21.5852C69.7818 21.5852 69.023 21.3945 68.3781 21.0175C67.7332 20.6404 67.2173 20.103 66.8433 19.4204C66.4671 18.7356 66.278 17.936 66.278 17.0454C66.278 16.1548 66.4693 15.3573 66.8433 14.6725C67.2152 13.9921 67.7311 13.459 68.376 13.0906C69.0208 12.7201 69.7625 12.5337 70.5793 12.5337C71.3961 12.5337 72.1141 12.7223 72.7697 13.0928C73.4189 13.459 73.9348 13.9921 74.3002 14.6725C74.6678 15.3573 74.8548 16.1569 74.8548 17.0476C74.8548 17.9382 74.6678 18.7378 74.3002 19.4226C73.9327 20.1052 73.4168 20.6426 72.7676 21.0175V21.0153Z" fill="white"/>
<path d="M87.6385 21.0717C87.1505 21.4661 86.5744 21.6589 85.8758 21.6589C85.2567 21.6589 84.7988 21.4899 84.4743 21.1389C84.1518 20.79 83.9863 20.2742 83.9863 19.6025V12.5338H87.804V10.1392H83.9863V7.20081H81.1832V19.7065C81.1832 21.1064 81.5745 22.2028 82.3483 22.9635C83.12 23.7241 84.2142 24.1076 85.6006 24.1076C86.1681 24.1076 86.7292 24.0231 87.2666 23.8584C87.8083 23.6916 88.2726 23.4424 88.6423 23.1216L88.7519 23.0263L87.8384 20.9092L87.6385 21.0717Z" fill="white"/>
<path d="M101.548 10.8956C100.501 10.3083 99.302 10.0093 97.9864 10.0093C97.0105 10.0093 96.0948 10.1978 95.2694 10.5705C94.6051 10.8696 94.0247 11.29 93.5368 11.8187V4.76733H90.7337V23.9538H93.4357V22.1877C93.928 22.7425 94.5148 23.1845 95.192 23.5031C96.0346 23.904 96.9761 24.1055 97.9886 24.1055C99.3063 24.1055 100.506 23.8065 101.55 23.2192C102.599 22.6298 103.431 21.7912 104.025 20.725C104.616 19.6632 104.917 18.4237 104.917 17.0455C104.917 15.6673 104.616 14.4321 104.025 13.3789C103.431 12.3214 102.599 11.4872 101.55 10.8977L101.548 10.8956ZM102.086 17.0455C102.086 17.9361 101.894 18.7357 101.52 19.4205C101.146 20.1031 100.63 20.6405 99.9856 21.0176C99.3407 21.3946 98.6012 21.5853 97.7865 21.5853C96.9718 21.5853 96.2517 21.3924 95.5982 21.0154C94.9469 20.6405 94.431 20.1031 94.0656 19.4205C93.698 18.7379 93.511 17.9383 93.511 17.0455C93.511 16.1527 93.698 15.3552 94.0656 14.6705C94.431 13.99 94.9448 13.4591 95.5961 13.0907C96.2496 12.7202 96.9869 12.5316 97.7865 12.5316C98.5862 12.5316 99.3428 12.718 99.9877 13.0886C100.633 13.4569 101.146 13.99 101.52 14.6705C101.897 15.3552 102.086 16.1548 102.086 17.0433V17.0455Z" fill="white"/>
<path d="M116.909 10.9107C115.839 10.3147 114.611 10.0114 113.259 10.0114C111.907 10.0114 110.678 10.3147 109.599 10.9107C108.515 11.5087 107.657 12.3517 107.049 13.4157C106.441 14.4797 106.131 15.7019 106.131 17.0476C106.131 18.3933 106.441 19.6154 107.049 20.6794C107.66 21.7456 108.517 22.5907 109.599 23.1975C110.68 23.802 111.912 24.1098 113.261 24.1098C114.611 24.1098 115.839 23.802 116.912 23.1975C117.984 22.5907 118.838 21.7456 119.448 20.6794C120.056 19.6133 120.366 18.3911 120.366 17.0476C120.366 15.704 120.056 14.4797 119.448 13.4157C118.838 12.3495 117.984 11.5066 116.912 10.9107H116.909ZM115.461 21.0175C114.816 21.3945 114.076 21.5852 113.261 21.5852C112.447 21.5852 111.705 21.3945 111.06 21.0175C110.415 20.6404 109.9 20.103 109.525 19.4204C109.149 18.7356 108.96 17.936 108.96 17.0454C108.96 16.1548 109.151 15.3573 109.525 14.6725C109.897 13.9921 110.413 13.459 111.058 13.0906C111.703 12.7201 112.445 12.5337 113.261 12.5337C114.078 12.5337 114.818 12.7201 115.463 13.0906C116.105 13.459 116.617 13.9899 116.982 14.6704C117.35 15.3551 117.537 16.1548 117.537 17.0454C117.537 17.936 117.35 18.7356 116.982 19.4204C116.615 20.103 116.103 20.6404 115.461 21.0153V21.0175Z" fill="white"/>
<path d="M132.359 10.9108C131.288 10.3149 130.061 10.0115 128.709 10.0115C127.357 10.0115 126.127 10.3149 125.048 10.9108C123.965 11.5089 123.107 12.3518 122.499 13.4158C121.89 14.4798 121.581 15.702 121.581 17.0477C121.581 18.3934 121.89 19.6156 122.499 20.6795C123.109 21.7457 123.967 22.5908 125.048 23.1976C126.129 23.8022 127.361 24.1099 128.711 24.1099C130.061 24.1099 131.288 23.8022 132.361 23.1976C133.434 22.5908 134.287 21.7457 134.897 20.6795C135.506 19.6134 135.815 18.3912 135.815 17.0477C135.815 15.7041 135.506 14.4798 134.897 13.4158C134.287 12.3497 133.434 11.5067 132.361 10.9108H132.359ZM130.91 21.0176C130.265 21.3946 129.526 21.5853 128.711 21.5853C127.896 21.5853 127.155 21.3946 126.51 21.0176C125.865 20.6405 125.349 20.1031 124.975 19.4205C124.599 18.7358 124.41 17.9361 124.41 17.0455C124.41 16.1549 124.601 15.3574 124.975 14.6727C125.347 13.9922 125.863 13.4591 126.508 13.0908C127.153 12.7202 127.894 12.5338 128.711 12.5338C129.528 12.5338 130.267 12.7202 130.912 13.0908C131.555 13.4591 132.066 13.9901 132.432 14.6705C132.799 15.3553 132.986 16.1549 132.986 17.0455C132.986 17.9361 132.799 18.7358 132.432 19.4205C132.064 20.1031 131.553 20.6405 130.91 21.0154V21.0176Z" fill="white"/>
<path d="M145.704 15.897L151.522 10.1371H148.053L141.065 16.5731V4.76733H138.262V23.9538H141.065V20.1703L143.612 17.7909L148.479 23.8801L148.539 23.9538H152L145.704 15.897Z" fill="white"/>
<path d="M33.8776 13.3248V20.6774C33.8776 28.8751 30.5242 33.9978 20.8274 33.9978H13.0502C4.11647 33.9957 0.569643 29.6487 0.0644879 22.5562C0.0300943 22.0989 0.0128976 21.6265 0.00429919 21.1476V21.1086C0 21.0003 0 20.8876 0 20.7792V13.3248C0 5.12492 3.35337 0 13.0502 0H20.8274C28.1511 0 31.8548 2.9211 33.2263 7.87916C33.2779 8.06985 33.3295 8.26055 33.3725 8.45341C33.3768 8.45774 33.3768 8.46641 33.3768 8.47508C33.4842 8.92798 33.5745 9.40038 33.6433 9.88795C33.8024 10.9606 33.8798 12.1091 33.8798 13.3248H33.8776Z" fill="url(#paint0_linear_10_462)"/>
<path d="M33.8779 13.3226V20.6709C33.8779 28.8751 30.5289 33.9979 20.8256 33.9979H13.0548C9.28228 33.9979 6.47061 33.2242 4.44354 31.7919C3.59445 31.1938 2.88509 30.4852 2.29825 29.6725C0.96335 27.8133 0.264732 25.3993 0.0648193 22.5518C0.176598 22.4522 0.301275 22.3503 0.425951 22.2441C0.438849 22.2441 0.456046 22.2246 0.462494 22.2181C0.574273 22.1293 0.692501 22.0426 0.80643 21.9602C0.85587 21.9169 0.918208 21.8779 0.967649 21.8411C1.31588 21.5962 1.67272 21.3882 2.0274 21.2495C2.07039 21.2235 2.12628 21.2126 2.17142 21.1931C2.45732 21.0935 2.71312 21.0479 2.93883 21.0674C3.16239 21.087 3.35585 21.1433 3.52567 21.2365C4.79823 21.9277 4.64776 24.5108 5.72685 25.2476C5.90097 25.3667 6.10088 25.4426 6.35668 25.4491C6.38678 25.4491 6.41902 25.4491 6.45127 25.4426C6.47706 25.4426 6.5136 25.4426 6.5394 25.4361C6.56519 25.4361 6.58884 25.4296 6.61463 25.4296C6.64473 25.4296 6.67052 25.4231 6.69632 25.4166C6.72211 25.4166 6.73931 25.4036 6.75866 25.4036C6.82745 25.3906 6.88333 25.3776 6.94567 25.3602C7.02091 25.3277 7.10259 25.2974 7.18213 25.2671C7.22512 25.2476 7.27026 25.2237 7.3197 25.1977C7.38849 25.1609 7.46373 25.1154 7.53251 25.072C7.59485 25.046 7.64429 25.0092 7.70018 24.9724C7.71308 24.9594 7.72598 24.9594 7.73672 24.9464C7.80551 24.903 7.86785 24.8532 7.93664 24.8077C7.99253 24.7643 8.04841 24.7188 8.09786 24.6755C8.15374 24.6321 8.20963 24.5866 8.25908 24.5433C8.3644 24.4544 8.46544 24.3613 8.57077 24.2659C8.57722 24.2594 8.59011 24.2529 8.59656 24.2464C8.70834 24.1402 8.82012 24.0276 8.93405 23.9127C9.02218 23.8239 9.10172 23.7307 9.18985 23.6418C9.27798 23.5486 9.35752 23.4533 9.44565 23.3645C9.45855 23.3515 9.465 23.345 9.47145 23.3319C9.58323 23.2128 9.69071 23.0936 9.79604 22.9614C9.89492 22.8422 9.99595 22.723 10.0948 22.5973C10.3076 22.359 10.5119 22.1076 10.7182 21.8367C10.8171 21.7045 10.9246 21.5789 11.0235 21.4402C11.1481 21.2885 11.2664 21.139 11.3846 20.9873C11.5415 20.7792 11.6963 20.5777 11.8532 20.3783C12.0725 20.1075 12.2831 19.8258 12.5024 19.5614C12.6593 19.3469 12.827 19.141 12.9882 18.946C13.1064 18.7943 13.2311 18.6513 13.3493 18.5061C13.4611 18.3739 13.5729 18.2352 13.6868 18.1095C13.8437 17.9275 13.9985 17.752 14.1554 17.5808C14.2607 17.4746 14.3618 17.3727 14.4542 17.2666C14.523 17.1972 14.5853 17.1409 14.6477 17.078C14.7423 17.2362 14.854 17.3792 14.9916 17.5049C15.4151 17.9253 15.9955 18.1767 16.6317 18.1767C17.311 18.1767 17.9215 17.8885 18.3536 17.4226C18.5105 17.2601 18.6352 17.0824 18.7405 16.8808C18.7598 16.9307 18.777 16.9762 18.7899 17.013C18.8093 17.0629 18.8265 17.1127 18.8458 17.1582C18.8824 17.2471 18.9146 17.3337 18.9404 17.4226C18.9598 17.4659 18.9705 17.5114 18.9834 17.5548C19.0027 17.5981 19.0092 17.6371 19.0264 17.687V17.6935C19.0629 17.8126 19.1016 17.9383 19.1317 18.064C19.1747 18.1897 19.207 18.3154 19.2371 18.4411C19.25 18.4736 19.25 18.5039 19.2628 18.5364C19.2886 18.6296 19.3123 18.7314 19.3381 18.8311C19.4004 19.05 19.4563 19.2775 19.5122 19.4964C19.5251 19.5332 19.5315 19.5657 19.5487 19.6026C19.5681 19.6957 19.5917 19.7911 19.624 19.8864C19.6433 19.9428 19.6562 19.9991 19.6799 20.0685C19.7057 20.1573 19.7358 20.2505 19.768 20.3393C19.811 20.465 19.8561 20.5777 19.8991 20.6861C19.9421 20.7987 19.9873 20.9114 20.0367 21.0068C20.0561 21.0631 20.0861 21.113 20.1184 21.165C20.1248 21.1845 20.1313 21.1975 20.1442 21.2213C20.17 21.2646 20.2065 21.3145 20.2323 21.3665C20.3011 21.4792 20.3828 21.5919 20.4688 21.6872C20.7611 22.0339 21.1351 22.2398 21.6296 22.2463H21.6983C21.7177 22.2528 21.7413 22.2463 21.7671 22.2398C21.8101 22.2463 21.8553 22.2398 21.8983 22.2398C21.967 22.2333 22.0294 22.2203 22.0917 22.2138H22.1046C22.1734 22.2008 22.2422 22.1878 22.3174 22.1704C23.1708 21.9884 23.9705 21.4293 24.7314 20.6427C24.8368 20.53 24.9507 20.4174 25.056 20.296C25.1248 20.2202 25.1936 20.1443 25.2559 20.0641C25.4558 19.8323 25.6493 19.5874 25.8492 19.336C25.9244 19.2298 26.0061 19.128 26.0728 19.0283C26.7155 18.1485 27.3389 17.1604 27.9687 16.1679C28.5921 15.1863 29.2155 14.1938 29.8647 13.288C30.0216 13.0734 30.1763 12.8611 30.3333 12.6595C31.2683 11.433 32.2593 10.4536 33.3384 9.99415C33.3943 9.97465 33.4373 9.95731 33.4953 9.93781C33.5512 9.91831 33.6007 9.90097 33.6565 9.88147C33.8135 10.9563 33.8865 12.107 33.8865 13.3205L33.8779 13.3226Z" fill="url(#paint1_linear_10_462)"/>
<path d="M14.6452 17.0824C14.7376 17.2384 14.8537 17.3858 14.9891 17.5136C14.9397 17.557 14.8924 17.6068 14.8472 17.6566L14.5463 17.9709C14.4195 18.1074 14.2841 18.2656 14.1443 18.4259L14.0949 18.4801C14.0218 18.5624 13.9487 18.647 13.8821 18.7293L13.7617 18.8767C13.6456 19.0088 13.5295 19.1562 13.4113 19.2971C12.9255 19.8951 12.4397 20.5257 11.9539 21.152L11.453 21.7978C11.0554 22.3027 10.6319 22.8357 10.2041 23.3298C10.0923 23.462 9.98057 23.5834 9.87309 23.7069L9.83439 23.7502C9.66028 23.9409 9.49046 24.1316 9.31419 24.3093L8.97456 24.643C8.84343 24.7644 8.72735 24.8684 8.61128 24.9659C8.53389 25.0396 8.44576 25.1089 8.35977 25.1761C8.24369 25.2693 8.12117 25.3581 8.00509 25.4361L7.80518 25.5575C7.56657 25.7005 7.33442 25.811 7.10656 25.8847C7.01843 25.9085 6.94534 25.928 6.883 25.9432C6.86795 25.9475 6.81421 25.9584 6.77122 25.967L6.68309 25.9822C6.65299 25.9865 6.62075 25.9865 6.59066 25.993C6.50897 26.0039 6.42944 26.0039 6.35205 26.0039V24.903C6.38644 24.903 6.42514 24.903 6.46383 24.8987L6.63365 24.8749C6.68309 24.8597 6.73468 24.8445 6.78412 24.8315C6.91954 24.7925 7.07646 24.7145 7.24628 24.6105L7.37741 24.5325C7.48919 24.4588 7.58592 24.3851 7.68265 24.3115C7.75574 24.2529 7.82452 24.1988 7.89546 24.1359C8.01154 24.0384 8.11472 23.9452 8.22005 23.8477L8.55109 23.5248C8.70156 23.3688 8.86278 23.1911 9.02185 23.0113L9.05624 22.9766C9.16372 22.8596 9.26905 22.7361 9.37653 22.6104C9.78925 22.1358 10.202 21.6114 10.5911 21.1173L11.0855 20.4802C11.5756 19.8431 12.0721 19.2082 12.5622 18.6058C12.6826 18.4541 12.8051 18.3067 12.9212 18.1594L13.048 18.0164C13.1211 17.9232 13.1985 17.8343 13.2759 17.752L13.3189 17.6978C13.4651 17.531 13.6048 17.3706 13.7467 17.2189L14.0519 16.896C14.1207 16.8267 14.1873 16.7595 14.2561 16.6945L14.3528 16.597C14.3528 16.597 14.3765 16.5775 14.3872 16.5667C14.4453 16.753 14.527 16.9242 14.6387 17.0846L14.6452 17.0824Z" fill="white"/>
<path d="M30.3716 13.7149C29.9245 14.2739 29.5763 14.8157 29.1378 15.507C28.5552 16.4279 27.8308 17.5678 26.5002 19.3642C26.4121 19.4769 26.339 19.5787 26.2616 19.6784C26.0617 19.9384 25.8639 20.192 25.6554 20.4325C25.6318 20.4672 25.5931 20.5105 25.5544 20.5495L25.4663 20.6514C24.4087 21.8172 23.4177 22.4825 22.431 22.7122C22.2698 22.7512 22.1064 22.775 21.9366 22.7902C21.8979 22.7945 21.8485 22.8054 21.7819 22.801C21.7195 22.8119 21.6658 22.8119 21.6163 22.8119C20.7672 22.8075 20.0966 22.3416 19.6258 21.4315C19.5957 21.373 19.557 21.3036 19.5291 21.23C19.4904 21.152 19.4366 21.0284 19.3872 20.9027C19.3378 20.7814 19.2905 20.6535 19.2475 20.5257C19.2045 20.413 19.155 20.2722 19.1207 20.1248C19.0863 20.0273 19.0519 19.8951 19.0132 19.7586C18.9938 19.7044 18.9745 19.6221 18.9508 19.5375C18.8971 19.3425 18.8434 19.1323 18.7896 18.9156C18.7595 18.8073 18.7316 18.6946 18.7015 18.5776L18.5467 18.0098C18.5317 17.9708 18.508 17.9015 18.493 17.8386L18.3468 17.4334C18.5016 17.2709 18.6284 17.091 18.7294 16.896C18.8455 16.6706 18.9293 16.4301 18.9616 16.1722C18.9852 16.2026 19.0003 16.2351 19.0196 16.2654C19.0691 16.3477 19.1164 16.4409 19.1615 16.5298L19.2045 16.6273C19.2346 16.6858 19.2625 16.7486 19.2926 16.8223L19.4538 17.2622C19.4646 17.2926 19.4839 17.3402 19.4968 17.3901L19.5979 17.7281L19.7591 18.3067C19.7892 18.4281 19.8128 18.5321 19.8408 18.6339C19.8988 18.8484 19.9483 19.0543 20.0063 19.2558C20.0256 19.3295 20.0407 19.388 20.0557 19.4422C20.0987 19.5896 20.1331 19.7066 20.1675 19.8236C20.2062 19.9601 20.2363 20.0576 20.275 20.1573C20.318 20.2895 20.3567 20.3978 20.4018 20.4954C20.4362 20.5885 20.4749 20.6817 20.5179 20.7641C20.5523 20.8421 20.5716 20.8767 20.5867 20.9114C20.9564 21.6157 21.3347 21.7089 21.6206 21.7089L21.7023 21.6937L21.8141 21.7045C21.956 21.6894 22.072 21.6699 22.1838 21.646C22.9512 21.464 23.7573 20.9071 24.6451 19.9319C24.6602 19.9124 24.6989 19.8691 24.7332 19.8236L24.8257 19.7217C25.0256 19.492 25.2148 19.2515 25.3996 19.0066C25.477 18.9091 25.5458 18.8159 25.6124 18.7228C26.9323 16.9458 27.6459 15.8255 28.2156 14.9197C28.6778 14.2003 29.0367 13.6325 29.5225 13.0258L29.8579 13.301L30.3716 13.7214V13.7149Z" fill="white"/>
<path d="M18.1103 15.7952C18.1103 15.8494 18.106 15.9035 18.0996 15.9577C18.0759 16.1722 18.0072 16.3738 17.9061 16.5558C17.6482 16.9957 17.1731 17.2904 16.6293 17.2904C16.2509 17.2904 15.9049 17.1474 15.649 16.9133C15.5136 16.7963 15.3975 16.649 15.3137 16.4821C15.2213 16.3066 15.1675 16.1094 15.1525 15.9035C15.1482 15.8689 15.1482 15.8298 15.1482 15.7952C15.1482 14.9739 15.8081 14.3021 16.6293 14.3021C17.2505 14.3021 17.7857 14.6943 18.0029 15.2426C18.0716 15.4138 18.1103 15.6001 18.1103 15.7952Z" fill="white"/>
<path d="M17.0141 28.7039C23.4902 28.7039 28.7401 23.4115 28.7401 16.883C28.7401 10.3545 23.4902 5.06213 17.0141 5.06213C10.538 5.06213 5.28802 10.3545 5.28802 16.883C5.28802 23.4115 10.538 28.7039 17.0141 28.7039Z" fill="url(#paint2_linear_10_462)"/>
<path d="M30.3224 12.6638C28.5017 6.96246 23.1879 2.82568 16.939 2.82568C9.18761 2.82568 2.885 9.18145 2.885 16.9956C2.885 18.467 3.10855 19.8929 3.52773 21.2386C4.06297 22.9613 4.92496 24.5454 6.0277 25.9149L2.29816 29.6746C2.885 30.4851 3.59436 31.1959 4.44345 31.7939L8.1601 28.0472C10.5676 29.9953 13.6158 31.1655 16.9412 31.1655C24.6862 31.1655 30.9974 24.8097 30.9974 16.9956C30.9974 15.4874 30.7609 14.029 30.3246 12.6638H30.3224ZM16.939 28.1404C13.5964 28.1404 10.5977 26.6387 8.57067 24.268C6.90044 22.3134 5.88368 19.7737 5.88368 16.9956C5.88368 10.8544 10.8406 5.84863 16.939 5.84863C23.0374 5.84863 27.5408 10.4123 27.9579 16.17C27.9772 16.4409 27.988 16.7161 27.988 16.9934C27.988 23.1412 23.031 28.1382 16.9369 28.1382L16.939 28.1404Z" fill="#000B18"/>
</g>
<defs>
<linearGradient id="paint0_linear_10_462" x1="4.11003" y1="32.0172" x2="29.6365" y2="2.61093" gradientUnits="userSpaceOnUse">
<stop stop-color="#0032FF"/>
<stop offset="1" stop-color="#00E3FF"/>
</linearGradient>
<linearGradient id="paint1_linear_10_462" x1="16.9714" y1="12.3237" x2="16.9714" y2="32.5091" gradientUnits="userSpaceOnUse">
<stop stop-color="#00FFFF"/>
<stop offset="1" stop-color="#00FFFF" stop-opacity="0"/>
</linearGradient>
<linearGradient id="paint2_linear_10_462" x1="1.85297" y1="-0.806063" x2="14.6766" y2="13.9182" gradientUnits="userSpaceOnUse">
<stop offset="0.47" stop-color="#00FFFF"/>
<stop offset="1" stop-color="#00FFFF" stop-opacity="0"/>
</linearGradient>
<clipPath id="clip0_10_462">
<rect width="152" height="34" fill="white"/>
</clipPath>
</defs>
</svg>
