<svg width="428" height="749" viewBox="0 0 428 749" fill="none" xmlns="http://www.w3.org/2000/svg">
<g clip-path="url(#clip0_38_7813)">
<rect width="428" height="749" fill="#000B18"/>
<g opacity="0.8" filter="url(#filter0_f_38_7813)">
<ellipse cx="368.5" cy="550" rx="248.5" ry="199" fill="#3130E7" fill-opacity="0.47"/>
</g>
<g opacity="0.2" clip-path="url(#clip1_38_7813)">
<path d="M1383.22 -290.849C1338.94 -288.908 1295.89 -267.085 1255.67 -238.517C1236.15 -224.637 1216.91 -209.389 1198.18 -192.936C1180.3 -177.235 1163.34 -159.257 1145.82 -142.621C1127.28 -125.048 1109.39 -105.855 1091.16 -87.5133C1074.14 -70.4092 1056.83 -54.1042 1039.7 -37.331C1001.3 0.225436 959.992 33.2578 917.524 57.2179C875.802 80.7462 832.737 90.2504 788.607 87.1539C743.609 84.0169 699.185 70.3275 655.758 51.4442C564.924 11.9688 478.329 -47.7078 389.819 -98.3087C306.967 -145.696 221.468 -188.033 132.562 -185.826C121.36 -185.535 110.165 -184.535 99.0157 -182.659" stroke="url(#paint0_radial_38_7813)" stroke-opacity="0.1" stroke-width="3.27711" stroke-miterlimit="10" stroke-linecap="round"/>
<path d="M1417.73 -164.498C1374.84 -169.687 1332.26 -148.613 1292.55 -125.254C1272.35 -113.39 1252.13 -100.786 1233.26 -84.0937C1215.52 -68.4055 1197.33 -53.7284 1179.21 -39.1146C1161.79 -25.0712 1143.85 -12.8295 1126.33 0.768304C1106.91 15.8601 1087.55 29.8968 1067.07 41.1321C1025.47 63.969 983.463 83.2053 939.123 83.9874C934.776 84.0696 930.464 83.61 926.129 83.5209C920.786 83.4315 915.305 85.0574 909.954 85.8203C898.742 87.3892 887.493 88.3937 876.247 88.9434C854.18 90.0638 832.078 89.5113 810.061 87.817C785.703 85.9225 761.413 82.3189 737.213 77.6857C714.028 73.2509 690.982 67.1014 667.889 61.1543C655.709 58.0352 643.539 54.6597 631.401 51.1682C625.671 49.5216 619.957 47.8168 614.225 46.1136C608.743 44.4745 603.313 44.4214 597.826 43.1519C573.79 37.5681 549.852 27.9736 526.09 19.9536C479.693 4.30137 433.02 -11.1301 386.027 -21.1963C361.88 -26.3734 337.742 -33.9919 313.508 -39.1332C291.108 -43.8897 268.867 -49.1987 246.355 -52.5262C199.659 -59.438 152.603 -61.692 105.776 -56.4137C94.7999 -55.177 83.8562 -53.517 72.9481 -51.2924" stroke="url(#paint1_radial_38_7813)" stroke-opacity="0.1" stroke-width="3.27711" stroke-miterlimit="10" stroke-linecap="round"/>
<path d="M1461.4 -45.5376C1443.51 -52.4906 1423.05 -49.234 1405.02 -45.8416C1381.95 -41.5134 1359.57 -32.0779 1337.1 -23.1736C1326.07 -18.8093 1315.01 -14.0448 1304.41 -7.50199C1296.74 -2.76873 1289.53 3.11871 1281.69 7.21418C1272.92 11.7847 1264.56 17.7982 1255.86 22.6191C1246.48 27.8093 1236.72 31.471 1227.32 36.776C1219.51 41.1814 1211.53 44.7212 1203.65 48.8196C1195.53 53.0521 1187.72 58.508 1179.46 62.2696C1157.7 72.1649 1135.1 79.1775 1112.77 84.8336C1090.47 90.4881 1067.86 92.8177 1045.28 91.3692C1036.46 90.8065 1027.09 86.5715 1018.46 88.7461C1006.96 91.6738 995.418 94.0937 983.852 96.2035C882.756 114.456 780.835 109.072 679.503 100.034C673.207 99.4851 666.818 98.2345 660.534 98.565C654.55 98.8703 648.838 99.409 642.843 98.8352C629.325 97.5038 615.822 96.0862 602.316 94.5552C576.564 91.6709 550.807 88.6165 525.06 85.3343C498.604 81.97 472.15 78.6905 445.67 75.6972C420.45 72.8532 395.288 71.7641 370.053 69.5459C343.24 67.1768 316.408 65.3487 289.566 64.2596C280.696 63.8995 271.877 61.889 262.982 61.3323C249.641 60.5255 236.291 59.9749 222.948 59.6791C172.57 58.5567 122.089 60.7923 71.9029 68.2838C60.3415 69.9957 48.7907 72.0186 37.2691 74.4084" stroke="url(#paint2_radial_38_7813)" stroke-opacity="0.1" stroke-width="3.27711" stroke-miterlimit="10" stroke-linecap="round"/>
<path d="M1508.95 69.834C1502.09 64.9045 1493.33 65.1316 1485.99 64.7272C1473.52 64.0742 1460.98 64.2785 1448.52 65.6116C1423.53 68.2839 1398.37 74.6626 1373.84 82.6336C1364.89 85.5441 1356.66 90.6092 1347.98 94.4631C1340.12 97.964 1332.13 100.794 1324.27 104.125C1314.34 108.31 1304.44 112.751 1294.54 117.162C1286.54 120.731 1278.33 123.239 1270.37 126.975C1261.46 131.161 1252.96 136.306 1243.78 139.379C1232.3 143.212 1220.55 145.424 1209.15 148.428C1184.61 154.923 1160.14 157.92 1135.28 157.288C1126.77 157.069 1118.65 155.481 1110.27 153.831C1105.52 152.897 1100.01 155.376 1095.2 156.406C1089.27 157.672 1083.33 158.882 1077.39 159.978C1051.46 164.859 1025.47 168.44 999.425 171.315C972.855 174.234 946.247 176.532 919.633 178.092C905.656 178.928 891.689 179.565 877.718 180.032C864.524 180.49 850.543 182.832 837.426 180.246C824.398 177.652 810.559 179.982 797.423 180.066C783.51 180.159 769.593 180.139 755.673 180.034C741.948 179.913 728.22 179.706 714.489 179.415C701.802 179.149 689.216 180.92 676.526 180.569C622.492 179.045 568.476 176.44 514.453 174.177C487.113 173.016 459.759 171.969 432.396 171.179C419.423 170.796 406.555 172.59 393.584 172.291C379.923 171.994 366.265 171.753 352.592 171.627C338.742 171.487 324.878 171.463 311.036 171.551C297.67 171.626 283.685 173.825 270.408 171.736C257.183 169.642 243.669 171.091 230.386 171.529C216.396 171.997 202.43 172.607 188.451 173.415C136.315 176.415 84.2036 181.797 32.3287 190.623C20.6874 192.597 9.05284 194.77 -2.57551 197.141" stroke="url(#paint3_radial_38_7813)" stroke-opacity="0.1" stroke-width="3.27711" stroke-miterlimit="10" stroke-linecap="round"/>
<path d="M1556.51 185.202C1548.92 181.498 1539.92 182.427 1532.12 182.459C1520.01 182.485 1507.86 182.997 1495.77 184.158C1468.04 186.806 1440.43 192.537 1413 199.248C1403.35 201.594 1393.26 203.635 1383.97 208.62C1375.28 213.269 1366.37 215.043 1357.44 218.265C1340.17 224.517 1323.59 233.918 1306.52 241.289C1298.96 244.566 1291.15 246.36 1283.85 251.005C1274.69 256.83 1265.34 260.797 1255.69 264.08C1243.47 268.261 1231.05 270.868 1218.88 274.987C1204.36 279.929 1189.77 284.252 1175.11 287.787C1154.18 292.842 1133.15 294.984 1112.01 296.423C1100.39 297.232 1088.72 299.974 1077.12 301.519C1063.51 303.318 1049.89 304.892 1036.27 306.295C980.577 312.007 924.779 314.974 868.981 316.295C809.915 317.693 750.84 315.061 691.719 314.789C676.845 314.707 662.055 315.554 647.169 315.104C632.017 314.62 616.864 314.081 601.709 313.512C572.461 312.398 543.227 311.17 513.991 309.885C483.977 308.581 453.947 307.333 423.923 306.285C395.245 305.293 366.622 305.973 337.939 305.38C223.508 302.981 109.14 303.046 -5.12668 315.423C-17.5317 316.752 -29.9143 318.221 -42.31 319.833" stroke="url(#paint4_radial_38_7813)" stroke-opacity="0.1" stroke-width="3.27711" stroke-miterlimit="10" stroke-linecap="round"/>
<path d="M1600.2 304.164C1578.36 302.17 1555.77 306.003 1534.04 308.883C1505.85 312.62 1477.82 318.331 1449.73 323.366C1436 325.828 1422.25 328.377 1408.58 331.601C1399.13 333.817 1390.04 337.79 1380.74 340.532C1360.5 346.467 1340.03 350.66 1319.74 356.372C1277.13 368.364 1235.14 384.62 1192.01 391.546C1163.56 396.099 1135.31 403.702 1106.8 408.062C1086.39 411.2 1065.89 411.933 1045.45 414.278C927.252 427.981 808.719 429.392 690.273 429.659C628.654 429.795 567.061 430.184 505.424 429.243C475.19 428.781 444.942 428.433 414.714 428.168C383.39 427.911 352.089 428.901 320.771 428.842C200.188 428.636 79.622 430.614 -40.8012 441.807C-53.2118 442.966 -65.6026 444.18 -78.0076 445.509" stroke="url(#paint5_radial_38_7813)" stroke-opacity="0.1" stroke-width="3.27711" stroke-miterlimit="10" stroke-linecap="round"/>
<path d="M1634.69 430.515C1580.76 434.574 1527.02 442.507 1473.28 450.61C1446.43 454.66 1419.5 457.723 1392.7 462.961C1373.97 466.611 1355.27 470.656 1336.46 474.114C1313.33 478.362 1290.17 482.271 1267.03 486.179C1247.97 489.374 1229 493.469 1209.95 496.578C1181.04 501.313 1152.04 505.629 1122.98 506.97C1092.05 508.383 1061.1 508.433 1030.17 509.25C1018.05 509.561 1005.89 509.905 993.779 509.307C990.679 509.142 987.544 508.469 984.447 508.389C978.908 508.231 973.112 509.968 967.568 510.776C938.09 515.075 908.572 518.668 879.044 521.978C818.579 528.746 757.942 537.288 697.352 539.695C631.235 542.339 565.11 544.729 498.98 546.409C434.809 548.01 370.568 548.51 306.438 551.895C244.356 555.165 182.242 556.394 120.169 559.975C57.7084 563.561 -4.7095 567.91 -67.104 573.534C-79.4097 574.656 -91.7152 575.806 -104.019 576.984" stroke="url(#paint6_radial_38_7813)" stroke-opacity="0.1" stroke-width="3.27711" stroke-miterlimit="10" stroke-linecap="round"/>
<path d="M1651.43 564.777C1598.42 569.241 1545.4 573.707 1492.39 578.172C1441.04 582.496 1389.67 586.823 1338.32 591.148C1292.95 594.969 1247.58 598.791 1202.19 602.613C1149.5 607.051 1096.83 611.488 1044.14 615.925C992.328 620.289 940.52 624.652 888.712 629.016C828.122 634.119 767.548 639.221 706.958 644.324C640.849 649.892 574.739 655.46 508.612 661.029C443.525 666.511 378.438 671.993 313.351 677.475C247.471 683.024 181.591 688.572 115.728 694.119C51.4697 699.532 -12.7708 704.942 -77.0289 710.354C-88.6673 711.334 -100.323 712.316 -111.962 713.296" stroke="url(#paint7_radial_38_7813)" stroke-opacity="0.1" stroke-width="3.27711" stroke-miterlimit="10" stroke-linecap="round"/>
<path d="M1643.53 701.115C1590.07 704.879 1536.61 706.855 1483.12 707.869C1451.67 708.474 1420.24 709.473 1388.8 709.822C1365.22 710.076 1341.71 708.678 1318.15 708.135C1295.82 707.632 1273.43 707.388 1251.08 707.397C1227.33 707.41 1203.6 706.996 1179.85 706.754C1159.1 706.542 1138.5 704.899 1117.78 704.402C1088.7 703.728 1059.64 704.927 1030.56 704.764C969.954 704.446 909.356 706.086 848.766 709.032C798.999 711.463 749.308 716.244 699.641 721.733C635.772 728.787 572.039 737.279 508.279 746.567C443.568 755.991 379.006 765.091 314.484 777.566C252.21 789.596 189.826 801.464 127.467 811.968C65.1775 822.438 2.93661 832.762 -59.4295 841.961C-71.3603 843.732 -83.3081 845.533 -95.2315 847.531" stroke="url(#paint8_radial_38_7813)" stroke-opacity="0.1" stroke-width="3.27711" stroke-miterlimit="10" stroke-linecap="round"/>
<path d="M1617.46 832.563C1564.72 834.819 1512.07 834.57 1459.33 832.028C1428.62 830.555 1397.93 828.711 1367.24 827.039C1342.29 825.676 1317.15 824.557 1292.33 819.976C1271.04 816.035 1249.61 814.404 1228.21 812.175C1215.18 810.83 1202.29 809.049 1189.22 809.412C1176.05 809.783 1162.74 806.448 1149.59 805.113C1103.53 800.419 1057.78 792.037 1011.64 789.053C952.027 785.188 892.167 779.611 832.504 780.094C809.116 780.276 785.723 780.827 762.333 781.491C736.612 782.238 710.743 786.603 685.134 790.236C626.346 798.565 568.106 812.242 509.789 825.784C449.315 839.849 388.639 852.624 328.736 872.261C270.041 891.513 211.131 909.079 152.094 925.464C136.849 929.7 121.697 934.667 106.356 938.656C90.8913 942.684 75.4039 946.543 59.9117 950.261C31.4018 957.119 2.81808 962.791 -25.8355 967.958C-37.4555 970.044 -49.0779 972.045 -60.7229 973.906" stroke="url(#paint9_radial_38_7813)" stroke-opacity="0.1" stroke-width="3.27711" stroke-miterlimit="10" stroke-linecap="round"/>
<path d="M256.848 1676.19C254.009 1606.62 240.133 1542.89 219.282 1482.19C198.842 1422.68 175.038 1365.78 150.541 1310.38C137.94 1281.89 126.785 1251.66 116.84 1220.59C112.192 1206.04 108.147 1191.05 103.482 1176.54C98.3647 1160.62 93.5054 1144.48 89.0263 1128.08C80.892 1098.3 71.6543 1069.39 63.8309 1039.39C55.5445 1007.66 47.8307 975.609 40.6544 943.225C33.0431 908.891 26.0096 873.317 21.7099 837.511C17.6827 804.096 14.1495 770.099 13.1925 735.942C11.25 666.212 24.4368 595.18 38.948 530.054C53.9838 462.584 73.4418 398.404 93.3293 334.387C102.417 305.119 111.405 275.518 119.495 245.511C127.996 213.993 135.381 181.887 142.674 149.648C171.958 20.3675 191.186 -115.247 192.319 -253.2C192.467 -270.87 192.367 -288.549 192.09 -306.212" stroke="url(#paint10_radial_38_7813)" stroke-opacity="0.1" stroke-width="3.27711" stroke-miterlimit="10" stroke-linecap="round"/>
<path d="M335.475 1620.79C334.024 1588.84 330.736 1556.95 324.123 1526.65C317.548 1496.45 307.173 1468.43 296.242 1441.81C290.153 1427.02 283.603 1412.73 276.986 1398.55C270.996 1385.68 266.282 1372.91 260.036 1360.35C246.731 1333.59 233.27 1306.93 220.628 1279.35C208.633 1253.19 198.451 1226.23 190.456 1196.38C186.528 1181.7 184.245 1166.5 181.222 1151.37C178.134 1135.87 174.479 1120.88 172.05 1104.99C167.215 1073.37 161.088 1042.24 156.776 1010.38C152.368 977.761 148.098 945.047 144.566 912.158C137.556 846.971 134.2 778.353 138.623 712.43C140.855 678.998 147.591 646.494 154.173 614.684C160.74 582.959 168.268 551.949 176.567 521.3C192.693 461.772 211.988 404.504 231.581 347.723C250.918 291.729 266.048 233.648 275.221 171.3C284.497 108.29 287.961 42.7601 286.047 -21.7772C285.577 -37.7775 285.694 -53.6841 285.401 -69.6709C285.081 -86.507 283.638 -103.078 282.613 -119.827C280.691 -151.063 277.59 -182.088 275.773 -213.361C274.793 -230.34 274.097 -247.343 273.876 -264.386" stroke="url(#paint11_radial_38_7813)" stroke-opacity="0.1" stroke-width="3.27711" stroke-miterlimit="10" stroke-linecap="round"/>
<path d="M409.539 1550.68C408.305 1520.53 405.615 1490.15 398.957 1461.72C392.729 1435.11 382.354 1410.89 371.512 1388.61C347.287 1338.84 318.799 1295.47 293.102 1247.7C280.921 1225.05 268.859 1200.12 262.433 1171.73C258.961 1156.41 256.4 1140.78 255.462 1124.54C254.505 1108.24 252.059 1092.35 251.4 1075.97C250.768 1060.41 251.219 1044.98 250.162 1029.43C249.139 1014.36 248.746 999.058 248.64 983.907C248.51 966.942 249.159 950.052 248.924 933.095C248.682 916.508 248.953 899.906 249.172 883.337C250.037 817.799 254.486 751.022 265.039 687.592C267.758 671.238 272.74 655.433 276.918 639.893C281.067 624.526 285.325 609.262 289.709 594.074C298.27 564.396 307.506 535.342 317.049 506.49C334.509 453.692 354.819 403.692 373.646 352.142C392.879 299.479 409.308 244.326 413.51 182.964C415.607 152.439 415.011 121.233 411.6 90.9741C410.85 84.2523 409.599 77.8856 408.466 71.338C407.291 64.6236 407.059 57.5456 406.27 50.7135C404.478 35.3641 400.101 22.1066 397.235 7.44382C394.433 -6.88373 391.019 -21.018 388.041 -35.3024C384.687 -51.372 379.938 -66.302 375.719 -81.7594C368.647 -107.707 360.848 -133.169 356.375 -160.727C353.918 -175.85 352.421 -191.395 352.104 -207.039" stroke="url(#paint12_radial_38_7813)" stroke-opacity="0.1" stroke-width="3.27711" stroke-miterlimit="10" stroke-linecap="round"/>
<path d="M481.276 1474.43C480.345 1445.95 478.335 1416.91 471.647 1390.28C465.062 1364.06 453.144 1341.36 441.113 1321.11C413.663 1274.9 380.978 1237.85 353.995 1190.82C340.964 1168.09 330.87 1143.82 327.18 1113.16C325.313 1097.7 325.646 1083.54 326.322 1067.95C326.961 1053.42 326.922 1039.26 328.912 1024.92C329.958 1017.42 331.383 1010.18 332.305 1002.66C333.31 994.459 333.711 986.193 334.52 977.92C336.003 962.721 338.163 947.635 340.81 932.848C346.207 902.67 350.045 871.857 355.368 841.571C360.828 810.593 366.657 779.556 372.996 748.987C379.366 718.273 386.183 686.613 396.281 658.537C416.383 602.706 437.29 547.688 458.743 493.163C479.004 441.662 502.627 393.994 522.683 342.17C541.826 292.722 556.368 235.031 553.353 175.782C552.631 161.79 550.427 147.384 547.399 134.268C544.331 121.013 540.98 107.185 536.188 95.2682C533.957 89.7499 531.363 85.0574 529.629 79.0714C527.835 72.8634 525.798 66.8184 523.385 61.1735C521.086 55.7461 518.48 50.685 515.639 45.9846C512.107 40.1784 509.003 34.4497 505.708 28.3113C500.041 17.7737 494.663 6.87107 488.962 -3.63531C482.357 -15.8257 474.915 -26.583 467.94 -38.1745C455.807 -58.3023 442.69 -77.1261 435.024 -102.854C431.25 -115.538 428.944 -129.284 428.432 -143.35" stroke="url(#paint13_radial_38_7813)" stroke-opacity="0.1" stroke-width="3.27711" stroke-miterlimit="10" stroke-linecap="round"/>
<path d="M553.018 1398.22C552.134 1368.99 550.392 1338.42 541.856 1312.03C540.163 1306.78 538.147 1301.9 535.889 1297.2C534.294 1293.85 531.747 1290.57 530.498 1286.95C529.911 1285.24 530.394 1284.86 529.868 1283.37C527.531 1276.81 522.456 1270.85 519.018 1265.75C514.985 1259.76 510.803 1254.06 506.553 1248.46C491.826 1229.06 476.111 1210.8 460.413 1193.61C444.164 1175.79 426.509 1156.58 413.454 1132.61C408.638 1123.76 403.832 1113.6 400.321 1103.03C395.848 1089.52 394.475 1075.61 394.017 1060.52C393.561 1044.94 396.717 1030.6 398.88 1015.63C400.961 1001.37 404.409 987.849 408.873 975.096C418.039 948.802 424.545 920.631 434.325 894.712C445.099 866.182 453.666 836.135 464.186 807.428C474.659 778.895 484.411 749.94 494.979 721.626C500.897 705.769 506.851 689.909 512.678 673.946C518.341 658.395 525.006 644.292 531.678 629.848C556.435 576.322 581.677 523.578 606.379 469.972C618.548 443.567 632.895 419.96 645.264 393.709C650.704 382.179 655.761 370.255 660.999 358.487C666.65 345.804 670.999 332.236 676.122 319.086C694.28 272.504 702.712 203.177 684.959 153.402C680.618 141.219 674.72 130.105 668.814 119.814C663.377 110.336 656.581 103.669 650.793 94.8448C637.58 74.6943 621.313 63.886 606 48.7385C598.545 41.3607 591.087 33.3585 582.903 26.4394C573.574 18.5382 564.131 10.9308 554.801 3.0012C539.778 -9.75771 523.718 -21.7767 513.293 -44.2912C508.517 -54.62 505.399 -66.7071 504.661 -79.5619" stroke="url(#paint14_radial_38_7813)" stroke-opacity="0.1" stroke-width="3.27711" stroke-miterlimit="10" stroke-linecap="round"/>
<path d="M627.078 1328.1C626.541 1302.48 625.69 1275.33 618.939 1251.65C611.967 1227.15 597.863 1208.94 584.378 1193.98C576.726 1185.49 568.8 1177.75 560.757 1170.25C553.936 1163.9 546.903 1156.49 539.759 1152.12C535.537 1149.55 531.419 1144.73 527.485 1141.23C522.769 1137.06 518.101 1132.77 513.498 1128.27C505.554 1120.54 497.732 1112.22 490.378 1103.08C477.53 1087.07 464.388 1065.29 462.753 1037.98C461.973 1024.93 463.183 1010.55 466.251 998.396C469.21 986.677 472.314 974.521 476.472 963.78C481.201 951.572 486.972 940.923 492.901 930.26C498.662 919.896 503.466 908.363 509.025 897.731C520.623 875.519 533.911 855.748 545.806 833.937C558.269 811.113 570.6 788.017 583.377 765.081C596.089 742.293 608.612 719.123 620.841 695.637C627.396 683.02 633.82 670.214 640.024 657.143C646.129 644.28 653.302 632.746 660.128 620.844C672.725 598.889 685.249 576.827 697.752 554.709C710.106 532.86 722.292 510.769 734.367 488.517C746.043 467.037 758.081 446.349 770.147 425.432C792.439 386.847 814.723 345.85 827.822 297.053C834.822 270.998 838.274 244.05 836.709 215.623C835.21 188.694 828.872 166.291 816.864 147.288C804.874 128.312 790.509 117.286 775.582 105.825C768.545 100.427 761.753 94.953 754.318 90.9234C746.181 86.4987 737.771 83.9988 729.577 80.0047C725.409 77.9712 721.2 76.3383 716.986 74.564C714.764 73.644 712.604 72.4915 710.396 71.4568C709.911 71.2421 706.748 70.2303 709.015 70.8911C682.212 59.0676 654.694 51.3935 628.066 38.4481C609.631 29.4968 585.587 12.8413 582.99 -22.2559" stroke="url(#paint15_radial_38_7813)" stroke-opacity="0.1" stroke-width="3.27711" stroke-miterlimit="10" stroke-linecap="round"/>
<path d="M172.998 1703.18C168.298 1559.33 120.178 1428.2 72.6994 1310.18C23.7573 1188.51 -31.489 1071.97 -71.0545 941.25C-90.301 877.689 -105.633 810.024 -110.608 739.47C-115.613 668.55 -108.871 597.266 -96.313 529.182C-70.6364 390.156 -23.9389 263.469 17.6682 135.763C61.0095 2.68711 112.196 -157.083 106.905 -319.023C206.96 -327.45 305.759 -246.572 389.337 -176.45C469.133 -109.501 548.246 -34.2334 635.076 7.16904C677.503 27.414 721.975 38.232 766.184 30.1934C810.48 22.1191 852.934 -2.80535 892.795 -34.0406C974.398 -97.9471 1047.17 -187.001 1123.23 -265.714C1196.28 -341.334 1277.5 -417.614 1366.46 -425.107C1371.74 -263.451 1432.84 -113.422 1484.85 12.1915C1534.55 132.236 1589.25 250.382 1623.84 384.303C1640.79 449.875 1652.12 519.665 1651.76 591.037C1651.41 662.039 1640.56 731.91 1625.58 798.353C1594.75 935.002 1547.42 1060.18 1506.66 1189.41C1467.13 1314.75 1427.82 1453.28 1432.52 1597.1C1343.56 1604.59 1257.81 1542.35 1180.24 1479.44C1099.46 1413.94 1021.29 1337.6 935.968 1287.75C894.272 1263.38 850.443 1245.73 805.864 1245.14C761.357 1244.57 717.853 1262.83 676.977 1290.06C593.322 1345.82 519.548 1433.94 444.554 1513.95C366.963 1596.74 273.494 1694.72 172.998 1703.18Z" stroke="url(#paint16_radial_38_7813)" stroke-opacity="0.1" stroke-width="3.27711" stroke-miterlimit="10" stroke-linecap="round"/>
</g>
</g>
<defs>
<filter id="filter0_f_38_7813" x="-429.148" y="-198.148" width="1595.3" height="1496.3" filterUnits="userSpaceOnUse" color-interpolation-filters="sRGB">
<feFlood flood-opacity="0" result="BackgroundImageFix"/>
<feBlend mode="normal" in="SourceGraphic" in2="BackgroundImageFix" result="shape"/>
<feGaussianBlur stdDeviation="274.574" result="effect1_foregroundBlur_38_7813"/>
</filter>
<radialGradient id="paint0_radial_38_7813" cx="0" cy="0" r="1" gradientUnits="userSpaceOnUse" gradientTransform="translate(746.494 -72.2757) rotate(88.1285) scale(165.326 643.528)">
<stop stop-color="white"/>
<stop offset="1" stop-color="white" stop-opacity="0"/>
</radialGradient>
<radialGradient id="paint1_radial_38_7813" cx="0" cy="0" r="1" gradientUnits="userSpaceOnUse" gradientTransform="translate(748.696 -5.17885) rotate(88.1285) scale(105.329 673.882)">
<stop stop-color="white"/>
<stop offset="1" stop-color="white" stop-opacity="0"/>
</radialGradient>
<radialGradient id="paint2_radial_38_7813" cx="0" cy="0" r="1" gradientUnits="userSpaceOnUse" gradientTransform="translate(750.936 63.4012) rotate(88.1285) scale(55.498 713.646)">
<stop stop-color="white"/>
<stop offset="1" stop-color="white" stop-opacity="0"/>
</radialGradient>
<radialGradient id="paint3_radial_38_7813" cx="0" cy="0" r="1" gradientUnits="userSpaceOnUse" gradientTransform="translate(753.999 158.289) rotate(88.1285) scale(34.1606 757.44)">
<stop stop-color="white"/>
<stop offset="1" stop-color="white" stop-opacity="0"/>
</radialGradient>
<radialGradient id="paint4_radial_38_7813" cx="0" cy="0" r="1" gradientUnits="userSpaceOnUse" gradientTransform="translate(758.262 288.126) rotate(88.1285) scale(41.7828 801.181)">
<stop stop-color="white"/>
<stop offset="1" stop-color="white" stop-opacity="0"/>
</radialGradient>
<radialGradient id="paint5_radial_38_7813" cx="0" cy="0" r="1" gradientUnits="userSpaceOnUse" gradientTransform="translate(762.105 405.757) rotate(88.1285) scale(33.2109 840.963)">
<stop stop-color="white"/>
<stop offset="1" stop-color="white" stop-opacity="0"/>
</radialGradient>
<radialGradient id="paint6_radial_38_7813" cx="0" cy="0" r="1" gradientUnits="userSpaceOnUse" gradientTransform="translate(765.876 520.335) rotate(88.1285) scale(17.0012 871.281)">
<stop stop-color="white"/>
<stop offset="1" stop-color="white" stop-opacity="0"/>
</radialGradient>
<radialGradient id="paint7_radial_38_7813" cx="0" cy="0" r="1" gradientUnits="userSpaceOnUse" gradientTransform="translate(769.752 639.536) rotate(88.1285) scale(0.5 883.652)">
<stop stop-color="white"/>
<stop offset="1" stop-color="white" stop-opacity="0"/>
</radialGradient>
<radialGradient id="paint8_radial_38_7813" cx="0" cy="0" r="1" gradientUnits="userSpaceOnUse" gradientTransform="translate(773.17 744.362) rotate(88.1285) scale(29.9916 871.307)">
<stop stop-color="white"/>
<stop offset="1" stop-color="white" stop-opacity="0"/>
</radialGradient>
<radialGradient id="paint9_radial_38_7813" cx="0" cy="0" r="1" gradientUnits="userSpaceOnUse" gradientTransform="translate(776.357 841.627) rotate(88.1285) scale(61.6404 840.954)">
<stop stop-color="white"/>
<stop offset="1" stop-color="white" stop-opacity="0"/>
</radialGradient>
<radialGradient id="paint10_radial_38_7813" cx="0" cy="0" r="1" gradientUnits="userSpaceOnUse" gradientTransform="translate(118.291 693.932) rotate(88.1285) scale(991.729 106.422)">
<stop stop-color="white"/>
<stop offset="1" stop-color="white" stop-opacity="0"/>
</radialGradient>
<radialGradient id="paint11_radial_38_7813" cx="0" cy="0" r="1" gradientUnits="userSpaceOnUse" gradientTransform="translate(221.623 685.198) rotate(88.1285) scale(943.093 88.4333)">
<stop stop-color="white"/>
<stop offset="1" stop-color="white" stop-opacity="0"/>
</radialGradient>
<radialGradient id="paint12_radial_38_7813" cx="0" cy="0" r="1" gradientUnits="userSpaceOnUse" gradientTransform="translate(335.252 675.661) rotate(88.1285) scale(879.33 96.9607)">
<stop stop-color="white"/>
<stop offset="1" stop-color="white" stop-opacity="0"/>
</radialGradient>
<radialGradient id="paint13_radial_38_7813" cx="0" cy="0" r="1" gradientUnits="userSpaceOnUse" gradientTransform="translate(440.662 666.737) rotate(88.1285) scale(809.323 128.715)">
<stop stop-color="white"/>
<stop offset="1" stop-color="white" stop-opacity="0"/>
</radialGradient>
<radialGradient id="paint14_radial_38_7813" cx="0" cy="0" r="1" gradientUnits="userSpaceOnUse" gradientTransform="translate(545.078 657.96) rotate(88.1285) scale(739.287 164.128)">
<stop stop-color="white"/>
<stop offset="1" stop-color="white" stop-opacity="0"/>
</radialGradient>
<radialGradient id="paint15_radial_38_7813" cx="0" cy="0" r="1" gradientUnits="userSpaceOnUse" gradientTransform="translate(650.467 649.097) rotate(88.1285) scale(675.538 200.36)">
<stop stop-color="white"/>
<stop offset="1" stop-color="white" stop-opacity="0"/>
</radialGradient>
<radialGradient id="paint16_radial_38_7813" cx="0" cy="0" r="1" gradientUnits="userSpaceOnUse" gradientTransform="translate(769.722 639.038) rotate(88.1285) scale(1011.64 883.61)">
<stop stop-color="white"/>
<stop offset="1" stop-color="white" stop-opacity="0"/>
</radialGradient>
<clipPath id="clip0_38_7813">
<rect width="428" height="749" fill="white"/>
</clipPath>
<clipPath id="clip1_38_7813">
<rect width="1769.64" height="2023.29" fill="white" transform="matrix(0.996472 -0.0839267 0.0326579 0.999467 -145 -297.806)"/>
</clipPath>
</defs>
</svg>
