<svg width="24" height="24" viewBox="0 0 24 24" fill="none" xmlns="http://www.w3.org/2000/svg">
<g id="Firefly / stroke / card-description">
<path id="Union" fill-rule="evenodd" clip-rule="evenodd" d="M5 3.25C2.92893 3.25 1.25 4.92893 1.25 7V8.5V17C1.25 19.0711 2.92893 20.75 5 20.75H19C21.0711 20.75 22.75 19.0711 22.75 17V8.5V7C22.75 4.92893 21.0711 3.25 19 3.25H5ZM2.75 7C2.75 5.75736 3.75736 4.75 5 4.75H19C20.2426 4.75 21.25 5.75736 21.25 7V7.75H2.75V7ZM2.75 9.25H21.25V17C21.25 18.2426 20.2426 19.25 19 19.25H5C3.75736 19.25 2.75 18.2426 2.75 17V9.25ZM8.15 15.2217C8.15 15.8006 8.32494 15.8999 8.34461 15.9107C8.41006 15.947 8.62967 15.9978 9.06552 15.8191C9.91471 15.471 10.9776 14.4792 11.5081 13.2106C11.6623 12.8419 11.8416 12.4922 12.0821 12.2599C12.2135 12.133 12.406 11.9992 12.6626 11.9585C12.931 11.9159 13.1637 11.9917 13.3348 12.094C13.6212 12.2652 13.8162 12.5616 13.9339 12.7511C14.0357 12.9149 14.1455 13.1141 14.253 13.309C14.2874 13.3713 14.3215 13.4333 14.3551 13.4934C14.9714 14.5989 15.6796 15.6195 17 15.6195C17.4142 15.6195 17.75 15.9553 17.75 16.3695C17.75 16.7838 17.4142 17.1195 17 17.1195C14.7204 17.1195 13.6286 15.2707 13.0449 14.2239C13.0007 14.1446 12.96 14.0709 12.922 14.0019L12.8538 13.8785C12.1726 15.4387 10.862 16.7038 9.63448 17.207C9.02033 17.4588 8.26495 17.5813 7.61789 17.2229C6.92506 16.8393 6.65 16.0776 6.65 15.2217C6.65 14.5981 6.51831 14.311 6.4258 14.1881C6.34675 14.0831 6.24749 14.0317 6.10131 14.0123C5.93672 13.9905 5.74355 14.0168 5.56768 14.0635C5.48453 14.0856 5.41561 14.1095 5.36936 14.1271C5.34646 14.1358 5.3298 14.1426 5.32046 14.1466L5.3127 14.15L5.31243 14.1501C4.93766 14.3219 4.49404 14.1589 4.31996 13.7846C4.14527 13.409 4.30813 12.9629 4.68371 12.7882L5 13.4683C4.68371 12.7882 4.68404 12.7881 4.68439 12.7879L4.68513 12.7876L4.68678 12.7868L4.69078 12.785L4.70149 12.7801C4.70982 12.7764 4.72053 12.7717 4.73345 12.7662C4.75927 12.7553 4.79416 12.741 4.83689 12.7248C4.92189 12.6925 5.04047 12.6516 5.18232 12.6139C5.45645 12.541 5.86328 12.4676 6.29869 12.5254C6.75251 12.5856 7.25325 12.7932 7.6242 13.286C7.98169 13.7609 8.15 14.4105 8.15 15.2217Z" fill="white" fill-opacity="0.4"/>
</g>
</svg>
