<svg width="70" height="70" viewBox="0 0 70 70" fill="none" xmlns="http://www.w3.org/2000/svg">
<circle cx="35" cy="35" r="35" fill="#040F23" fill-opacity="0.1"/>
<path fill-rule="evenodd" clip-rule="evenodd" d="M17.667 23.125C17.667 21.0539 19.3459 19.375 21.417 19.375H49.5837C51.6547 19.375 53.3337 21.0539 53.3337 23.125V41.0417C53.3337 43.1127 51.6547 44.7917 49.5837 44.7917H40.2474L41.2474 50.125H44.0423C44.4565 50.125 44.7923 50.4608 44.7923 50.875C44.7923 51.2892 44.4565 51.625 44.0423 51.625H40.6422C40.6301 51.6253 40.6181 51.6253 40.6062 51.625H30.3938C30.3819 51.6253 30.3699 51.6253 30.3578 51.625H26.959C26.5448 51.625 26.209 51.2892 26.209 50.875C26.209 50.4608 26.5448 50.125 26.959 50.125H29.7526L30.7526 44.7917H21.417C19.3459 44.7917 17.667 43.1127 17.667 41.0417V23.125ZM38.7213 44.7917L39.7213 50.125H31.2787L32.2787 44.7917H38.7213ZM21.417 20.875C20.1744 20.875 19.167 21.8824 19.167 23.125V36.4583H51.8337V23.125C51.8337 21.8824 50.8263 20.875 49.5837 20.875H21.417ZM51.8337 37.9583H19.167V41.0417C19.167 42.2843 20.1744 43.2917 21.417 43.2917H49.5837C50.8263 43.2917 51.8337 42.2843 51.8337 41.0417V37.9583ZM42.7544 33.0671C42.4653 33.2632 42.0791 33.2338 41.8231 32.9961L35.4733 27.1026L30.8551 30.9511C30.5571 31.1994 30.119 31.1796 29.8447 30.9053L24.7197 25.7803C24.4268 25.4874 24.4268 25.0125 24.7197 24.7196C25.0126 24.4267 25.4874 24.4267 25.7803 24.7196L30.421 29.3603L35.0199 25.5279C35.3097 25.2864 35.7337 25.2978 36.0102 25.5544L42.4061 31.4907L44.9658 29.7543C45.3086 29.5217 45.775 29.6111 46.0075 29.9539C46.24 30.2967 46.1507 30.7631 45.8079 30.9956L42.7544 33.0671Z" fill="#18191A"/>
</svg>
