<svg width="35" height="35" viewBox="0 0 35 35" fill="none" xmlns="http://www.w3.org/2000/svg">
<path d="M17.5 35C27.165 35 35 27.165 35 17.5C35 7.83502 27.165 0 17.5 0C7.83502 0 0 7.83502 0 17.5C0 27.165 7.83502 35 17.5 35Z" fill="url(#paint0_linear_113_1033)"/>
<path fill-rule="evenodd" clip-rule="evenodd" d="M7.92151 17.3153C13.0231 15.0926 16.425 13.6272 18.1271 12.9193C22.9871 10.8979 23.9969 10.5467 24.6551 10.5351C24.7999 10.5326 25.1236 10.5684 25.3332 10.7386C25.5103 10.8822 25.559 11.0763 25.5823 11.2125C25.6056 11.3487 25.6346 11.659 25.6116 11.9014C25.3482 14.6686 24.2086 21.3837 23.6289 24.483C23.3836 25.7944 22.9006 26.2341 22.4329 26.2772C21.4167 26.3707 20.645 25.6056 19.6607 24.9603C18.1205 23.9507 17.2503 23.3222 15.7553 22.337C14.0275 21.1984 15.1475 20.5726 16.1322 19.5499C16.3899 19.2822 20.8675 15.2095 20.9542 14.84C20.965 14.7938 20.9751 14.6216 20.8728 14.5306C20.7705 14.4397 20.6194 14.4708 20.5105 14.4955C20.356 14.5306 17.8954 16.1569 13.1289 19.3745C12.4304 19.854 11.7978 20.0877 11.231 20.0755C10.6062 20.062 9.40426 19.7222 8.51074 19.4317C7.4148 19.0755 6.54377 18.8871 6.61962 18.2821C6.65913 17.967 7.09309 17.6447 7.92151 17.3153Z" fill="white"/>
<defs>
<linearGradient id="paint0_linear_113_1033" x1="29.9918" y1="45.5" x2="9.72869" y2="44.3156" gradientUnits="userSpaceOnUse">
<stop stop-color="#224DFF"/>
<stop offset="0.177083" stop-color="#1844FB"/>
<stop offset="0.833333" stop-color="#244FFF"/>
<stop offset="1" stop-color="#0132FC"/>
<stop offset="1" stop-color="#0032FF"/>
</linearGradient>
</defs>
</svg>
