<svg width="42" height="42" viewBox="0 0 42 42" fill="none" xmlns="http://www.w3.org/2000/svg">
<circle cx="21" cy="21" r="21" fill="url(#paint0_linear_38_6652)"/>
<path fill-rule="evenodd" clip-rule="evenodd" d="M18.9962 11.5337C20.2481 10.6156 21.9426 10.9346 22.8151 12.0882L23.1041 11.8817C24.5551 10.8453 26.5936 11.4426 27.2558 13.0982L28.2615 15.6123C29.4851 16.2298 30.3243 17.498 30.3243 18.9623V20.7629C31.4676 21.0888 32.3048 22.1411 32.3048 23.389C32.3048 24.637 31.4676 25.6893 30.3243 26.0152V26.8256C30.3243 28.8967 28.6454 30.5756 26.5743 30.5756H14.75C12.6789 30.5756 11 28.8967 11 26.8256V18.9623C11 17.2114 12.1999 15.7407 13.8223 15.3279L18.9962 11.5337ZM18.4413 15.2123H16.5165L19.8832 12.7433C20.4398 12.3352 21.1888 12.4649 21.5925 12.9614L18.4413 15.2123ZM25.8631 13.6552C25.5621 12.9027 24.6355 12.6312 23.976 13.1023L21.022 15.2123H26.4859L25.8631 13.6552ZM27.5938 26.1195H28.8243V26.8256C28.8243 28.0682 27.8169 29.0756 26.5743 29.0756H14.75C13.5074 29.0756 12.5 28.0682 12.5 26.8256V18.9623C12.5 17.7196 13.5074 16.7123 14.75 16.7123H26.5743C27.8169 16.7123 28.8243 17.7196 28.8243 18.9623V20.6586H27.5938C26.0858 20.6586 24.8633 21.881 24.8633 23.389C24.8633 24.897 26.0858 26.1195 27.5938 26.1195ZM26.3633 23.389C26.3633 22.7095 26.9142 22.1586 27.5938 22.1586H29.5743C30.2539 22.1586 30.8048 22.7095 30.8048 23.389C30.8048 24.0686 30.2539 24.6195 29.5743 24.6195H27.5938C26.9142 24.6195 26.3633 24.0686 26.3633 23.389ZM18.1513 26.3951C18.2919 26.5357 18.4827 26.6147 18.6816 26.6147C18.8805 26.6147 19.0713 26.5357 19.212 26.3951L22.1827 23.4244C22.4756 23.1315 22.4756 22.6566 22.1827 22.3637C21.8898 22.0708 21.4149 22.0708 21.122 22.3637L19.4316 24.0541V19.9233C19.4316 19.5091 19.0958 19.1733 18.6816 19.1733C18.2674 19.1733 17.9316 19.5091 17.9316 19.9233V24.0541L16.2412 22.3637C15.9483 22.0708 15.4735 22.0708 15.1806 22.3637C14.8877 22.6566 14.8877 23.1315 15.1806 23.4244L18.1513 26.3951Z" fill="white"/>
<defs>
<linearGradient id="paint0_linear_38_6652" x1="42" y1="62" x2="4.71011" y2="62.5533" gradientUnits="userSpaceOnUse">
<stop stop-color="#224DFF"/>
<stop offset="0.177083" stop-color="#1844FB"/>
<stop offset="0.833333" stop-color="#244FFF"/>
<stop offset="1" stop-color="#0132FC"/>
<stop offset="1" stop-color="#0032FF"/>
</linearGradient>
</defs>
</svg>
