<svg width="22" height="20" viewBox="0 0 22 20" fill="none" xmlns="http://www.w3.org/2000/svg">
<path fill-rule="evenodd" clip-rule="evenodd" d="M8.24184 0.735333C9.45712 -0.155877 11.131 0.235115 11.8642 1.46291L12.3862 1.09005C13.7053 0.147843 15.5584 0.690818 16.1605 2.19591L17.2142 4.83036L17.2075 4.83304C18.4129 5.38587 19.25 6.6032 19.25 8.01605V10.0661C20.3911 10.2977 21.25 11.3066 21.25 12.5161C21.25 13.7255 20.3911 14.7344 19.25 14.966V16.0161C19.25 17.949 17.683 19.5161 15.75 19.5161H3.75C1.817 19.5161 0.25 17.949 0.25 16.0161V8.01605C0.25 6.35253 1.41055 4.96007 2.96617 4.60416L8.24184 0.735333ZM8.8332 1.54174L4.77732 4.51605H7.58977L11.0455 2.04764C10.6287 1.25676 9.58479 0.990574 8.8332 1.54174ZM15.232 2.5673C14.8708 1.66424 13.7589 1.33846 12.9674 1.90378L9.31023 4.51605H15.75C15.8393 4.51605 15.9278 4.51939 16.0154 4.52597L15.232 2.5673ZM16.75 15.0161H18.25V16.0161C18.25 17.3968 17.1307 18.5161 15.75 18.5161H3.75C2.36929 18.5161 1.25 17.3968 1.25 16.0161V8.01605C1.25 6.63534 2.36929 5.51605 3.75 5.51605H15.75C17.1307 5.51605 18.25 6.63534 18.25 8.01605V10.0161H16.75C15.3693 10.0161 14.25 11.1353 14.25 12.5161C14.25 13.8968 15.3693 15.0161 16.75 15.0161ZM15.25 12.5161C15.25 11.6876 15.9216 11.0161 16.75 11.0161H18.75C19.5784 11.0161 20.25 11.6876 20.25 12.5161C20.25 13.3445 19.5784 14.0161 18.75 14.0161H16.75C15.9216 14.0161 15.25 13.3445 15.25 12.5161ZM7.39645 15.3696C7.49022 15.4634 7.61739 15.5161 7.75 15.5161C7.88261 15.5161 8.00979 15.4634 8.10355 15.3696L11.1036 12.3696C11.2988 12.1743 11.2988 11.8578 11.1036 11.6625C10.9083 11.4672 10.5917 11.4672 10.3964 11.6625L8.25 13.8089V9.01605C8.25 8.73991 8.02614 8.51605 7.75 8.51605C7.47386 8.51605 7.25 8.73991 7.25 9.01605V13.8089L5.10355 11.6625C4.90829 11.4672 4.59171 11.4672 4.39645 11.6625C4.20118 11.8578 4.20118 12.1743 4.39645 12.3696L7.39645 15.3696Z" fill="white" fill-opacity="0.8"/>
</svg>
