<svg width="43" height="30" viewBox="0 0 43 30" fill="none" xmlns="http://www.w3.org/2000/svg">
<rect x="11" y="5" width="22" height="19" fill="white"/>
<path d="M17.2 21.4286L28.3585 15L17.2 8.57143V21.4286ZM42.054 4.65C42.3335 5.65714 42.527 7.00714 42.656 8.72143C42.8065 10.4357 42.871 11.9143 42.871 13.2L43 15C43 19.6929 42.656 23.1429 42.054 25.35C41.5165 27.2786 40.2695 28.5214 38.3345 29.0571C37.324 29.3357 35.475 29.5286 32.637 29.6571C29.842 29.8071 27.2835 29.8714 24.9185 29.8714L21.5 30C12.4915 30 6.88 29.6571 4.6655 29.0571C2.7305 28.5214 1.4835 27.2786 0.946 25.35C0.6665 24.3429 0.473 22.9929 0.344 21.2786C0.1935 19.5643 0.129 18.0857 0.129 16.8L0 15C0 10.3071 0.344 6.85714 0.946 4.65C1.4835 2.72143 2.7305 1.47857 4.6655 0.942857C5.676 0.664286 7.525 0.471428 10.363 0.342857C13.158 0.192857 15.7165 0.128571 18.0815 0.128571L21.5 0C30.5085 0 36.12 0.342857 38.3345 0.942857C40.2695 1.47857 41.5165 2.72143 42.054 4.65Z" fill="url(#paint0_linear_335_3405)"/>
<defs>
<linearGradient id="paint0_linear_335_3405" x1="36.847" y1="39" x2="12.0415" y2="36.9217" gradientUnits="userSpaceOnUse">
<stop stop-color="#224DFF"/>
<stop offset="0.177083" stop-color="#1844FB"/>
<stop offset="0.833333" stop-color="#244FFF"/>
<stop offset="1" stop-color="#0132FC"/>
<stop offset="1" stop-color="#0032FF"/>
</linearGradient>
</defs>
</svg>
